<?xml version="1.0" encoding="utf-8"?>
<!-- Generator: Adobe Illustrator 27.5.0, SVG Export Plug-In . SVG Version: 6.00 Build 0)  -->
<svg version="1.1" xmlns="http://www.w3.org/2000/svg" xmlns:xlink="http://www.w3.org/1999/xlink" x="0px" y="0px"
	 viewBox="0 0 500 500" style="enable-background:new 0 0 500 500;" xml:space="preserve">
<g id="BACKGROUND">
	<rect style="fill:#B3D1EE;" width="500" height="500"/>
</g>
<g id="OBJECTS">
	<g>
		<defs>
			<rect id="SVGID_1_" width="500" height="500"/>
		</defs>
		<clipPath id="SVGID_00000170990575774581291590000002021982732099614613_">
			<use xlink:href="#SVGID_1_"  style="overflow:visible;"/>
		</clipPath>
		<g style="clip-path:url(#SVGID_00000170990575774581291590000002021982732099614613_);">
			<path style="fill:#84ADDB;" d="M420.04,381.158c-4.589,0.65-7.959,3.76-10.491,7.47c-2.841,4.161-5.09,8.766-7.4,13.234
				c-4.891,9.461-9.404,19.127-13.442,28.983c-7.026,17.152-12.828,34.833-17.273,52.835c0.259-9.442-1.121-19.005-3.736-27.971
				c-2.035-6.979-4.929-13.692-8.55-19.994c-0.7-1.218-2.306-0.814-2.926,0.192c-6.928,11.245-6.855,25.66-6.352,38.43
				c0.517,13.1,2.573,26.123,6.113,38.746c0.995,3.546,2.105,7.06,3.33,10.533c0.314,0.889,0.632,1.781,0.961,2.669
				c-0.051,1.224-0.079,2.45-0.065,3.674c-0.191,0.446-0.378,0.897-0.574,1.351c-0.262,0.608,0.2,1.188,0.762,1.199
				c0.033,0.208,0.048,0.422,0.094,0.625c0.192,0.842,0.662,1.555,1.085,2.306c0.225,0.401,0.914,0.36,1.084-0.071
				c0.326-0.827,0.55-1.552,0.702-2.304c0.096,0.165,0.174,0.338,0.273,0.5c0.52,1.036,1.97,0.154,1.724-0.837
				c-0.012-0.047-0.029-0.093-0.041-0.141c1.455-0.202,2.976-0.824,4.083-1.401c4.04-2.105,8.067-4.235,12.1-6.353
				c4.016-2.109,8.035-4.212,12.049-6.327c3.98-2.096,7.962-4.25,11.531-7.008c6.979-5.393,11.959-12.776,15.946-20.552
				c4.059-7.915,7.444-16.221,10.51-24.566c1.698-4.621,3.184-9.325,4.572-14.047c1.089-3.704,1.933-7.933-0.711-11.225
				c-0.669-0.833-1.538-0.972-2.483-0.512c-12.065,5.865-19.449,18.028-27.113,28.487c-3.738,5.101-7.476,10.202-11.213,15.302
				c0.82-1.591,1.629-3.187,2.414-4.795c9.431-19.321,16.358-39.893,20.497-60.992c2.325-11.848,3.736-23.857,4.276-35.918
				C421.817,381.844,420.845,381.044,420.04,381.158z"/>
			<path style="fill:#7292C1;" d="M395.401,444.232c-2.565,0.363-4.448,2.101-5.863,4.174c-1.587,2.325-2.844,4.898-4.135,7.395
				c-2.733,5.287-5.255,10.689-7.511,16.196c-3.926,9.585-7.168,19.465-9.652,29.525c0.145-5.276-0.626-10.62-2.087-15.631
				c-1.137-3.9-2.754-7.651-4.778-11.173c-0.391-0.68-1.289-0.455-1.635,0.107c-3.871,6.284-3.831,14.339-3.549,21.475
				c0.289,7.32,1.438,14.598,3.416,21.652c0.556,1.982,1.177,3.945,1.861,5.886c0.175,0.497,0.353,0.995,0.537,1.491
				c-0.029,0.684-0.044,1.369-0.036,2.053c-0.107,0.249-0.211,0.501-0.321,0.755c-0.147,0.34,0.112,0.664,0.426,0.67
				c0.018,0.116,0.027,0.236,0.053,0.349c0.107,0.47,0.37,0.869,0.606,1.289c0.126,0.224,0.511,0.201,0.606-0.04
				c0.182-0.462,0.308-0.867,0.392-1.287c0.053,0.092,0.098,0.189,0.153,0.28c0.291,0.579,1.101,0.086,0.963-0.468
				c-0.007-0.026-0.016-0.052-0.023-0.079c0.813-0.113,1.663-0.46,2.282-0.783c2.258-1.176,4.508-2.367,6.762-3.55
				c2.244-1.178,4.49-2.354,6.733-3.535c2.224-1.172,4.449-2.375,6.444-3.916c3.9-3.014,6.683-7.139,8.911-11.485
				c2.268-4.423,4.16-9.065,5.873-13.728c0.949-2.582,1.779-5.211,2.555-7.85c0.608-2.07,1.08-4.433-0.397-6.273
				c-0.374-0.466-0.859-0.543-1.388-0.286c-6.742,3.277-10.868,10.074-15.151,15.919c-2.089,2.85-4.177,5.701-6.266,8.551
				c0.458-0.889,0.91-1.781,1.349-2.679c5.27-10.797,9.141-22.293,11.454-34.083c1.299-6.621,2.087-13.332,2.389-20.071
				C396.394,444.615,395.851,444.169,395.401,444.232z"/>
		</g>
		<g style="clip-path:url(#SVGID_00000170990575774581291590000002021982732099614613_);">
			<path style="fill:#84ADDB;" d="M453.335,425.373c-1.959,2.516-2.138,5.666-1.617,8.711c0.585,3.416,1.674,6.769,2.669,10.084
				c2.105,7.018,4.495,13.957,7.211,20.763c4.727,11.843,10.312,23.363,16.722,34.392c-4.387-4.794-9.642-8.864-15.223-12.048
				c-4.344-2.479-8.985-4.415-13.79-5.8c-0.928-0.268-1.53,0.7-1.355,1.494c1.951,8.874,8.88,15.97,15.235,22.045
				c6.52,6.232,13.764,11.69,21.551,16.24c2.188,1.278,4.417,2.485,6.684,3.617c0.58,0.29,1.164,0.579,1.752,0.86
				c0.56,0.63,1.133,1.249,1.725,1.848c0.119,0.312,0.242,0.625,0.362,0.943c0.161,0.426,0.667,0.492,0.95,0.229
				c0.116,0.088,0.225,0.186,0.346,0.264c0.497,0.324,1.071,0.452,1.639,0.622c0.303,0.09,0.624-0.259,0.502-0.554
				c-0.234-0.565-0.47-1.031-0.755-1.475c0.126,0.036,0.248,0.083,0.375,0.117c0.753,0.263,1.048-0.866,0.453-1.238
				c-0.029-0.018-0.059-0.032-0.088-0.05c0.623-0.795,1.078-1.83,1.35-2.645c0.992-2.973,1.964-5.952,2.947-8.928
				c0.978-2.963,1.96-5.926,2.934-8.891c0.966-2.94,1.906-5.91,2.352-8.981c0.873-6.005-0.194-12.037-1.941-17.79
				c-1.778-5.856-4.075-11.583-6.549-17.176c-1.37-3.097-2.884-6.135-4.456-9.134c-1.233-2.353-2.837-4.848-5.719-5.212
				c-0.73-0.092-1.226,0.255-1.473,0.934c-3.163,8.67-0.999,18.216,0.212,27.055c0.59,4.31,1.181,8.62,1.771,12.93
				c-0.355-1.179-0.718-2.355-1.099-3.526c-4.574-14.066-10.986-27.553-19.027-39.968c-4.516-6.971-9.561-13.586-15.06-19.809
				C454.541,424.862,453.678,424.932,453.335,425.373z"/>
			<path style="fill:#7292C1;" d="M470.064,459.796c-1.335,1.714-1.457,3.86-1.102,5.934c0.398,2.327,1.141,4.612,1.818,6.87
				c1.434,4.781,3.062,9.508,4.912,14.144c3.22,8.068,7.025,15.915,11.391,23.428c-2.988-3.266-6.568-6.038-10.37-8.208
				c-2.959-1.688-6.121-3.008-9.394-3.951c-0.632-0.182-1.042,0.477-0.923,1.018c1.329,6.045,6.049,10.879,10.379,15.018
				c4.441,4.246,9.377,7.964,14.681,11.063c1.49,0.871,3.009,1.693,4.553,2.464c0.395,0.198,0.793,0.394,1.193,0.586
				c0.382,0.429,0.772,0.851,1.175,1.259c0.081,0.213,0.165,0.426,0.247,0.642c0.11,0.29,0.454,0.335,0.647,0.156
				c0.079,0.06,0.154,0.126,0.236,0.18c0.339,0.221,0.73,0.308,1.117,0.424c0.207,0.062,0.425-0.177,0.342-0.377
				c-0.159-0.385-0.32-0.702-0.514-1.005c0.086,0.024,0.169,0.057,0.255,0.08c0.513,0.18,0.714-0.59,0.308-0.843
				c-0.019-0.012-0.04-0.022-0.06-0.034c0.424-0.542,0.734-1.247,0.92-1.802c0.676-2.025,1.338-4.055,2.007-6.082
				c0.666-2.019,1.335-4.037,1.999-6.057c0.658-2.003,1.298-4.026,1.602-6.118c0.595-4.091-0.132-8.2-1.322-12.119
				c-1.211-3.989-2.776-7.891-4.461-11.701c-0.933-2.11-1.965-4.179-3.035-6.222c-0.84-1.603-1.933-3.303-3.896-3.551
				c-0.497-0.063-0.835,0.174-1.004,0.636c-2.154,5.906-0.68,12.409,0.145,18.43c0.402,2.936,0.804,5.872,1.207,8.809
				c-0.242-0.803-0.489-1.604-0.749-2.402c-3.116-9.582-7.484-18.77-12.962-27.227c-3.076-4.749-6.513-9.255-10.26-13.495
				C470.886,459.448,470.298,459.496,470.064,459.796z"/>
		</g>
		<g style="clip-path:url(#SVGID_00000170990575774581291590000002021982732099614613_);">
			<path style="fill:#84ADDB;" d="M249.912,429.632c-2.78,1.563-4.162,4.399-4.859,7.409c-0.781,3.377-1.073,6.891-1.437,10.332
				c-0.772,7.286-1.25,14.61-1.376,21.936c-0.219,12.75,0.479,25.533,2.127,38.182c-2.192-6.117-5.466-11.902-9.382-16.996
				c-3.048-3.965-6.58-7.546-10.475-10.68c-0.753-0.606-1.681,0.055-1.827,0.854c-1.631,8.939,2.016,18.161,5.529,26.221
				c3.604,8.268,8.175,16.102,13.598,23.309c1.523,2.025,3.113,4,4.766,5.92c0.423,0.492,0.85,0.984,1.283,1.471
				c0.273,0.798,0.562,1.59,0.876,2.371c-0.011,0.334-0.018,0.67-0.031,1.01c-0.016,0.455,0.425,0.711,0.788,0.578
				c0.073,0.125,0.136,0.258,0.217,0.377c0.333,0.492,0.813,0.831,1.271,1.207c0.245,0.201,0.676,0.002,0.677-0.316
				c0.003-0.611-0.035-1.132-0.126-1.652c0.102,0.082,0.196,0.173,0.3,0.253c0.592,0.534,1.301-0.394,0.896-0.967
				c-0.019-0.027-0.042-0.053-0.062-0.08c0.882-0.493,1.702-1.271,2.268-1.918c2.064-2.358,4.113-4.73,6.169-7.095
				c2.048-2.355,4.099-4.708,6.143-7.065c2.027-2.338,4.042-4.714,5.641-7.373c3.126-5.2,4.474-11.177,5.087-17.157
				c0.624-6.087,0.72-12.258,0.6-18.372c-0.066-3.386-0.289-6.773-0.579-10.146c-0.227-2.646-0.742-5.568-3.26-7.018
				c-0.637-0.367-1.229-0.239-1.72,0.292c-6.268,6.773-7.963,16.414-10.263,25.033c-1.122,4.203-2.243,8.407-3.365,12.61
				c0.128-1.224,0.248-2.45,0.35-3.677c1.219-14.741,0.52-29.658-2.098-44.216c-1.47-8.175-3.565-16.226-6.232-24.091
				C251.222,429.627,250.399,429.358,249.912,429.632z"/>
			<path style="fill:#7292C1;" d="M252.033,467.846c-1.893,1.065-2.835,2.996-3.31,5.047c-0.532,2.301-0.731,4.694-0.979,7.038
				c-0.526,4.963-0.852,9.953-0.937,14.943c-0.149,8.685,0.326,17.394,1.449,26.011c-1.493-4.167-3.723-8.108-6.391-11.578
				c-2.076-2.701-4.482-5.14-7.136-7.276c-0.513-0.413-1.145,0.037-1.245,0.582c-1.111,6.089,1.373,12.372,3.766,17.862
				c2.455,5.633,5.569,10.969,9.263,15.879c1.038,1.379,2.121,2.724,3.247,4.033c0.288,0.335,0.579,0.67,0.874,1.002
				c0.186,0.543,0.383,1.083,0.597,1.615c-0.008,0.227-0.013,0.456-0.021,0.688c-0.011,0.31,0.29,0.484,0.537,0.394
				c0.05,0.085,0.093,0.176,0.148,0.257c0.227,0.335,0.554,0.566,0.866,0.823c0.167,0.137,0.46,0.001,0.461-0.216
				c0.002-0.417-0.024-0.771-0.085-1.126c0.07,0.056,0.134,0.118,0.204,0.172c0.403,0.364,0.887-0.268,0.61-0.659
				c-0.013-0.019-0.029-0.036-0.042-0.055c0.601-0.336,1.159-0.866,1.545-1.307c1.406-1.607,2.802-3.222,4.202-4.833
				c1.395-1.604,2.792-3.207,4.185-4.813c1.381-1.593,2.753-3.211,3.843-5.023c2.13-3.543,3.048-7.614,3.466-11.688
				c0.425-4.147,0.49-8.35,0.409-12.516c-0.045-2.307-0.197-4.614-0.394-6.912c-0.155-1.803-0.506-3.793-2.221-4.781
				c-0.434-0.25-0.837-0.163-1.171,0.199c-4.27,4.614-5.425,11.182-6.992,17.053c-0.764,2.863-1.528,5.727-2.292,8.59
				c0.087-0.834,0.169-1.669,0.238-2.505c0.83-10.042,0.354-20.204-1.429-30.121c-1.001-5.569-2.429-11.053-4.245-16.412
				C252.926,467.843,252.365,467.659,252.033,467.846z"/>
		</g>
		<g style="clip-path:url(#SVGID_00000170990575774581291590000002021982732099614613_);">
			<path style="fill:#84ADDB;" d="M82.182,381.158c4.59,0.65,7.959,3.76,10.491,7.47c2.841,4.161,5.09,8.766,7.4,13.234
				c4.891,9.461,9.404,19.127,13.442,28.983c7.026,17.152,12.828,34.833,17.273,52.835c-0.26-9.442,1.121-19.005,3.736-27.971
				c2.035-6.979,4.929-13.692,8.55-19.994c0.7-1.218,2.306-0.814,2.925,0.192c6.928,11.245,6.855,25.66,6.352,38.43
				c-0.517,13.1-2.573,26.123-6.114,38.746c-0.995,3.546-2.105,7.06-3.33,10.533c-0.314,0.889-0.632,1.781-0.961,2.669
				c0.051,1.224,0.078,2.45,0.065,3.674c0.191,0.446,0.378,0.897,0.574,1.351c0.262,0.608-0.2,1.188-0.762,1.199
				c-0.032,0.208-0.048,0.422-0.094,0.625c-0.192,0.842-0.662,1.555-1.085,2.306c-0.226,0.401-0.914,0.36-1.084-0.071
				c-0.326-0.827-0.55-1.552-0.702-2.304c-0.095,0.165-0.174,0.338-0.273,0.5c-0.52,1.036-1.97,0.154-1.724-0.837
				c0.012-0.047,0.029-0.093,0.041-0.141c-1.455-0.202-2.976-0.824-4.083-1.401c-4.04-2.105-8.067-4.235-12.1-6.353
				c-4.016-2.109-8.035-4.212-12.049-6.327c-3.98-2.096-7.962-4.25-11.531-7.008c-6.979-5.393-11.959-12.776-15.946-20.552
				c-4.058-7.915-7.444-16.221-10.51-24.566c-1.698-4.621-3.184-9.325-4.572-14.047c-1.089-3.704-1.933-7.933,0.711-11.225
				c0.669-0.833,1.538-0.972,2.483-0.512c12.065,5.865,19.449,18.028,27.113,28.487c3.738,5.101,7.476,10.202,11.213,15.302
				c-0.82-1.591-1.629-3.187-2.414-4.795c-9.431-19.321-16.358-39.893-20.497-60.992c-2.325-11.848-3.735-23.857-4.276-35.918
				C80.405,381.844,81.377,381.044,82.182,381.158z"/>
			<path style="fill:#7292C1;" d="M106.821,444.232c2.565,0.363,4.448,2.101,5.863,4.174c1.587,2.325,2.844,4.898,4.135,7.395
				c2.733,5.287,5.255,10.689,7.511,16.196c3.926,9.585,7.168,19.465,9.652,29.525c-0.145-5.276,0.626-10.62,2.087-15.631
				c1.137-3.9,2.754-7.651,4.778-11.173c0.391-0.68,1.289-0.455,1.635,0.107c3.871,6.284,3.831,14.339,3.549,21.475
				c-0.289,7.32-1.438,14.598-3.416,21.652c-0.556,1.982-1.176,3.945-1.861,5.886c-0.175,0.497-0.353,0.995-0.537,1.491
				c0.028,0.684,0.044,1.369,0.036,2.053c0.107,0.249,0.211,0.501,0.321,0.755c0.147,0.34-0.112,0.664-0.426,0.67
				c-0.018,0.116-0.027,0.236-0.053,0.349c-0.107,0.47-0.37,0.869-0.606,1.289c-0.126,0.224-0.511,0.201-0.606-0.04
				c-0.182-0.462-0.308-0.867-0.392-1.287c-0.053,0.092-0.098,0.189-0.153,0.28c-0.291,0.579-1.101,0.086-0.963-0.468
				c0.007-0.026,0.016-0.052,0.023-0.079c-0.813-0.113-1.663-0.46-2.282-0.783c-2.258-1.176-4.508-2.367-6.762-3.55
				c-2.244-1.178-4.49-2.354-6.733-3.535c-2.224-1.172-4.449-2.375-6.444-3.916c-3.9-3.014-6.682-7.139-8.911-11.485
				c-2.268-4.423-4.16-9.065-5.873-13.728c-0.949-2.582-1.779-5.211-2.555-7.85c-0.608-2.07-1.08-4.433,0.397-6.273
				c0.374-0.466,0.86-0.543,1.388-0.286c6.742,3.277,10.868,10.074,15.151,15.919c2.089,2.85,4.177,5.701,6.266,8.551
				c-0.458-0.889-0.91-1.781-1.349-2.679c-5.27-10.797-9.141-22.293-11.454-34.083c-1.299-6.621-2.087-13.332-2.389-20.071
				C105.828,444.615,106.372,444.169,106.821,444.232z"/>
		</g>
		<g style="clip-path:url(#SVGID_00000170990575774581291590000002021982732099614613_);">
			<path style="fill:#84ADDB;" d="M48.888,425.373c1.959,2.516,2.139,5.666,1.617,8.711c-0.585,3.416-1.674,6.769-2.668,10.084
				c-2.105,7.018-4.495,13.957-7.211,20.763c-4.727,11.843-10.312,23.363-16.722,34.392c4.387-4.794,9.642-8.864,15.223-12.048
				c4.344-2.479,8.985-4.415,13.79-5.8c0.929-0.268,1.53,0.7,1.355,1.494c-1.951,8.874-8.88,15.97-15.235,22.045
				c-6.52,6.232-13.764,11.69-21.551,16.24c-2.188,1.278-4.417,2.485-6.684,3.617c-0.58,0.29-1.164,0.579-1.752,0.86
				c-0.56,0.63-1.133,1.249-1.725,1.848c-0.119,0.312-0.242,0.625-0.362,0.943c-0.161,0.426-0.667,0.492-0.95,0.229
				c-0.116,0.088-0.226,0.186-0.346,0.264c-0.497,0.324-1.071,0.452-1.639,0.622c-0.303,0.09-0.624-0.259-0.502-0.554
				c0.234-0.565,0.47-1.031,0.754-1.475c-0.126,0.036-0.248,0.083-0.374,0.117c-0.753,0.263-1.048-0.866-0.452-1.238
				c0.029-0.018,0.059-0.032,0.088-0.05c-0.623-0.795-1.078-1.83-1.35-2.645c-0.992-2.973-1.964-5.952-2.947-8.928
				c-0.978-2.963-1.96-5.926-2.934-8.891c-0.966-2.94-1.906-5.91-2.352-8.981c-0.873-6.005,0.194-12.037,1.941-17.79
				c1.778-5.856,4.075-11.583,6.549-17.176c1.37-3.097,2.884-6.135,4.456-9.134c1.233-2.353,2.837-4.848,5.719-5.212
				c0.73-0.092,1.225,0.255,1.473,0.934c3.163,8.67,0.999,18.216-0.212,27.055c-0.59,4.31-1.181,8.62-1.771,12.93
				c0.355-1.179,0.718-2.355,1.099-3.526c4.574-14.066,10.986-27.553,19.027-39.968c4.516-6.971,9.561-13.586,15.061-19.809
				C47.681,424.862,48.544,424.932,48.888,425.373z"/>
			<path style="fill:#7292C1;" d="M32.158,459.796c1.335,1.714,1.457,3.86,1.102,5.934c-0.398,2.327-1.141,4.612-1.818,6.87
				c-1.434,4.781-3.062,9.508-4.912,14.144c-3.22,8.068-7.025,15.915-11.391,23.428c2.988-3.266,6.568-6.038,10.37-8.208
				c2.959-1.688,6.121-3.008,9.394-3.951c0.632-0.182,1.042,0.477,0.923,1.018c-1.329,6.045-6.049,10.879-10.379,15.018
				c-4.441,4.246-9.377,7.964-14.681,11.063c-1.49,0.871-3.009,1.693-4.553,2.464c-0.395,0.198-0.793,0.394-1.193,0.586
				c-0.382,0.429-0.772,0.851-1.175,1.259c-0.081,0.213-0.165,0.426-0.247,0.642c-0.11,0.29-0.454,0.335-0.647,0.156
				c-0.079,0.06-0.154,0.126-0.236,0.18c-0.339,0.221-0.73,0.308-1.117,0.424c-0.207,0.062-0.425-0.177-0.342-0.377
				c0.159-0.385,0.32-0.702,0.514-1.005c-0.086,0.024-0.169,0.057-0.255,0.08c-0.513,0.18-0.714-0.59-0.308-0.843
				c0.019-0.012,0.04-0.022,0.06-0.034c-0.424-0.542-0.734-1.247-0.92-1.802c-0.676-2.025-1.338-4.055-2.007-6.082
				c-0.666-2.019-1.335-4.037-1.999-6.057c-0.658-2.003-1.298-4.026-1.602-6.118c-0.595-4.091,0.132-8.2,1.322-12.119
				c1.211-3.989,2.776-7.891,4.461-11.701c0.933-2.11,1.965-4.179,3.036-6.222c0.84-1.603,1.933-3.303,3.896-3.551
				c0.497-0.063,0.835,0.174,1.003,0.636c2.155,5.906,0.68,12.409-0.144,18.43c-0.402,2.936-0.804,5.872-1.207,8.809
				c0.242-0.803,0.489-1.604,0.749-2.402c3.116-9.582,7.484-18.77,12.962-27.227c3.076-4.749,6.513-9.255,10.26-13.495
				C31.336,459.448,31.924,459.496,32.158,459.796z"/>
		</g>
	</g>
	
		<ellipse transform="matrix(0.7071 -0.7071 0.7071 0.7071 -55.354 230.3577)" style="fill:#C0D7EF;" cx="250.389" cy="181.997" rx="147.958" ry="147.958"/>
	<path style="fill:#CFE6F9;" d="M178.415,92.662c-1.324-2.161-3.473-2.95-5.742-2.936c-0.733-3.883-3.132-7.484-6.733-9.193
		c-3.103-1.473-6.473-1.602-9.513-0.635c-1.241-9.086-6.195-17.664-14.298-22.304c-9.827-5.626-22.96-4.753-30.699,3.999
		c-2.315,2.618-4.092,5.762-5.043,9.124c-2.963-1.329-6.382-1.621-9.45-0.442c-2.983,1.147-5.509,3.387-6.896,6.291
		c-0.66,1.382-1.062,2.76-1.271,4.241c-0.614-0.155-1.231-0.299-1.862-0.396c-2.025-0.311-4.068-0.489-6.118-0.388
		c-3.78,0.187-7.607,1.143-10.684,3.429c-15.65,11.625,3.188,19.083,14.327,18.937c21.334-0.279,42.7,0.072,64.038,0.072
		c2.596,0.002,5.191-0.003,7.787-0.008c0.489,0.097,0.979,0.191,1.462,0.25c2.647,0.324,5.322,0.247,7.985,0.27
		c2.338,0.021,4.704,0.19,7.01-0.298c2.121-0.449,4.316-1.518,5.54-3.374C179.57,97.306,179.684,94.733,178.415,92.662z"/>
	<path style="fill:#CFE6F9;" d="M378.823,330.445c-1.324-2.161-3.473-2.95-5.742-2.936c-0.733-3.883-3.132-7.484-6.733-9.194
		c-3.103-1.473-6.473-1.602-9.513-0.635c-1.241-9.086-6.195-17.664-14.298-22.303c-9.827-5.626-22.96-4.753-30.699,3.998
		c-2.315,2.618-4.092,5.762-5.043,9.125c-2.963-1.33-6.382-1.621-9.45-0.442c-2.983,1.147-5.509,3.387-6.896,6.291
		c-0.66,1.382-1.062,2.76-1.271,4.241c-0.613-0.155-1.231-0.299-1.862-0.396c-2.025-0.311-4.068-0.489-6.118-0.388
		c-3.78,0.187-7.607,1.143-10.684,3.429c-15.649,11.625,3.188,19.082,14.327,18.937c21.334-0.279,42.7,0.072,64.038,0.072
		c2.596,0.002,5.191-0.003,7.787-0.008c0.489,0.097,0.978,0.191,1.462,0.251c2.647,0.324,5.322,0.246,7.986,0.27
		c2.338,0.021,4.704,0.19,7.01-0.298c2.121-0.449,4.316-1.518,5.54-3.374C379.978,335.089,380.091,332.516,378.823,330.445z"/>
	<path style="fill:#CFE6F9;" d="M443.848,146.773c-0.255-1.654-1.034-3.719-2.465-6.291c-1.278-2.299-3.297-4.408-5.696-5.536
		c-3.191-1.5-6.676-1.536-9.661-0.236c-1.67-2.89-4.361-5.135-7.795-5.889c-3.258-0.715-6.608-0.074-9.351,1.608
		c-3.29-7.988-8.292-15.354-16.658-18.62c-4.727-1.846-10.073-1.959-14.746,0.086c-4.71,2.062-8.288,6.516-11.557,10.341
		c-1.945,2.275-3.811,4.664-5.247,7.299c-0.689,1.266-1.283,2.597-1.774,3.953c-4.46-1.571-9.97-0.231-12.653,3.883
		C333.705,156.599,379.4,152.4,387.1,152.412c11.551,0.018,23.102,0.036,34.653,0.054
		C430.687,152.48,445.26,155.913,443.848,146.773z"/>
	<path style="fill:#CFE6F9;" d="M214.536,318.261c-0.219-1.422-0.889-3.197-2.119-5.408c-1.099-1.976-2.834-3.789-4.897-4.759
		c-2.743-1.289-5.739-1.32-8.305-0.203c-1.435-2.485-3.749-4.414-6.702-5.062c-2.801-0.615-5.681-0.063-8.039,1.382
		c-2.829-6.867-7.129-13.199-14.321-16.008c-4.063-1.587-8.66-1.684-12.676,0.074c-4.049,1.772-7.125,5.602-9.935,8.89
		c-1.672,1.956-3.276,4.009-4.511,6.275c-0.593,1.088-1.103,2.233-1.525,3.398c-3.835-1.35-8.571-0.198-10.877,3.338
		c-10.781,16.53,28.502,12.92,35.121,12.93c9.93,0.016,19.86,0.031,29.79,0.046C203.222,323.167,215.75,326.118,214.536,318.261z"/>
	<g>
		<g>
			
				<ellipse transform="matrix(0.7071 -0.7071 0.7071 0.7071 -222.1781 299.5079)" style="fill:#000A1C;" cx="250.449" cy="417.947" rx="17.65" ry="17.65"/>
			<ellipse style="fill:#324868;" cx="250.449" cy="380.872" rx="57.382" ry="39.921"/>
			<ellipse style="fill:#324868;" cx="250.449" cy="352.448" rx="66.866" ry="39.921"/>
			<path style="fill:#FFFFFF;" d="M367.793,190.158c0-66.578-53.972-120.55-120.55-120.55c-66.578,0-120.55,53.972-120.55,120.55
				c0,23.471,6.715,45.37,18.317,63.895c21.14,35.018,33.327,72.163,37.7,83.157c4.482,11.265,14.341,24.443,64.532,24.443
				c50.192,0,60.051-13.178,64.532-24.443c4.373-10.994,16.561-48.139,37.7-83.157C361.078,235.528,367.793,213.629,367.793,190.158
				z"/>
			<path style="fill:#324868;" d="M296.181,222.476c-0.096-0.134-0.2-0.265-0.306-0.393c-5.703-6.84-16.052-8.193-23.288-2.841
				c-6.389,5.114-14.021,7.708-22.682,7.708c-9.254,0-18.536-3.723-25.358-10.105c-6.457-6.316-10.16-15.15-10.16-24.235
				c0-9.058,3.551-17.478,10.05-24.132c6.933-6.488,16.214-10.211,25.468-10.211c8.799,0,16.411,2.576,22.741,7.756
				c6.978,5.459,17.654,4.095,23.533-3.282c5.201-7.215,3.933-17.32-3.072-23.154c-12.292-9.557-27.232-14.61-43.236-14.61
				c-37.736,0.189-68.584,30.514-68.773,67.599c0,0.024,0,0.045,0,0.069c0.189,37.274,31.054,67.595,68.808,67.595
				c15.97,0,30.91-5.052,43.25-14.647C300.063,240.12,301.42,229.753,296.181,222.476z"/>
			<path style="fill:#4D6FA4;" d="M283.116,386.9c-0.04-0.149-0.101-0.289-0.186-0.412c-0.892-1.296-2.2-0.207-3.32,0.103
				c-1.144,0.317-2.338,0.521-3.499,0.772c-2.102,0.455-4.207,0.895-6.319,1.304c-4.375,0.848-8.777,1.571-13.212,2.021
				c-8.166,0.828-16.535,0.816-24.598-0.855c-4.496-0.932-8.871-2.098-13.139-3.828c-0.971-0.393-1.551,1.144-0.697,1.654
				c15.669,9.357,35.157,7.716,52.356,4.479c2.662-0.501,5.314-1.051,7.962-1.625c1.307-0.284,3.18-0.425,4.143-1.481
				C283.03,388.569,283.31,387.618,283.116,386.9z"/>
			<path style="fill:#B3D1EE;" d="M322.652,115.833c-0.423-0.151-0.891-0.046-1.329-0.018c-0.105,0.007-0.21,0.016-0.315,0.023
				c-0.03-0.156-0.055-0.313-0.089-0.468c-0.086-0.393-0.178-0.798-0.24-1.182c-0.034-0.212-0.278-0.364-0.478-0.364
				c-0.235,0-0.395,0.159-0.478,0.364c-0.157,0.386-0.307,0.771-0.42,1.182c-0.058,0.212-0.101,0.433-0.133,0.655
				c-0.12,0.018-0.241,0.037-0.361,0.054c-0.279,0.039-0.72,0.082-0.91,0.338c-0.056,0.029-0.111,0.058-0.174,0.073
				c-0.214,0.051-0.172,0.326,0,0.394c0.057,0.022,0.092,0.071,0.141,0.105c0.004,0.003,0.009,0.004,0.014,0.007
				c0.174,0.264,0.596,0.356,0.88,0.415c0.116,0.024,0.237,0.044,0.355,0.066c0.012,0.226,0.033,0.451,0.066,0.681
				c0.03,0.209,0.057,0.423,0.104,0.629c0.075,0.326,0.248,0.582,0.499,0.8c0.401,0.348,1.164,0.384,1.428-0.184
				c0.063-0.137,0.162-0.303,0.194-0.442c0.052-0.23,0.038-0.431,0-0.665c-0.014-0.09-0.032-0.18-0.047-0.27
				c-0.008-0.05-0.068-0.445-0.027-0.16c-0.012-0.084-0.027-0.168-0.039-0.252c0.01-0.001,0.02,0,0.03-0.001
				c0.514-0.028,1.073-0.007,1.526-0.279C323.484,116.951,323.305,116.066,322.652,115.833z"/>
			<path style="fill:#B3D1EE;" d="M338.073,125.532c-0.791-0.282-1.667-0.086-2.487-0.034c-0.196,0.013-0.392,0.03-0.589,0.043
				c-0.056-0.292-0.103-0.586-0.166-0.876c-0.161-0.736-0.333-1.492-0.449-2.211c-0.064-0.396-0.519-0.681-0.894-0.681
				c-0.44,0-0.739,0.297-0.894,0.681c-0.294,0.723-0.575,1.443-0.785,2.211c-0.109,0.396-0.189,0.809-0.249,1.225
				c-0.225,0.034-0.451,0.069-0.676,0.101c-0.523,0.074-1.347,0.154-1.702,0.632c-0.104,0.054-0.207,0.108-0.325,0.136
				c-0.4,0.095-0.323,0.609,0,0.737c0.106,0.042,0.172,0.132,0.264,0.196c0.008,0.006,0.017,0.008,0.025,0.014
				c0.326,0.494,1.114,0.666,1.647,0.776c0.217,0.045,0.442,0.083,0.665,0.124c0.023,0.423,0.061,0.844,0.123,1.274
				c0.057,0.392,0.107,0.791,0.195,1.177c0.14,0.61,0.464,1.089,0.933,1.496c0.751,0.651,2.178,0.719,2.671-0.344
				c0.119-0.256,0.303-0.566,0.362-0.826c0.098-0.431,0.07-0.807,0.001-1.243c-0.027-0.168-0.06-0.336-0.088-0.504
				c-0.015-0.094-0.127-0.833-0.051-0.3c-0.022-0.158-0.05-0.314-0.074-0.471c0.019-0.001,0.038-0.001,0.056-0.002
				c0.962-0.052,2.008-0.012,2.854-0.523C339.63,127.623,339.295,125.968,338.073,125.532z"/>
			<path style="fill:#B3D1EE;" d="M215.621,290.472c-0.74-0.264-1.559-0.081-2.326-0.031c-0.184,0.012-0.367,0.028-0.551,0.04
				c-0.053-0.273-0.096-0.548-0.156-0.819c-0.151-0.688-0.311-1.395-0.42-2.068c-0.06-0.37-0.486-0.637-0.836-0.637
				c-0.412,0-0.691,0.278-0.836,0.637c-0.275,0.676-0.537,1.349-0.734,2.068c-0.102,0.37-0.177,0.757-0.233,1.146
				c-0.211,0.032-0.422,0.065-0.632,0.094c-0.489,0.069-1.26,0.144-1.592,0.591c-0.097,0.051-0.193,0.101-0.304,0.127
				c-0.374,0.089-0.302,0.569,0,0.689c0.099,0.039,0.161,0.124,0.247,0.183c0.008,0.005,0.016,0.008,0.024,0.013
				c0.305,0.462,1.042,0.623,1.54,0.726c0.202,0.042,0.414,0.077,0.622,0.116c0.021,0.395,0.057,0.79,0.115,1.191
				c0.053,0.366,0.1,0.74,0.182,1.101c0.131,0.57,0.434,1.018,0.873,1.399c0.702,0.609,2.037,0.672,2.498-0.322
				c0.111-0.239,0.284-0.53,0.339-0.773c0.092-0.403,0.066-0.755,0.001-1.163c-0.025-0.158-0.056-0.314-0.082-0.472
				c-0.014-0.088-0.119-0.779-0.048-0.28c-0.021-0.147-0.047-0.293-0.069-0.44c0.017-0.001,0.035,0,0.052-0.001
				c0.9-0.049,1.878-0.012,2.669-0.489C217.077,292.428,216.763,290.88,215.621,290.472z"/>
			<path style="fill:#84ADDB;" d="M250.389,95.016c-53.864,0-97.529,43.665-97.529,97.529s43.665,97.529,97.529,97.529
				s97.529-43.665,97.529-97.529S304.253,95.016,250.389,95.016z M250.389,275.769c-45.964,0-83.225-37.261-83.225-83.224
				s37.261-83.224,83.225-83.224s83.225,37.261,83.225,83.224S296.353,275.769,250.389,275.769z"/>
		</g>
		<path style="fill:#FFFFFF;" d="M98.58,169.818c-3.466-4.162-12.517-7.177-17.318-3.9c-1.457,0.995-2.576,2.927-1.932,4.747
			c2.549,7.198,14.344,8.584,19.25,3.075C99.646,172.544,99.588,171.028,98.58,169.818z"/>
		<path style="fill:#FFFFFF;" d="M128.452,107.959c-0.998-3.524-3.027-6.28-5.735-8.727c-2.684-2.425-6.234-5.528-10.115-4.073
			c-1.188,0.446-2.546,1.354-2.749,2.749c-0.665,4.58,2.247,7.013,5.609,9.571c3.111,2.367,6.325,3.831,10.23,4.103
			C127.561,111.713,128.931,109.65,128.452,107.959z"/>
		<path style="fill:#FFFFFF;" d="M170.109,59.225c-1.849-2.835-3.359-7.191-7.116-7.785c-1.712-0.27-3.642,0.161-4.525,1.841
			c-2.192,4.17,0.743,8.159,3.219,11.487c2.279,3.063,5.288,6.977,9.503,6.837c1.827-0.061,3.056-1.42,3.194-3.194
			C174.658,64.908,171.904,61.978,170.109,59.225z"/>
		<path style="fill:#FFFFFF;" d="M394.785,169.818c3.466-4.162,12.517-7.177,17.318-3.9c1.457,0.995,2.576,2.927,1.932,4.747
			c-2.549,7.198-14.344,8.584-19.25,3.075C393.719,172.544,393.777,171.028,394.785,169.818z"/>
		<path style="fill:#FFFFFF;" d="M364.913,107.959c0.998-3.524,3.027-6.28,5.735-8.727c2.684-2.425,6.234-5.528,10.115-4.073
			c1.188,0.446,2.546,1.354,2.749,2.749c0.665,4.58-2.247,7.013-5.609,9.571c-3.111,2.367-6.326,3.831-10.23,4.103
			C365.804,111.713,364.434,109.65,364.913,107.959z"/>
		<path style="fill:#FFFFFF;" d="M323.256,59.225c1.849-2.835,3.359-7.191,7.116-7.785c1.712-0.27,3.642,0.161,4.525,1.841
			c2.192,4.17-0.743,8.159-3.219,11.487c-2.279,3.063-5.288,6.977-9.503,6.837c-1.827-0.061-3.056-1.42-3.194-3.194
			C318.708,64.908,321.461,61.978,323.256,59.225z"/>
		<path style="fill:#FFFFFF;" d="M250.395,36.315c-0.084-2.791-1.66-8.865-5.66-8.38c-2.716,0.33-3.575,4.163-3.881,6.365
			c-0.716,5.135-0.923,11.238,0.577,16.241c0.766,2.553,5.061,3.708,6.296,0.823C249.656,46.854,250.543,41.233,250.395,36.315z"/>
	</g>
	<g>
		<path style="fill:#84ADDB;" d="M433.8,197.683c-7.058,5.821-26.31,19.17-51.827,16.526c-1.684-0.174-3.242,0.897-3.678,2.534
			c-3.725,13.978-15.863,75.238,46.403,108.187c1.034,0.547,2.277,0.525,3.297-0.049c8.117-4.566,42.822-27.852,45.878-93.576
			c0.059-1.259-0.577-2.452-1.656-3.105c-5.526-3.345-22.915-14.613-33.346-29.786C437.712,196.726,435.381,196.38,433.8,197.683z"
			/>
		<path style="fill:#6594CC;" d="M433.683,205.035c-6.339,5.212-23.629,17.162-46.545,14.794c-1.513-0.156-2.912,0.803-3.303,2.268
			c-3.345,12.514-14.244,67.36,41.678,96.861c0.929,0.49,2.045,0.47,2.961-0.044c7.289-4.088,38.457-24.934,41.199-83.777
			c0.053-1.128-0.518-2.196-1.487-2.78c-4.963-2.995-20.581-13.084-29.949-26.668C437.196,204.178,435.102,203.868,433.683,205.035z
			"/>
		<path style="fill:#324868;" d="M433.265,208.911c-6.166,5.025-21.809,15.578-42.44,13.525c-1.52-0.151-2.93,0.811-3.319,2.289
			c-3.157,11.999-12.845,62.505,38.558,89.792c0.934,0.496,2.063,0.48,2.983-0.042c6.955-3.949,35.465-23.373,38.063-77.604
			c0.056-1.177-0.56-2.286-1.588-2.861c-5.077-2.84-20.426-12.124-27.634-24.255C436.921,208.125,434.735,207.713,433.265,208.911z"
			/>
		<path style="fill:#FFFFFF;" d="M452.067,247.363c-0.187-1.563-0.969-3.283-2.708-3.651c-7.768-1.646-12.966,5.054-17.263,10.494
			c-2.94,3.721-5.936,7.858-8.115,12.295c-3.048-2.516-6.182-4.951-9.555-6.739c-3.071-1.628-6.584,1.561-4.867,4.746
			c3.321,6.161,8.655,11.567,13.014,17.03c2.81,3.522,7.679,1.706,9.915-1.151c4.165-5.32,7.044-11.618,11.025-17.102
			C446.961,258.535,452.843,253.856,452.067,247.363z"/>
		<path style="fill:#000A1C;" d="M393.176,225.485c-0.098-0.367-0.279-0.687-0.544-0.96c-0.144-0.114-0.288-0.229-0.433-0.343
			c-0.334-0.2-0.697-0.303-1.086-0.309c-0.297-0.015-0.575,0.044-0.835,0.176c-0.269,0.084-0.502,0.23-0.701,0.438
			c-0.213,0.193-0.365,0.423-0.455,0.689c-0.139,0.256-0.204,0.532-0.197,0.83c0.023,0.192,0.047,0.383,0.07,0.575
			c0.098,0.367,0.279,0.687,0.544,0.96c0.144,0.114,0.289,0.229,0.433,0.343c0.334,0.2,0.697,0.302,1.087,0.309
			c0.297,0.015,0.575-0.044,0.834-0.176c0.269-0.084,0.502-0.23,0.701-0.438c0.213-0.193,0.365-0.423,0.455-0.689
			c0.139-0.256,0.204-0.532,0.197-0.83C393.222,225.869,393.199,225.677,393.176,225.485z"/>
		<path style="fill:#000A1C;" d="M465.355,236.894c-0.098-0.367-0.279-0.687-0.544-0.96c-0.144-0.114-0.289-0.229-0.433-0.343
			c-0.334-0.2-0.697-0.303-1.086-0.309c-0.297-0.015-0.575,0.044-0.835,0.176c-0.269,0.084-0.502,0.23-0.701,0.438
			c-0.213,0.193-0.365,0.423-0.455,0.689c-0.139,0.256-0.204,0.532-0.197,0.83c0.023,0.192,0.047,0.383,0.07,0.575
			c0.098,0.367,0.279,0.687,0.544,0.96c0.144,0.114,0.289,0.229,0.433,0.343c0.334,0.2,0.697,0.302,1.086,0.309
			c0.297,0.015,0.575-0.044,0.835-0.176c0.269-0.084,0.502-0.23,0.701-0.438c0.213-0.193,0.365-0.423,0.455-0.689
			c0.139-0.256,0.204-0.532,0.197-0.83C465.402,237.277,465.379,237.085,465.355,236.894z"/>
		<path style="fill:#000A1C;" d="M429.548,309.435c-0.098-0.367-0.279-0.687-0.544-0.96c-0.144-0.114-0.289-0.229-0.433-0.343
			c-0.334-0.2-0.697-0.303-1.086-0.309c-0.297-0.015-0.575,0.044-0.835,0.176c-0.269,0.084-0.502,0.23-0.701,0.438
			c-0.213,0.193-0.365,0.423-0.455,0.69c-0.139,0.256-0.204,0.532-0.197,0.83c0.023,0.192,0.047,0.383,0.07,0.575
			c0.098,0.367,0.279,0.687,0.544,0.96c0.144,0.114,0.289,0.229,0.433,0.343c0.334,0.2,0.697,0.302,1.086,0.309
			c0.297,0.015,0.575-0.044,0.835-0.176c0.269-0.084,0.502-0.23,0.701-0.438c0.213-0.193,0.365-0.423,0.455-0.69
			c0.139-0.256,0.204-0.532,0.197-0.83C429.594,309.818,429.571,309.626,429.548,309.435z"/>
		<path style="fill:#4D6FA4;" d="M460.847,246.253c-0.429-1.025-1.824-0.762-2.346-0.029c-2.792,3.916-3.655,8.609-5.01,13.112
			c-0.659,2.187-1.358,4.369-2.133,6.519c-0.893,2.479-2.449,5.057-1.613,7.762c0.623,2.016,2.709,2.836,4.574,1.928
			c2.638-1.284,3.443-4.477,4.349-7.028c0.855-2.408,1.594-4.84,2.18-7.328C462.02,256.207,462.892,251.145,460.847,246.253z"/>
		<path style="fill:#4D6FA4;" d="M452.308,281.104c-0.028-0.044-0.061-0.084-0.091-0.126c-0.036-0.186-0.089-0.368-0.186-0.539
			c-0.205-0.36-0.524-0.626-0.9-0.79c-0.595-0.26-1.415-0.194-1.933,0.253c-0.569,0.18-1.008,0.513-1.455,0.901
			c-0.48,0.415-0.832,0.956-1.216,1.463c-0.032,0.04-0.061,0.083-0.093,0.124c-0.01,0.013-0.02,0.027-0.03,0.04
			c0.005-0.006,0.009-0.012,0.014-0.018c-0.116,0.151-0.23,0.302-0.331,0.465c-0.113,0.183-0.23,0.364-0.351,0.543
			c-0.111,0.165-0.226,0.328-0.343,0.489c-0.288,0.395-0.478,0.839-0.585,1.316c-0.125,0.559-0.168,1.167-0.022,1.728
			c0.18,0.686,0.594,1.267,1.143,1.702c0.2,0.204,0.437,0.346,0.711,0.427c0.252,0.15,0.524,0.228,0.817,0.232
			c0.719,0.106,1.43,0.002,2.077-0.36c0.336-0.188,0.631-0.366,0.926-0.653c0.213-0.207,0.458-0.555,0.65-0.838
			c0.13-0.192,0.253-0.389,0.372-0.587c0.371-0.614,0.693-1.252,0.912-1.937c0.211-0.663,0.38-1.33,0.352-2.034
			C452.721,282.272,452.658,281.656,452.308,281.104z"/>
	</g>
	<g>
		<path style="fill:#84ADDB;" d="M112.107,243.762c-4.264-13.275-4.593-28.059-13.585-39.513
			c-7.902-10.065-20.719-14.574-33.015-9.855c-21.855,8.389-37.645,42.237-23.782,62.862c2.715,4.039,8.668,2.338,9.015-2.403
			c0.703-9.597,0.563-19.555,3.728-28.776c3.017-8.791,12.784-20.933,23.729-17.97c5.734,1.553,9.108,7.112,10.96,12.322
			c2.923,8.223,3.429,17.267,3.7,25.897C93.307,260.68,116.365,257.017,112.107,243.762z"/>
		<path style="fill:#6594CC;" d="M79.867,208.71c-3.141-3.088-7.038-4.458-12.317-3.04c-7.57,2.033-14.341,8.414-17.981,15.312
			c-1.918,3.636-3.045,8.119-3.783,12.081c-0.486,2.614-0.215,4.841-0.091,7.434c0.051,1.07-0.685,12.033-3.775,6.851l-1.186,8.299
			c0.315,0.543,0.637,1.083,0.991,1.609c2.715,4.039,8.668,2.338,9.015-2.403c0.703-9.597,0.563-19.555,3.728-28.776
			c3.017-8.791,12.784-20.933,23.729-17.97C78.78,208.265,79.332,208.474,79.867,208.71z"/>
		<path style="fill:#6594CC;" d="M112.145,243.903c-0.015-0.048-0.022-0.093-0.037-0.141c-4.264-13.275-4.593-28.059-13.585-39.513
			c-3.851-4.906-8.875-8.478-14.432-10.319c3.469,2.705,6.61,6.101,8.311,8.644c3.118,4.662,5.818,9.911,8.134,15.089
			c2.084,4.659,3.179,8.944,4.144,13.813C105.574,235.985,105.917,244.439,112.145,243.903z"/>
		<path style="fill:#324868;" d="M37.76,247.725c-9.146,3.049-8.697,8.319-8.319,20.798c0.378,12.479,4.538,32.142,5.672,39.704
			c1.134,7.563,12.1,7.563,19.663,6.428c7.563-1.134,49.914-3.403,58.233-5.294c8.319-1.891,16.26-1.134,14.747-13.991
			c-1.513-12.857-2.269-46.511-5.294-53.317c-3.025-6.807-6.428-8.319-20.041-6.428C88.809,237.516,47.97,244.322,37.76,247.725z"/>
		<path style="fill:#4D6FA4;" d="M115.202,295.353c-0.017-2.841-0.066-5.682-0.145-8.522c-0.153-5.479-0.486-10.954-0.913-16.418
			c-0.427-5.471-0.974-10.929-1.66-16.373c-0.346-2.744-0.719-5.486-1.121-8.222c-0.401-2.732-0.574-5.744-1.432-8.371
			c-0.113-0.345-0.392-0.709-0.776-0.776c-0.236-0.041-0.432-0.101-0.655,0.011c-0.067,0.034-0.134,0.068-0.201,0.101
			c-0.348,0.175-0.544,0.585-0.55,0.96c-0.047,2.779,0.617,5.675,0.924,8.44c0.291,2.617,0.555,5.236,0.793,7.858
			c0.503,5.55,0.914,11.111,1.209,16.676c0.29,5.469,0.446,10.943,0.548,16.419c0.051,2.739,0.074,5.478,0.068,8.217
			c-0.003,1.42-0.014,2.841-0.033,4.261c-0.018,1.35-0.053,2.581,0.712,3.758c0.607,0.934,1.829,0.886,2.445,0
			c0.8-1.151,0.784-2.41,0.791-3.758C115.212,298.194,115.211,296.774,115.202,295.353z"/>
		<g>
			<path style="fill:#000A1C;" d="M73.769,272.637c-0.012,0.015-0.022,0.027-0.032,0.04c0.006-0.005,0.011-0.011,0.017-0.017
				C73.758,272.653,73.763,272.645,73.769,272.637z"/>
			<path style="fill:#000A1C;" d="M80.343,264.22c-2.131-2.816-5.505-4.489-9.444-3.398c-3.124,0.865-5.729,3.383-7.208,6.209
				c-1.703,3.255-2.329,7.365-0.112,10.562c1.032,1.489,2.35,2.552,3.8,3.259c-0.019,0.161-0.039,0.321-0.037,0.487
				c0.049,3.191,0.682,6.319,1.858,9.283c0.388,0.977,0.895,1.92,1.875,2.438c0.824,0.435,1.673,0.609,2.601,0.484
				c0.003,0,0.005-0.001,0.008-0.002c1.052,0.056,2.145-0.65,2.673-1.486c0.669-1.06,1.18-2.159,1.404-3.4
				c0.248-1.375,0.331-2.71,0.345-4.101c0.015-1.475-0.043-2.948-0.131-4.42c2.241-1.418,3.986-3.64,4.572-6.552
				C83.202,270.333,82.294,266.797,80.343,264.22z"/>
		</g>
		<path style="fill:#4D6FA4;" d="M42.605,257.138c0.054-2.747-3.536-4.227-5.443-2.254c-2.335,2.416-2.046,5.889-2.101,9.051
			c-0.059,3.379-0.357,7.57,2.498,9.918c1.015,0.835,2.337,0.943,3.348,0C44.974,270.063,42.507,262.1,42.605,257.138z"/>
		<path style="fill:#4D6FA4;" d="M42.469,279.917c-0.693-1.191-2.196-1.656-3.446-1.129c-1.329,0.561-1.853,1.882-1.598,3.255
			c0.006,0.031,0.007,0.049,0.01,0.074c-0.002,0.21,0,0.426,0.007,0.635c0.018,0.632,0.183,1.109,0.393,1.684
			c0.407,1.113,1.393,2.09,2.67,2.033c1.306-0.059,2.215-0.841,2.67-2.033C43.791,282.824,43.3,281.344,42.469,279.917z"/>
		<path style="fill:#D6E2F2;" d="M60.256,201.624c-0.464-0.322-0.805-0.445-1.361-0.349c-0.395,0.069-0.746,0.245-1.105,0.416
			c-0.604,0.287-1.21,0.587-1.786,0.927c-1.187,0.702-2.243,1.771-3.183,2.769c-0.974,1.033-1.869,2.14-2.703,3.288
			c-0.837,1.153-2.06,2.599-1.935,4.098c0.106,1.27,1.346,2.095,2.53,1.452c0.806-0.438,1.209-1.128,1.661-1.886
			c0.346-0.58,0.712-1.149,1.097-1.704c0.379-0.546,0.711-0.985,0.973-1.309c0.425-0.526,0.869-1.038,1.329-1.533
			c0.898-0.967,1.875-1.856,2.737-2.854c0.417-0.483,0.881-0.924,1.297-1.406c0.262-0.303,0.545-0.701,0.594-1.107
			C60.424,202.218,60.449,201.758,60.256,201.624z"/>
		<path style="fill:#D6E2F2;" d="M47.037,218.418c0.021,0.214-0.013-0.228-0.016-0.268c-0.044-0.566-0.687-1.102-1.24-0.712
			c-0.255,0.18-0.529,0.336-0.752,0.557c-0.254,0.252-0.443,0.559-0.641,0.854c-0.325,0.485-0.703,0.963-0.96,1.488
			c-0.337,0.687-0.753,1.411-0.835,2.175c-0.046,0.427-0.104,1.094,0.087,1.553c0.078,0.506,0.657,0.962,1.152,0.607
			c0.033-0.024,0.066-0.047,0.099-0.071c0.202-0.078,0.385-0.211,0.585-0.367c0.117-0.096,0.124-0.101,0.021-0.015
			c0.128-0.083,0.25-0.175,0.366-0.274c0.088-0.079,0.172-0.167,0.254-0.253c0.471-0.498,0.717-1.145,1.001-1.761
			c0.286-0.621,0.457-1.274,0.652-1.927c0.105-0.352,0.201-0.684,0.245-1.051C47.076,218.758,47.057,218.628,47.037,218.418z"/>
	</g>
	<g>
		<path style="fill:#E1A691;" d="M137.048,333.739c0,0,4.624-6.306,11.35,1.681c6.726,7.987,10.089,16.395,13.872,19.758
			s6.726,17.235,4.624,15.974c-2.102-1.261-14.713,2.943-18.076-2.102c-3.363-5.044-11.331-10.172-11.77-15.974
			C136.608,347.273,137.048,333.739,137.048,333.739z"/>
		<path style="fill:#E1A691;" d="M125.278,329.535c0,0,5.044-8.408,12.191,0.42c7.146,8.828,6.306,20.178,21.019,27.324
			c14.713,7.146,13.452,25.643,9.669,24.802c-3.783-0.841-13.452,3.783-19.337,0.42s-14.293-8.828-18.076-15.133
			c-3.783-6.306-8.828-10.089-9.669-15.554C120.233,346.35,125.278,329.535,125.278,329.535z"/>
		<path style="fill:#E1A691;" d="M110.565,329.955c0-1.682,3.783-15.974,14.293-3.783c10.509,12.191,10.509,33.63,37.833,49.604
			c27.324,15.974,12.611,24.382,10.089,23.961c-2.522-0.42-18.496-2.102-21.019-3.363s-1.681,0.841-7.146-2.102
			c-5.465-2.943-15.133-12.611-20.178-14.293c-5.045-1.682-12.611-12.611-13.452-16.815
			C110.144,358.961,110.565,329.955,110.565,329.955z"/>
		<path style="fill:#E9C1B4;" d="M219.441,451.023c0,0,3.594-43.074-13.452-62.215c-17.046-19.142-40.356-52.967-49.183-43.298
			c-8.828,9.669,10.93,43.298,10.93,43.298s-30.267-8.828-41.617-26.483c-11.35-17.656-8.828-29.846-15.974-35.732
			c-7.146-5.885-12.191,8.407-10.509,21.439c1.682,13.031,13.452,37.833,28.165,48.763c14.713,10.93,29.846,18.076,35.732,55.91
			c0,0,20.178,6.726,21.859,6.726C187.072,459.43,219.441,451.023,219.441,451.023z"/>
		<path style="fill:#FFFFFF;" d="M159.061,471.09c0,0-0.118-17.752,0.83-19.933c2.478-5.696,54.386-9.191,62.493-6.036
			c0,0-0.17,18.984-1.147,22.601C220.261,471.337,159.061,471.09,159.061,471.09z"/>
		<path style="fill:#324868;" d="M156.718,461.638c-1.768,8.837-5.267,25.613-7.94,38.362h73.503
			c2.095-18.193,4.652-42.778,4.652-42.778C202.644,453.248,156.718,461.638,156.718,461.638z"/>
		<path style="fill:#D7856D;" d="M153.943,370.423c-0.245-0.363-0.371-0.788-0.616-1.15c-0.299-0.443-0.703-0.79-1.091-1.15
			c-0.677-0.627-1.337-1.273-1.977-1.939c-1.411-1.469-2.722-3.029-3.961-4.645c-2.394-3.121-4.491-6.45-6.439-9.865
			c-2.029-3.555-3.946-7.173-5.876-10.782c-2.227-4.166-4.247-8.621-7.072-12.421c-0.154-0.207-0.551-0.098-0.454,0.191
			c1.523,4.523,4.057,8.752,6.23,12.988c1.93,3.763,3.826,7.546,5.923,11.22c1.98,3.471,4.102,6.886,6.549,10.05
			c1.21,1.564,2.499,3.069,3.876,4.489c0.733,0.756,1.485,1.505,2.28,2.195c0.765,0.664,1.466,0.802,2.36,1.167
			C153.867,370.849,154.053,370.586,153.943,370.423z"/>
		<path style="fill:#D7856D;" d="M153.269,354.086c-0.202-0.459-0.267-0.985-0.487-1.435c-0.218-0.447-0.598-0.821-0.904-1.207
			c-0.66-0.834-1.3-1.684-1.924-2.546c-1.251-1.729-2.455-3.495-3.583-5.307c-1.095-1.76-2.101-3.568-3.086-5.392
			c-0.476-0.882-0.936-1.774-1.378-2.674c-0.249-0.506-0.491-1.015-0.729-1.526c-0.143-0.308-0.63-0.942-0.549-1.279
			c0.044-0.184-0.124-0.382-0.319-0.319c-1.446,0.466,0.413,3.466,0.763,4.263c0.988,2.247,2.099,4.426,3.327,6.551
			c1.193,2.064,2.471,4.083,3.868,6.016c0.701,0.969,1.424,1.923,2.166,2.861c0.345,0.436,0.67,0.929,1.083,1.3
			c0.449,0.404,1.031,0.587,1.534,0.91C153.199,354.396,153.327,354.217,153.269,354.086z"/>
		<path style="fill:#F6E8E2;" d="M172.353,356.726c-0.541-3.167-4.795-6.932-6.632-8.166c-1.3-0.873-2.825-1.344-4.374-0.896
			c-1.475,0.426-2.8,1.56-3.475,2.936c-0.808,1.649-0.855,3.448-0.576,5.23c0.512,3.27,2.091,6.308,4.191,8.833
			c0.426,0.512,1.233,0.644,1.844,0.487c1.84-0.473,3.278-1.655,4.731-2.816c0.73-0.583,1.458-1.17,2.178-1.765
			c0.341-0.282,0.683-0.565,1.025-0.848C172.272,358.89,172.544,357.845,172.353,356.726z"/>
		<path style="fill:#E1A691;" d="M182.536,369.157c-1.156-0.573-2.511,0.099-3.566,0.622c-1.083,0.537-2.076,1.227-3.029,1.967
			c-0.937,0.727-1.81,1.523-2.676,2.331c-0.456,0.426-0.916,0.846-1.347,1.298c-0.396,0.415-0.758,0.872-1.164,1.275
			c-0.125,0.124-0.105,0.305,0,0.432c0.021,0.025,0.041,0.05,0.062,0.074c0.088,0.105,0.264,0.141,0.391,0.103
			c1.041-0.311,1.969-1.139,2.811-1.798c0.903-0.706,1.81-1.41,2.743-2.077c0.896-0.639,1.831-1.23,2.827-1.701
			c0.976-0.462,2.337-0.575,3.095-1.385C182.982,369.978,182.971,369.373,182.536,369.157z"/>
		<path style="fill:#E1A691;" d="M178.354,374.998c-0.103,0.054-0.206,0.105-0.312,0.153c-0.014,0.006-0.13,0.064-0.146,0.064
			c-0.067,0.01-0.125,0.036-0.186,0.065c-0.051,0.024-0.103,0.046-0.151,0.075c-0.052,0.031-0.096,0.074-0.143,0.111
			c-0.005,0.004-0.028,0.022-0.044,0.035c-0.017,0.013-0.037,0.028-0.038,0.028c-0.02,0.015-0.041,0.03-0.061,0.045
			c-0.051,0.037-0.103,0.074-0.156,0.109c-0.094,0.064-0.194,0.122-0.286,0.188c-0.12,0.086-0.225,0.193-0.338,0.288
			c-0.047,0.039-0.094,0.078-0.142,0.116c-0.005,0.004-0.003,0.002-0.005,0.004c-0.006,0.004-0.006,0.005-0.018,0.014
			c-0.036,0.027-0.073,0.053-0.104,0.086c-0.082,0.085-0.153,0.185-0.232,0.273c-0.125,0.139-0.039,0.359,0.152,0.366
			c0.114,0.004,0.232,0.012,0.346,0.002c0.145-0.012,0.284-0.062,0.42-0.11c0.142-0.049,0.299-0.096,0.431-0.168
			c0.111-0.06,0.212-0.143,0.312-0.22c0.242-0.185,0.488-0.362,0.65-0.625c0.028-0.046,0.056-0.097,0.072-0.149
			c0.007-0.022,0.008-0.031,0.007-0.033c0.025-0.051,0.048-0.103,0.07-0.154c0.054-0.122,0.105-0.246,0.151-0.371
			C178.658,375.042,178.475,374.935,178.354,374.998z"/>
		<path style="fill:#E1A691;" d="M117.268,348.562c-0.204-0.075,0.043,0.016-0.048-0.029c-0.134-0.066-0.245-0.108-0.393-0.115
			c-0.17-0.008-0.351,0.028-0.52,0.058c-0.288,0.05-0.571,0.208-0.833,0.338c-0.47,0.232-0.921,0.5-1.351,0.8
			c-0.456,0.318-0.864,0.668-1.241,1.076c-0.2,0.217-0.372,0.452-0.53,0.701c-0.13,0.204-0.259,0.391-0.282,0.618
			c-0.028,0.152-0.046,0.277-0.008,0.431c0.016,0.064,0.078,0.105,0.142,0.108c0.496,0.02,0.94-0.353,1.33-0.625
			c0.426-0.297,0.854-0.591,1.29-0.872c0.441-0.284,0.902-0.534,1.381-0.749c0.011-0.005,0.089-0.039,0.124-0.054
			c0.037-0.015,0.125-0.051,0.122-0.049c0.168-0.066,0.335-0.128,0.488-0.226c0.132-0.084,0.269-0.165,0.383-0.273
			c0.118-0.111,0.145-0.218,0.216-0.35c0.003-0.005,0.001-0.002,0.003-0.006c-0.008,0.018-0.011,0.028,0.032-0.034
			C117.772,349.018,117.553,348.666,117.268,348.562z"/>
		<path style="fill:#4D6FA4;" d="M218.537,469.163c-0.214-1.365-1.071-2.529-2.212-3.276c0.171,0.132,0.343,0.265,0.514,0.397
			c-0.256-0.198-0.502-0.385-0.78-0.539c-0.234-0.195-0.47-0.386-0.737-0.532c-0.594-0.325-1.152-0.47-1.816-0.541
			c-0.888-0.095-1.915,0.222-2.635,0.741c-0.767,0.553-1.389,1.218-1.873,2.037c-0.402,0.681-0.717,1.459-0.83,2.245
			c-0.138,0.956-0.169,1.926,0.192,2.846c0.3,0.764,0.695,1.479,1.34,2.01c0.653,0.538,1.306,0.926,2.126,1.174
			c0.6,0.181,1.277,0.273,1.904,0.221c0.858-0.071,1.589-0.248,2.356-0.653c0.71-0.374,1.301-1.013,1.716-1.69
			c0.257-0.42,0.423-0.895,0.518-1.389c0.083-0.221,0.158-0.445,0.203-0.67C218.693,470.685,218.671,470.017,218.537,469.163z"/>
	</g>
	<g>
		<path style="fill:#E1A691;" d="M365.393,333.739c0,0-4.624-6.306-11.35,1.681c-6.726,7.987-10.089,16.395-13.872,19.758
			c-3.783,3.363-6.726,17.235-4.624,15.974c2.102-1.261,14.713,2.943,18.076-2.102c3.363-5.044,11.331-10.172,11.771-15.974
			C365.832,347.273,365.393,333.739,365.393,333.739z"/>
		<path style="fill:#E1A691;" d="M377.163,329.535c0,0-5.045-8.408-12.191,0.42c-7.146,8.828-6.306,20.178-21.019,27.324
			c-14.713,7.146-13.452,25.643-9.669,24.802c3.783-0.841,13.452,3.783,19.337,0.42c5.885-3.363,14.293-8.828,18.076-15.133
			c3.783-6.306,8.828-10.089,9.668-15.554C382.207,346.35,377.163,329.535,377.163,329.535z"/>
		<path style="fill:#E1A691;" d="M391.876,329.955c0-1.682-3.783-15.974-14.293-3.783s-10.509,33.63-37.833,49.604
			c-27.324,15.974-12.611,24.382-10.089,23.961c2.522-0.42,18.496-2.102,21.019-3.363c2.522-1.261,1.682,0.841,7.146-2.102
			c5.465-2.943,15.133-12.611,20.178-14.293c5.044-1.682,12.611-12.611,13.452-16.815
			C392.296,358.961,391.876,329.955,391.876,329.955z"/>
		<path style="fill:#E9C1B4;" d="M283,451.023c0,0-3.594-43.074,13.452-62.215s40.356-52.967,49.184-43.298
			c8.828,9.669-10.93,43.298-10.93,43.298s30.267-8.828,41.617-26.483c11.35-17.656,8.828-29.846,15.974-35.732
			s12.191,8.407,10.509,21.439c-1.682,13.031-13.452,37.833-28.165,48.763c-14.713,10.93-29.846,18.076-35.732,55.91
			c0,0-20.178,6.726-21.859,6.726C315.368,459.43,283,451.023,283,451.023z"/>
		<path style="fill:#FFFFFF;" d="M343.38,471.09c0,0,0.118-17.752-0.83-19.933c-2.478-5.696-54.386-9.191-62.492-6.036
			c0,0,0.17,18.984,1.147,22.601C282.18,471.337,343.38,471.09,343.38,471.09z"/>
		<path style="fill:#324868;" d="M345.723,461.638c0,0-45.926-8.39-70.214-4.416c0,0,2.557,24.585,4.652,42.778h73.503
			C350.99,487.251,347.49,470.475,345.723,461.638z"/>
		<path style="fill:#D7856D;" d="M348.497,370.423c0.246-0.363,0.371-0.788,0.616-1.15c0.299-0.443,0.703-0.79,1.091-1.15
			c0.677-0.627,1.337-1.273,1.977-1.939c1.411-1.469,2.721-3.029,3.961-4.645c2.394-3.121,4.491-6.45,6.439-9.865
			c2.029-3.555,3.946-7.173,5.876-10.782c2.227-4.166,4.247-8.621,7.072-12.421c0.154-0.207,0.551-0.098,0.454,0.191
			c-1.523,4.523-4.057,8.752-6.23,12.988c-1.93,3.763-3.826,7.546-5.923,11.22c-1.98,3.471-4.102,6.886-6.549,10.05
			c-1.21,1.564-2.499,3.069-3.876,4.489c-0.733,0.756-1.485,1.505-2.28,2.195c-0.765,0.664-1.466,0.802-2.36,1.167
			C348.574,370.849,348.387,370.586,348.497,370.423z"/>
		<path style="fill:#D7856D;" d="M349.171,354.086c0.202-0.459,0.267-0.985,0.487-1.435c0.218-0.447,0.598-0.821,0.904-1.207
			c0.66-0.834,1.3-1.684,1.924-2.546c1.251-1.729,2.455-3.495,3.583-5.307c1.095-1.76,2.101-3.568,3.086-5.392
			c0.476-0.882,0.936-1.774,1.378-2.674c0.249-0.506,0.491-1.015,0.729-1.526c0.143-0.308,0.63-0.942,0.549-1.279
			c-0.044-0.184,0.124-0.382,0.319-0.319c1.446,0.466-0.413,3.466-0.763,4.263c-0.988,2.247-2.099,4.426-3.327,6.551
			c-1.193,2.064-2.471,4.083-3.868,6.016c-0.701,0.969-1.425,1.923-2.167,2.861c-0.345,0.436-0.67,0.929-1.083,1.3
			c-0.449,0.404-1.031,0.587-1.534,0.91C349.241,354.396,349.113,354.217,349.171,354.086z"/>
		<path style="fill:#F6E8E2;" d="M330.087,356.726c0.541-3.167,4.795-6.932,6.632-8.166c1.3-0.873,2.825-1.344,4.374-0.896
			c1.475,0.426,2.8,1.56,3.475,2.936c0.808,1.649,0.855,3.448,0.577,5.23c-0.512,3.27-2.091,6.308-4.191,8.833
			c-0.426,0.512-1.233,0.644-1.844,0.487c-1.84-0.473-3.279-1.655-4.731-2.816c-0.73-0.583-1.458-1.17-2.178-1.765
			c-0.341-0.282-0.683-0.565-1.025-0.848C330.169,358.89,329.896,357.845,330.087,356.726z"/>
		<path style="fill:#E1A691;" d="M319.905,369.157c1.156-0.573,2.511,0.099,3.566,0.622c1.083,0.537,2.076,1.227,3.029,1.967
			c0.937,0.727,1.81,1.523,2.676,2.331c0.456,0.426,0.916,0.846,1.347,1.298c0.396,0.415,0.758,0.872,1.164,1.275
			c0.125,0.124,0.105,0.305,0,0.432c-0.021,0.025-0.041,0.05-0.062,0.074c-0.088,0.105-0.264,0.141-0.391,0.103
			c-1.041-0.311-1.97-1.139-2.811-1.798c-0.903-0.706-1.81-1.41-2.743-2.077c-0.896-0.639-1.831-1.23-2.827-1.701
			c-0.976-0.462-2.337-0.575-3.095-1.385C319.458,369.978,319.47,369.373,319.905,369.157z"/>
		<path style="fill:#E1A691;" d="M323.837,375.189c0.047,0.125,0.097,0.249,0.151,0.371c0.023,0.052,0.046,0.103,0.07,0.154
			c0,0.003,0.001,0.011,0.008,0.033c0.015,0.052,0.043,0.103,0.072,0.149c0.162,0.263,0.408,0.44,0.65,0.625
			c0.1,0.076,0.201,0.16,0.312,0.22c0.132,0.072,0.289,0.119,0.431,0.168c0.137,0.047,0.275,0.098,0.42,0.11
			c0.114,0.009,0.232,0.002,0.346-0.002c0.19-0.007,0.276-0.227,0.151-0.366c-0.079-0.088-0.15-0.187-0.232-0.273
			c-0.031-0.032-0.069-0.058-0.104-0.086c-0.012-0.009-0.013-0.009-0.018-0.014c-0.002-0.002,0,0-0.005-0.004
			c-0.048-0.038-0.096-0.077-0.142-0.116c-0.113-0.095-0.218-0.201-0.338-0.288c-0.092-0.066-0.192-0.124-0.286-0.188
			c-0.052-0.036-0.104-0.072-0.156-0.109c-0.021-0.015-0.041-0.03-0.061-0.045c-0.001-0.001-0.021-0.016-0.038-0.028
			c-0.016-0.012-0.039-0.03-0.044-0.035c-0.047-0.037-0.092-0.08-0.143-0.111c-0.048-0.029-0.1-0.051-0.151-0.075
			c-0.061-0.029-0.119-0.054-0.186-0.065c-0.016-0.001-0.132-0.058-0.146-0.064c-0.105-0.048-0.209-0.099-0.312-0.153
			C323.966,374.935,323.783,375.042,323.837,375.189z"/>
		<path style="fill:#E1A691;" d="M385.173,348.562c0.204-0.075-0.044,0.016,0.048-0.029c0.134-0.066,0.245-0.108,0.393-0.115
			c0.17-0.008,0.351,0.028,0.52,0.058c0.288,0.05,0.571,0.208,0.833,0.338c0.469,0.232,0.921,0.5,1.351,0.8
			c0.456,0.318,0.864,0.668,1.241,1.076c0.2,0.217,0.372,0.452,0.53,0.701c0.13,0.204,0.259,0.391,0.282,0.618
			c0.029,0.152,0.046,0.277,0.008,0.431c-0.016,0.064-0.078,0.105-0.141,0.108c-0.496,0.02-0.94-0.353-1.33-0.625
			c-0.426-0.297-0.854-0.591-1.29-0.872c-0.441-0.284-0.903-0.534-1.381-0.749c-0.011-0.005-0.089-0.039-0.124-0.054
			c-0.037-0.015-0.125-0.051-0.122-0.049c-0.168-0.066-0.335-0.128-0.488-0.226c-0.132-0.084-0.269-0.165-0.383-0.273
			c-0.118-0.111-0.145-0.218-0.216-0.35c-0.003-0.005-0.001-0.002-0.003-0.006c0.008,0.018,0.011,0.028-0.032-0.034
			C384.669,349.018,384.888,348.666,385.173,348.562z"/>
		<path style="fill:#4D6FA4;" d="M283.917,471.544c0.044,0.224,0.119,0.449,0.203,0.67c0.095,0.494,0.261,0.969,0.518,1.389
			c0.415,0.678,1.006,1.316,1.716,1.69c0.767,0.404,1.497,0.581,2.356,0.653c0.627,0.052,1.304-0.039,1.904-0.221
			c0.819-0.248,1.473-0.636,2.126-1.174c0.645-0.531,1.04-1.246,1.34-2.01c0.361-0.92,0.33-1.89,0.192-2.846
			c-0.113-0.785-0.428-1.564-0.83-2.245c-0.484-0.819-1.106-1.484-1.873-2.037c-0.72-0.519-1.747-0.836-2.635-0.741
			c-0.665,0.071-1.222,0.216-1.816,0.541c-0.267,0.146-0.503,0.337-0.737,0.532c-0.278,0.154-0.524,0.34-0.78,0.539
			c0.171-0.132,0.343-0.265,0.514-0.397c-1.14,0.747-1.998,1.911-2.212,3.276C283.77,470.017,283.747,470.685,283.917,471.544z"/>
	</g>
	<path style="fill:#FFFFFF;" d="M118.73,223.427c-0.764-0.273-1.61-0.083-2.402-0.033c-0.19,0.012-0.379,0.029-0.569,0.042
		c-0.054-0.282-0.099-0.566-0.161-0.846c-0.156-0.711-0.321-1.441-0.434-2.136c-0.062-0.382-0.502-0.658-0.864-0.658
		c-0.425,0-0.714,0.287-0.864,0.658c-0.284,0.698-0.555,1.394-0.758,2.136c-0.105,0.383-0.183,0.782-0.241,1.184
		c-0.218,0.033-0.435,0.067-0.653,0.098c-0.505,0.071-1.302,0.148-1.644,0.611c-0.1,0.052-0.2,0.104-0.314,0.132
		c-0.387,0.092-0.312,0.588,0,0.712c0.102,0.041,0.167,0.128,0.255,0.189c0.008,0.005,0.017,0.008,0.025,0.013
		c0.315,0.477,1.076,0.643,1.591,0.75c0.209,0.043,0.427,0.08,0.642,0.12c0.022,0.408,0.059,0.816,0.119,1.231
		c0.055,0.378,0.103,0.765,0.188,1.137c0.135,0.589,0.448,1.052,0.902,1.445c0.725,0.629,2.104,0.695,2.581-0.333
		c0.115-0.247,0.293-0.547,0.35-0.798c0.095-0.416,0.068-0.78,0.001-1.201c-0.026-0.163-0.058-0.325-0.085-0.487
		c-0.015-0.091-0.123-0.805-0.05-0.29c-0.022-0.152-0.048-0.303-0.071-0.455c0.018-0.001,0.036,0,0.054-0.001
		c0.929-0.05,1.94-0.012,2.757-0.505C120.235,225.447,119.91,223.848,118.73,223.427z"/>
	<path style="fill:#FFFFFF;" d="M407.798,200.791c-0.765-0.273-1.61-0.083-2.402-0.033c-0.19,0.012-0.379,0.029-0.569,0.042
		c-0.054-0.282-0.099-0.566-0.161-0.846c-0.156-0.711-0.321-1.441-0.434-2.136c-0.062-0.382-0.502-0.658-0.864-0.658
		c-0.425,0-0.714,0.287-0.864,0.658c-0.284,0.699-0.555,1.394-0.758,2.136c-0.105,0.383-0.183,0.782-0.241,1.184
		c-0.218,0.033-0.435,0.067-0.653,0.098c-0.505,0.071-1.302,0.148-1.644,0.611c-0.1,0.052-0.2,0.104-0.314,0.131
		c-0.387,0.092-0.312,0.588,0,0.712c0.102,0.04,0.167,0.128,0.255,0.189c0.008,0.006,0.016,0.008,0.025,0.013
		c0.315,0.477,1.076,0.643,1.591,0.75c0.209,0.043,0.427,0.08,0.642,0.12c0.022,0.408,0.059,0.816,0.119,1.231
		c0.055,0.378,0.103,0.765,0.188,1.137c0.135,0.589,0.448,1.052,0.902,1.445c0.725,0.629,2.104,0.695,2.581-0.333
		c0.115-0.247,0.293-0.547,0.35-0.798c0.095-0.416,0.068-0.78,0.001-1.201c-0.026-0.163-0.058-0.325-0.085-0.487
		c-0.015-0.091-0.123-0.804-0.049-0.29c-0.022-0.152-0.048-0.303-0.071-0.455c0.018-0.001,0.036,0,0.054-0.001
		c0.929-0.05,1.939-0.012,2.757-0.505C409.302,202.811,408.978,201.212,407.798,200.791z"/>
	<path style="fill:#FFFFFF;" d="M419.364,196.827c-0.505-0.18-1.064-0.055-1.588-0.021c-0.125,0.008-0.251,0.019-0.376,0.028
		c-0.036-0.186-0.066-0.374-0.106-0.559c-0.103-0.47-0.212-0.952-0.287-1.412c-0.041-0.253-0.332-0.435-0.571-0.435
		c-0.281,0-0.472,0.19-0.571,0.435c-0.188,0.462-0.367,0.921-0.501,1.412c-0.069,0.253-0.121,0.517-0.159,0.782
		c-0.144,0.022-0.288,0.044-0.432,0.064c-0.334,0.047-0.86,0.098-1.087,0.404c-0.066,0.035-0.132,0.069-0.207,0.087
		c-0.256,0.061-0.206,0.389,0,0.47c0.068,0.027,0.11,0.084,0.169,0.125c0.005,0.004,0.011,0.005,0.016,0.009
		c0.208,0.315,0.711,0.425,1.052,0.495c0.138,0.029,0.282,0.053,0.424,0.079c0.014,0.27,0.039,0.539,0.078,0.813
		c0.036,0.25,0.068,0.505,0.125,0.752c0.089,0.389,0.296,0.695,0.596,0.955c0.479,0.416,1.391,0.459,1.706-0.22
		c0.076-0.163,0.194-0.361,0.231-0.527c0.063-0.275,0.045-0.515,0.001-0.794c-0.017-0.107-0.039-0.215-0.056-0.322
		c-0.01-0.06-0.081-0.532-0.033-0.191c-0.014-0.1-0.032-0.2-0.047-0.3c0.012-0.001,0.024,0,0.036-0.001
		c0.614-0.033,1.282-0.008,1.822-0.334C420.358,198.162,420.144,197.105,419.364,196.827z"/>
	<path style="fill:#FFFFFF;" d="M448.599,317.449c-0.505-0.18-1.064-0.055-1.588-0.022c-0.125,0.008-0.251,0.019-0.376,0.028
		c-0.036-0.186-0.066-0.374-0.106-0.559c-0.103-0.47-0.212-0.952-0.287-1.412c-0.041-0.253-0.332-0.435-0.571-0.435
		c-0.281,0-0.471,0.19-0.571,0.435c-0.188,0.462-0.367,0.921-0.501,1.412c-0.069,0.253-0.121,0.517-0.159,0.782
		c-0.144,0.022-0.288,0.044-0.432,0.064c-0.334,0.047-0.86,0.098-1.087,0.404c-0.066,0.035-0.132,0.069-0.208,0.087
		c-0.256,0.06-0.206,0.389,0,0.47c0.068,0.027,0.11,0.084,0.169,0.125c0.005,0.004,0.011,0.005,0.016,0.009
		c0.208,0.315,0.711,0.425,1.052,0.495c0.138,0.029,0.283,0.053,0.424,0.079c0.014,0.27,0.039,0.539,0.078,0.813
		c0.036,0.25,0.068,0.505,0.125,0.751c0.089,0.389,0.296,0.695,0.596,0.955c0.479,0.416,1.391,0.459,1.705-0.22
		c0.076-0.163,0.194-0.362,0.232-0.528c0.063-0.275,0.045-0.515,0-0.794c-0.017-0.107-0.039-0.215-0.056-0.322
		c-0.01-0.06-0.081-0.532-0.033-0.191c-0.014-0.1-0.032-0.2-0.047-0.301c0.012-0.001,0.024,0,0.036-0.001
		c0.614-0.033,1.282-0.008,1.822-0.334C449.593,318.784,449.379,317.727,448.599,317.449z"/>
	<path style="fill:#FFFFFF;" d="M34.967,315.773c-0.51-0.182-1.075-0.056-1.603-0.022c-0.126,0.008-0.253,0.019-0.38,0.028
		c-0.036-0.188-0.066-0.378-0.107-0.565c-0.104-0.474-0.214-0.962-0.29-1.426c-0.041-0.255-0.335-0.439-0.577-0.439
		c-0.284,0-0.476,0.192-0.577,0.439c-0.189,0.466-0.37,0.93-0.506,1.426c-0.07,0.255-0.122,0.522-0.161,0.79
		c-0.145,0.022-0.291,0.044-0.436,0.065c-0.337,0.048-0.869,0.099-1.097,0.408c-0.067,0.035-0.133,0.07-0.21,0.088
		c-0.258,0.061-0.208,0.393,0,0.475c0.068,0.027,0.111,0.085,0.17,0.126c0.005,0.004,0.011,0.005,0.016,0.009
		c0.21,0.319,0.718,0.429,1.062,0.5c0.14,0.029,0.285,0.053,0.428,0.08c0.015,0.272,0.039,0.544,0.079,0.821
		c0.036,0.253,0.069,0.51,0.126,0.759c0.09,0.393,0.299,0.702,0.602,0.965c0.484,0.42,1.404,0.463,1.722-0.222
		c0.076-0.165,0.195-0.365,0.234-0.533c0.063-0.278,0.045-0.52,0-0.802c-0.017-0.109-0.039-0.217-0.057-0.325
		c-0.01-0.061-0.082-0.537-0.033-0.193c-0.014-0.102-0.032-0.202-0.047-0.303c0.012-0.001,0.024,0,0.036-0.001
		c0.62-0.034,1.294-0.008,1.84-0.337C35.971,317.121,35.755,316.054,34.967,315.773z"/>
</g>
</svg>
