<?xml version="1.0" encoding="utf-8"?>
<!-- Generator: Adobe Illustrator 27.5.0, SVG Export Plug-In . SVG Version: 6.00 Build 0)  -->
<svg version="1.1" xmlns="http://www.w3.org/2000/svg" xmlns:xlink="http://www.w3.org/1999/xlink" x="0px" y="0px"
	 viewBox="0 0 750 500" style="enable-background:new 0 0 750 500;" xml:space="preserve">
<g id="BACKGROUND">
	<rect style="fill:#D2DDFF;" width="750" height="500"/>
	<g>
		<g>
			<g>
				<g>
					<g>
						<path style="fill:#D2DDFF;" d="M151.78,106.031l-8.994,6.936c-2.126,1.64-5.047,1.773-7.318,0.342
							c-1.052-0.663-2.127-1.28-3.222-1.85c-2.399-1.249-3.791-3.836-3.444-6.519l1.455-11.266c0.452-3.502-2.02-6.708-5.522-7.161
							L114.72,85.22c-3.502-0.452-6.708,2.02-7.161,5.522l-1.455,11.266c-0.347,2.683-2.35,4.832-4.988,5.43
							c-1.204,0.273-2.4,0.596-3.586,0.97c-2.56,0.807-5.352-0.064-6.991-2.19l-6.936-8.994c-2.157-2.796-6.172-3.315-8.968-1.159
							l-7.995,6.166c-2.796,2.157-3.315,6.172-1.158,8.968l6.936,8.994c1.639,2.126,1.773,5.047,0.341,7.318
							c-0.663,1.052-1.279,2.127-1.85,3.222c-1.249,2.4-3.836,3.791-6.519,3.445l-11.266-1.455c-3.502-0.452-6.708,2.02-7.161,5.522
							l-1.294,10.014c-0.452,3.502,2.02,6.708,5.522,7.161l11.266,1.455c2.683,0.347,4.831,2.35,5.43,4.988
							c0.273,1.204,0.596,2.4,0.97,3.586c0.807,2.56-0.064,5.352-2.19,6.991l-8.994,6.936c-2.796,2.157-3.315,6.172-1.159,8.968
							l6.166,7.995c2.157,2.796,6.172,3.315,8.968,1.158l8.994-6.936c2.126-1.639,5.047-1.773,7.318-0.341
							c1.052,0.663,2.127,1.279,3.222,1.85c2.4,1.249,3.791,3.837,3.444,6.519l-1.455,11.266c-0.452,3.502,2.02,6.708,5.522,7.161
							l10.014,1.293c3.502,0.453,6.708-2.02,7.161-5.522l1.455-11.266c0.347-2.683,2.35-4.831,4.988-5.43
							c1.204-0.273,2.4-0.596,3.586-0.97c2.56-0.807,5.352,0.064,6.991,2.19l6.936,8.994c2.157,2.796,6.172,3.315,8.968,1.158
							l7.995-6.166c2.796-2.157,3.315-6.172,1.158-8.968l-6.936-8.994c-1.639-2.126-1.773-5.047-0.341-7.318
							c0.663-1.052,1.279-2.127,1.849-3.222c1.25-2.4,3.837-3.791,6.519-3.445l11.266,1.455c3.502,0.452,6.708-2.02,7.161-5.522
							l1.294-10.014c0.452-3.502-2.02-6.708-5.522-7.161l-11.266-1.455c-2.683-0.347-4.831-2.35-5.43-4.988
							c-0.273-1.204-0.596-2.4-0.97-3.586c-0.807-2.56,0.064-5.352,2.19-6.991l8.994-6.936c2.796-2.156,3.315-6.172,1.159-8.968
							l-6.166-7.995C158.591,104.393,154.576,103.875,151.78,106.031z M132.109,178.858c-14.963,11.54-36.448,8.764-47.987-6.199
							c-11.54-14.963-8.764-36.448,6.199-47.987c14.963-11.539,36.448-8.764,47.987,6.199
							C149.847,145.834,147.072,167.319,132.109,178.858z"/>
						<path style="fill:#FFFFFF;" d="M108.533,219.363c-0.314,0-0.632-0.02-0.952-0.061l-10.014-1.294
							c-4.044-0.522-6.908-4.237-6.387-8.28l1.456-11.266c0.288-2.234-0.883-4.446-2.915-5.503
							c-1.114-0.581-2.222-1.217-3.292-1.891c-1.91-1.203-4.391-1.088-6.174,0.287l-8.996,6.937
							c-1.563,1.207-3.507,1.73-5.462,1.478c-1.959-0.253-3.702-1.253-4.908-2.817l-6.166-7.995
							c-2.489-3.229-1.889-7.881,1.34-10.371l8.994-6.937c1.783-1.375,2.525-3.746,1.847-5.899
							c-0.378-1.199-0.712-2.433-0.992-3.664c-0.507-2.234-2.349-3.93-4.582-4.218l-11.266-1.455
							c-4.044-0.522-6.908-4.237-6.387-8.28l1.294-10.014c0.253-1.959,1.254-3.702,2.818-4.908c1.564-1.206,3.508-1.729,5.462-1.478
							l11.266,1.455c2.235,0.29,4.447-0.884,5.505-2.914c0.584-1.122,1.22-2.23,1.891-3.293c1.203-1.909,1.088-4.391-0.288-6.174
							l-6.936-8.994c-1.206-1.564-1.731-3.504-1.479-5.463c0.253-1.959,1.254-3.702,2.818-4.908l7.995-6.166
							c3.227-2.489,7.881-1.889,10.371,1.34l6.936,8.994c1.375,1.784,3.748,2.525,5.898,1.847c1.199-0.378,2.433-0.712,3.665-0.992
							c2.234-0.507,3.93-2.349,4.218-4.583l1.455-11.266c0.524-4.042,4.236-6.91,8.281-6.386l10.014,1.294
							c4.044,0.522,6.908,4.237,6.387,8.28l-1.456,11.266c-0.289,2.234,0.882,4.446,2.914,5.504c1.115,0.58,2.223,1.217,3.293,1.891
							c1.911,1.205,4.393,1.09,6.175-0.287l8.995-6.936c3.228-2.489,7.88-1.888,10.37,1.34l6.166,7.995
							c2.489,3.228,1.889,7.881-1.34,10.371l-8.994,6.937c-1.783,1.375-2.525,3.746-1.847,5.899
							c0.379,1.203,0.713,2.436,0.991,3.665c0.507,2.233,2.349,3.928,4.583,4.217l11.266,1.456c1.959,0.253,3.702,1.253,4.908,2.817
							c1.206,1.564,1.732,3.504,1.479,5.462l-1.294,10.014c-0.253,1.959-1.254,3.702-2.818,4.908
							c-1.564,1.207-3.506,1.732-5.462,1.478l-11.266-1.455c-2.24-0.291-4.447,0.883-5.505,2.914
							c-0.586,1.124-1.222,2.232-1.891,3.293c-1.203,1.909-1.088,4.391,0.287,6.175l6.936,8.994
							c1.206,1.564,1.732,3.504,1.479,5.463c-0.253,1.959-1.254,3.702-2.818,4.908l-7.995,6.166
							c-3.228,2.49-7.881,1.888-10.371-1.34l-6.936-8.994c-1.375-1.784-3.748-2.524-5.899-1.847
							c-1.195,0.377-2.428,0.711-3.664,0.992c-2.234,0.507-3.93,2.349-4.218,4.583l-1.455,11.266
							C115.38,216.639,112.192,219.363,108.533,219.363z M83.549,188.239c1.368,0,2.74,0.376,3.946,1.137
							c1.024,0.645,2.085,1.253,3.15,1.809c2.773,1.442,4.37,4.47,3.976,7.534l-1.456,11.266c-0.381,2.95,1.709,5.66,4.658,6.04
							l10.014,1.294c2.948,0.383,5.66-1.708,6.041-4.659l1.455-11.265c0.396-3.063,2.711-5.586,5.759-6.277
							c1.183-0.269,2.362-0.588,3.506-0.949c2.948-0.929,6.199,0.087,8.085,2.533l6.936,8.994c1.816,2.354,5.21,2.794,7.566,0.978
							l7.995-6.166c1.141-0.88,1.871-2.151,2.056-3.581c0.184-1.429-0.199-2.844-1.079-3.985l-6.937-8.994
							c-1.885-2.446-2.044-5.847-0.395-8.462c0.64-1.015,1.248-2.075,1.809-3.15c1.443-2.773,4.476-4.366,7.534-3.974l11.266,1.455
							c1.436,0.185,2.845-0.199,3.985-1.078c1.141-0.88,1.871-2.151,2.055-3.58l1.294-10.014c0.184-1.429-0.198-2.844-1.078-3.985
							c-0.88-1.141-2.151-1.871-3.58-2.056l-11.266-1.456c-3.064-0.395-5.586-2.71-6.278-5.758
							c-0.266-1.175-0.585-2.355-0.948-3.506c-0.929-2.95,0.089-6.199,2.534-8.084l8.994-6.937c2.355-1.816,2.793-5.21,0.977-7.565
							l-6.166-7.995c-1.816-2.355-5.208-2.796-7.565-0.978l-8.995,6.937c-2.443,1.887-5.846,2.044-8.462,0.395
							c-1.023-0.645-2.083-1.253-3.15-1.809c-2.772-1.444-4.37-4.472-3.975-7.534l1.456-11.267c0.381-2.949-1.709-5.659-4.658-6.04
							l-10.014-1.294c-2.949-0.381-5.66,1.709-6.041,4.659l-1.455,11.265c-0.396,3.063-2.711,5.586-5.759,6.277
							c-1.18,0.268-2.359,0.587-3.507,0.949c-2.948,0.931-6.197-0.088-8.084-2.533l-6.936-8.994
							c-1.817-2.355-5.21-2.794-7.566-0.978l-7.995,6.166c-1.141,0.88-1.871,2.151-2.056,3.581
							c-0.185,1.429,0.199,2.844,1.079,3.985l6.936,8.994c1.886,2.446,2.045,5.846,0.395,8.462c-0.641,1.017-1.249,2.077-1.809,3.15
							c-1.443,2.773-4.473,4.37-7.534,3.974l-11.266-1.455c-1.433-0.185-2.844,0.199-3.985,1.078
							c-1.141,0.88-1.871,2.151-2.055,3.58l-1.294,10.014c-0.381,2.95,1.709,5.66,4.658,6.041l11.266,1.455
							c3.062,0.395,5.585,2.71,6.277,5.759c0.268,1.179,0.587,2.358,0.949,3.506c0.929,2.95-0.089,6.199-2.534,8.084l-8.994,6.936
							c-2.354,1.816-2.793,5.21-0.977,7.566l6.166,7.995c0.88,1.141,2.151,1.871,3.58,2.056c1.436,0.186,2.844-0.199,3.985-1.078
							l8.995-6.937C80.352,188.754,81.947,188.239,83.549,188.239z M151.78,106.031h0.01H151.78z M111.255,186.965
							c-10.554,0-20.997-4.712-27.925-13.695c-5.744-7.448-8.244-16.688-7.039-26.016c1.205-9.329,5.971-17.63,13.419-23.374
							c7.448-5.744,16.691-8.244,26.017-7.039c9.328,1.205,17.629,5.971,23.373,13.419c5.744,7.448,8.244,16.688,7.039,26.016
							c-1.205,9.329-5.971,17.629-13.419,23.374l0,0C126.328,184.58,118.763,186.965,111.255,186.965z M111.146,118.545
							c-7.293,0-14.344,2.391-20.216,6.918c-7.024,5.418-11.52,13.247-12.656,22.046c-1.137,8.799,1.222,17.514,6.64,24.538
							c11.183,14.503,32.081,17.201,46.585,6.018l0,0c14.502-11.185,17.201-32.083,6.017-46.585
							c-5.418-7.025-13.247-11.521-22.046-12.657C114.024,118.638,112.581,118.545,111.146,118.545z M132.109,178.858h0.01H132.109z
							"/>
					</g>
				</g>
			</g>
			<g>
				<g>
					<g>
						
							<ellipse transform="matrix(0.9719 -0.2356 0.2356 0.9719 -65.3592 38.1755)" style="fill:#D2DDFF;" cx="127.103" cy="292.648" rx="57.71" ry="57.71"/>
						<path style="fill:#FFFFFF;" d="M127.103,351.357c-32.373,0-58.71-26.337-58.71-58.71c0-32.372,26.337-58.709,58.71-58.709
							c32.372,0,58.709,26.337,58.709,58.709C185.812,325.021,159.476,351.357,127.103,351.357z M127.103,235.938
							c-31.269,0-56.71,25.44-56.71,56.709c0,31.27,25.44,56.71,56.71,56.71c31.27,0,56.709-25.44,56.709-56.71
							C183.812,261.378,158.373,235.938,127.103,235.938z"/>
					</g>
					<g>
						<g>
							
								<ellipse transform="matrix(0.9719 -0.2356 0.2356 0.9719 -65.3592 38.1755)" style="fill:#D2DDFF;" cx="127.103" cy="292.648" rx="57.71" ry="57.71"/>
							<path style="fill:#FFFFFF;" d="M127.103,351.357c-32.373,0-58.71-26.337-58.71-58.71c0-32.372,26.337-58.709,58.71-58.709
								c32.372,0,58.709,26.337,58.709,58.709C185.812,325.021,159.476,351.357,127.103,351.357z M127.103,235.938
								c-31.269,0-56.71,25.44-56.71,56.709c0,31.27,25.44,56.71,56.71,56.71c31.27,0,56.709-25.44,56.709-56.71
								C183.812,261.378,158.373,235.938,127.103,235.938z"/>
						</g>
						<g>
							<path style="fill:#D2DDFF;" d="M181.442,337.315c-0.749-0.733-1.607-1.284-2.518-1.663
								c9.692-11.666,15.523-26.653,15.523-43.005c0-37.193-30.151-67.344-67.344-67.344s-67.344,30.151-67.344,67.344
								c0,37.193,30.151,67.344,67.344,67.344c15.567,0,29.888-5.296,41.294-14.165c0.397,1.057,1.018,2.048,1.877,2.89l6.764,6.625
								l11.286-11.286L181.442,337.315z M127.103,350.357c-31.872,0-57.71-25.837-57.71-57.71c0-31.872,25.838-57.71,57.71-57.71
								c31.872,0,57.71,25.838,57.71,57.71C184.813,324.52,158.975,350.357,127.103,350.357z"/>
							<path style="fill:#FFFFFF;" d="M127.103,360.992c-37.685,0-68.345-30.659-68.345-68.345
								c0-37.685,30.659-68.344,68.345-68.344c37.685,0,68.344,30.659,68.344,68.344c0,15.498-5.305,30.602-14.964,42.674
								c0.602,0.359,1.156,0.788,1.658,1.279h0.001l7.602,7.447l-12.7,12.701l-7.471-7.317c-0.621-0.608-1.143-1.296-1.561-2.054
								C156.123,356.29,142.007,360.992,127.103,360.992z M127.103,226.304c-36.583,0-66.345,29.762-66.345,66.344
								c0,36.583,29.762,66.345,66.345,66.345c14.873,0,28.94-4.825,40.679-13.954l1.072-0.834l0.478,1.271
								c0.364,0.968,0.916,1.817,1.642,2.527l6.058,5.933l9.87-9.871l-6.159-6.033h0.001c-0.634-0.62-1.375-1.109-2.204-1.455
								l-1.25-0.521l0.865-1.041c9.862-11.87,15.293-26.916,15.293-42.366C193.447,256.065,163.685,226.304,127.103,226.304z
								 M127.103,351.357c-32.373,0-58.71-26.337-58.71-58.71c0-32.372,26.337-58.709,58.71-58.709
								c32.372,0,58.709,26.337,58.709,58.709C185.812,325.021,159.476,351.357,127.103,351.357z M127.103,235.938
								c-31.269,0-56.71,25.44-56.71,56.709c0,31.27,25.44,56.71,56.71,56.71c31.27,0,56.709-25.44,56.709-56.71
								C183.812,261.378,158.373,235.938,127.103,235.938z"/>
						</g>
						<g>
							<path style="fill:#D2DDFF;" d="M201.438,351.647l-8.967-8.967c-0.765-0.765-2.006-0.765-2.771,0l-1.376,1.376l-11.286,11.286
								l-0.402,0.402c-0.765,0.765-0.765,2.006,0,2.771l8.967,8.967c0.765,0.765,2.006,0.765,2.771,0l13.064-13.064
								C202.203,353.653,202.203,352.412,201.438,351.647z"/>
							<path style="fill:#FFFFFF;" d="M186.988,369.057c-0.791,0-1.534-0.309-2.094-0.867l-8.966-8.967
								c-1.154-1.154-1.154-3.031,0-4.186l13.064-13.064c1.155-1.154,3.031-1.152,4.184,0l8.967,8.967
								c0.56,0.559,0.867,1.303,0.867,2.093c0,0.791-0.309,1.534-0.867,2.094l-13.063,13.064
								C188.521,368.749,187.778,369.057,186.988,369.057z M191.086,343.106c-0.246,0-0.491,0.094-0.679,0.28l-13.064,13.065
								c-0.374,0.374-0.374,0.983,0,1.357l8.967,8.967c0.362,0.362,0.994,0.364,1.357,0l13.063-13.064
								c0.182-0.182,0.281-0.422,0.281-0.679c0-0.256-0.1-0.497-0.281-0.679l-8.967-8.967
								C191.576,343.2,191.331,343.106,191.086,343.106z"/>
						</g>
					</g>
					<g>
						<path style="fill:#D2DDFF;" d="M244.801,393.528l-47.424-47.94c-0.35-0.354-2.139,0.949-4.445,2.983
							c-3.607,3.18-8.478,8.15-11.141,11.428c-1.378,1.696-2.168,2.941-1.873,3.239l47.424,47.94c4.821,4.874,12.638,4.874,17.46,0
							C249.623,406.304,249.623,398.402,244.801,393.528z"/>
						<path style="fill:#FFFFFF;" d="M236.072,415.833c-3.567,0-6.92-1.403-9.441-3.952l-47.424-47.94
							c-0.886-0.895-0.086-2.241,1.808-4.573c2.651-3.262,7.49-8.226,11.257-11.547c3.962-3.496,5.033-3.731,5.817-2.935
							l47.424,47.939c5.197,5.253,5.197,13.802,0,19.056C242.991,414.43,239.639,415.833,236.072,415.833z M180.963,362.871
							l47.09,47.604c2.143,2.166,4.99,3.358,8.02,3.358c3.028,0,5.876-1.192,8.019-3.358c4.43-4.479,4.431-11.766,0-16.243
							l-47.07-47.582c-0.423,0.232-1.396,0.881-3.427,2.671c-3.635,3.205-8.479,8.172-11.026,11.309
							C181.547,361.885,181.131,362.549,180.963,362.871z M196.666,346.291c0.001,0.001,0.001,0.001,0.002,0.002L196.666,346.291z"
							/>
					</g>
					<g>
						<circle style="fill:#D2DDFF;" cx="238.539" cy="403.213" r="3.5"/>
						<path style="fill:#FFFFFF;" d="M238.539,407.713c-2.481,0-4.5-2.019-4.5-4.5c0-2.481,2.019-4.5,4.5-4.5
							c2.481,0,4.5,2.019,4.5,4.5C243.039,405.694,241.02,407.713,238.539,407.713z M238.539,400.713c-1.379,0-2.5,1.121-2.5,2.5
							c0,1.379,1.121,2.5,2.5,2.5c1.379,0,2.5-1.121,2.5-2.5C241.039,401.834,239.918,400.713,238.539,400.713z"/>
					</g>
					<g>
						<line style="fill:#D2DDFF;" x1="195.804" y1="354.242" x2="227.216" y2="385.654"/>
						<path style="fill:#FFFFFF;" d="M227.216,386.654c-0.256,0-0.512-0.098-0.707-0.293l-31.412-31.412
							c-0.391-0.391-0.391-1.023,0-1.414c0.391-0.391,1.023-0.391,1.414,0l31.412,31.412c0.391,0.391,0.391,1.023,0,1.414
							C227.727,386.557,227.472,386.654,227.216,386.654z"/>
					</g>
					<g>
						<path style="fill:#D2DDFF;" d="M105.104,252.801c0,0,32.922-16.826,58.329,11.715"/>
						<path style="fill:#FFFFFF;" d="M163.434,265.517c-0.275,0-0.55-0.113-0.747-0.335c-24.605-27.642-56.805-11.654-57.127-11.489
							c-0.49,0.251-1.095,0.056-1.346-0.436c-0.251-0.492-0.057-1.094,0.436-1.346c0.336-0.171,33.905-16.845,59.531,11.94
							c0.367,0.413,0.33,1.045-0.082,1.412C163.908,265.434,163.671,265.517,163.434,265.517z"/>
					</g>
				</g>
			</g>
			<g>
				<g>
					<path style="fill:#FFFFFF;" d="M228.243,167.974l-4.348,5.963c-1.028,1.41-2.826,2.024-4.503,1.545
						c-0.777-0.222-1.559-0.411-2.346-0.567c-1.724-0.343-3.063-1.703-3.335-3.44l-1.143-7.292
						c-0.355-2.267-2.481-3.816-4.748-3.461l-6.481,1.016c-2.267,0.355-3.817,2.481-3.461,4.748l1.142,7.292
						c0.272,1.737-0.586,3.441-2.123,4.295c-0.701,0.389-1.389,0.809-2.06,1.258c-1.45,0.969-3.35,0.934-4.759-0.094l-5.963-4.348
						c-1.854-1.352-4.453-0.945-5.805,0.91l-3.865,5.301c-1.352,1.854-0.945,4.453,0.91,5.805l5.964,4.348
						c1.41,1.028,2.024,2.826,1.545,4.503c-0.222,0.777-0.411,1.559-0.567,2.346c-0.343,1.724-1.703,3.063-3.44,3.335l-7.292,1.143
						c-2.267,0.355-3.817,2.481-3.462,4.748l1.016,6.482c0.355,2.267,2.481,3.817,4.748,3.461l7.292-1.143
						c1.737-0.272,3.441,0.587,4.295,2.123c0.389,0.701,0.809,1.389,1.258,2.06c0.969,1.45,0.934,3.35-0.094,4.759l-4.348,5.964
						c-1.352,1.854-0.945,4.453,0.91,5.805l5.301,3.865c1.854,1.352,4.453,0.945,5.805-0.91l4.348-5.963
						c1.028-1.41,2.826-2.024,4.503-1.545c0.777,0.222,1.559,0.411,2.346,0.567c1.724,0.343,3.063,1.703,3.335,3.44l1.143,7.292
						c0.355,2.267,2.481,3.817,4.748,3.461l6.481-1.015c2.267-0.355,3.817-2.481,3.461-4.748l-1.142-7.292
						c-0.272-1.737,0.587-3.441,2.123-4.295c0.701-0.389,1.389-0.809,2.06-1.258c1.45-0.969,3.35-0.934,4.759,0.094l5.964,4.348
						c1.854,1.352,4.453,0.945,5.805-0.91l3.865-5.301c1.352-1.854,0.945-4.453-0.91-5.805l-5.963-4.348
						c-1.41-1.028-2.024-2.826-1.545-4.503c0.222-0.777,0.411-1.559,0.567-2.346c0.343-1.724,1.703-3.063,3.44-3.335l7.292-1.143
						c2.267-0.355,3.817-2.481,3.461-4.748l-1.016-6.482c-0.355-2.267-2.481-3.817-4.748-3.462l-7.292,1.143
						c-1.737,0.272-3.441-0.587-4.295-2.123c-0.389-0.701-0.809-1.389-1.258-2.06c-0.969-1.45-0.934-3.35,0.094-4.759l4.348-5.964
						c1.352-1.854,0.945-4.453-0.91-5.805l-5.301-3.865C232.193,165.713,229.594,166.12,228.243,167.974z M229.227,216.98
						c-7.233,9.921-21.14,12.1-31.061,4.867s-12.1-21.14-4.867-31.061c7.233-9.921,21.14-12.1,31.061-4.867
						C234.281,193.153,236.46,207.059,229.227,216.98z"/>
				</g>
			</g>
			<g>
				<path style="fill:#FFFFFF;" d="M680.771,269.151c-1.083,0-2.134-0.341-3.025-0.991c-1.112-0.812-1.843-2.007-2.057-3.367
					l-1.143-7.292c-0.203-1.302-1.225-2.353-2.542-2.614c-0.82-0.163-1.637-0.36-2.426-0.587c-1.267-0.358-2.644,0.108-3.42,1.173
					l-4.348,5.964c-0.811,1.112-2.007,1.843-3.367,2.056c-1.356,0.212-2.723-0.116-3.834-0.928l-5.302-3.865
					c-2.296-1.674-2.803-4.904-1.129-7.201l4.349-5.964c0.775-1.064,0.804-2.517,0.07-3.614c-0.46-0.687-0.897-1.403-1.301-2.13
					c-0.652-1.173-1.965-1.828-3.267-1.621l-7.291,1.143c-1.362,0.212-2.723-0.116-3.835-0.927
					c-1.112-0.811-1.843-2.007-2.056-3.368l-1.016-6.481c-0.213-1.36,0.116-2.722,0.928-3.835c0.811-1.113,2.007-1.843,3.367-2.056
					l7.291-1.143c1.303-0.204,2.353-1.225,2.615-2.542c0.161-0.815,0.358-1.632,0.585-2.426c0.363-1.27-0.107-2.645-1.171-3.42
					l-5.964-4.348c-1.113-0.812-1.843-2.007-2.057-3.368c-0.213-1.36,0.117-2.722,0.929-3.834l3.864-5.301
					c1.675-2.295,4.906-2.803,7.202-1.129l5.963,4.348c1.064,0.776,2.518,0.805,3.615,0.07c0.686-0.459,1.403-0.897,2.13-1.301
					c1.174-0.651,1.825-1.964,1.62-3.266l-1.142-7.292c-0.213-1.36,0.116-2.722,0.928-3.834c0.81-1.113,2.007-1.843,3.367-2.056
					l6.48-1.016c2.821-0.445,5.451,1.487,5.892,4.294l1.143,7.292c0.203,1.302,1.225,2.352,2.541,2.613
					c0.811,0.161,1.626,0.358,2.426,0.587c1.272,0.363,2.646-0.108,3.42-1.172l4.349-5.964c0.811-1.112,2.007-1.842,3.367-2.056
					c1.356-0.213,2.723,0.117,3.834,0.928l5.302,3.865c2.296,1.675,2.803,4.906,1.128,7.202l-4.348,5.964
					c-0.775,1.064-0.804,2.517-0.07,3.615c0.458,0.684,0.895,1.4,1.301,2.13c0.651,1.173,1.964,1.822,3.267,1.621l7.291-1.143
					c1.366-0.214,2.724,0.117,3.835,0.927c1.112,0.811,1.843,2.007,2.056,3.368l1.016,6.481c0.213,1.36-0.116,2.722-0.928,3.835
					c-0.811,1.113-2.007,1.843-3.367,2.056l-7.291,1.143c-1.303,0.204-2.353,1.226-2.615,2.542
					c-0.161,0.815-0.358,1.632-0.585,2.426c-0.363,1.27,0.107,2.645,1.171,3.42l5.964,4.348c1.113,0.811,1.843,2.007,2.057,3.367
					c0.213,1.36-0.117,2.723-0.929,3.835l-3.864,5.3c-1.674,2.297-4.903,2.806-7.201,1.129l-5.964-4.348
					c-1.063-0.775-2.516-0.804-3.615-0.07c-0.683,0.457-1.399,0.895-2.13,1.301c-1.174,0.651-1.825,1.963-1.62,3.265l1.142,7.293
					c0.44,2.808-1.486,5.45-4.294,5.891l-6.481,1.016C681.31,269.13,681.04,269.151,680.771,269.151z M668.72,252.18
					c0.47,0,0.943,0.064,1.409,0.197c0.737,0.212,1.499,0.396,2.267,0.549c2.136,0.424,3.795,2.139,4.128,4.266l1.143,7.291
					c0.13,0.833,0.577,1.566,1.258,2.062c0.682,0.498,1.52,0.7,2.347,0.567l6.482-1.016c1.719-0.27,2.897-1.887,2.628-3.604
					l-1.142-7.293c-0.333-2.127,0.722-4.266,2.626-5.323c0.682-0.379,1.352-0.788,1.988-1.214c1.795-1.198,4.167-1.151,5.905,0.117
					l5.964,4.349c1.406,1.023,3.384,0.714,4.408-0.691l3.864-5.301c0.496-0.681,0.698-1.515,0.567-2.347
					c-0.13-0.833-0.577-1.564-1.258-2.061l-5.964-4.348c-1.739-1.268-2.51-3.513-1.917-5.585c0.212-0.741,0.396-1.504,0.548-2.266
					c0.425-2.136,2.139-3.795,4.267-4.128l7.291-1.143c0.833-0.13,1.564-0.577,2.061-1.258c0.497-0.681,0.698-1.514,0.567-2.347
					l-1.016-6.482c-0.13-0.833-0.576-1.564-1.258-2.061c-0.68-0.497-1.509-0.699-2.347-0.568l-7.291,1.143
					c-2.126,0.335-4.268-0.721-5.324-2.626c-0.379-0.681-0.787-1.351-1.215-1.989c-1.198-1.792-1.151-4.165,0.117-5.904l4.348-5.964
					c1.024-1.406,0.714-3.383-0.69-4.408l-5.302-3.865c-0.682-0.497-1.518-0.698-2.347-0.568c-0.833,0.13-1.564,0.577-2.061,1.258v0
					l-4.348,5.963c-1.267,1.74-3.513,2.51-5.585,1.917c-0.747-0.213-1.51-0.397-2.267-0.548c-2.136-0.424-3.795-2.139-4.128-4.266
					l-1.143-7.292c-0.269-1.718-1.881-2.895-3.605-2.628l-6.481,1.016c-0.833,0.13-1.564,0.577-2.06,1.258
					c-0.497,0.681-0.698,1.514-0.567,2.347l1.142,7.292c0.333,2.127-0.722,4.267-2.626,5.324c-0.678,0.376-1.347,0.785-1.988,1.215
					c-1.793,1.198-4.165,1.152-5.905-0.117l-5.963-4.348c-1.405-1.023-3.384-0.714-4.409,0.691l-3.864,5.301
					c-0.496,0.681-0.698,1.515-0.567,2.347c0.13,0.832,0.577,1.564,1.258,2.061l5.964,4.348c1.739,1.269,2.509,3.513,1.917,5.586
					c-0.212,0.741-0.396,1.504-0.548,2.266c-0.425,2.136-2.139,3.795-4.267,4.128l-7.291,1.143c-0.833,0.13-1.564,0.577-2.061,1.258
					c-0.497,0.681-0.698,1.514-0.567,2.347l1.016,6.481c0.13,0.833,0.576,1.564,1.258,2.061c0.68,0.496,1.516,0.699,2.346,0.567
					l7.292-1.143c2.131-0.333,4.268,0.723,5.324,2.626c0.377,0.678,0.786,1.348,1.215,1.99c1.198,1.792,1.151,4.165-0.117,5.904
					l-4.348,5.963c-1.024,1.406-0.715,3.383,0.69,4.408l5.302,3.865c0.682,0.496,1.52,0.693,2.347,0.567
					c0.833-0.131,1.564-0.577,2.061-1.258l4.348-5.964C665.526,252.946,667.097,252.18,668.72,252.18z M694.963,189.029h0.01
					H694.963z M677.953,248.161c-4.747,0-9.534-1.446-13.655-4.451c-10.352-7.547-12.633-22.108-5.086-32.458
					c3.655-5.014,9.045-8.305,15.175-9.265c6.132-0.96,12.27,0.524,17.282,4.18c5.015,3.656,8.305,9.045,9.266,15.176
					c0.961,6.13-0.523,12.268-4.18,17.282C692.213,244.854,685.13,248.161,677.953,248.161z M678.028,203.702
					c-1.105,0-2.219,0.087-3.331,0.261c-5.604,0.878-10.528,3.885-13.87,8.468c-3.341,4.582-4.697,10.191-3.819,15.794
					c0.878,5.603,3.886,10.528,8.468,13.869c9.459,6.897,22.768,4.812,29.664-4.648c3.341-4.582,4.697-10.191,3.819-15.794
					c-0.878-5.603-3.886-10.528-8.468-13.869C686.819,205.105,682.487,203.702,678.028,203.702z"/>
			</g>
			<g>
				<path style="fill:#FFFFFF;" d="M384.686,248.096c-1.083,0-2.134-0.34-3.025-0.991c-1.112-0.811-1.843-2.007-2.056-3.368
					l-1.143-7.292c-0.204-1.302-1.226-2.352-2.541-2.613c-0.813-0.161-1.629-0.359-2.427-0.587
					c-1.273-0.363-2.643,0.108-3.421,1.173l-4.348,5.963c-1.672,2.295-4.903,2.804-7.201,1.128l-5.301-3.865
					c-2.297-1.675-2.804-4.905-1.129-7.202l4.349-5.964c0.775-1.064,0.803-2.517,0.069-3.615c-0.465-0.696-0.902-1.413-1.301-2.131
					c-0.651-1.173-1.966-1.827-3.266-1.62l-7.291,1.143c-2.818,0.442-5.451-1.487-5.892-4.294l-1.016-6.481
					c-0.213-1.36,0.116-2.722,0.928-3.835c0.811-1.112,2.007-1.842,3.367-2.056l7.292-1.143c1.302-0.204,2.353-1.226,2.614-2.542
					c0.16-0.809,0.357-1.624,0.586-2.425c0.363-1.27-0.107-2.645-1.172-3.42l-5.964-4.348c-2.296-1.674-2.803-4.905-1.129-7.202
					l3.866-5.302c0.811-1.112,2.007-1.842,3.366-2.056c1.367-0.211,2.724,0.118,3.835,0.928l5.964,4.348
					c1.065,0.776,2.516,0.804,3.614,0.07c0.689-0.46,1.406-0.898,2.131-1.3c1.173-0.652,1.824-1.964,1.62-3.267l-1.143-7.291
					c-0.439-2.808,1.486-5.45,4.294-5.891l6.483-1.016c2.81-0.445,5.449,1.487,5.89,4.294l1.143,7.292
					c0.204,1.301,1.225,2.352,2.542,2.613c0.811,0.161,1.628,0.359,2.426,0.587c1.272,0.362,2.645-0.108,3.419-1.172l4.35-5.964
					c1.673-2.295,4.905-2.802,7.201-1.128l5.301,3.865c1.113,0.811,1.843,2.007,2.057,3.367c0.213,1.36-0.117,2.723-0.929,3.835
					l-4.348,5.963c-0.775,1.064-0.804,2.517-0.07,3.614c0.458,0.685,0.896,1.402,1.301,2.13c0.651,1.174,1.964,1.825,3.267,1.621
					l7.291-1.143c2.819-0.443,5.451,1.487,5.892,4.294l1.016,6.481c0.439,2.809-1.488,5.451-4.296,5.89l-7.291,1.143
					c-1.302,0.204-2.353,1.226-2.614,2.542c-0.16,0.807-0.357,1.623-0.586,2.426c-0.363,1.27,0.108,2.644,1.172,3.42l5.963,4.348
					c2.297,1.675,2.804,4.905,1.129,7.202l-3.865,5.302c-0.811,1.112-2.007,1.842-3.367,2.056c-1.357,0.211-2.723-0.117-3.834-0.927
					l-5.964-4.348c-1.065-0.775-2.516-0.804-3.614-0.07c-0.691,0.462-1.408,0.899-2.131,1.301c-1.173,0.652-1.824,1.964-1.62,3.266
					l1.143,7.292c0.213,1.36-0.116,2.722-0.928,3.835c-0.811,1.112-2.007,1.842-3.368,2.055l-6.48,1.016
					C385.226,248.075,384.955,248.096,384.686,248.096z M372.635,231.125c0.47,0,0.944,0.064,1.41,0.198
					c0.745,0.213,1.508,0.397,2.266,0.548c2.136,0.424,3.795,2.138,4.129,4.266l1.142,7.292c0.13,0.832,0.576,1.564,1.258,2.061
					c0.681,0.496,1.517,0.699,2.346,0.567l6.482-1.016c0.833-0.13,1.565-0.577,2.061-1.258c0.497-0.681,0.698-1.514,0.567-2.347
					l-1.143-7.292c-0.333-2.126,0.722-4.266,2.626-5.324c0.675-0.375,1.345-0.784,1.99-1.215c1.792-1.198,4.165-1.15,5.903,0.117
					l5.964,4.348c0.681,0.497,1.516,0.698,2.347,0.567c0.833-0.13,1.565-0.577,2.061-1.258l3.865-5.302
					c1.024-1.405,0.714-3.382-0.691-4.407l-5.963-4.348c-1.739-1.268-2.51-3.514-1.918-5.586c0.215-0.75,0.398-1.513,0.549-2.266
					c0.424-2.136,2.139-3.795,4.266-4.128l7.291-1.143c1.719-0.269,2.897-1.887,2.629-3.605l-1.016-6.481
					c-0.269-1.717-1.874-2.892-3.605-2.629l-7.291,1.143c-2.129,0.335-4.268-0.721-5.324-2.626c-0.378-0.68-0.787-1.35-1.215-1.99
					c-1.197-1.792-1.15-4.165,0.116-5.904l4.349-5.964c0.496-0.681,0.698-1.514,0.567-2.347c-0.13-0.832-0.577-1.564-1.258-2.061
					l-5.301-3.865c-1.404-1.023-3.382-0.714-4.408,0.69v0.001l-4.349,5.963c-1.268,1.739-3.516,2.508-5.585,1.917
					c-0.745-0.213-1.508-0.397-2.266-0.548c-2.136-0.425-3.795-2.139-4.129-4.266l-1.143-7.292c-0.27-1.719-1.887-2.894-3.604-2.628
					l-6.481,1.016c-1.719,0.27-2.898,1.887-2.628,3.605l1.142,7.292c0.332,2.127-0.723,4.267-2.626,5.324
					c-0.676,0.376-1.346,0.785-1.99,1.215c-1.793,1.199-4.165,1.15-5.903-0.117l-5.964-4.348c-0.682-0.497-1.511-0.698-2.348-0.568
					c-0.832,0.13-1.564,0.577-2.061,1.258l-3.865,5.302c-1.024,1.405-0.715,3.383,0.69,4.407l5.964,4.348
					c1.739,1.268,2.51,3.513,1.918,5.586c-0.214,0.748-0.398,1.51-0.549,2.266c-0.424,2.136-2.139,3.795-4.266,4.128l-7.291,1.143
					c-0.833,0.131-1.565,0.578-2.061,1.258c-0.497,0.681-0.698,1.515-0.567,2.347l1.016,6.481c0.269,1.719,1.888,2.893,3.605,2.629
					l7.291-1.143c2.132-0.333,4.269,0.722,5.324,2.626c0.372,0.671,0.78,1.34,1.215,1.99c1.197,1.791,1.151,4.165-0.116,5.904
					l-4.35,5.964c-1.024,1.405-0.714,3.382,0.691,4.407l5.301,3.865c1.407,1.025,3.383,0.714,4.408-0.69l4.348-5.964
					C369.442,231.892,371.013,231.125,372.635,231.125z M398.879,167.974h0.01H398.879z M381.868,227.106
					c-4.747,0-9.534-1.447-13.655-4.451c-5.015-3.656-8.305-9.045-9.265-15.176c-0.961-6.13,0.523-12.268,4.18-17.282
					c7.546-10.35,22.105-12.632,32.457-5.085c10.35,7.547,12.632,22.107,5.085,32.458l0,0
					C396.128,223.799,389.045,227.106,381.868,227.106z M381.927,182.66c-6.559,0-13.032,3.022-17.184,8.716
					c-3.341,4.582-4.697,10.191-3.819,15.794c0.878,5.603,3.885,10.528,8.467,13.869c9.459,6.896,22.766,4.812,29.664-4.648l0,0
					c6.897-9.46,4.812-22.767-4.647-29.664C390.642,183.982,386.265,182.66,381.927,182.66z M399.862,216.98h0.01H399.862z"/>
			</g>
			<g>
				<g>
					<g>
						<path style="fill:#FFFFFF;" d="M488.736,292.243c-0.476,0-0.957-0.045-1.44-0.139l-10.161-1.972
							c-1.98-0.384-3.693-1.516-4.822-3.189c-1.129-1.672-1.539-3.685-1.154-5.665l2.217-11.43c0.44-2.276-0.6-4.613-2.589-5.814
							c-1.107-0.668-2.199-1.391-3.245-2.146c-1.912-1.38-4.489-1.437-6.411-0.138l-9.65,6.515
							c-1.673,1.129-3.688,1.537-5.665,1.155c-1.982-0.385-3.694-1.518-4.823-3.189l-5.791-8.578
							c-1.129-1.673-1.539-3.684-1.154-5.665c0.384-1.981,1.517-3.693,3.19-4.823l9.65-6.515c1.923-1.298,2.834-3.708,2.269-5.999
							c-0.31-1.251-0.571-2.533-0.777-3.811c-0.37-2.295-2.149-4.133-4.425-4.575l-11.43-2.217c-1.98-0.384-3.693-1.517-4.823-3.189
							c-1.129-1.672-1.539-3.684-1.154-5.665l1.971-10.161c0.793-4.089,4.761-6.772,8.854-5.978l11.43,2.217
							c2.275,0.445,4.613-0.598,5.814-2.588c0.669-1.106,1.391-2.198,2.146-3.245c1.381-1.912,1.436-4.488,0.139-6.412l-6.516-9.65
							c-2.33-3.452-1.417-8.157,2.035-10.488l8.578-5.791c1.672-1.129,3.68-1.54,5.665-1.155c1.98,0.384,3.693,1.517,4.822,3.189
							l6.516,9.65c1.298,1.924,3.714,2.834,5.997,2.269c1.251-0.309,2.533-0.571,3.813-0.777c2.295-0.37,4.133-2.148,4.574-4.425
							l2.218-11.43c0.384-1.98,1.516-3.693,3.189-4.823c1.674-1.129,3.688-1.539,5.665-1.155l10.161,1.971
							c4.089,0.794,6.771,4.766,5.977,8.855l-2.217,11.43c-0.441,2.276,0.599,4.613,2.589,5.814c1.11,0.67,2.201,1.392,3.245,2.145
							c1.911,1.38,4.488,1.436,6.411,0.139l9.65-6.515c1.672-1.13,3.686-1.54,5.665-1.155c1.982,0.384,3.694,1.517,4.823,3.189
							l5.791,8.578c1.129,1.672,1.539,3.684,1.154,5.665c-0.385,1.98-1.518,3.693-3.19,4.822l-9.65,6.515
							c-1.923,1.298-2.834,3.709-2.269,5.998c0.31,1.252,0.571,2.534,0.777,3.812c0.37,2.294,2.148,4.133,4.425,4.574l11.43,2.217
							c1.982,0.385,3.693,1.517,4.823,3.19c1.129,1.672,1.539,3.684,1.154,5.665l-1.971,10.161
							c-0.793,4.089-4.762,6.773-8.854,5.977l-11.43-2.216c-2.281-0.443-4.613,0.599-5.815,2.588
							c-0.664,1.1-1.386,2.192-2.146,3.244c-1.381,1.912-1.438,4.489-0.139,6.412l6.515,9.65c1.129,1.672,1.539,3.685,1.155,5.665
							c-0.385,1.981-1.518,3.694-3.19,4.823l-8.578,5.79c-1.673,1.129-3.688,1.538-5.665,1.155
							c-1.982-0.385-3.694-1.518-4.823-3.189l-6.515-9.65c-1.298-1.923-3.71-2.833-5.997-2.269c-1.251,0.31-2.533,0.57-3.813,0.777
							c-2.294,0.37-4.133,2.148-4.575,4.425l-2.217,11.43C495.45,289.732,492.279,292.243,488.736,292.243z M464.218,258.815
							c1.576,0,3.156,0.485,4.494,1.452c1.002,0.724,2.048,1.415,3.107,2.055c2.705,1.634,4.119,4.811,3.519,7.908l-2.217,11.43
							c-0.282,1.456,0.02,2.936,0.85,4.165s2.089,2.063,3.545,2.345l10.161,1.972c3.013,0.578,5.927-1.39,6.51-4.396l2.217-11.43
							c0.601-3.097,3.101-5.515,6.22-6.018c1.225-0.197,2.453-0.448,3.65-0.744c3.102-0.763,6.369,0.476,8.136,3.091l6.515,9.65
							c0.83,1.23,2.089,2.063,3.546,2.345c1.458,0.283,2.936-0.02,4.165-0.85l8.578-5.79c2.538-1.713,3.209-5.173,1.495-7.711
							l-6.515-9.65c-1.766-2.615-1.694-6.112,0.176-8.702c0.728-1.008,1.418-2.053,2.054-3.107c1.635-2.705,4.813-4.116,7.908-3.519
							l11.43,2.217c3.007,0.587,5.927-1.388,6.511-4.395l1.971-10.161c0.282-1.456-0.019-2.936-0.85-4.165
							c-0.83-1.23-2.09-2.063-3.546-2.345l-11.43-2.217c-3.097-0.601-5.515-3.1-6.019-6.22c-0.197-1.224-0.448-2.452-0.744-3.65
							c-0.766-3.101,0.476-6.37,3.091-8.136l9.65-6.515c2.539-1.714,3.21-5.173,1.496-7.711l-5.791-8.578
							c-0.83-1.23-2.089-2.063-3.546-2.345c-1.461-0.283-2.936,0.019-4.165,0.849l-9.65,6.515c-2.616,1.768-6.112,1.695-8.702-0.175
							c-0.999-0.722-2.044-1.413-3.106-2.055c-2.706-1.633-4.12-4.811-3.519-7.907l2.217-11.43c0.583-3.006-1.389-5.927-4.395-6.51
							l-10.161-1.971c-1.459-0.285-2.937,0.02-4.165,0.849c-1.229,0.83-2.063,2.089-2.345,3.546l-2.218,11.43
							c-0.6,3.096-3.099,5.515-6.219,6.019c-1.225,0.198-2.453,0.448-3.65,0.744c-3.099,0.765-6.37-0.475-8.136-3.092l-6.516-9.65
							c-0.83-1.23-2.089-2.063-3.545-2.345c-1.46-0.285-2.936,0.019-4.165,0.849l-8.578,5.791c-2.538,1.714-3.21,5.173-1.496,7.712
							l6.516,9.65c1.765,2.616,1.694,6.113-0.176,8.701c-0.724,1.003-1.415,2.049-2.056,3.108c-1.632,2.705-4.809,4.119-7.906,3.518
							l-11.43-2.216c-3.002-0.586-5.927,1.388-6.511,4.395l-1.971,10.161c-0.282,1.456,0.02,2.936,0.85,4.165
							c0.83,1.23,2.089,2.063,3.546,2.345l11.43,2.217c3.097,0.601,5.515,3.1,6.019,6.22c0.197,1.224,0.448,2.452,0.744,3.65
							c0.767,3.101-0.476,6.37-3.091,8.135l-9.65,6.515c-1.23,0.831-2.064,2.089-2.346,3.546c-0.282,1.456,0.02,2.936,0.85,4.165
							l5.791,8.578c1.713,2.539,5.172,3.21,7.711,1.495l9.65-6.515C461.274,259.24,462.744,258.815,464.218,258.815z
							 M495.451,259.355c-2.307,0-4.629-0.222-6.944-0.671c-9.459-1.834-17.637-7.242-23.027-15.228
							c-5.392-7.986-7.35-17.593-5.515-27.051c1.834-9.459,7.242-17.636,15.228-23.027c7.984-5.391,17.59-7.351,27.051-5.515
							c9.459,1.835,17.637,7.243,23.027,15.229c5.392,7.985,7.35,17.592,5.515,27.051c-1.834,9.458-7.242,17.636-15.228,23.027
							C509.526,257.241,502.569,259.355,495.451,259.355z M495.304,189.193c-6.725,0-13.295,1.996-18.992,5.843
							c-7.543,5.092-12.651,12.816-14.384,21.751c-1.732,8.934,0.117,18.008,5.209,25.551s12.816,12.651,21.751,14.384l0,0
							c8.939,1.734,18.009-0.117,25.551-5.209c7.543-5.092,12.651-12.816,14.384-21.75c1.732-8.934-0.117-18.009-5.209-25.551
							c-5.092-7.543-12.816-12.651-21.751-14.384C499.677,189.403,497.481,189.193,495.304,189.193z"/>
						<g>
							<g>
								<path style="fill:#D2DDFF;" d="M661.467,116.596c0-33.513-27.422-60.621-61.051-60.112
									c-31.754,0.481-57.948,26.058-59.142,57.792c-0.757,20.113,8.378,38.117,22.92,49.565c3.135,2.468,5.041,6.174,5.041,10.164
									v16.481c0,7.066,5.729,12.795,12.795,12.795h38.636c7.067,0,12.795-5.729,12.795-12.795v-16.471
									c0-3.986,1.893-7.697,5.026-10.161C652.477,152.848,661.467,135.777,661.467,116.596z"/>
								<path style="fill:#FFFFFF;" d="M620.666,204.281H582.03c-7.607,0-13.796-6.188-13.796-13.795v-16.481
									c0-3.628-1.698-7.047-4.659-9.378c-15.324-12.063-24.034-30.9-23.301-50.388c0.587-15.604,7.126-30.269,18.412-41.294
									c11.283-11.023,26.098-17.224,41.714-17.461c0.319-0.005,0.639-0.007,0.956-0.007c16.157,0,31.351,6.219,42.878,17.573
									c11.758,11.58,18.232,27.045,18.232,43.545c0,18.853-8.515,36.364-23.361,48.044c-2.951,2.321-4.644,5.739-4.644,9.376
									v16.471C634.462,198.093,628.273,204.281,620.666,204.281z M601.356,57.477c-0.308,0-0.616,0.002-0.925,0.007
									c-31.432,0.476-56.977,25.439-58.159,56.83c-0.72,19.133,7.495,36.898,22.539,48.741c3.446,2.713,5.423,6.704,5.423,10.949
									v16.481c0,6.504,5.292,11.795,11.796,11.795h38.636c6.504,0,11.796-5.291,11.796-11.795v-16.471
									c0-4.254,1.971-8.245,5.407-10.948c14.361-11.298,22.598-28.236,22.598-46.472c0-15.96-6.263-30.919-17.636-42.121
									C631.682,63.493,616.983,57.477,601.356,57.477z"/>
							</g>
							<g>
								<g>
									<path style="fill:#D2DDFF;" d="M588.616,202.108V128.12c0-3.737-2.864-6.767-6.398-6.767h-3.078
										c-3.533,0-6.398,3.03-6.398,6.767l0,0c0,3.737,2.864,6.767,6.398,6.767h22.208"/>
									<path style="fill:#FFFFFF;" d="M588.616,203.108c-0.553,0-1-0.448-1-1v-66.221h-8.476c-4.079,0-7.397-3.484-7.397-7.767
										s3.318-7.767,7.397-7.767h3.077c4.079,0,7.398,3.484,7.398,7.767v5.767h11.732c0.553,0,1,0.448,1,1c0,0.552-0.447,1-1,1
										h-11.732v66.221C589.616,202.66,589.169,203.108,588.616,203.108z M579.141,122.354c-2.977,0-5.397,2.587-5.397,5.767
										s2.421,5.767,5.397,5.767h8.476v-5.767c0-3.18-2.422-5.767-5.398-5.767H579.141z"/>
								</g>
								<g>
									<path style="fill:#D2DDFF;" d="M614.081,202.108V128.12c0-3.737,2.864-6.767,6.398-6.767h3.078
										c3.533,0,6.398,3.03,6.398,6.767l0,0c0,3.737-2.864,6.767-6.398,6.767h-22.208"/>
									<path style="fill:#FFFFFF;" d="M614.081,203.108c-0.553,0-1-0.448-1-1v-66.221h-11.733c-0.553,0-1-0.448-1-1
										c0-0.552,0.447-1,1-1h11.733v-5.767c0-4.283,3.318-7.767,7.397-7.767h3.077c4.079,0,7.398,3.484,7.398,7.767
										s-3.319,7.767-7.398,7.767h-8.475v66.221C615.081,202.66,614.634,203.108,614.081,203.108z M615.081,133.887h8.475
										c2.977,0,5.398-2.587,5.398-5.767s-2.422-5.767-5.398-5.767h-3.077c-2.977,0-5.397,2.587-5.397,5.767V133.887z"/>
								</g>
							</g>
							<g>
								
									<ellipse transform="matrix(0.2298 -0.9732 0.9732 0.2298 242.1472 760.1969)" style="fill:#D2DDFF;" cx="601.348" cy="227.116" rx="12.732" ry="12.732"/>
								<path style="fill:#FFFFFF;" d="M601.349,240.848c-7.572,0-13.732-6.16-13.732-13.732c0-7.572,6.16-13.732,13.732-13.732
									c7.572,0,13.733,6.16,13.733,13.732C615.081,234.688,608.921,240.848,601.349,240.848z M601.349,215.383
									c-6.47,0-11.732,5.263-11.732,11.732c0,6.469,5.263,11.732,11.732,11.732c6.47,0,11.733-5.263,11.733-11.732
									C613.081,220.646,607.818,215.383,601.349,215.383z"/>
							</g>
							<g>
								<path style="fill:#D2DDFF;" d="M624.743,211.372h-46.79c-0.552,0-1-0.448-1-1v-7.265c0-0.552,0.448-1,1-1h46.79
									c0.552,0,1,0.448,1,1v7.265C625.743,210.925,625.295,211.372,624.743,211.372z"/>
								<path style="fill:#FFFFFF;" d="M624.743,212.373h-46.79c-1.103,0-2-0.897-2-2v-7.265c0-1.103,0.897-2,2-2h46.79
									c1.102,0,2,0.897,2,2v7.265C626.743,211.476,625.846,212.373,624.743,212.373z M577.953,203.108v7.265h46.791l-0.001-7.265
									H577.953z"/>
							</g>
							<g>
								<path style="fill:#D2DDFF;" d="M623.935,220.637h-45.172c-0.552,0-1-0.448-1-1v-7.265c0-0.552,0.448-1,1-1h45.172
									c0.552,0,1,0.448,1,1v7.265C624.935,220.189,624.487,220.637,623.935,220.637z"/>
								<path style="fill:#FFFFFF;" d="M623.935,221.637h-45.173c-1.103,0-2-0.897-2-2v-7.265c0-1.103,0.897-2,2-2h45.173
									c1.103,0,2,0.897,2,2v7.265C625.935,220.74,625.037,221.637,623.935,221.637z M578.762,212.373v7.265h45.174l-0.001-7.265
									H578.762z"/>
							</g>
							<g>
								<path style="fill:#D2DDFF;" d="M621.244,228.735h-39.791c-0.443,0-0.803-0.359-0.803-0.803v-6.493
									c0-0.443,0.359-0.803,0.803-0.803h39.791c0.443,0,0.803,0.359,0.803,0.803v6.493
									C622.046,228.376,621.687,228.735,621.244,228.735z"/>
								<path style="fill:#FFFFFF;" d="M621.244,229.735h-39.791c-0.994,0-1.803-0.809-1.803-1.802v-6.493
									c0-0.994,0.809-1.803,1.803-1.803h39.791c0.993,0,1.802,0.809,1.802,1.803v6.493
									C623.046,228.926,622.237,229.735,621.244,229.735z M581.65,227.735h39.396v-6.098H581.65V227.735z"/>
							</g>
							<g>
								<path style="fill:#D2DDFF;" d="M568.124,80.306c0,0-20.527,17.593-13.42,49.573"/>
								<path style="fill:#FFFFFF;" d="M554.703,130.879c-0.458,0-0.872-0.317-0.976-0.783
									c-7.154-32.193,13.536-50.37,13.746-50.549c0.419-0.358,1.049-0.31,1.409,0.108c0.359,0.419,0.311,1.05-0.107,1.41
									c-0.2,0.172-19.982,17.614-13.095,48.598c0.119,0.539-0.221,1.073-0.76,1.193
									C554.848,130.872,554.775,130.879,554.703,130.879z"/>
							</g>
						</g>
					</g>
					<g style="opacity:0.84;">
						<path style="fill:#FFFFFF;" d="M578.369,385.227l10.379,3.345c3.63,1.17,7.521-0.825,8.691-4.455l3.763-11.676
							c0.889-2.76,3.408-4.665,6.305-4.781c1.342-0.053,2.676-0.162,3.999-0.324c2.9-0.356,5.721,1.096,7.054,3.696l5.596,10.918
							c1.74,3.394,5.902,4.735,9.296,2.996l9.704-4.974c3.394-1.74,4.735-5.902,2.996-9.296l-5.596-10.918
							c-1.333-2.6-0.864-5.738,1.118-7.885c0.904-0.979,1.772-1.999,2.598-3.057c1.785-2.285,4.803-3.217,7.563-2.328l11.676,3.763
							c3.63,1.17,7.521-0.825,8.691-4.455l3.345-10.379c1.17-3.63-0.825-7.521-4.455-8.691l-11.676-3.763
							c-2.76-0.889-4.665-3.408-4.781-6.305c-0.053-1.342-0.162-2.676-0.324-3.999c-0.356-2.9,1.096-5.721,3.696-7.054l10.918-5.596
							c3.394-1.74,4.735-5.902,2.996-9.296l-4.974-9.704c-1.74-3.394-5.901-4.735-9.296-2.996l-10.918,5.596
							c-2.6,1.333-5.738,0.864-7.885-1.118c-0.98-0.905-1.999-1.772-3.057-2.599c-2.285-1.785-3.217-4.803-2.328-7.563l3.763-11.676
							c1.17-3.63-0.825-7.521-4.455-8.691l-10.379-3.345c-3.63-1.17-7.521,0.825-8.691,4.455l-3.763,11.676
							c-0.889,2.76-3.408,4.665-6.305,4.781c-1.342,0.053-2.676,0.162-3.999,0.324c-2.9,0.356-5.721-1.096-7.054-3.696
							l-5.596-10.918c-1.74-3.394-5.901-4.735-9.296-2.996l-9.705,4.974c-3.394,1.74-4.735,5.902-2.996,9.296l5.596,10.918
							c1.333,2.6,0.864,5.738-1.118,7.885c-0.905,0.98-1.772,1.999-2.598,3.057c-1.785,2.285-4.803,3.217-7.563,2.328l-11.676-3.763
							c-3.63-1.17-7.521,0.825-8.691,4.455l-3.345,10.38c-1.17,3.63,0.825,7.521,4.455,8.691l11.676,3.763
							c2.76,0.889,4.665,3.408,4.781,6.305c0.053,1.342,0.162,2.676,0.325,3.999c0.356,2.9-1.096,5.721-3.696,7.054l-10.918,5.596
							c-3.394,1.74-4.735,5.902-2.996,9.296l4.974,9.705c1.74,3.394,5.902,4.735,9.296,2.996l10.918-5.596
							c2.6-1.333,5.738-0.864,7.885,1.118c0.979,0.904,1.999,1.772,3.057,2.598c2.285,1.785,3.217,4.803,2.327,7.563l-3.763,11.676
							C572.744,380.166,574.739,384.057,578.369,385.227z M594.236,353.766c-19.425-6.26-30.097-27.081-23.838-46.506
							c6.26-19.425,27.081-30.097,46.506-23.837c19.425,6.26,30.097,27.081,23.837,46.506
							C634.482,349.353,613.661,360.025,594.236,353.766z"/>
					</g>
				</g>
			</g>
		</g>
		<g>
			<g>
				<path style="fill:#FFFFFF;" d="M44.696,216.624c-1.586,0-2.876-1.29-2.876-2.876c0-1.585,1.29-2.875,2.876-2.875
					c1.585,0,2.875,1.29,2.875,2.875C47.571,215.333,46.281,216.624,44.696,216.624z M44.696,211.873
					c-1.034,0-1.876,0.841-1.876,1.875c0,1.034,0.842,1.876,1.876,1.876c1.034,0,1.875-0.841,1.875-1.876
					C46.571,212.714,45.73,211.873,44.696,211.873z"/>
				<path style="fill:#FFFFFF;" d="M189.336,49.627c-1.143,0-2.073-0.93-2.073-2.074c0-1.143,0.93-2.073,2.073-2.073
					c1.144,0,2.073,0.93,2.073,2.073C191.409,48.697,190.479,49.627,189.336,49.627z M189.336,46.23
					c-0.73,0-1.323,0.594-1.323,1.323c0,0.73,0.594,1.324,1.323,1.324c0.729,0,1.323-0.594,1.323-1.324
					C190.659,46.824,190.065,46.23,189.336,46.23z"/>
				<path style="fill:#121936;" d="M80.615,223.12c0,1.654-1.341,2.995-2.995,2.995c-1.654,0-2.996-1.341-2.996-2.995
					s1.341-2.995,2.996-2.995C79.273,220.125,80.615,221.466,80.615,223.12z"/>
				<path style="fill:#121936;" d="M164.931,75.699c0,0.827-0.671,1.498-1.498,1.498c-0.827,0-1.498-0.671-1.498-1.498
					c0-0.827,0.671-1.498,1.498-1.498C164.26,74.201,164.931,74.872,164.931,75.699z"/>
				<path style="fill:#121936;" d="M92.645,387.695c0,0.827-0.67,1.498-1.498,1.498c-0.827,0-1.498-0.671-1.498-1.498
					s0.671-1.498,1.498-1.498C91.974,386.198,92.645,386.868,92.645,387.695z"/>
				<path style="fill:#121936;" d="M203.51,256.975c0,0.827-0.671,1.498-1.498,1.498c-0.827,0-1.498-0.671-1.498-1.498
					c0-0.827,0.671-1.498,1.498-1.498C202.839,255.477,203.51,256.148,203.51,256.975z"/>
				<path style="fill:#FFFFFF;" d="M51.477,250.078c0,1.217-0.986,2.203-2.203,2.203c-1.216,0-2.203-0.986-2.203-2.203
					c0-1.216,0.986-2.203,2.203-2.203C50.491,247.875,51.477,248.861,51.477,250.078z"/>
				<path style="fill:#FFFFFF;" d="M136.934,407.25c-0.127,0-0.255-0.009-0.383-0.025c-0.761-0.101-1.438-0.491-1.905-1.101
					c-0.965-1.259-0.726-3.067,0.532-4.032c1.26-0.965,3.066-0.727,4.031,0.533c0.468,0.609,0.67,1.364,0.569,2.125
					c-0.101,0.762-0.491,1.439-1.102,1.905C138.17,407.045,137.562,407.25,136.934,407.25z M136.923,402.498
					c-0.409,0-0.806,0.134-1.137,0.387c-0.82,0.63-0.977,1.81-0.348,2.631c0.306,0.397,0.747,0.652,1.244,0.718
					c0.493,0.065,0.988-0.065,1.386-0.371c0.398-0.305,0.653-0.746,0.719-1.243c0.065-0.496-0.066-0.988-0.371-1.386v-0.001
					c-0.305-0.397-0.746-0.652-1.243-0.718C137.09,402.504,137.006,402.498,136.923,402.498z"/>
				<path style="fill:#121936;" d="M166.936,373.276c1.007,1.313,0.758,3.193-0.555,4.2s-3.193,0.758-4.2-0.555
					c-1.007-1.313-0.758-3.193,0.555-4.2C164.049,371.715,165.929,371.963,166.936,373.276z"/>
				<path style="fill:#FFFFFF;" d="M213.394,66.908c0,0.608-0.493,1.101-1.101,1.101c-0.608,0-1.101-0.493-1.101-1.101
					c0-0.608,0.493-1.101,1.101-1.101C212.901,65.807,213.394,66.3,213.394,66.908z"/>
				<path style="fill:#FFFFFF;" d="M159.963,218.363c0,0.608-0.493,1.101-1.101,1.101c-0.608,0-1.101-0.493-1.101-1.101
					c0-0.608,0.493-1.101,1.101-1.101C159.47,217.262,159.963,217.755,159.963,218.363z"/>
				<path style="fill:#FFFFFF;" d="M116.536,433.596c0,0.608-0.493,1.101-1.101,1.101c-0.608,0-1.101-0.493-1.101-1.101
					c0-0.608,0.493-1.101,1.101-1.101C116.043,432.495,116.536,432.988,116.536,433.596z"/>
				<circle style="fill:#FFFFFF;" cx="134.42" cy="57.307" r="3.033"/>
				<circle style="fill:#FFFFFF;" cx="179.856" cy="432.495" r="3.033"/>
			</g>
			<g>
				<path style="fill:#FFFFFF;" d="M691.536,136.263c-0.19,0-0.381-0.019-0.571-0.057c-0.754-0.151-1.403-0.586-1.828-1.226
					c-0.879-1.319-0.521-3.107,0.799-3.987c1.32-0.878,3.108-0.521,3.987,0.799c0.879,1.32,0.521,3.109-0.799,3.987
					C692.646,136.098,692.097,136.263,691.536,136.263z M691.526,131.512c-0.357,0-0.718,0.102-1.036,0.314
					c-0.861,0.574-1.095,1.74-0.521,2.601v0.001c0.277,0.417,0.701,0.701,1.192,0.799c0.494,0.101,0.993-0.001,1.408-0.278
					c0.86-0.573,1.095-1.74,0.522-2.601C692.729,131.805,692.134,131.512,691.526,131.512z"/>
				<path style="fill:#FFFFFF;" d="M520.325,49.627c-1.144,0-2.073-0.93-2.073-2.074c0-1.143,0.93-2.073,2.073-2.073
					s2.073,0.93,2.073,2.073C522.398,48.697,521.469,49.627,520.325,49.627z M520.325,46.23c-0.729,0-1.323,0.594-1.323,1.323
					c0,0.73,0.594,1.324,1.323,1.324s1.323-0.594,1.323-1.324C521.648,46.824,521.055,46.23,520.325,46.23z"/>
				<path style="fill:#121936;" d="M666.831,161.1c0.917,1.377,2.777,1.75,4.154,0.832c1.377-0.917,1.75-2.777,0.833-4.154
					c-0.917-1.377-2.777-1.75-4.154-0.832C666.287,157.863,665.914,159.723,666.831,161.1z"/>
				<path style="fill:#121936;" d="M522.967,84.147c0,0.827,0.67,1.498,1.498,1.498s1.498-0.671,1.498-1.498
					s-0.671-1.498-1.498-1.498S522.967,83.32,522.967,84.147z"/>
				<path style="fill:#121936;" d="M390.018,147.5c0,0.827,0.671,1.498,1.498,1.498s1.498-0.671,1.498-1.498
					c0-0.827-0.671-1.498-1.498-1.498S390.018,146.672,390.018,147.5z"/>
				<circle style="fill:#121936;" cx="648.267" cy="399.107" r="3.221"/>
				<path style="fill:#121936;" d="M687.169,293.246c0,0.827,0.671,1.498,1.498,1.498c0.827,0,1.498-0.671,1.498-1.498
					c0-0.827-0.671-1.498-1.498-1.498C687.839,291.748,687.169,292.418,687.169,293.246z"/>
				<path style="fill:#FFFFFF;" d="M706.026,167.382c0.674,1.012,2.042,1.286,3.054,0.612c1.013-0.674,1.286-2.042,0.612-3.054
					c-0.674-1.012-2.042-1.286-3.054-0.612C705.626,165.002,705.352,166.37,706.026,167.382z"/>
				<path style="fill:#FFFFFF;" d="M691.526,383.056c-0.61,0-1.226-0.193-1.746-0.593c-0.61-0.467-1.001-1.144-1.102-1.905
					c-0.101-0.762,0.102-1.517,0.569-2.126l0,0c0.467-0.61,1.144-1.001,1.905-1.102c0.755-0.1,1.516,0.102,2.125,0.569
					c1.259,0.965,1.498,2.773,0.533,4.031C693.246,382.668,692.391,383.056,691.526,383.056z M691.533,378.306
					c-0.083,0-0.166,0.005-0.249,0.016c-0.497,0.066-0.938,0.321-1.243,0.718v0.001c-0.305,0.397-0.437,0.891-0.371,1.387
					c0.065,0.497,0.32,0.938,0.718,1.243c0.821,0.628,2.001,0.473,2.631-0.348c0.629-0.82,0.473-2-0.349-2.63
					C692.34,378.44,691.943,378.306,691.533,378.306z M689.644,378.735h0.01H689.644z"/>
				<path style="fill:#FFFFFF;" d="M474.9,45.033c0,0.608,0.493,1.101,1.101,1.101c0.608,0,1.101-0.493,1.101-1.101
					c0-0.608-0.493-1.101-1.101-1.101C475.393,43.932,474.9,44.425,474.9,45.033z"/>
				<path style="fill:#121936;" d="M351.589,65.499c-0.17,0.81,0.349,1.604,1.158,1.774c0.81,0.17,1.604-0.348,1.774-1.158
					c0.17-0.81-0.349-1.604-1.158-1.774C352.553,64.171,351.759,64.69,351.589,65.499z"/>
				<path style="fill:#FFFFFF;" d="M368.738,34.608c-0.125,0.595,0.256,1.179,0.852,1.304c0.595,0.125,1.179-0.256,1.304-0.852
					c0.125-0.595-0.256-1.179-0.852-1.304C369.447,33.631,368.863,34.013,368.738,34.608z"/>
				<path style="fill:#FFFFFF;" d="M709.653,335.208c0,0.608,0.493,1.101,1.101,1.101s1.101-0.493,1.101-1.101
					c0-0.608-0.493-1.101-1.101-1.101S709.653,334.6,709.653,335.208z"/>
				<path style="fill:#FFFFFF;" d="M675.6,93.727c0,0.608,0.493,1.101,1.101,1.101c0.608,0,1.101-0.493,1.101-1.101
					c0-0.608-0.493-1.101-1.101-1.101C676.093,92.625,675.6,93.118,675.6,93.727z"/>
				<path style="fill:#FFFFFF;" d="M388.917,102.813c0,0.608,0.493,1.101,1.101,1.101c0.608,0,1.101-0.493,1.101-1.101
					s-0.493-1.101-1.101-1.101C389.41,101.712,388.917,102.204,388.917,102.813z"/>
				<path style="fill:#FFFFFF;" d="M627.01,243.225c0,0.608,0.493,1.101,1.101,1.101c0.608,0,1.101-0.493,1.101-1.101
					c0-0.608-0.493-1.101-1.101-1.101C627.503,242.123,627.01,242.616,627.01,243.225z"/>
				<path style="fill:#FFFFFF;" d="M676.882,425.383c0,0.608,0.493,1.101,1.101,1.101c0.608,0,1.101-0.493,1.101-1.101
					s-0.493-1.101-1.101-1.101C677.375,424.282,676.882,424.775,676.882,425.383z"/>
				<path style="fill:#FFFFFF;" d="M549.485,42.001c0,1.675,1.358,3.033,3.032,3.033c1.675,0,3.033-1.358,3.033-3.033
					s-1.358-3.033-3.032-3.033C550.843,38.968,549.485,40.326,549.485,42.001z"/>
				<path style="fill:#FFFFFF;" d="M413.866,52.531c-0.344,1.639,0.706,3.247,2.345,3.591c1.639,0.344,3.247-0.706,3.591-2.345
					c0.344-1.639-0.706-3.247-2.345-3.591C415.818,49.842,414.21,50.892,413.866,52.531z"/>
				<circle style="fill:#FFFFFF;" cx="625.079" cy="432.495" r="3.033"/>
			</g>
		</g>
	</g>
</g>
<g id="OBJECTS">
	<g>
		<g>
			<path style="fill:#5E80E6;" d="M560.677,240.425l-0.003,0.013l-46.91-8.021l-59.576,17.626l-25.445-9.388
				c-3.544,0.878-6.716,1.759-9.585,2.647l0-0.001c0,0-91.886,14.682-80.819,95.998l51.349,1.23c1.426,4.41,1.528,3.344,2.561,5.979
				l18.391,60.794h150.498l1.398-49.6l45.672,29.393c5.643,3.632,13.134-0.01,13.747-6.693c1.935-21.108,4.267-58.257,4.302-59.22
				C628.664,253.613,560.677,240.425,560.677,240.425z"/>
			<path style="fill:#121936;" d="M394.589,355.242c-0.445,0-0.852-0.3-0.968-0.751l-9.149-35.648
				c-0.137-0.535,0.185-1.08,0.72-1.218c0.535-0.136,1.08,0.185,1.218,0.72l9.149,35.648c0.137,0.535-0.186,1.08-0.72,1.218
				C394.755,355.232,394.672,355.242,394.589,355.242z"/>
			<path style="fill:#121936;" d="M570.223,361.702c-0.213,0-0.427-0.067-0.608-0.207l-28.056-21.584
				c-3.441-2.276-5.691-5.999-6.117-10.173l-2.892-28.332c-0.056-0.55,0.344-1.04,0.894-1.097c0.54-0.05,1.04,0.344,1.097,0.893
				l2.892,28.332c0.364,3.575,2.292,6.765,5.289,8.749l28.112,21.625c0.438,0.337,0.519,0.965,0.184,1.402
				C570.819,361.568,570.523,361.702,570.223,361.702z"/>
		</g>
		<g>
			<g>
				<g>
					<g>
						<g>
							<g>
								<g>
									<g>
										<g>
											<path style="fill:#FFAA89;" d="M493.5,145.737L493.5,145.737l-13.866-0.482c-6.784-0.236-12.789,3.702-15.539,9.49
												l2.685-39.362c0,0-13.872,8.034-32.078-2.485c0,0-20.939-6.945-27.497,9.248c-0.016,0.161-0.038,0.322-0.049,0.484
												l-4.03,58.514c-1.474,21.405,13.148,40.076,33.244,43.43l4.682,23.235c3.455,17.146,20.535,28.302,37.956,24.792
												l0.723-0.146c17.421-3.51,32.308-16.677,28.853-33.823l-13.698-56.879l3.211,0.111
												c9.93,0.345,18.338-7.497,18.684-17.427l0.046-1.325c0.172-4.938-1.877-9.453-5.231-12.612
												c-2.827-2.662-6.577-4.365-10.74-4.509L493.5,145.737z"/>
										</g>
									</g>
								</g>
								<path style="fill:#FF6A48;" d="M436.667,225.26c0,0,35.143-4.18,38.915-17.565c3.772-13.384,0,0,0,0
									s4.746,18.674-35.651,35.559L436.667,225.26z"/>
							</g>
							
								<path style="fill:none;stroke:#121936;stroke-width:5;stroke-linecap:round;stroke-linejoin:round;stroke-miterlimit:10;" d="
								M503.085,163.08"/>
						</g>
					</g>
				</g>
				<g>
					<path style="fill:#121936;" d="M497.617,193.105c0,0-0.025-5.216,2.657-11.087l-15.26-0.53L497.617,193.105z"/>
					<path style="fill:#121936;" d="M494.523,104.617c0,0,9.509-16.587-15.924-28.563c-25.432-11.976-34.795,10.495-34.795,10.495
						s-3.035-20.584-33.812-10.613c-30.778,9.97-3.468,48.118-3.468,48.118c0.203-0.672,0.434-1.301,0.68-1.907
						c6.558-16.194,27.497-9.248,27.497-9.248c18.207,10.519,32.078,2.485,32.078,2.485l-2.384,34.95
						c-1.033,6.987-2.408,16.233-3.393,22.846c-0.635,4.266-5.09,6.81-9.092,5.198l-22.026-8.874
						c-1.051-0.423-2.192-0.572-3.316-0.433l-17.404,2.161c-3.146,0.391-5.582,2.94-5.83,6.1l-1.309,16.684
						c-1.451,18.489,13.389,34.184,31.93,33.771l9.714-0.217c0.661-0.015,1.317-0.128,1.945-0.335l2.441-0.14
						c24.945-1.435,40.733-27.398,30.529-50.207h0c-0.859-1.202-1.296-2.656-1.24-4.133l1.011-25.496
						c0.027-0.687-0.053-1.353-0.225-1.981c0.497-0.028,0.997-0.041,1.503-0.023l13.866,0.482l7.355,0.255
						c4.162,0.145,7.913,1.847,10.74,4.509c4.404-11.055,8.251-21.958,9.372-28.731
						C524.001,103.447,494.523,104.617,494.523,104.617z"/>
				</g>
				<path style="fill:none;stroke:#FF6969;stroke-width:5;stroke-linecap:round;stroke-linejoin:round;stroke-miterlimit:10;" d="
					M506.73,164.339"/>
				<g>
					<path style="fill:#FF6A48;" d="M502.415,169.859c-0.188,0-0.377-0.052-0.545-0.162l-5.8-3.782
						c-0.245-0.16-0.407-0.418-0.445-0.708c-0.038-0.29,0.052-0.581,0.247-0.798l6.199-6.897c0.372-0.41,1.003-0.444,1.413-0.075
						c0.41,0.369,0.444,1.002,0.075,1.412l-5.419,6.029l4.821,3.144c0.463,0.302,0.594,0.921,0.292,1.384
						C503.061,169.7,502.742,169.859,502.415,169.859z"/>
					<g>
						<path style="fill:#121936;" d="M409.558,151.747c-0.434,2.035,0.864,4.036,2.898,4.47c2.035,0.434,4.036-0.864,4.47-2.899
							c0.434-2.035-0.864-4.036-2.899-4.47C411.993,148.414,409.992,149.712,409.558,151.747z"/>
						<path style="fill:#121936;" d="M436.602,152.568c0.02,2.081,1.722,3.751,3.803,3.732c2.08-0.02,3.751-1.722,3.731-3.803
							c-0.02-2.08-1.722-3.751-3.802-3.731C438.253,148.785,436.582,150.487,436.602,152.568z"/>
						<g>
							<path style="fill:#FFA386;" d="M443.988,156.729c0,0-3.198-2.634-6.644,0.029"/>
							<path style="fill:#FF6A48;" d="M437.346,157.757c-0.3,0-0.596-0.134-0.792-0.389c-0.338-0.437-0.258-1.065,0.18-1.403
								c3.225-2.491,6.571-1.096,7.891-0.009c0.427,0.351,0.487,0.982,0.136,1.408c-0.349,0.424-0.977,0.487-1.403,0.14
								c-0.108-0.087-2.651-2.08-5.4,0.044C437.774,157.689,437.559,157.757,437.346,157.757z"/>
						</g>
						<path style="fill:#FF6A48;" d="M409.737,158.631c-0.268,0-0.537-0.108-0.734-0.321c-0.375-0.406-0.35-1.039,0.056-1.413
							c2.949-2.725,6.21-1.512,7.522-0.491c0.435,0.339,0.514,0.967,0.175,1.403c-0.339,0.435-0.964,0.514-1.399,0.178
							c-0.258-0.196-2.561-1.82-4.94,0.378C410.224,158.544,409.98,158.631,409.737,158.631z"/>
					</g>
					<path style="fill:#FFFFFF;" d="M410.305,164.587c-6.968,0-12.636-6.491-12.636-14.47c0-7.979,5.668-14.47,12.636-14.47
						c6.968,0,12.636,6.491,12.636,14.47C422.94,158.096,417.272,164.587,410.305,164.587z M410.305,137.648
						c-5.864,0-10.636,5.594-10.636,12.47c0,6.876,4.771,12.47,10.636,12.47c5.864,0,10.636-5.594,10.636-12.47
						C420.94,143.241,416.169,137.648,410.305,137.648z"/>
					<g>
						<path style="fill:#FFAA89;" d="M425.235,143.891v13.084h-6.8c-1.747,0-3.163,1.416-3.163,3.163v1.431
							c0,3.421,2.774,6.195,6.195,6.195h6.195"/>
						<path style="fill:#FF6A48;" d="M427.662,168.765h-6.195c-3.968,0-7.195-3.228-7.195-7.195v-1.431
							c0-2.296,1.867-4.164,4.163-4.164h5.801v-12.084c0-0.552,0.447-1,1-1c0.553,0,1,0.448,1,1v14.084h-7.801
							c-1.192,0-2.163,0.971-2.163,2.164v1.431c0,2.865,2.331,5.195,5.195,5.195h6.195c0.553,0,1,0.448,1,1
							C428.662,168.317,428.215,168.765,427.662,168.765z"/>
					</g>
					<path style="fill:#FFFFFF;" d="M440.792,163.676c-6.968,0-12.636-6.491-12.636-14.47c0-7.979,5.668-14.47,12.636-14.47
						s12.637,6.491,12.637,14.47C453.429,157.185,447.76,163.676,440.792,163.676z M440.792,136.736
						c-5.864,0-10.636,5.594-10.636,12.47c0,6.876,4.771,12.47,10.636,12.47c5.865,0,10.637-5.594,10.637-12.47
						C451.429,142.33,446.657,136.736,440.792,136.736z"/>
					<g>
						<g>
							<g>
								<g>
									<g>
										<g>
											<path style="fill:#121936;" d="M450.943,135.696c-1.212,0.187-2.588-0.316-3.945-0.726
												c-1.358-0.441-2.733-0.851-3.94-1.164c-1.21-0.315-2.611-0.629-4.012-0.906c-1.385-0.305-2.839-0.539-3.791-1.289
												c-0.923-0.709-1.018-2.076,0.613-3.302c1.546-1.204,4.99-2.055,8.995-1.023c3.995,1.05,6.538,3.46,7.255,5.253
												C452.894,134.394,452.108,135.531,450.943,135.696z"/>
										</g>
									</g>
								</g>
								<g>
									<g>
										<g>
											<path style="fill:#121936;" d="M404.926,131.632c0.911,0.363,2.039,0.148,3.141,0.012
												c1.107-0.164,2.222-0.297,3.195-0.373c0.975-0.077,2.098-0.122,3.216-0.135c1.109-0.04,2.262-0.006,3.096-0.507
												c0.806-0.47,1.06-1.654-0.037-2.998c-1.034-1.311-3.579-2.624-6.807-2.377c-3.222,0.264-5.502,1.96-6.293,3.415
												C403.592,130.168,404.048,131.295,404.926,131.632z"/>
										</g>
									</g>
								</g>
							</g>
						</g>
					</g>
					<path style="fill:#FFFFFF;" d="M429.156,148.995h-5.153c-0.553,0-1-0.448-1-1c0-0.552,0.447-1,1-1h5.153c0.553,0,1,0.448,1,1
						C430.156,148.547,429.709,148.995,429.156,148.995z"/>
					<path style="fill:#FFFFFF;" d="M452.428,148.499c-0.51,0-0.945-0.388-0.994-0.906c-0.053-0.55,0.352-1.038,0.901-1.089
						l30.616-2.89c0.549-0.049,1.037,0.352,1.089,0.902c0.053,0.55-0.352,1.038-0.901,1.089l-30.616,2.89
						C452.491,148.498,452.459,148.499,452.428,148.499z"/>
					<path style="fill:#FF6A48;" d="M435.763,186.441c-0.039,0-0.077,0-0.116-0.001l-12.005-0.153
						c-0.553-0.007-0.994-0.46-0.987-1.013c0.007-0.548,0.453-0.987,1-0.987c0.004,0,0.009,0,0.013,0l12.005,0.153
						c3.348,0.044,6.358-2.301,7.124-5.575l1.947,0.456C443.774,183.464,440.008,186.441,435.763,186.441z"/>
				</g>
			</g>
		</g>
		<g>
			<path style="fill:#FFFFFF;" d="M436.85,229.299l-15.383,13.307l2.296,31.448c0.117,1.605,2.025,2.378,3.226,1.308l28.294-25.21
				L436.85,229.299z"/>
			<path style="fill:#FFFFFF;" d="M504.327,220.969L454.014,250l20.201,33.924c0.936,1.572,3.059,1.927,4.455,0.744l48.944-41.444
				L504.327,220.969z"/>
			<polygon style="fill:#121936;" points="430.826,271.942 444.136,299.01 472.972,281.837 454.513,250.838 			"/>
		</g>
	</g>
	<g>
		<g>
			<path style="fill:#121936;" d="M276.302,133.166l-31.135,0.218l-40.651-0.002l0.094-15.075c0.012-2.024-0.165-4.006-0.514-5.927
				c-5.427-29.798-49.052-29.973-54.794-0.234c-0.379,1.962-0.577,3.989-0.577,6.062v18.126h0.018l0.075,13.513
				c0.078,14.283-9.14,26.495-21.103,29.15c-0.294,0.065,1.324,0.096,2.88,0.137c2.197,0.058,3.944,0.006,3.944,0.006l116.123,0.151
				c14.301-0.1,25.822-13.282,25.734-29.444L276.302,133.166z"/>
			<g>
				<g>
					<path style="fill:#FFFFFF;" d="M370.723,132.951c0-18.507-11.678-34.282-28.066-40.37c-3.96-1.808-8.353-2.835-12.989-2.864
						l-96.533,0.111l0.007-0.013h-52.621c-0.704,0-1.399,0.031-2.091,0.076l-1.793,0.002v0.059c0.134,0.016,0.265,0.04,0.398,0.057
						c14.967,1.988,26.616,14.365,27.511,29.613h-0.017v300.035c0,14.567,11.936,26.376,26.66,26.376h139.479V324.98h0.054V132.951z
						"/>
					<g>
						<path style="fill:#121936;" d="M346.57,251.604H233.308c-0.553,0-1-0.447-1-1c0-0.552,0.447-1,1-1H346.57c0.553,0,1,0.448,1,1
							C347.57,251.156,347.123,251.604,346.57,251.604z"/>
						<path style="fill:#121936;" d="M312.434,235.604h-47.713c-0.553,0-1-0.448-1-1c0-0.552,0.447-1,1-1h47.713
							c0.553,0,1,0.448,1,1C313.434,235.156,312.986,235.604,312.434,235.604z"/>
						<path style="fill:#121936;" d="M346.57,275.089H233.308c-0.553,0-1-0.447-1-1c0-0.553,0.447-1,1-1H346.57c0.553,0,1,0.447,1,1
							C347.57,274.642,347.123,275.089,346.57,275.089z"/>
						<path style="fill:#121936;" d="M346.57,298.574H233.308c-0.553,0-1-0.447-1-1c0-0.553,0.447-1,1-1H346.57c0.553,0,1,0.447,1,1
							C347.57,298.127,347.123,298.574,346.57,298.574z"/>
						<path style="fill:#121936;" d="M346.57,320.555H233.308c-0.553,0-1-0.447-1-1c0-0.553,0.447-1,1-1H346.57c0.553,0,1,0.447,1,1
							C347.57,320.107,347.123,320.555,346.57,320.555z"/>
					</g>
				</g>
				<g>
					<g>
						<path style="fill:#FFD066;" d="M284.747,125.679L284.747,125.679c-1.354-4.22-7.585-3.233-7.568,1.199l0,0
							c0.014,3.771-4.817,5.34-7.022,2.282v0c-2.591-3.595-8.213-0.731-6.828,3.479l0,0c1.178,3.581-2.931,6.567-5.973,4.34v0
							c-3.575-2.618-8.037,1.843-5.418,5.419h0c2.228,3.042-0.758,7.152-4.34,5.973h0c-4.21-1.385-7.074,4.236-3.479,6.828l0,0
							c3.059,2.205,1.489,7.036-2.282,7.022l0,0c-4.432-0.017-5.419,6.215-1.199,7.568l0,0c3.59,1.152,3.59,6.232,0,7.383l0,0
							c-4.22,1.354-3.233,7.585,1.199,7.568l0,0c3.771-0.014,5.34,4.817,2.282,7.022l0,0c-3.595,2.591-0.731,8.213,3.479,6.827h0
							c3.581-1.179,6.567,2.931,4.34,5.973l0,0c-2.618,3.576,1.843,8.037,5.418,5.418l0,0c3.042-2.228,7.152,0.758,5.973,4.34h0
							c-1.385,4.21,4.236,7.074,6.828,3.479l0,0c2.205-3.059,7.036-1.489,7.022,2.281l0,0c-0.017,4.432,6.215,5.419,7.568,1.199l0,0
							c1.152-3.59,6.232-3.59,7.383,0l0,0c1.354,4.22,7.585,3.233,7.568-1.199l0,0c-0.014-3.77,4.817-5.34,7.022-2.281l0,0
							c2.592,3.595,8.213,0.731,6.828-3.479l0,0c-1.179-3.581,2.931-6.568,5.973-4.34l0,0c3.576,2.618,8.037-1.843,5.418-5.418v0
							c-2.228-3.042,0.758-7.152,4.34-5.973h0c4.21,1.385,7.074-4.236,3.479-6.827l0,0c-3.059-2.205-1.489-7.036,2.282-7.022l0,0
							c4.432,0.017,5.419-6.215,1.199-7.568l0,0c-3.59-1.152-3.59-6.232,0-7.383l0,0c4.22-1.353,3.233-7.585-1.199-7.568l0,0
							c-3.77,0.014-5.34-4.817-2.282-7.022l0,0c3.595-2.591,0.731-8.213-3.479-6.828h0c-3.582,1.179-6.567-2.931-4.34-5.973l0,0
							c2.618-3.576-1.843-8.037-5.418-5.419v0c-3.042,2.228-7.152-0.758-5.973-4.34v0c1.385-4.21-4.236-7.074-6.828-3.479v0
							c-2.205,3.059-7.036,1.489-7.022-2.282l0,0c0.017-4.432-6.215-5.419-7.568-1.199l0,0
							C290.979,129.269,285.899,129.269,284.747,125.679z"/>
						<g>
							<path style="fill:#121936;" d="M306.265,203.944h-35.651c-4.173,0-7.568-3.395-7.568-7.568v-28.185
								c0-4.173,3.396-7.568,7.568-7.568h35.651c4.173,0,7.568,3.395,7.568,7.568v28.185
								C313.833,200.549,310.438,203.944,306.265,203.944z M270.613,163.623c-2.519,0-4.568,2.049-4.568,4.568v28.185
								c0,2.519,2.05,4.568,4.568,4.568h35.651c2.519,0,4.568-2.049,4.568-4.568v-28.185c0-2.519-2.05-4.568-4.568-4.568H270.613z"
								/>
							<path style="fill:#121936;" d="M305.381,163.623c-0.828,0-1.5-0.671-1.5-1.5v-8.19c0-5.47-5.045-9.919-11.245-9.919h-8.394
								c-6.2,0-11.245,4.45-11.245,9.919v8.19c0,0.829-0.672,1.5-1.5,1.5c-0.828,0-1.5-0.671-1.5-1.5v-8.19
								c0-7.124,6.391-12.919,14.245-12.919h8.394c7.854,0,14.245,5.795,14.245,12.919v8.19
								C306.881,162.952,306.209,163.623,305.381,163.623z"/>
							<g>
								<g>
									<path style="fill:#121936;" d="M297.489,177.861c0-4.654-4.002-8.418-8.91-8.347c-4.634,0.067-8.457,3.618-8.631,8.025
										c-0.111,2.793,1.223,5.293,3.345,6.883c0.457,0.343,0.736,0.857,0.736,1.411v2.289c0,0.981,0.836,1.777,1.867,1.777h5.638
										c1.031,0,1.867-0.796,1.867-1.777v-2.287c0-0.553,0.276-1.069,0.733-1.411
										C296.177,182.895,297.489,180.524,297.489,177.861z"/>
									<g>
										<path style="fill:#121936;" d="M290.573,193.047c0,1.026-0.832,1.858-1.858,1.858c-1.026,0-1.858-0.832-1.858-1.858
											c0-1.026,0.832-1.858,1.858-1.858C289.741,191.189,290.573,192.02,290.573,193.047z"/>
										<path style="fill:#FFD066;" d="M288.715,195.155c-1.162,0-2.107-0.946-2.107-2.108c0-1.163,0.945-2.108,2.107-2.108
											c1.162,0,2.108,0.946,2.108,2.108C290.823,194.209,289.877,195.155,288.715,195.155z M288.715,191.439
											c-0.887,0-1.607,0.722-1.607,1.608c0,0.887,0.721,1.608,1.607,1.608c0.887,0,1.608-0.721,1.608-1.608
											C290.323,192.16,289.602,191.439,288.715,191.439z"/>
									</g>
									<g>
										<path style="fill:#121936;" d="M291.481,191.931h-5.532c-0.373,0-0.676-0.303-0.676-0.676v-0.195
											c0-0.373,0.303-0.676,0.676-0.676h5.532c0.373,0,0.676,0.303,0.676,0.676v0.195
											C292.157,191.628,291.854,191.931,291.481,191.931z"/>
										<path style="fill:#FFD066;" d="M291.481,192.181h-5.532c-0.511,0-0.926-0.416-0.926-0.926v-0.195
											c0-0.51,0.415-0.926,0.926-0.926h5.532c0.511,0,0.926,0.415,0.926,0.926v0.195
											C292.407,191.765,291.992,192.181,291.481,192.181z M285.949,190.634c-0.234,0-0.426,0.191-0.426,0.426v0.195
											c0,0.235,0.191,0.426,0.426,0.426h5.532c0.234,0,0.426-0.191,0.426-0.426v-0.195c0-0.235-0.191-0.426-0.426-0.426H285.949
											z"/>
									</g>
									<g>
										<path style="fill:#121936;" d="M291.145,193.283h-4.859c-0.326,0-0.591-0.265-0.591-0.591v-0.171
											c0-0.326,0.265-0.591,0.591-0.591h4.859c0.326,0,0.591,0.264,0.591,0.591v0.171
											C291.736,193.018,291.471,193.283,291.145,193.283z"/>
										<path style="fill:#FFD066;" d="M291.145,193.533h-4.859c-0.464,0-0.841-0.377-0.841-0.841v-0.171
											c0-0.464,0.377-0.841,0.841-0.841h4.859c0.464,0,0.841,0.377,0.841,0.841v0.171
											C291.985,193.156,291.608,193.533,291.145,193.533z M286.285,192.181c-0.188,0-0.341,0.153-0.341,0.341v0.171
											c0,0.188,0.153,0.341,0.341,0.341h4.859c0.188,0,0.341-0.153,0.341-0.341v-0.171c0-0.188-0.153-0.341-0.341-0.341H286.285
											z"/>
									</g>
									<path style="fill:#FFD066;" d="M282.634,179.874c-0.165,0-0.316-0.109-0.361-0.276c-1.095-3.996,2.073-6.254,2.105-6.277
										c0.169-0.117,0.403-0.075,0.521,0.094c0.119,0.17,0.077,0.403-0.092,0.522c-0.113,0.079-2.763,1.988-1.812,5.463
										c0.055,0.2-0.063,0.406-0.263,0.461C282.699,179.87,282.666,179.874,282.634,179.874z"/>
								</g>
							</g>
						</g>
						<path style="fill:#121936;" d="M240.743,138.155c-0.218,0-0.438-0.071-0.622-0.218l-9.437-7.515
							c-0.432-0.344-0.503-0.973-0.159-1.405c0.344-0.432,0.972-0.503,1.405-0.159l9.437,7.515c0.432,0.344,0.503,0.973,0.159,1.405
							C241.329,138.026,241.037,138.155,240.743,138.155z"/>
						<path style="fill:#121936;" d="M220.081,173.932c-0.454,0-0.864-0.311-0.973-0.771c-0.126-0.538,0.208-1.076,0.745-1.202
							l11.744-2.755c0.536-0.127,1.075,0.207,1.202,0.745c0.126,0.538-0.208,1.076-0.745,1.202l-11.744,2.755
							C220.233,173.924,220.157,173.932,220.081,173.932z"/>
						<path style="fill:#121936;" d="M233.481,154.925c-0.089,0-0.178-0.012-0.268-0.037l-11.627-3.213
							c-0.532-0.147-0.845-0.698-0.697-1.23c0.146-0.533,0.699-0.843,1.23-0.698l11.627,3.213c0.532,0.147,0.845,0.698,0.697,1.23
							C234.322,154.634,233.92,154.925,233.481,154.925z"/>
						<path style="fill:#121936;" d="M343.755,173.042c-0.516,0-0.953-0.396-0.996-0.919c-0.044-0.55,0.366-1.033,0.916-1.077
							l12.023-0.974c0.553-0.048,1.033,0.365,1.078,0.916c0.044,0.55-0.366,1.033-0.916,1.077l-12.023,0.974
							C343.81,173.04,343.782,173.042,343.755,173.042z"/>
						<path style="fill:#121936;" d="M342.24,154.925c-0.438,0-0.841-0.291-0.963-0.734c-0.147-0.532,0.165-1.083,0.697-1.23
							l11.627-3.213c0.528-0.145,1.084,0.165,1.23,0.698c0.147,0.532-0.165,1.083-0.697,1.23l-11.627,3.213
							C342.419,154.913,342.329,154.925,342.24,154.925z"/>
						<path style="fill:#121936;" d="M351.406,192.978c-0.155,0-0.313-0.036-0.46-0.113l-10.704-5.562
							c-0.49-0.254-0.681-0.858-0.427-1.348c0.255-0.49,0.857-0.683,1.349-0.426l10.704,5.562c0.49,0.254,0.681,0.858,0.427,1.348
							C352.116,192.782,351.768,192.978,351.406,192.978z"/>
						<g>
							<path style="fill:#121936;" d="M337.489,138.697c0,7.695-6.196,14.182-14.14,14.182c-7.901,0-14.016-6.405-14.016-14.099
								s6.155-14.182,14.099-14.182C331.334,124.599,337.489,130.962,337.489,138.697z M312.262,138.786
								c0,6.124,4.814,11.172,11.078,11.172c6.358,0,11.22-5.143,11.22-11.266c0-6.124-4.862-11.172-11.126-11.172
								C317.122,127.52,312.262,132.662,312.262,138.786z M328.071,135.876L328.071,135.876c-0.613,0.736-1.703,0.961-2.491,0.416
								c-0.578-0.4-1.203-0.631-1.773-0.631c-1.58,0-2.745,1.248-2.745,2.995c0,1.788,1.165,3.036,2.745,3.036
								c0.562,0,1.219-0.22,1.845-0.603c0.725-0.443,1.667-0.299,2.248,0.322l0.045,0.049c0.763,0.813,0.647,2.149-0.291,2.752
								c-1.251,0.804-2.712,1.264-4.097,1.264c-4.035,0-6.946-2.827-6.946-6.737c0-3.868,2.995-6.696,7.112-6.696
								c1.332,0,2.755,0.425,3.951,1.141C328.608,133.742,328.768,135.04,328.071,135.876z"/>
						</g>
					</g>
				</g>
			</g>
		</g>
		<g>
			<path style="fill:#F4F2ED;" d="M322.131,367.923v44.189c0,17.492,14.18,31.671,31.671,31.671h5.88
				c21.018,0,38.057-17.039,38.057-38.057v0c0-14.795,11.993-26.788,26.788-26.788h11.016c2.521,0,4.942,0.415,7.209,1.171v-1.171
				h0.259v-16.617c0-11.839-9.598-21.437-21.437-21.437H296.301v0.031C310.673,341.548,322.131,353.396,322.131,367.923z"/>
			
				<line style="fill:none;stroke:#FAF8F3;stroke-width:0;stroke-linecap:round;stroke-linejoin:round;" x1="613.534" y1="446.034" x2="613.534" y2="446.034"/>
			<path style="fill:#FAF8F3;" d="M589.69,417.44l-0.231-17.064c0-11.839-9.598-21.437-21.437-21.437H443.01h-0.259v1.171
				c9.048,3.017,15.574,11.549,15.574,21.611v10.765c0,18.528,15.02,33.548,33.548,33.548l0,0h121.662
				C599.826,443.338,589.879,431.409,589.69,417.44z"/>
			<path style="fill:#121936;" d="M204.463,419.876c0,1.729,0.188,3.414,0.537,5.039c-0.316-1.691-0.48-3.447-0.47-5.257
				L204.463,419.876z"/>
			
				<line style="fill:none;stroke:#121936;stroke-width:0;stroke-linecap:round;stroke-linejoin:round;" x1="491.872" y1="446.034" x2="491.872" y2="446.034"/>
			<path style="fill:#121936;" d="M458.324,412.487v-10.765c0-10.062-6.526-18.594-15.574-21.611
				c-2.266-0.756-4.688-1.171-7.209-1.171h-11.016c-14.795,0-26.788,11.993-26.788,26.788v0c0,21.018-17.039,38.057-38.057,38.057
				h-5.88c-17.491,0-31.671-14.18-31.671-31.671v-44.189c0-14.528-11.458-26.375-25.83-27.008c-0.401-0.018-0.803-0.031-1.209-0.031
				h0c-18.251,0-33.047,14.796-33.047,33.047v36.178c0,18.598-15.077,33.674-33.674,33.674h0c-11.475,0-21.057-8.085-23.371-18.869
				c2.3,12.308,12.843,21.119,26.013,21.119h211.738h49.121C473.344,446.034,458.324,431.014,458.324,412.487z"/>
		</g>
	</g>
	<g>
		<g>
			<g>
				<path style="fill:#FFA386;" d="M235.281,286.629c-4.737-10.149-15.568-2.695-22.631,0.899c-3.197,1.952-6.144,3.695-8.911,5.306
					c0.539-3.809,1.071-7.662,0.263-11.5c-0.26-1.236-0.764-2.587-1.869-3.189c-0.849-0.463-1.873-0.356-2.685,0.053
					c-0.813,0.409-1.454,1.082-2.066,1.758c-5.706,6.301-18.516,27.906-18.516,27.906c-2.421,5.188-4.062,11.008-4.82,16.751
					c-2.203,16.693,12.988,31.952,28.983,28.638c1.964-0.407,3.685-1.046,4.948-2.006l26.893-19.301
					c5.142-3.278,5.706-11.47,0.926-11.55c4.573-1.362,8.989-4.58,6.367-10.29c-1.102-3.301-3.655-3.788-6.378-3.363
					c4.143-1.355,7.87-3.518,6.035-8.401c-1.268-5.538-5.753-5.719-9.945-4.723C234.584,292.347,236.643,290.274,235.281,286.629z"
					/>
			</g>
			<path style="fill:#FF6A48;" d="M192.195,300.586c-0.345,0-0.68-0.178-0.865-0.497c-0.277-0.477-0.116-1.089,0.361-1.367
				l14.536-8.469c0.477-0.278,1.09-0.116,1.367,0.361c0.277,0.477,0.116,1.089-0.361,1.367l-14.536,8.469
				C192.539,300.542,192.366,300.586,192.195,300.586z"/>
			<path style="fill:#FF6A48;" d="M221.386,300.586c-0.339,0-0.67-0.172-0.857-0.483c-0.285-0.474-0.133-1.088,0.34-1.373
				c1.016-0.612,9.975-5.995,11.874-6.513c0.528-0.145,1.082,0.168,1.228,0.702c0.146,0.532-0.169,1.082-0.702,1.228
				c-1.228,0.335-7.623,4.039-11.366,6.296C221.739,300.54,221.561,300.586,221.386,300.586z"/>
			<path style="fill:#FF6A48;" d="M226.79,313.213c-0.345,0-0.681-0.179-0.866-0.499c-0.277-0.478-0.114-1.09,0.364-1.366
				l9.146-5.296c0.478-0.278,1.09-0.113,1.366,0.364c0.277,0.478,0.114,1.09-0.364,1.366l-9.146,5.296
				C227.133,313.17,226.96,313.213,226.79,313.213z"/>
			<path style="fill:#FF6A48;" d="M229.513,325.043c-0.353,0-0.695-0.187-0.877-0.519c-0.267-0.483-0.09-1.092,0.395-1.357
				l4.989-2.744c0.482-0.266,1.092-0.091,1.357,0.395c0.267,0.483,0.09,1.092-0.395,1.357l-4.989,2.744
				C229.841,325.003,229.676,325.043,229.513,325.043z"/>
		</g>
		<g>
			<g>
				<path style="fill:#FF6A48;" d="M417.665,231.383l6.132,5.26c1.57,1.346,1.699,3.77,0.289,5.414l-5.508,6.422
					c-1.41,1.644-3.825,1.885-5.395,0.539l-6.133-5.259c-1.57-1.346-1.699-3.77-0.289-5.414l5.508-6.422
					C413.68,230.278,416.095,230.037,417.665,231.383z"/>
				
					<rect x="343.527" y="265.356" transform="matrix(0.651 -0.7591 0.7591 0.651 -72.1994 389.2434)" style="fill:#FFD066;" width="87.363" height="15.567"/>
				<path style="fill:#FFAA89;" d="M352.972,301.323l11.599,9.948c0.05,0.043,0.23,0.197-0.043,0.171l-18.232,9.4l0,0l6.512-19.451
					C352.834,301.317,352.922,301.28,352.972,301.323z"/>
				<path style="fill:#233863;" d="M348.707,313.874l4.152,3.561c0.018,0.015,0.082,0.07-0.015,0.061l-6.526,3.365l0,0l2.331-6.962
					C348.657,313.871,348.689,313.858,348.707,313.874z"/>
				<path style="fill:#FFFFFF;" d="M405.535,257.284c-0.115,0-0.231-0.04-0.325-0.12c-0.21-0.18-0.234-0.496-0.055-0.705
					l8.181-9.538c0.182-0.209,0.497-0.233,0.705-0.054c0.21,0.18,0.234,0.495,0.055,0.705l-8.181,9.537
					C405.815,257.225,405.676,257.284,405.535,257.284z"/>
				<path style="fill:#FFFFFF;" d="M385.44,271.226c-0.115,0-0.231-0.04-0.325-0.12c-0.21-0.18-0.234-0.496-0.055-0.705
					l23.586-27.501c0.182-0.209,0.498-0.233,0.705-0.054c0.21,0.18,0.234,0.495,0.055,0.705l-23.586,27.501
					C385.721,271.166,385.581,271.226,385.44,271.226z"/>
			</g>
			<g>
				<path style="fill:#FFAA89;" d="M561.423,350.705l-100.91-66.741l-23.391-18.329c-6.545-5.129-14.409-8.3-22.681-9.147
					l-26.8-2.745c-3.847-0.394-7.725,0.339-11.163,2.108l-12.722,6.548c-2.028,1.044-3.241,3.193-3.087,5.468l0.101,1.492
					l-0.978,0.466c-2.677,1.276-4.379,3.98-4.37,6.946l0.016,5.263l-0.877,2.057c-1.202,2.82-0.668,6.081,1.372,8.37l19.752,22.164
					c1.208,1.355,3.313,1.395,4.572,0.087c3.107-3.228,3.329-8.263,0.518-11.753l-6.11-7.587l20.464,12.114
					c3.366,1.993,7.158,3.157,11.063,3.396l12.619,0.774l13.047,14.894l78.263,94.423c9.377,10.079,21.389,15.767,33.754,17.291
					c24.925,3.072,48.625-11.773,57.799-35.152l7.157-15.67L561.423,350.705z"/>
			</g>
			<path style="fill:#FF6A48;" d="M361.103,270.827c-0.424,0-0.817-0.27-0.953-0.696c-0.167-0.525,0.123-1.089,0.649-1.257
				l15.205-4.852c0.523-0.169,1.089,0.123,1.257,0.649c0.167,0.525-0.123,1.089-0.649,1.257l-15.205,4.853
				C361.307,270.813,361.204,270.827,361.103,270.827z"/>
			<path style="fill:#FF6A48;" d="M356.037,282.889c-0.446,0-0.853-0.301-0.968-0.753c-0.137-0.536,0.187-1.08,0.722-1.216
				l18.899-4.809c0.532-0.14,1.079,0.187,1.216,0.722c0.137,0.536-0.186,1.08-0.722,1.216l-18.898,4.809
				C356.202,282.879,356.119,282.889,356.037,282.889z"/>
			<path style="fill:#FF6A48;" d="M374.665,296.374c-0.274,0-0.548-0.112-0.745-0.333l-3.809-4.257
				c-0.368-0.412-0.333-1.044,0.078-1.412c0.412-0.369,1.045-0.334,1.412,0.078l3.809,4.257c0.368,0.412,0.333,1.044-0.078,1.412
				C375.141,296.29,374.902,296.374,374.665,296.374z"/>
			<path style="fill:#FF6A48;" d="M418.81,312.658c-0.534,0-0.978-0.422-0.998-0.961c-0.021-0.552,0.408-1.017,0.96-1.038
				l14.901-0.585c0.521-0.038,1.017,0.407,1.038,0.96c0.021,0.552-0.408,1.017-0.96,1.038l-14.901,0.585
				C418.837,312.658,418.823,312.658,418.81,312.658z"/>
		</g>
	</g>
</g>
</svg>
