<?xml version="1.0" encoding="utf-8"?>
<!-- Generator: Adobe Illustrator 27.5.0, SVG Export Plug-In . SVG Version: 6.00 Build 0)  -->
<svg version="1.1" xmlns="http://www.w3.org/2000/svg" xmlns:xlink="http://www.w3.org/1999/xlink" x="0px" y="0px"
	 viewBox="0 0 500 500" style="enable-background:new 0 0 500 500;" xml:space="preserve">
<g id="BACKGROUND">
	<rect style="fill:#B5FFF1;" width="500" height="500"/>
</g>
<g id="OBJECTS">
	<g>
		<g>
			<path style="fill:#004569;" d="M135.305,345.635c-0.318-0.544-0.645-1.104-0.967-1.657c-0.323-0.561-0.641-1.106-0.943-1.609
				c-0.605-1.005-1.146-1.84-1.57-2.296c-0.437-0.473-0.891-0.872-1.349-1.15c-0.458-0.293-0.922-0.45-1.385-0.603
				c-0.926-0.296-1.85-0.251-2.689-0.197c-0.419,0.041-0.817,0.117-1.18,0.207c-0.361,0.071-0.687,0.148-0.962,0.229
				c-0.549,0.159-0.892,0.31-0.892,0.31c-0.055,0.705,0.347,2.823,1.726,5.172c0.347,0.57,0.755,1.154,1.234,1.735
				c0.24,0.29,0.496,0.58,0.772,0.866c0.276,0.279,0.57,0.536,0.883,0.796c0.626,0.505,1.33,1.029,2.112,1.424
				c0.781,0.388,1.645,0.762,2.584,0.997c-0.361,0.074-0.807,0.104-1.329,0.169c-0.522,0.054-1.121,0.137-1.794,0.192
				c-0.673,0.037-1.419,0.079-2.233,0.124c-0.813,0.02-1.694,0.003-2.638,0.006c-0.892-1.023-1.059-2.393-1.392-4.021
				c-0.164-0.815-0.367-1.698-0.696-2.633c-0.326-0.959-0.776-1.982-1.421-3.04c-0.338-0.542-0.708-1.023-1.103-1.413
				c-0.394-0.39-0.815-0.686-1.246-0.924c-0.427-0.263-0.868-0.455-1.308-0.595c-0.22-0.071-0.441-0.124-0.658-0.175
				c-0.215-0.061-0.429-0.11-0.638-0.15c-0.419-0.08-0.824-0.121-1.196-0.141c-0.373-0.018-0.703-0.053-0.988-0.052
				c-0.567-0.009-0.931,0.034-0.931,0.034c-0.094,0.322-0.131,1.005-0.033,1.931c0.049,0.463,0.133,0.988,0.262,1.559
				c0.13,0.571,0.303,1.198,0.543,1.82c0.479,1.246,1.178,2.68,2.229,3.961c0.522,0.651,1.12,1.323,1.82,1.888
				c0.697,0.575,1.476,1.169,2.361,1.604c-2.426-0.322-5.115-0.811-7.934-1.72c-0.723-1.18-0.636-2.517-0.663-4.121
				c-0.011-0.805-0.046-1.685-0.197-2.649c-0.148-0.973-0.402-2.068-0.851-3.24c-0.115-0.306-0.247-0.582-0.386-0.852
				c-0.137-0.275-0.286-0.53-0.446-0.767c-0.318-0.474-0.677-0.872-1.06-1.212c-0.373-0.367-0.77-0.674-1.177-0.932
				c-0.203-0.129-0.409-0.245-0.614-0.353c-0.2-0.12-0.4-0.228-0.597-0.327c-0.396-0.197-0.783-0.354-1.143-0.481
				c-0.361-0.125-0.675-0.257-0.953-0.34c-0.55-0.176-0.91-0.244-0.91-0.244c-0.145,0.274-0.294,0.906-0.351,1.806
				c-0.029,0.451-0.034,0.969-0.002,1.545c0.031,0.577,0.098,1.215,0.229,1.869c0.26,1.315,0.707,2.858,1.52,4.361
				c0.2,0.382,0.42,0.769,0.66,1.158c0.241,0.388,0.516,0.747,0.805,1.123c0.292,0.372,0.605,0.744,0.943,1.113
				c0.336,0.374,0.711,0.698,1.102,1.041c-1.113-0.428-2.206-1-3.341-1.529c-1.103-0.61-2.249-1.185-3.358-1.901
				c-0.251-0.146-0.499-0.301-0.746-0.458c-0.091-0.218-0.16-0.433-0.208-0.646c-0.166-0.807-0.082-1.583,0.056-2.44
				c0.289-1.708,0.727-3.74,0.136-6.812c-0.061-0.32-0.144-0.616-0.234-0.909c-0.087-0.298-0.19-0.581-0.305-0.85
				c-0.23-0.538-0.513-1.017-0.828-1.45c-0.3-0.457-0.633-0.864-0.984-1.229c-0.175-0.183-0.356-0.352-0.535-0.517
				c-0.173-0.173-0.347-0.336-0.521-0.489c-0.348-0.305-0.695-0.571-1.019-0.8c-0.326-0.227-0.604-0.448-0.856-0.611
				c-0.497-0.334-0.83-0.508-0.83-0.508c-0.224,0.265-0.542,1.048-0.751,2.245c-0.102,0.596-0.186,1.309-0.198,2.096
				c-0.006,0.779,0.045,1.649,0.181,2.598c0.124,0.965,0.386,1.937,0.738,2.998c0.343,1.074,0.861,2.115,1.493,3.223
				c0.321,0.527,0.68,1.059,1.079,1.585c-0.225-0.172-0.447-0.342-0.673-0.514c-0.28-0.206-0.551-0.43-0.819-0.662
				c-0.27-0.228-0.54-0.457-0.812-0.687c-1.445-1.246-2.865-2.595-4.237-4.042c-0.063-0.264-0.102-0.516-0.115-0.758
				c-0.026-0.808,0.178-1.511,0.446-2.274c0.548-1.519,1.285-3.291,1.207-6.375c-0.009-0.32-0.04-0.626-0.081-0.93
				c-0.036-0.309-0.089-0.609-0.155-0.899c-0.134-0.581-0.326-1.124-0.558-1.631c-0.213-0.525-0.462-1.019-0.735-1.474
				c-0.136-0.228-0.279-0.447-0.424-0.657c-0.139-0.216-0.274-0.428-0.414-0.628c-0.556-0.801-1.141-1.444-1.536-1.933
				c-0.41-0.477-0.692-0.747-0.692-0.747c-0.25,0.184-0.667,0.835-1.05,1.916c-0.187,0.537-0.385,1.199-0.512,1.938
				c-0.128,0.74-0.218,1.585-0.243,2.53c-0.035,1.874,0.239,4.123,1.1,6.57c0.239,0.653,0.521,1.325,0.85,2.003
				c-1.609-2.006-3.131-4.148-4.527-6.425c-0.246-0.397-0.485-0.8-0.722-1.205c-0.027-0.321-0.025-0.613,0.006-0.883
				c0.098-0.771,0.407-1.384,0.776-2.027c0.371-0.644,0.809-1.327,1.192-2.224c0.371-0.887,0.734-2.02,0.935-3.503
				c0.146-1.227,0.084-2.461-0.191-3.583c-0.136-0.562-0.266-1.13-0.449-1.655c-0.169-0.533-0.397-1.021-0.574-1.505
				c-0.369-0.96-0.811-1.763-1.101-2.36c-0.293-0.595-0.503-0.948-0.503-0.948c-0.257,0.104-0.742,0.614-1.269,1.552
				c-0.131,0.234-0.268,0.497-0.398,0.785c-0.125,0.285-0.248,0.598-0.368,0.938c-0.238,0.681-0.46,1.473-0.64,2.381
				c-0.166,0.901-0.258,1.901-0.295,3.022c-0.025,0.565,0.004,1.137,0.047,1.741c0.044,0.603,0.109,1.234,0.2,1.889
				c0.131,0.783,0.307,1.604,0.538,2.449c-0.558-1.147-1.086-2.315-1.583-3.501l-0.478-1.131c-0.151-0.382-0.288-0.771-0.433-1.156
				l-0.429-1.157l-0.215-0.578l-0.191-0.59c-0.106-0.331-0.212-0.66-0.319-0.991c0.028-0.358,0.084-0.67,0.162-0.946
				c0.2-0.708,0.578-1.206,1.024-1.721c0.444-0.513,0.955-1.044,1.451-1.802c0.496-0.756,0.963-1.733,1.41-3.135
				c0.18-0.584,0.288-1.179,0.338-1.775c0.072-0.603,0.092-1.208,0.067-1.805c-0.01-0.299-0.04-0.594-0.061-0.889
				c-0.019-0.296-0.047-0.588-0.082-0.875c-0.065-0.575-0.179-1.128-0.27-1.655c-0.09-0.527-0.194-1.021-0.301-1.468
				c-0.056-0.223-0.11-0.434-0.16-0.631c-0.046-0.198-0.089-0.382-0.129-0.55c-0.165-0.67-0.296-1.078-0.296-1.078
				c-0.481,0.063-2.109,1.454-3.337,4.799c-0.288,0.833-0.55,1.787-0.772,2.872c-0.097,0.539-0.173,1.107-0.24,1.709
				c-0.061,0.6-0.129,1.239-0.126,1.894c-0.008,0.864,0.011,1.791,0.091,2.755c-0.83-3.311-1.433-6.67-1.805-10.007
				c0.291-1.308,0.85-1.856,1.545-2.4c0.482-0.377,1.026-0.753,1.594-1.358c0.555-0.602,1.183-1.437,1.793-2.691
				c0.246-0.525,0.46-1.082,0.626-1.657c0.169-0.575,0.263-1.168,0.362-1.765c0.098-0.596,0.156-1.196,0.187-1.785
				c0.032-0.589,0.074-1.164,0.076-1.712c-0.005-1.097,0.008-2.074-0.035-2.786c-0.036-0.707-0.058-1.148-0.058-1.148
				c-0.442-0.066-2.133,0.895-3.821,3.858c-0.209,0.371-0.42,0.773-0.631,1.207c-0.199,0.435-0.388,0.904-0.577,1.406
				c-0.183,0.503-0.385,1.039-0.538,1.612c-0.157,0.572-0.306,1.179-0.445,1.823c-0.188,0.938-0.338,1.958-0.432,3.049
				c-0.076-1.47-0.107-2.93-0.09-4.371c0.017-2.111,0.127-4.18,0.305-6.198c0.16-0.391,0.339-0.7,0.518-0.948
				c0.397-0.543,0.832-0.807,1.322-1.053c0.485-0.246,1.035-0.473,1.662-0.919c0.311-0.223,0.639-0.5,0.984-0.858
				c0.341-0.359,0.702-0.798,1.107-1.338c1.284-1.82,1.995-4.381,2.466-6.552c0.125-0.539,0.227-1.054,0.311-1.525
				c0.089-0.467,0.169-0.888,0.236-1.241c0.126-0.708,0.181-1.152,0.181-1.152c-0.187-0.086-0.691,0.022-1.421,0.454
				c-0.363,0.217-0.793,0.512-1.252,0.913c-0.45,0.405-0.945,0.911-1.472,1.535c-0.526,0.625-1.037,1.385-1.587,2.272
				c-0.273,0.445-0.517,0.933-0.78,1.452c-0.254,0.521-0.53,1.073-0.755,1.674c-0.235,0.599-0.468,1.234-0.695,1.908
				c-0.116,0.38-0.227,0.775-0.335,1.18c0.359-2.437,0.826-4.772,1.355-6.976c0.164-0.646,0.326-1.284,0.486-1.913
				c0.145-0.499,0.288-0.988,0.43-1.475c0.25-0.413,0.488-0.718,0.718-0.945c0.467-0.434,0.906-0.588,1.389-0.713
				c0.483-0.124,1.01-0.22,1.638-0.52c0.635-0.295,1.396-0.782,2.295-1.684c1.55-1.482,2.686-3.875,3.594-5.892
				c0.465-0.995,0.828-1.921,1.1-2.582c0.277-0.656,0.43-1.072,0.43-1.072c-0.289-0.232-1.919-0.022-4.314,1.962
				c-1.175,1.005-2.565,2.449-3.912,4.562c-0.581,0.901-1.16,1.93-1.712,3.081c0.002-0.007,0.005-0.014,0.007-0.021
				c0.411-1.093,0.781-2.162,1.207-3.15c0.206-0.499,0.407-0.986,0.604-1.464c0.213-0.468,0.421-0.926,0.624-1.372
				c0.634-1.387,1.261-2.636,1.858-3.756c0.035-0.04,0.072-0.082,0.106-0.119c0.304-0.326,0.573-0.557,0.822-0.721
				c0.494-0.331,0.915-0.391,1.376-0.408c0.457-0.019,0.948-0.002,1.575-0.162c0.315-0.078,0.656-0.207,1.056-0.393
				c0.404-0.182,0.854-0.432,1.361-0.774c0.213-0.142,0.419-0.304,0.626-0.474c0.213-0.165,0.421-0.344,0.625-0.534
				c0.413-0.376,0.792-0.814,1.183-1.246c0.391-0.433,0.763-0.891,1.114-1.355c0.354-0.46,0.709-0.901,1.025-1.343
				c0.157-0.222,0.31-0.438,0.457-0.645c0.15-0.204,0.294-0.401,0.431-0.588c0.272-0.376,0.511-0.72,0.708-1.012
				c0.194-0.295,0.357-0.525,0.47-0.683c0.11-0.16,0.172-0.249,0.172-0.249c-0.208-0.273-1.735-0.358-4.34,1.068
				c-0.324,0.18-0.667,0.383-1.026,0.609c-0.355,0.232-0.716,0.502-1.099,0.793c-0.378,0.296-0.789,0.603-1.185,0.971
				c-0.399,0.365-0.812,0.76-1.239,1.188c-0.769,0.798-1.569,1.734-2.366,2.812c0.225-0.373,0.442-0.729,0.64-1.048
				c0.583-0.891,1.016-1.599,1.34-2.049c0.032-0.046,0.062-0.089,0.091-0.13c0.725-0.934,1.375-1.67,2.029-2.252
				c0.362-0.334,0.712-0.639,1.062-0.932c0.358-0.276,0.718-0.552,1.087-0.836c1.472-1.129,3.077-2.412,5.697-4.869
				c2.12-1.956,3.902-3.942,5.219-5.426c0.321-0.385,0.618-0.723,0.878-1.026c0.259-0.306,0.478-0.581,0.654-0.814
				c0.352-0.467,0.529-0.772,0.499-0.842c-0.031-0.069-0.335-0.057-0.857,0.051c-0.261,0.054-0.577,0.132-0.941,0.237
				c-0.365,0.102-0.776,0.233-1.215,0.418c-0.442,0.178-0.924,0.386-1.437,0.627c-0.514,0.239-1.036,0.552-1.592,0.878
				c-0.276,0.166-0.558,0.34-0.843,0.525c-0.278,0.197-0.56,0.402-0.845,0.618c-0.567,0.434-1.155,0.888-1.706,1.435
				c-2.628,2.488-3.867,4.483-4.891,6.323c-0.253,0.463-0.501,0.917-0.748,1.37c-0.244,0.459-0.48,0.932-0.744,1.41
				c-0.456,0.8-0.932,1.674-1.544,2.639c-0.057,0.08-0.121,0.17-0.194,0.273c-0.329,0.449-0.769,1.155-1.361,2.045
				c-0.141,0.223-0.29,0.461-0.445,0.711c0.546-1.102,1.051-2.14,1.512-3.114c0.286-0.582,0.551-1.146,0.796-1.693
				c0.242-0.55,0.495-1.051,0.713-1.551c0.223-0.495,0.422-0.978,0.615-1.43c0.198-0.446,0.379-0.874,0.543-1.283
				c1.327-3.258,1.692-5.176,1.478-5.454c0,0-0.096,0.073-0.269,0.203c-0.174,0.131-0.423,0.326-0.719,0.59
				c-0.299,0.26-0.653,0.576-1.045,0.939c-0.195,0.182-0.403,0.373-0.612,0.58c-0.203,0.215-0.414,0.438-0.631,0.667
				c-0.428,0.468-0.884,0.961-1.313,1.505c-0.425,0.549-0.844,1.125-1.238,1.717c-0.394,0.591-0.73,1.228-1.036,1.849
				c-0.151,0.313-0.29,0.626-0.414,0.937c-0.12,0.316-0.219,0.635-0.305,0.948c-0.203,0.749-0.327,1.381-0.396,1.923
				c-0.064,0.546-0.062,1.013-0.037,1.41c0.054,0.797,0.228,1.343,0.364,1.859c0.134,0.513,0.24,1.003,0.185,1.686
				c-0.029,0.34-0.1,0.727-0.228,1.187c-0.003,0.01-0.007,0.022-0.01,0.032c-0.624,1.143-1.282,2.421-1.949,3.847
				c-0.208,0.447-0.421,0.906-0.638,1.375c-0.203,0.478-0.41,0.967-0.621,1.466c-0.397,0.9-0.751,1.866-1.129,2.857
				c0.283-1.124,0.54-2.184,0.769-3.185c0.583-2.611,1.026-4.797,1.283-6.614c0.556-3.607,0.425-5.676,0.121-5.92
				c0,0-0.325,0.38-0.834,1.036c-0.503,0.66-1.16,1.622-1.85,2.752c-1.352,2.275-2.671,5.365-2.784,8.038
				c-0.039,1.609,0.128,2.661,0.382,3.443c0.264,0.786,0.59,1.29,0.869,1.773c0.28,0.483,0.513,0.943,0.605,1.625
				c0.052,0.318,0.073,0.686,0.06,1.121c-0.347,1.117-0.678,2.274-0.973,3.477c-0.543,2.167-1.033,4.463-1.416,6.861
				c0.036-1.085,0.06-2.112,0.075-3.082c-0.01-0.678,0.014-1.319,0.004-1.941c-0.002-0.619-0.033-1.219-0.044-1.785
				c-0.017-1.13-0.102-2.171-0.171-3.095c-0.068-0.924-0.168-1.748-0.285-2.468c-0.109-0.716-0.22-1.321-0.347-1.821
				c-0.25-0.998-0.53-1.556-0.717-1.642c0,0-0.248,0.46-0.622,1.241c-0.183,0.393-0.414,0.858-0.63,1.399
				c-0.216,0.541-0.446,1.145-0.673,1.794c-0.878,2.598-1.606,5.981-1.05,8.653c0.144,0.792,0.342,1.438,0.557,1.974
				c0.212,0.535,0.436,0.958,0.662,1.307c0.45,0.698,0.916,1.104,1.337,1.504c0.417,0.398,0.779,0.786,1.043,1.425
				c0.118,0.282,0.21,0.616,0.291,1.017c-0.198,2.014-0.332,4.079-0.374,6.19c-0.032,1.366-0.021,2.748,0.028,4.141
				c-0.168-0.918-0.342-1.794-0.522-2.621c-0.132-0.654-0.275-1.28-0.426-1.88c-0.155-0.599-0.276-1.172-0.427-1.718
				c-0.144-0.546-0.3-1.066-0.451-1.56c-0.139-0.493-0.284-0.96-0.43-1.401c-1.162-3.531-2.372-5.38-2.823-5.445
				c0,0-0.041,0.131-0.116,0.366c-0.077,0.236-0.169,0.582-0.273,1.017c-0.203,0.868-0.505,2.084-0.664,3.482
				c-0.083,0.698-0.175,1.438-0.2,2.196c-0.025,0.759-0.022,1.535,0.02,2.301c0.041,0.766,0.165,1.521,0.317,2.238
				c0.154,0.717,0.362,1.396,0.66,2.006c0.693,1.457,1.362,2.295,2.02,2.841c0.646,0.546,1.234,0.806,1.759,1.073
				c0.722,0.365,1.329,0.747,1.874,1.817c0.333,3.357,0.894,6.744,1.677,10.094c-0.329-0.783-0.653-1.531-0.993-2.229
				c-0.296-0.585-0.545-1.156-0.82-1.693c-0.27-0.538-0.548-1.047-0.819-1.531c-0.514-0.975-1.04-1.842-1.548-2.608
				c-1.961-3.083-3.659-4.538-4.166-4.471c0,0-0.066,0.55-0.124,1.459c-0.013,0.228-0.027,0.478-0.041,0.745
				c-0.001,0.268-0.003,0.555-0.004,0.857c0.003,0.605,0.02,1.275,0.06,1.982c0.041,0.707,0.142,1.443,0.255,2.193
				c0.059,0.374,0.126,0.75,0.202,1.125c0.078,0.374,0.183,0.742,0.288,1.106c0.215,0.728,0.468,1.435,0.772,2.088
				c0.326,0.646,0.698,1.238,1.121,1.747c0.995,1.22,1.918,1.816,2.706,2.154c0.79,0.337,1.463,0.411,2.071,0.511
				c0.606,0.1,1.148,0.223,1.707,0.614c0.187,0.131,0.372,0.297,0.558,0.5c0.594,1.926,1.269,3.825,2.01,5.688l0.474,1.161
				l0.237,0.581l0.26,0.566l0.558,1.204c-0.442-0.587-0.879-1.144-1.314-1.666c-0.387-0.497-0.777-0.962-1.165-1.4
				c-0.387-0.438-0.783-0.843-1.138-1.242c-0.725-0.79-1.455-1.467-2.127-2.063c-2.659-2.403-4.759-3.307-5.278-3.09
				c0,0,0.034,0.559,0.143,1.466c0.106,0.908,0.361,2.138,0.708,3.503c0.165,0.687,0.425,1.373,0.687,2.074
				c0.276,0.694,0.561,1.401,0.933,2.046c0.746,1.289,1.606,2.466,2.717,3.18c1.301,0.869,2.332,1.191,3.237,1.26
				c0.893,0.075,1.613-0.07,2.269-0.17c0.658-0.103,1.243-0.154,1.882,0.059c0.196,0.062,0.397,0.151,0.605,0.268
				c0.224,0.39,0.452,0.777,0.673,1.169c1.381,2.344,2.887,4.565,4.489,6.646c-0.49-0.382-0.973-0.741-1.449-1.074
				c-1.978-1.426-3.813-2.462-5.425-3.204c-0.798-0.378-1.551-0.67-2.241-0.89c-0.691-0.219-1.283-0.393-1.816-0.488
				c-1.055-0.2-1.785-0.146-2.035,0.038c0,0,0.143,0.538,0.432,1.395c0.274,0.868,0.758,2.009,1.386,3.238
				c0.158,0.306,0.322,0.62,0.502,0.929c0.187,0.303,0.383,0.607,0.589,0.908c0.412,0.601,0.858,1.19,1.341,1.729
				c0.502,0.52,1.038,0.995,1.601,1.389c0.281,0.197,0.57,0.374,0.864,0.527c0.299,0.147,0.612,0.264,0.925,0.356
				c2.986,0.877,4.552-0.109,5.86-0.718c0.655-0.316,1.252-0.568,1.936-0.557c0.19-0.002,0.388,0.016,0.595,0.054
				c1.351,1.474,2.746,2.861,4.173,4.143c0.755,0.684,1.523,1.332,2.299,1.951c-0.496-0.197-0.985-0.38-1.464-0.541
				c-1.112-0.416-2.215-0.677-3.212-0.94c-1.005-0.25-1.988-0.378-2.859-0.509c-0.882-0.115-1.705-0.16-2.45-0.155
				c-0.739-0.003-1.386,0.027-1.948,0.103c-1.121,0.147-1.864,0.439-2.088,0.705c0,0,0.244,0.49,0.696,1.25
				c0.23,0.375,0.497,0.837,0.838,1.303c0.34,0.467,0.73,0.972,1.162,1.483c0.216,0.256,0.443,0.513,0.68,0.768
				c0.243,0.246,0.499,0.485,0.763,0.72c0.527,0.469,1.09,0.913,1.678,1.299c0.603,0.363,1.233,0.665,1.876,0.88
				c0.321,0.107,0.646,0.192,0.972,0.25c0.329,0.055,0.667,0.07,1.001,0.063c3.184-0.08,4.585-1.573,5.797-2.609
				c0.604-0.53,1.161-0.976,1.851-1.184c0.163-0.054,0.334-0.094,0.514-0.122c0.211,0.14,0.422,0.28,0.634,0.417
				c0.286,0.183,0.571,0.365,0.855,0.546l0.425,0.271l0.433,0.247c0.577,0.328,1.148,0.652,1.714,0.974
				c0.571,0.31,1.15,0.583,1.716,0.872c0.284,0.142,0.566,0.283,0.847,0.424c0.286,0.125,0.571,0.249,0.854,0.373
				c-1.002-0.055-1.937-0.127-2.849-0.106c-0.916,0.032-1.769,0.054-2.589,0.139c-1.651,0.192-3.091,0.439-4.344,0.818
				c-0.628,0.192-1.187,0.371-1.689,0.567c-0.502,0.196-0.945,0.401-1.319,0.604c-0.748,0.405-1.223,0.799-1.366,1.07
				c0,0,0.334,0.417,0.927,1.042c0.299,0.307,0.652,0.687,1.081,1.051c0.427,0.366,0.911,0.754,1.438,1.135
				c0.264,0.19,0.539,0.379,0.823,0.563c0.289,0.172,0.59,0.335,0.897,0.491c0.615,0.311,1.261,0.584,1.922,0.791
				c0.672,0.179,1.359,0.29,2.042,0.307c0.342,0.008,0.683-0.007,1.02-0.05c0.34-0.048,0.68-0.137,1.013-0.249
				c1.272-0.435,2.201-0.99,2.935-1.61c0.737-0.631,1.271-1.295,1.725-1.924c0.908-1.267,1.502-2.358,2.657-2.941
				c2.85,0.975,5.573,1.548,8.048,1.944c-3.9,0.86-7.064,2.341-9.384,3.831c-1.157,0.752-2.077,1.455-2.743,2.103
				c-0.663,0.638-1.059,1.181-1.152,1.5c0,0,0.41,0.323,1.119,0.777c0.355,0.221,0.779,0.498,1.274,0.74
				c0.494,0.243,1.049,0.491,1.647,0.718c0.299,0.114,0.609,0.222,0.927,0.323c0.32,0.091,0.651,0.164,0.986,0.23
				c0.672,0.13,1.367,0.212,2.064,0.223c0.701-0.014,1.407-0.113,2.088-0.302c0.682-0.188,1.341-0.471,1.961-0.916
				c1.164-0.816,1.972-1.666,2.574-2.497c0.604-0.857,1.003-1.689,1.328-2.462c0.647-1.551,1.016-2.861,1.996-3.783
				c3.781,0.204,6.613-0.156,8.177-0.303c-3.593,1.988-6.372,4.388-8.342,6.597c-1.96,2.141-3.049,4.088-3.104,4.797
				c0,0,0.47,0.208,1.261,0.459c0.395,0.124,0.871,0.266,1.407,0.386c0.538,0.101,1.136,0.189,1.773,0.243
				c1.273,0.138,2.705,0.01,4.087-0.376c0.691-0.189,1.366-0.522,2.001-0.909c0.634-0.401,1.228-0.871,1.749-1.493
				c0.516-0.618,1.09-1.626,1.63-2.807c0.27-0.59,0.533-1.223,0.778-1.871c0.243-0.664,0.471-1.342,0.676-2.006
				c0.824-2.657,1.269-5.082,1.215-5.435C137.761,349.879,136.579,347.839,135.305,345.635z"/>
			<path style="fill:#004569;" d="M364.695,345.635c0.318-0.544,0.645-1.104,0.967-1.657c0.323-0.561,0.641-1.106,0.943-1.609
				c0.605-1.005,1.146-1.84,1.57-2.296c0.437-0.473,0.891-0.872,1.349-1.15c0.458-0.293,0.922-0.45,1.385-0.603
				c0.926-0.296,1.85-0.251,2.689-0.197c0.419,0.041,0.817,0.117,1.18,0.207c0.362,0.071,0.687,0.148,0.962,0.229
				c0.549,0.159,0.892,0.31,0.892,0.31c0.055,0.705-0.347,2.823-1.726,5.172c-0.346,0.57-0.755,1.154-1.234,1.735
				c-0.24,0.29-0.496,0.58-0.772,0.866c-0.276,0.279-0.569,0.536-0.883,0.796c-0.626,0.505-1.33,1.029-2.112,1.424
				c-0.781,0.388-1.645,0.762-2.584,0.997c0.361,0.074,0.807,0.104,1.329,0.169c0.522,0.054,1.121,0.137,1.794,0.192
				c0.673,0.037,1.419,0.079,2.233,0.124c0.813,0.02,1.694,0.003,2.638,0.006c0.892-1.023,1.059-2.393,1.392-4.021
				c0.164-0.815,0.367-1.698,0.695-2.633c0.326-0.959,0.777-1.982,1.421-3.04c0.339-0.542,0.708-1.023,1.103-1.413
				c0.394-0.39,0.815-0.686,1.246-0.924c0.427-0.263,0.868-0.455,1.308-0.595c0.22-0.071,0.441-0.124,0.658-0.175
				c0.215-0.061,0.429-0.11,0.638-0.15c0.419-0.08,0.824-0.121,1.196-0.141c0.373-0.018,0.703-0.053,0.988-0.052
				c0.568-0.009,0.931,0.034,0.931,0.034c0.094,0.322,0.131,1.005,0.033,1.931c-0.049,0.463-0.133,0.988-0.262,1.559
				c-0.129,0.571-0.303,1.198-0.543,1.82c-0.479,1.246-1.179,2.68-2.229,3.961c-0.522,0.651-1.121,1.323-1.82,1.888
				c-0.697,0.575-1.476,1.169-2.361,1.604c2.426-0.322,5.115-0.811,7.934-1.72c0.723-1.18,0.636-2.517,0.663-4.121
				c0.011-0.805,0.046-1.685,0.197-2.649c0.148-0.973,0.402-2.068,0.851-3.24c0.115-0.306,0.247-0.582,0.386-0.852
				c0.137-0.275,0.286-0.53,0.446-0.767c0.318-0.474,0.677-0.872,1.06-1.212c0.373-0.367,0.77-0.674,1.177-0.932
				c0.203-0.129,0.409-0.245,0.614-0.353c0.2-0.12,0.4-0.228,0.598-0.327c0.396-0.197,0.783-0.354,1.143-0.481
				c0.361-0.125,0.675-0.257,0.952-0.34c0.55-0.176,0.91-0.244,0.91-0.244c0.145,0.274,0.294,0.906,0.351,1.806
				c0.029,0.451,0.034,0.969,0.002,1.545c-0.031,0.577-0.098,1.215-0.229,1.869c-0.259,1.315-0.707,2.858-1.52,4.361
				c-0.2,0.382-0.42,0.769-0.661,1.158c-0.241,0.388-0.515,0.747-0.805,1.123c-0.292,0.372-0.605,0.744-0.943,1.113
				c-0.336,0.374-0.711,0.698-1.103,1.041c1.113-0.428,2.206-1,3.341-1.529c1.103-0.61,2.249-1.185,3.358-1.901
				c0.251-0.146,0.499-0.301,0.746-0.458c0.091-0.218,0.16-0.433,0.208-0.646c0.166-0.807,0.082-1.583-0.056-2.44
				c-0.289-1.708-0.727-3.74-0.136-6.812c0.061-0.32,0.144-0.616,0.234-0.909c0.088-0.298,0.19-0.581,0.306-0.85
				c0.23-0.538,0.513-1.017,0.828-1.45c0.3-0.457,0.633-0.864,0.984-1.229c0.175-0.183,0.356-0.352,0.535-0.517
				c0.173-0.173,0.347-0.336,0.521-0.489c0.348-0.305,0.695-0.571,1.019-0.8c0.326-0.227,0.604-0.448,0.856-0.611
				c0.497-0.334,0.83-0.508,0.83-0.508c0.224,0.265,0.542,1.048,0.751,2.245c0.102,0.596,0.186,1.309,0.198,2.096
				c0.006,0.779-0.045,1.649-0.181,2.598c-0.124,0.965-0.385,1.937-0.738,2.998c-0.343,1.074-0.861,2.115-1.493,3.223
				c-0.321,0.527-0.68,1.059-1.079,1.585c0.225-0.172,0.447-0.342,0.673-0.514c0.28-0.206,0.551-0.43,0.819-0.662
				c0.27-0.228,0.54-0.457,0.812-0.687c1.445-1.246,2.865-2.595,4.237-4.042c0.063-0.264,0.102-0.516,0.115-0.758
				c0.027-0.808-0.178-1.511-0.446-2.274c-0.548-1.519-1.285-3.291-1.207-6.375c0.009-0.32,0.04-0.626,0.081-0.93
				c0.036-0.309,0.089-0.609,0.156-0.899c0.134-0.581,0.326-1.124,0.558-1.631c0.213-0.525,0.462-1.019,0.735-1.474
				c0.136-0.228,0.279-0.447,0.424-0.657c0.139-0.216,0.274-0.428,0.414-0.628c0.556-0.801,1.141-1.444,1.536-1.933
				c0.41-0.477,0.692-0.747,0.692-0.747c0.25,0.184,0.667,0.835,1.05,1.916c0.186,0.537,0.385,1.199,0.512,1.938
				c0.128,0.74,0.218,1.585,0.243,2.53c0.035,1.874-0.239,4.123-1.1,6.57c-0.239,0.653-0.521,1.325-0.85,2.003
				c1.609-2.006,3.13-4.148,4.527-6.425c0.246-0.397,0.485-0.8,0.722-1.205c0.027-0.321,0.024-0.613-0.006-0.883
				c-0.098-0.771-0.407-1.384-0.775-2.027c-0.371-0.644-0.809-1.327-1.192-2.224c-0.371-0.887-0.734-2.02-0.935-3.503
				c-0.146-1.227-0.084-2.461,0.19-3.583c0.136-0.562,0.266-1.13,0.449-1.655c0.169-0.533,0.397-1.021,0.574-1.505
				c0.369-0.96,0.811-1.763,1.101-2.36c0.293-0.595,0.503-0.948,0.503-0.948c0.257,0.104,0.742,0.614,1.269,1.552
				c0.131,0.234,0.268,0.497,0.398,0.785c0.125,0.285,0.248,0.598,0.368,0.938c0.238,0.681,0.46,1.473,0.64,2.381
				c0.166,0.901,0.258,1.901,0.295,3.022c0.025,0.565-0.004,1.137-0.047,1.741c-0.044,0.603-0.109,1.234-0.2,1.889
				c-0.131,0.783-0.307,1.604-0.538,2.449c0.558-1.147,1.086-2.315,1.583-3.501l0.478-1.131c0.151-0.382,0.288-0.771,0.433-1.156
				l0.429-1.157l0.214-0.578l0.191-0.59c0.106-0.331,0.212-0.66,0.319-0.991c-0.028-0.358-0.084-0.67-0.162-0.946
				c-0.2-0.708-0.578-1.206-1.024-1.721c-0.444-0.513-0.955-1.044-1.451-1.802c-0.496-0.756-0.963-1.733-1.41-3.135
				c-0.18-0.584-0.288-1.179-0.338-1.775c-0.072-0.603-0.092-1.208-0.067-1.805c0.01-0.299,0.04-0.594,0.061-0.889
				c0.019-0.296,0.047-0.588,0.082-0.875c0.065-0.575,0.179-1.128,0.27-1.655c0.089-0.527,0.194-1.021,0.301-1.468
				c0.056-0.223,0.11-0.434,0.16-0.631c0.046-0.198,0.089-0.382,0.129-0.55c0.165-0.67,0.296-1.078,0.296-1.078
				c0.481,0.063,2.108,1.454,3.337,4.799c0.288,0.833,0.55,1.787,0.772,2.872c0.097,0.539,0.173,1.107,0.24,1.709
				c0.061,0.6,0.129,1.239,0.126,1.894c0.008,0.864-0.011,1.791-0.091,2.755c0.831-3.311,1.433-6.67,1.805-10.007
				c-0.29-1.308-0.85-1.856-1.545-2.4c-0.482-0.377-1.027-0.753-1.595-1.358c-0.555-0.602-1.183-1.437-1.793-2.691
				c-0.246-0.525-0.46-1.082-0.626-1.657c-0.169-0.575-0.263-1.168-0.362-1.765c-0.098-0.596-0.156-1.196-0.187-1.785
				c-0.032-0.589-0.074-1.164-0.076-1.712c0.005-1.097-0.008-2.074,0.035-2.786c0.036-0.707,0.058-1.148,0.058-1.148
				c0.442-0.066,2.133,0.895,3.821,3.858c0.209,0.371,0.42,0.773,0.631,1.207c0.199,0.435,0.388,0.904,0.577,1.406
				c0.183,0.503,0.385,1.039,0.538,1.612c0.157,0.572,0.306,1.179,0.445,1.823c0.188,0.938,0.338,1.958,0.432,3.049
				c0.076-1.47,0.107-2.93,0.091-4.371c-0.017-2.111-0.127-4.18-0.305-6.198c-0.16-0.391-0.339-0.7-0.518-0.948
				c-0.397-0.543-0.832-0.807-1.322-1.053c-0.485-0.246-1.035-0.473-1.662-0.919c-0.311-0.223-0.639-0.5-0.984-0.858
				c-0.341-0.359-0.702-0.798-1.107-1.338c-1.284-1.82-1.995-4.381-2.466-6.552c-0.125-0.539-0.227-1.054-0.311-1.525
				c-0.089-0.467-0.169-0.888-0.236-1.241c-0.126-0.708-0.181-1.152-0.181-1.152c0.187-0.086,0.691,0.022,1.421,0.454
				c0.363,0.217,0.793,0.512,1.252,0.913c0.45,0.405,0.945,0.911,1.472,1.535c0.526,0.625,1.037,1.385,1.587,2.272
				c0.273,0.445,0.517,0.933,0.78,1.452c0.254,0.521,0.53,1.073,0.755,1.674c0.235,0.599,0.468,1.234,0.695,1.908
				c0.116,0.38,0.227,0.775,0.335,1.18c-0.359-2.437-0.826-4.772-1.355-6.976c-0.164-0.646-0.326-1.284-0.486-1.913
				c-0.145-0.499-0.288-0.988-0.43-1.475c-0.25-0.413-0.487-0.718-0.718-0.945c-0.467-0.434-0.906-0.588-1.39-0.713
				c-0.483-0.124-1.01-0.22-1.638-0.52c-0.635-0.295-1.396-0.782-2.294-1.684c-1.55-1.482-2.686-3.875-3.594-5.892
				c-0.465-0.995-0.828-1.921-1.1-2.582c-0.277-0.656-0.43-1.072-0.43-1.072c0.289-0.232,1.92-0.022,4.314,1.962
				c1.175,1.005,2.565,2.449,3.912,4.562c0.58,0.901,1.16,1.93,1.712,3.081c-0.002-0.007-0.005-0.014-0.007-0.021
				c-0.411-1.093-0.781-2.162-1.207-3.15c-0.206-0.499-0.407-0.986-0.604-1.464c-0.213-0.468-0.421-0.926-0.624-1.372
				c-0.634-1.387-1.261-2.636-1.858-3.756c-0.035-0.04-0.072-0.082-0.106-0.119c-0.304-0.326-0.573-0.557-0.822-0.721
				c-0.494-0.331-0.915-0.391-1.376-0.408c-0.457-0.019-0.948-0.002-1.575-0.162c-0.315-0.078-0.656-0.207-1.056-0.393
				c-0.404-0.182-0.854-0.432-1.361-0.774c-0.213-0.142-0.419-0.304-0.626-0.474c-0.212-0.165-0.421-0.344-0.625-0.534
				c-0.413-0.376-0.792-0.814-1.183-1.246c-0.391-0.433-0.763-0.891-1.114-1.355c-0.354-0.46-0.709-0.901-1.025-1.343
				c-0.157-0.222-0.31-0.438-0.457-0.645c-0.15-0.204-0.294-0.401-0.432-0.588c-0.272-0.376-0.511-0.72-0.708-1.012
				c-0.194-0.295-0.357-0.525-0.47-0.683c-0.11-0.16-0.172-0.249-0.172-0.249c0.208-0.273,1.735-0.358,4.34,1.068
				c0.324,0.18,0.667,0.383,1.026,0.609c0.355,0.232,0.716,0.502,1.099,0.793c0.378,0.296,0.789,0.603,1.185,0.971
				c0.399,0.365,0.812,0.76,1.239,1.188c0.769,0.798,1.569,1.734,2.366,2.812c-0.225-0.373-0.442-0.729-0.64-1.048
				c-0.583-0.891-1.016-1.599-1.34-2.049c-0.032-0.046-0.062-0.089-0.091-0.13c-0.725-0.934-1.375-1.67-2.029-2.252
				c-0.362-0.334-0.712-0.639-1.062-0.932c-0.358-0.276-0.718-0.552-1.087-0.836c-1.471-1.129-3.077-2.412-5.697-4.869
				c-2.12-1.956-3.901-3.942-5.219-5.426c-0.321-0.385-0.618-0.723-0.878-1.026c-0.259-0.306-0.478-0.581-0.654-0.814
				c-0.352-0.467-0.529-0.772-0.499-0.842c0.03-0.069,0.335-0.057,0.857,0.051c0.261,0.054,0.577,0.132,0.941,0.237
				c0.365,0.102,0.776,0.233,1.215,0.418c0.442,0.178,0.924,0.386,1.437,0.627c0.514,0.239,1.036,0.552,1.592,0.878
				c0.276,0.166,0.558,0.34,0.843,0.525c0.278,0.197,0.56,0.402,0.845,0.618c0.567,0.434,1.155,0.888,1.707,1.435
				c2.628,2.488,3.867,4.483,4.891,6.323c0.253,0.463,0.501,0.917,0.748,1.37c0.244,0.459,0.48,0.932,0.744,1.41
				c0.456,0.8,0.932,1.674,1.544,2.639c0.057,0.08,0.121,0.17,0.194,0.273c0.329,0.449,0.769,1.155,1.361,2.045
				c0.141,0.223,0.29,0.461,0.445,0.711c-0.546-1.102-1.051-2.14-1.512-3.114c-0.286-0.582-0.551-1.146-0.796-1.693
				c-0.242-0.55-0.495-1.051-0.713-1.551c-0.223-0.495-0.422-0.978-0.615-1.43c-0.198-0.446-0.379-0.874-0.543-1.283
				c-1.327-3.258-1.692-5.176-1.478-5.454c0,0,0.096,0.073,0.269,0.203c0.174,0.131,0.423,0.326,0.719,0.59
				c0.299,0.26,0.653,0.576,1.045,0.939c0.195,0.182,0.403,0.373,0.611,0.58c0.203,0.215,0.414,0.438,0.632,0.667
				c0.428,0.468,0.884,0.961,1.313,1.505c0.425,0.549,0.844,1.125,1.238,1.717c0.394,0.591,0.73,1.228,1.036,1.849
				c0.151,0.313,0.29,0.626,0.414,0.937c0.12,0.316,0.219,0.635,0.305,0.948c0.203,0.749,0.327,1.381,0.396,1.923
				c0.064,0.546,0.062,1.013,0.037,1.41c-0.054,0.797-0.227,1.343-0.364,1.859c-0.134,0.513-0.24,1.003-0.185,1.686
				c0.029,0.34,0.1,0.727,0.228,1.187c0.003,0.01,0.007,0.022,0.01,0.032c0.624,1.143,1.282,2.421,1.949,3.847
				c0.208,0.447,0.421,0.906,0.638,1.375c0.203,0.478,0.41,0.967,0.621,1.466c0.397,0.9,0.751,1.866,1.129,2.857
				c-0.283-1.124-0.54-2.184-0.769-3.185c-0.583-2.611-1.026-4.797-1.284-6.614c-0.556-3.607-0.425-5.676-0.121-5.92
				c0,0,0.325,0.38,0.834,1.036c0.503,0.66,1.16,1.622,1.85,2.752c1.352,2.275,2.671,5.365,2.784,8.038
				c0.039,1.609-0.128,2.661-0.382,3.443c-0.264,0.786-0.59,1.29-0.869,1.773c-0.28,0.483-0.513,0.943-0.605,1.625
				c-0.052,0.318-0.073,0.686-0.06,1.121c0.347,1.117,0.678,2.274,0.973,3.477c0.543,2.167,1.032,4.463,1.416,6.861
				c-0.036-1.085-0.059-2.112-0.075-3.082c0.01-0.678-0.014-1.319-0.004-1.941c0.002-0.619,0.033-1.219,0.044-1.785
				c0.016-1.13,0.102-2.171,0.171-3.095c0.068-0.924,0.168-1.748,0.285-2.468c0.109-0.716,0.22-1.321,0.348-1.821
				c0.25-0.998,0.53-1.556,0.717-1.642c0,0,0.248,0.46,0.622,1.241c0.183,0.393,0.414,0.858,0.629,1.399
				c0.216,0.541,0.446,1.145,0.673,1.794c0.878,2.598,1.606,5.981,1.05,8.653c-0.144,0.792-0.342,1.438-0.557,1.974
				c-0.212,0.535-0.436,0.958-0.662,1.307c-0.45,0.698-0.916,1.104-1.337,1.504c-0.417,0.398-0.779,0.786-1.043,1.425
				c-0.118,0.282-0.21,0.616-0.291,1.017c0.198,2.014,0.332,4.079,0.374,6.19c0.032,1.366,0.021,2.748-0.028,4.141
				c0.168-0.918,0.342-1.794,0.522-2.621c0.132-0.654,0.275-1.28,0.426-1.88c0.155-0.599,0.276-1.172,0.427-1.718
				c0.144-0.546,0.3-1.066,0.451-1.56c0.139-0.493,0.284-0.96,0.431-1.401c1.162-3.531,2.372-5.38,2.823-5.445
				c0,0,0.041,0.131,0.116,0.366c0.077,0.236,0.169,0.582,0.273,1.017c0.203,0.868,0.505,2.084,0.663,3.482
				c0.083,0.698,0.175,1.438,0.2,2.196c0.025,0.759,0.022,1.535-0.02,2.301c-0.041,0.766-0.165,1.521-0.317,2.238
				c-0.154,0.717-0.362,1.396-0.66,2.006c-0.693,1.457-1.362,2.295-2.02,2.841c-0.646,0.546-1.234,0.806-1.759,1.073
				c-0.722,0.365-1.329,0.747-1.874,1.817c-0.333,3.357-0.894,6.744-1.677,10.094c0.329-0.783,0.653-1.531,0.993-2.229
				c0.296-0.585,0.545-1.156,0.821-1.693c0.27-0.538,0.548-1.047,0.819-1.531c0.514-0.975,1.04-1.842,1.548-2.608
				c1.961-3.083,3.659-4.538,4.166-4.471c0,0,0.066,0.55,0.124,1.459c0.013,0.228,0.026,0.478,0.041,0.745
				c0.001,0.268,0.003,0.555,0.004,0.857c-0.004,0.605-0.02,1.275-0.06,1.982c-0.04,0.707-0.142,1.443-0.255,2.193
				c-0.059,0.374-0.126,0.75-0.202,1.125c-0.078,0.374-0.183,0.742-0.288,1.106c-0.215,0.728-0.468,1.435-0.772,2.088
				c-0.326,0.646-0.698,1.238-1.121,1.747c-0.995,1.22-1.918,1.816-2.706,2.154c-0.79,0.337-1.463,0.411-2.071,0.511
				c-0.606,0.1-1.148,0.223-1.707,0.614c-0.187,0.131-0.372,0.297-0.558,0.5c-0.594,1.926-1.269,3.825-2.01,5.688l-0.474,1.161
				l-0.237,0.581l-0.26,0.566l-0.558,1.204c0.442-0.587,0.879-1.144,1.314-1.666c0.387-0.497,0.777-0.962,1.165-1.4
				c0.388-0.438,0.783-0.843,1.138-1.242c0.725-0.79,1.455-1.467,2.127-2.063c2.659-2.403,4.759-3.307,5.278-3.09
				c0,0-0.034,0.559-0.143,1.466c-0.107,0.908-0.361,2.138-0.708,3.503c-0.165,0.687-0.425,1.373-0.687,2.074
				c-0.276,0.694-0.561,1.401-0.933,2.046c-0.747,1.289-1.606,2.466-2.717,3.18c-1.301,0.869-2.332,1.191-3.237,1.26
				c-0.893,0.075-1.613-0.07-2.269-0.17c-0.658-0.103-1.243-0.154-1.882,0.059c-0.196,0.062-0.397,0.151-0.605,0.268
				c-0.224,0.39-0.452,0.777-0.673,1.169c-1.381,2.344-2.887,4.565-4.489,6.646c0.49-0.382,0.973-0.741,1.449-1.074
				c1.978-1.426,3.813-2.462,5.425-3.204c0.798-0.378,1.551-0.67,2.24-0.89c0.691-0.219,1.283-0.393,1.816-0.488
				c1.055-0.2,1.785-0.146,2.035,0.038c0,0-0.143,0.538-0.432,1.395c-0.274,0.868-0.758,2.009-1.386,3.238
				c-0.158,0.306-0.322,0.62-0.502,0.929c-0.187,0.303-0.383,0.607-0.589,0.908c-0.412,0.601-0.858,1.19-1.341,1.729
				c-0.503,0.52-1.038,0.995-1.601,1.389c-0.281,0.197-0.57,0.374-0.864,0.527c-0.299,0.147-0.612,0.264-0.925,0.356
				c-2.986,0.877-4.553-0.109-5.86-0.718c-0.655-0.316-1.252-0.568-1.936-0.557c-0.19-0.002-0.388,0.016-0.595,0.054
				c-1.351,1.474-2.746,2.861-4.174,4.143c-0.755,0.684-1.523,1.332-2.299,1.951c0.496-0.197,0.985-0.38,1.464-0.541
				c1.112-0.416,2.215-0.677,3.212-0.94c1.005-0.25,1.988-0.378,2.859-0.509c0.882-0.115,1.705-0.16,2.45-0.155
				c0.739-0.003,1.386,0.027,1.948,0.103c1.121,0.147,1.863,0.439,2.088,0.705c0,0-0.244,0.49-0.696,1.25
				c-0.23,0.375-0.497,0.837-0.838,1.303c-0.34,0.467-0.73,0.972-1.162,1.483c-0.216,0.256-0.443,0.513-0.68,0.768
				c-0.243,0.246-0.499,0.485-0.763,0.72c-0.527,0.469-1.09,0.913-1.678,1.299c-0.603,0.363-1.234,0.665-1.876,0.88
				c-0.321,0.107-0.646,0.192-0.972,0.25c-0.329,0.055-0.667,0.07-1.001,0.063c-3.184-0.08-4.585-1.573-5.797-2.609
				c-0.604-0.53-1.161-0.976-1.851-1.184c-0.163-0.054-0.334-0.094-0.514-0.122c-0.211,0.14-0.422,0.28-0.634,0.417
				c-0.286,0.183-0.571,0.365-0.855,0.546l-0.425,0.271l-0.433,0.247c-0.577,0.328-1.148,0.652-1.714,0.974
				c-0.571,0.31-1.15,0.583-1.715,0.872c-0.284,0.142-0.566,0.283-0.847,0.424c-0.286,0.125-0.571,0.249-0.854,0.373
				c1.002-0.055,1.938-0.127,2.849-0.106c0.916,0.032,1.769,0.054,2.589,0.139c1.651,0.192,3.091,0.439,4.344,0.818
				c0.628,0.192,1.187,0.371,1.69,0.567c0.502,0.196,0.944,0.401,1.319,0.604c0.748,0.405,1.223,0.799,1.366,1.07
				c0,0-0.334,0.417-0.927,1.042c-0.299,0.307-0.653,0.687-1.081,1.051c-0.427,0.366-0.91,0.754-1.438,1.135
				c-0.264,0.19-0.539,0.379-0.823,0.563c-0.289,0.172-0.59,0.335-0.897,0.491c-0.615,0.311-1.261,0.584-1.922,0.791
				c-0.672,0.179-1.359,0.29-2.042,0.307c-0.342,0.008-0.682-0.007-1.02-0.05c-0.339-0.048-0.68-0.137-1.013-0.249
				c-1.272-0.435-2.201-0.99-2.935-1.61c-0.737-0.631-1.271-1.295-1.725-1.924c-0.908-1.267-1.502-2.358-2.657-2.941
				c-2.85,0.975-5.573,1.548-8.047,1.944c3.9,0.86,7.064,2.341,9.384,3.831c1.157,0.752,2.077,1.455,2.742,2.103
				c0.663,0.638,1.059,1.181,1.152,1.5c0,0-0.41,0.323-1.119,0.777c-0.355,0.221-0.779,0.498-1.274,0.74
				c-0.494,0.243-1.049,0.491-1.647,0.718c-0.299,0.114-0.609,0.222-0.927,0.323c-0.32,0.091-0.651,0.164-0.986,0.23
				c-0.672,0.13-1.367,0.212-2.064,0.223c-0.701-0.014-1.407-0.113-2.088-0.302c-0.682-0.188-1.341-0.471-1.961-0.916
				c-1.164-0.816-1.972-1.666-2.574-2.497c-0.604-0.857-1.003-1.689-1.328-2.462c-0.647-1.551-1.016-2.861-1.996-3.783
				c-3.781,0.204-6.613-0.156-8.177-0.303c3.593,1.988,6.372,4.388,8.342,6.597c1.96,2.141,3.049,4.088,3.104,4.797
				c0,0-0.47,0.208-1.261,0.459c-0.395,0.124-0.871,0.266-1.408,0.386c-0.537,0.101-1.136,0.189-1.773,0.243
				c-1.273,0.138-2.705,0.01-4.087-0.376c-0.691-0.189-1.366-0.522-2.001-0.909c-0.634-0.401-1.228-0.871-1.749-1.493
				c-0.516-0.618-1.09-1.626-1.63-2.807c-0.27-0.59-0.533-1.223-0.778-1.871c-0.243-0.664-0.471-1.342-0.676-2.006
				c-0.824-2.657-1.269-5.082-1.215-5.435C362.238,349.879,363.421,347.839,364.695,345.635z"/>
		</g>
		
			<line style="fill:none;stroke:#004569;stroke-width:2;stroke-linecap:round;stroke-linejoin:round;stroke-miterlimit:10;" x1="250" y1="320.199" x2="250" y2="323.696"/>
		<g>
			<g>
				<g>
					
						<line style="opacity:0.4;fill:none;stroke:#004569;stroke-linecap:round;stroke-linejoin:round;stroke-miterlimit:10;" x1="139.312" y1="116.945" x2="233.013" y2="116.948"/>
					
						<line style="opacity:0.4;fill:none;stroke:#004569;stroke-linecap:round;stroke-linejoin:round;stroke-miterlimit:10;" x1="195.682" y1="294.547" x2="139.306" y2="294.544"/>
					
						<line style="opacity:0.4;fill:none;stroke:#004569;stroke-linecap:round;stroke-linejoin:round;stroke-miterlimit:10;" x1="139.311" y1="133.09" x2="233.012" y2="133.093"/>
					
						<line style="opacity:0.4;fill:none;stroke:#004569;stroke-linecap:round;stroke-linejoin:round;stroke-miterlimit:10;" x1="215.812" y1="278.402" x2="139.307" y2="278.399"/>
					
						<line style="opacity:0.4;fill:none;stroke:#004569;stroke-linecap:round;stroke-linejoin:round;stroke-miterlimit:10;" x1="139.309" y1="149.236" x2="172.128" y2="149.236"/>
					
						<line style="opacity:0.4;fill:none;stroke:#004569;stroke-linecap:round;stroke-linejoin:round;stroke-miterlimit:10;" x1="231.972" y1="262.256" x2="139.307" y2="262.253"/>
					
						<line style="opacity:0.4;fill:none;stroke:#004569;stroke-linecap:round;stroke-linejoin:round;stroke-miterlimit:10;" x1="139.309" y1="165.381" x2="180.36" y2="165.382"/>
					
						<line style="opacity:0.4;fill:none;stroke:#004569;stroke-linecap:round;stroke-linejoin:round;stroke-miterlimit:10;" x1="145.216" y1="246.108" x2="139.306" y2="246.108"/>
					
						<line style="opacity:0.4;fill:none;stroke:#004569;stroke-linecap:round;stroke-linejoin:round;stroke-miterlimit:10;" x1="139.308" y1="181.526" x2="172.128" y2="181.527"/>
					
						<line style="opacity:0.4;fill:none;stroke:#004569;stroke-linecap:round;stroke-linejoin:round;stroke-miterlimit:10;" x1="148.3" y1="229.963" x2="139.306" y2="229.962"/>
					
						<line style="opacity:0.4;fill:none;stroke:#004569;stroke-linecap:round;stroke-linejoin:round;stroke-miterlimit:10;" x1="139.307" y1="197.671" x2="165.154" y2="197.672"/>
					
						<line style="opacity:0.4;fill:none;stroke:#004569;stroke-linecap:round;stroke-linejoin:round;stroke-miterlimit:10;" x1="157.551" y1="213.818" x2="139.307" y2="213.817"/>
					
						<line style="opacity:0.4;fill:none;stroke:#004569;stroke-linecap:round;stroke-linejoin:round;stroke-miterlimit:10;" x1="210.633" y1="165.378" x2="196.138" y2="165.381"/>
					
						<line style="opacity:0.4;fill:none;stroke:#004569;stroke-linecap:round;stroke-linejoin:round;stroke-miterlimit:10;" x1="227.102" y1="246.108" x2="233.012" y2="246.108"/>
					
						<line style="opacity:0.4;fill:none;stroke:#004569;stroke-linecap:round;stroke-linejoin:round;stroke-miterlimit:10;" x1="233.013" y1="181.527" x2="203.226" y2="181.528"/>
					
						<line style="opacity:0.4;fill:none;stroke:#004569;stroke-linecap:round;stroke-linejoin:round;stroke-miterlimit:10;" x1="224.019" y1="229.963" x2="233.012" y2="229.962"/>
					
						<line style="opacity:0.4;fill:none;stroke:#004569;stroke-linecap:round;stroke-linejoin:round;stroke-miterlimit:10;" x1="233.014" y1="197.673" x2="210.633" y2="197.674"/>
					
						<line style="opacity:0.4;fill:none;stroke:#004569;stroke-linecap:round;stroke-linejoin:round;stroke-miterlimit:10;" x1="218.121" y1="213.819" x2="233.014" y2="213.819"/>
				</g>
				<g>
					
						<line style="opacity:0.4;fill:none;stroke:#004569;stroke-linecap:round;stroke-linejoin:round;stroke-miterlimit:10;" x1="360.688" y1="116.945" x2="266.987" y2="116.948"/>
					
						<line style="opacity:0.4;fill:none;stroke:#004569;stroke-linecap:round;stroke-linejoin:round;stroke-miterlimit:10;" x1="304.317" y1="294.547" x2="360.694" y2="294.544"/>
					
						<line style="opacity:0.4;fill:none;stroke:#004569;stroke-linecap:round;stroke-linejoin:round;stroke-miterlimit:10;" x1="360.689" y1="133.09" x2="266.988" y2="133.093"/>
					
						<line style="opacity:0.4;fill:none;stroke:#004569;stroke-linecap:round;stroke-linejoin:round;stroke-miterlimit:10;" x1="284.188" y1="278.402" x2="360.693" y2="278.399"/>
					
						<line style="opacity:0.4;fill:none;stroke:#004569;stroke-linecap:round;stroke-linejoin:round;stroke-miterlimit:10;" x1="360.691" y1="149.236" x2="327.872" y2="149.236"/>
					
						<line style="opacity:0.4;fill:none;stroke:#004569;stroke-linecap:round;stroke-linejoin:round;stroke-miterlimit:10;" x1="268.028" y1="262.256" x2="360.693" y2="262.253"/>
					
						<line style="opacity:0.4;fill:none;stroke:#004569;stroke-linecap:round;stroke-linejoin:round;stroke-miterlimit:10;" x1="360.691" y1="165.381" x2="319.64" y2="165.382"/>
					
						<line style="opacity:0.4;fill:none;stroke:#004569;stroke-linecap:round;stroke-linejoin:round;stroke-miterlimit:10;" x1="354.784" y1="246.108" x2="360.694" y2="246.108"/>
					
						<line style="opacity:0.4;fill:none;stroke:#004569;stroke-linecap:round;stroke-linejoin:round;stroke-miterlimit:10;" x1="360.692" y1="181.526" x2="327.872" y2="181.527"/>
					
						<line style="opacity:0.4;fill:none;stroke:#004569;stroke-linecap:round;stroke-linejoin:round;stroke-miterlimit:10;" x1="351.7" y1="229.963" x2="360.694" y2="229.962"/>
					
						<line style="opacity:0.4;fill:none;stroke:#004569;stroke-linecap:round;stroke-linejoin:round;stroke-miterlimit:10;" x1="360.692" y1="197.671" x2="334.846" y2="197.672"/>
					
						<line style="opacity:0.4;fill:none;stroke:#004569;stroke-linecap:round;stroke-linejoin:round;stroke-miterlimit:10;" x1="342.448" y1="213.818" x2="360.693" y2="213.817"/>
					
						<line style="opacity:0.4;fill:none;stroke:#004569;stroke-linecap:round;stroke-linejoin:round;stroke-miterlimit:10;" x1="289.366" y1="165.378" x2="303.862" y2="165.381"/>
					
						<line style="opacity:0.4;fill:none;stroke:#004569;stroke-linecap:round;stroke-linejoin:round;stroke-miterlimit:10;" x1="272.898" y1="246.108" x2="266.988" y2="246.108"/>
					
						<line style="opacity:0.4;fill:none;stroke:#004569;stroke-linecap:round;stroke-linejoin:round;stroke-miterlimit:10;" x1="266.987" y1="181.527" x2="296.774" y2="181.528"/>
					
						<line style="opacity:0.4;fill:none;stroke:#004569;stroke-linecap:round;stroke-linejoin:round;stroke-miterlimit:10;" x1="275.981" y1="229.963" x2="266.988" y2="229.962"/>
					
						<line style="opacity:0.4;fill:none;stroke:#004569;stroke-linecap:round;stroke-linejoin:round;stroke-miterlimit:10;" x1="266.986" y1="197.673" x2="289.366" y2="197.674"/>
					
						<line style="opacity:0.4;fill:none;stroke:#004569;stroke-linecap:round;stroke-linejoin:round;stroke-miterlimit:10;" x1="281.879" y1="213.819" x2="266.986" y2="213.819"/>
				</g>
			</g>
			<path style="fill:none;stroke:#004569;stroke-width:2;stroke-linecap:round;stroke-linejoin:round;stroke-miterlimit:10;" d="
				M381.603,116.947h8.443v207.528H274.223c-3.413,6.764-10.793,11.737-24.223,11.737c-13.43,0-20.81-4.973-24.223-11.737H109.953
				V116.947h8.3"/>
			<g>
				<path style="fill:none;stroke:#004569;stroke-width:2;stroke-linecap:round;stroke-linejoin:round;stroke-miterlimit:10;" d="
					M290.965,290.492h-81.929c-4.736,0-8.575,3.839-8.575,8.575h99.079C299.539,294.331,295.7,290.492,290.965,290.492z"/>
				<path style="fill:none;stroke:#004569;stroke-width:2;stroke-linecap:round;stroke-linejoin:round;stroke-miterlimit:10;" d="
					M214.381,289.881L214.381,289.881c0-4.448,3.606-8.053,8.054-8.053h55.13c4.448,0,8.054,3.606,8.054,8.053l0,0"/>
				<path style="fill:none;stroke:#004569;stroke-width:2;stroke-linecap:round;stroke-linejoin:round;stroke-miterlimit:10;" d="
					M229.88,281.333L229.88,281.333c0-3.787,3.07-6.857,6.857-6.857h26.525c3.787,0,6.857,3.07,6.857,6.857l0,0"/>
			</g>
			<g>
				<path style="fill:none;stroke:#004569;stroke-width:2;stroke-linecap:round;stroke-linejoin:round;stroke-miterlimit:10;" d="
					M242.552,206.947c0,21.91-4.124,26.796-4.124,48.594c0,14.713,2.474,18.895,2.474,18.895"/>
				<path style="fill:none;stroke:#004569;stroke-width:2;stroke-linecap:round;stroke-linejoin:round;stroke-miterlimit:10;" d="
					M257.448,206.947c0,21.91,4.125,26.796,4.125,48.594c0,14.713-2.474,18.895-2.474,18.895"/>
			</g>
			<path style="fill:none;stroke:#004569;stroke-width:2;stroke-linecap:round;stroke-linejoin:round;stroke-miterlimit:10;" d="
				M263.182,202.829c0,1.936-1.57,3.506-3.506,3.506h-19.352c-1.936,0-3.506-1.57-3.506-3.506l0,0c0-1.936,1.57-3.506,3.506-3.506
				h19.352C261.612,199.323,263.182,200.893,263.182,202.829L263.182,202.829z"/>
			<path style="fill:none;stroke:#004569;stroke-width:2;stroke-linecap:round;stroke-linejoin:round;stroke-miterlimit:10;" d="
				M263.182,191.499c0,1.936-1.57,3.506-3.506,3.506h-19.352c-1.936,0-3.506-1.57-3.506-3.506l0,0c0-1.936,1.57-3.506,3.506-3.506
				h19.352C261.612,187.993,263.182,189.562,263.182,191.499L263.182,191.499z"/>
			<g>
				
					<line style="fill:none;stroke:#004569;stroke-width:2;stroke-linecap:round;stroke-linejoin:round;stroke-miterlimit:10;" x1="242.353" y1="199.115" x2="242.353" y2="195.487"/>
				
					<line style="fill:none;stroke:#004569;stroke-width:2;stroke-linecap:round;stroke-linejoin:round;stroke-miterlimit:10;" x1="257.647" y1="199.115" x2="257.647" y2="195.487"/>
			</g>
			<g>
				
					<line style="fill:none;stroke:#004569;stroke-width:2;stroke-linecap:round;stroke-linejoin:round;stroke-miterlimit:10;" x1="242.353" y1="187.491" x2="242.353" y2="174.395"/>
				
					<line style="fill:none;stroke:#004569;stroke-width:2;stroke-linecap:round;stroke-linejoin:round;stroke-miterlimit:10;" x1="257.647" y1="187.491" x2="257.647" y2="174.395"/>
			</g>
			<g>
				
					<line style="fill:none;stroke:#004569;stroke-width:2;stroke-linecap:round;stroke-linejoin:round;stroke-miterlimit:10;" x1="247.984" y1="139.586" x2="247.984" y2="134.723"/>
				
					<line style="fill:none;stroke:#004569;stroke-width:2;stroke-linecap:round;stroke-linejoin:round;stroke-miterlimit:10;" x1="252.016" y1="139.586" x2="252.016" y2="134.723"/>
			</g>
			<path style="fill:#B5FFF1;" d="M318.051,139.518c0,0-2.025,4.314-6.811,4.314c-4.786,0-7.363-4.314-7.363-4.314s-6.627,0-9.02,0
				c-7.179,0-24.18,17.34-44.857,17.34c-20.677,0-37.677-17.34-44.857-17.34c-2.393,0-9.02,0-9.02,0s-2.577,4.314-7.363,4.314
				c-4.786,0-6.811-4.314-6.811-4.314h-5.338v10.169c0,0,2.791,0,10.706,0c12.124,0,20.59,7.702,32.185,15.688
				c10.892,7.501,21.538,9.02,30.498,9.02c8.96,0,19.606-1.52,30.498-9.02c11.595-7.985,20.061-15.688,32.185-15.688
				c7.916,0,10.706,0,10.706,0v-10.169H318.051z"/>
			<path style="fill:none;stroke:#004569;stroke-width:2;stroke-linecap:round;stroke-linejoin:round;stroke-miterlimit:10;" d="
				M318.051,139.518c0,0-2.025,4.314-6.811,4.314c-4.786,0-7.363-4.314-7.363-4.314s-6.627,0-9.02,0
				c-7.179,0-24.18,17.34-44.857,17.34c-20.677,0-37.677-17.34-44.857-17.34c-2.393,0-9.02,0-9.02,0s-2.577,4.314-7.363,4.314
				c-4.786,0-6.811-4.314-6.811-4.314h-5.338v10.169c0,0,2.791,0,10.706,0c12.124,0,20.59,7.702,32.185,15.688
				c10.892,7.501,21.538,9.02,30.498,9.02c8.96,0,19.606-1.52,30.498-9.02c11.595-7.985,20.061-15.688,32.185-15.688
				c7.916,0,10.706,0,10.706,0v-10.169H318.051z"/>
			<path style="fill:#B5FFF1;" d="M284.455,245.866h54.008c5.263,0,9.529-4.869,9.529-10.876h-73.066
				C274.926,240.997,279.192,245.866,284.455,245.866z"/>
			<path style="fill:none;stroke:#004569;stroke-width:2;stroke-linecap:round;stroke-linejoin:round;stroke-miterlimit:10;" d="
				M283.119,246.398c0,1.733,1.223,3.138,2.731,3.138h51.22c1.508,0,2.731-1.405,2.731-3.138"/>
			
				<polyline style="fill:none;stroke:#004569;stroke-width:2;stroke-linecap:round;stroke-linejoin:round;stroke-miterlimit:10;" points="
				344.941,234.733 311.459,161.006 277.977,234.733 			"/>
			
				<line style="fill:none;stroke:#004569;stroke-width:3;stroke-linecap:round;stroke-linejoin:round;stroke-miterlimit:10;" x1="311.459" y1="163.005" x2="311.459" y2="142.604"/>
			<path style="fill:#B5FFF1;" d="M161.537,245.866h54.008c5.263,0,9.529-4.869,9.529-10.876h-73.067
				C152.007,240.997,156.274,245.866,161.537,245.866z"/>
			<path style="fill:none;stroke:#004569;stroke-width:2;stroke-linecap:round;stroke-linejoin:round;stroke-miterlimit:10;" d="
				M284.455,245.866h54.008c5.263,0,9.529-4.869,9.529-10.876h-73.066C274.926,240.997,279.192,245.866,284.455,245.866z"/>
			<path style="fill:none;stroke:#004569;stroke-width:2;stroke-linecap:round;stroke-linejoin:round;stroke-miterlimit:10;" d="
				M161.537,245.866h54.008c5.263,0,9.529-4.869,9.529-10.876h-73.067C152.007,240.997,156.274,245.866,161.537,245.866z"/>
			<path style="fill:none;stroke:#004569;stroke-width:2;stroke-linecap:round;stroke-linejoin:round;stroke-miterlimit:10;" d="
				M160.2,246.398c0,1.733,1.223,3.138,2.731,3.138h51.22c1.508,0,2.731-1.405,2.731-3.138"/>
			
				<polyline style="fill:none;stroke:#004569;stroke-width:2;stroke-linecap:round;stroke-linejoin:round;stroke-miterlimit:10;" points="
				222.022,234.733 188.541,161.006 155.059,234.733 			"/>
			
				<line style="fill:none;stroke:#004569;stroke-width:3;stroke-linecap:round;stroke-linejoin:round;stroke-miterlimit:10;" x1="188.541" y1="163.005" x2="188.541" y2="142.604"/>
			<path style="fill:none;stroke:#004569;stroke-width:2;stroke-linecap:round;stroke-linejoin:round;stroke-miterlimit:10;" d="
				M243.801,155.84v-10.002c0-3.424,2.775-6.199,6.199-6.199l0,0c3.423,0,6.199,2.775,6.199,6.199v10.002"/>
			<path style="fill:none;stroke:#004569;stroke-width:2;stroke-linecap:round;stroke-linejoin:round;stroke-miterlimit:10;" d="
				M256.882,127.495c0,3.801-3.081,6.882-6.882,6.882c-3.801,0-6.882-3.081-6.882-6.882c0-3.801,3.081-6.882,6.882-6.882
				C253.801,120.614,256.882,123.695,256.882,127.495z"/>
			<g>
				<path style="fill:none;stroke:#004569;stroke-width:2;stroke-linecap:round;stroke-linejoin:round;stroke-miterlimit:10;" d="
					M250,120.07v-6.881c0-5.699-4.62-10.319-10.319-10.319H126.248v206.378h113.433c5.699,0,10.319,4.62,10.319,10.319v-19.869"/>
				<path style="fill:none;stroke:#004569;stroke-width:2;stroke-linecap:round;stroke-linejoin:round;stroke-miterlimit:10;" d="
					M250,120.702v-6.881c0-5.699,4.62-10.319,10.319-10.319h113.433V309.88H260.319c-5.699,0-10.319,4.62-10.319,10.319V300.33"/>
			</g>
			<g>
				<g>
					<path style="fill:none;stroke:#004569;stroke-width:2;stroke-linecap:round;stroke-linejoin:round;stroke-miterlimit:10;" d="
						M126.166,110.581h-7.334v206.378h120.767c5.699,0,10.319,4.62,10.319,10.319"/>
				</g>
				<g>
					<path style="fill:none;stroke:#004569;stroke-width:2;stroke-linecap:round;stroke-linejoin:round;stroke-miterlimit:10;" d="
						M373.834,110.581h7.334v206.378H260.401c-5.699,0-10.319,4.62-10.319,10.319"/>
				</g>
			</g>
			
				<line style="fill:none;stroke:#004569;stroke-width:2;stroke-linecap:round;stroke-linejoin:round;stroke-miterlimit:10;" x1="188.541" y1="163.005" x2="188.541" y2="234.733"/>
			
				<line style="fill:none;stroke:#004569;stroke-width:2;stroke-linecap:round;stroke-linejoin:round;stroke-miterlimit:10;" x1="311.459" y1="163.005" x2="311.459" y2="234.733"/>
		</g>
		<g>
			<path style="fill:none;stroke:#004569;stroke-width:2;stroke-linecap:round;stroke-linejoin:round;stroke-miterlimit:10;" d="
				M353.232,392.297c-0.153-1.723,1.12-3.245,2.844-3.398c2.331-0.207,4.388,1.515,4.595,3.846c0.28,3.152-1.457,5.419-5.201,6.214
				l-91.189,14.701c-7.774,1.65-11.381,6.359-10.8,12.905c0.43,4.84,4.702,8.416,9.542,7.986c3.579-0.318,6.223-3.477,5.905-7.056
				c-0.235-2.647-2.571-4.602-5.217-4.367c-1.957,0.174-3.403,1.901-3.229,3.858"/>
			<path style="fill:none;stroke:#004569;stroke-width:2;stroke-linecap:round;stroke-linejoin:round;stroke-miterlimit:10;" d="
				M146.768,392.297c0.153-1.723-1.12-3.245-2.844-3.398c-2.331-0.207-4.388,1.515-4.595,3.846c-0.28,3.152,1.457,5.419,5.201,6.214
				l91.189,14.701c7.774,1.65,11.381,6.359,10.8,12.905c-0.43,4.84-4.702,8.416-9.542,7.986c-3.579-0.318-6.223-3.477-5.905-7.056
				c0.235-2.647,2.571-4.602,5.218-4.367c1.957,0.174,3.403,1.901,3.229,3.858"/>
		</g>
		<g>
			<path style="fill:none;stroke:#004569;stroke-width:2;stroke-linecap:round;stroke-linejoin:round;stroke-miterlimit:10;" d="
				M292.444,409.213l33.111,12.914c5.476,1.897,9.501,0.315,11.603-3.991c1.554-3.184,0.233-7.025-2.951-8.58
				c-2.355-1.149-5.195-0.172-6.344,2.182c-0.85,1.741-0.127,3.841,1.614,4.691c1.287,0.628,2.841,0.094,3.469-1.193"/>
			<path style="fill:none;stroke:#004569;stroke-width:2;stroke-linecap:round;stroke-linejoin:round;stroke-miterlimit:10;" d="
				M207.556,409.213l-33.111,12.914c-5.476,1.897-9.501,0.315-11.603-3.991c-1.554-3.184-0.233-7.025,2.951-8.58
				c2.355-1.149,5.195-0.172,6.344,2.182c0.85,1.741,0.127,3.841-1.614,4.691c-1.287,0.628-2.841,0.094-3.469-1.193"/>
		</g>
		<g>
			<g>
				<g>
					<path style="fill:none;stroke:#004569;stroke-width:2;stroke-linecap:round;stroke-linejoin:round;stroke-miterlimit:10;" d="
						M195.875,351.367c-0.34-1.056-1.472-1.637-2.529-1.297c-1.429,0.46-2.214,1.991-1.754,3.42
						c0.622,1.932,2.214,2.838,4.625,2.372l41.657-10.666c5.005-0.967,8.312,0.914,9.604,4.926c0.955,2.967-0.676,6.146-3.643,7.102
						c-2.194,0.706-4.545-0.5-5.251-2.694c-0.522-1.622,0.37-3.361,1.992-3.883c1.2-0.386,2.485,0.273,2.871,1.473"/>
				</g>
				<g>
					<path style="fill:none;stroke:#004569;stroke-width:2;stroke-linecap:round;stroke-linejoin:round;stroke-miterlimit:10;" d="
						M304.125,351.367c0.34-1.056,1.472-1.637,2.529-1.297c1.429,0.46,2.214,1.991,1.754,3.42c-0.622,1.932-2.215,2.838-4.625,2.372
						l-41.657-10.666c-5.005-0.967-8.312,0.914-9.604,4.926c-0.955,2.967,0.676,6.146,3.643,7.102
						c2.194,0.706,4.545-0.5,5.251-2.694c0.522-1.622-0.37-3.361-1.992-3.883c-1.2-0.386-2.485,0.273-2.871,1.473"/>
				</g>
			</g>
			<g>
				<path style="fill:none;stroke:#004569;stroke-width:2;stroke-linecap:round;stroke-linejoin:round;stroke-miterlimit:10;" d="
					M272.175,347.335l14.578-8.919c4.147-2.368,7.647-1.698,10.003,1.471c1.742,2.343,1.255,5.654-1.088,7.397
					c-1.732,1.288-4.181,0.928-5.469-0.804c-0.953-1.281-0.686-3.092,0.595-4.044c0.947-0.704,2.286-0.508,2.991,0.44"/>
				<path style="fill:none;stroke:#004569;stroke-width:2;stroke-linecap:round;stroke-linejoin:round;stroke-miterlimit:10;" d="
					M227.825,347.335l-14.578-8.919c-4.147-2.368-7.647-1.698-10.003,1.471c-1.742,2.343-1.255,5.654,1.088,7.397
					c1.732,1.288,4.181,0.928,5.469-0.804c0.953-1.281,0.686-3.092-0.595-4.044c-0.947-0.704-2.286-0.508-2.991,0.44"/>
			</g>
		</g>
		<g>
			<g>
				<path style="fill:none;stroke:#004569;stroke-width:2;stroke-linecap:round;stroke-linejoin:round;stroke-miterlimit:10;" d="
					M297.046,74.859l37.658-12.402c6.213-1.785,10.602,0.219,12.686,5.142c1.54,3.64-0.162,7.84-3.802,9.38
					c-2.692,1.139-5.797-0.12-6.936-2.811c-0.842-1.991,0.089-4.287,2.079-5.129c1.472-0.623,3.17,0.065,3.793,1.537"/>
				<path style="fill:none;stroke:#004569;stroke-width:2;stroke-linecap:round;stroke-linejoin:round;stroke-miterlimit:10;" d="
					M202.954,74.859l-37.658-12.402c-6.214-1.785-10.602,0.219-12.686,5.142c-1.54,3.64,0.162,7.84,3.802,9.38
					c2.692,1.139,5.797-0.12,6.936-2.811c0.842-1.991-0.089-4.287-2.079-5.129c-1.472-0.623-3.17,0.065-3.793,1.537"/>
			</g>
			<g>
				<path style="fill:none;stroke:#004569;stroke-width:2;stroke-linecap:round;stroke-linejoin:round;stroke-miterlimit:10;" d="
					M144.135,81.086c-0.581-1.844-2.547-2.868-4.392-2.287c-2.494,0.786-3.879,3.445-3.093,5.939
					c1.063,3.373,3.827,4.968,8.032,4.183l84.132-19.499c8.731-1.631,14.472,1.682,16.679,8.687
					c1.632,5.179-1.243,10.701-6.423,12.334c-3.83,1.207-7.913-0.92-9.12-4.75c-0.892-2.832,0.68-5.852,3.512-6.744
					c2.094-0.66,4.327,0.503,4.987,2.597"/>
				<path style="fill:none;stroke:#004569;stroke-width:2;stroke-linecap:round;stroke-linejoin:round;stroke-miterlimit:10;" d="
					M355.865,81.086c0.581-1.844,2.547-2.868,4.392-2.287c2.494,0.786,3.879,3.445,3.093,5.939
					c-1.063,3.373-3.827,4.968-8.032,4.183l-84.132-19.499c-8.731-1.631-14.472,1.682-16.679,8.687
					c-1.632,5.179,1.243,10.701,6.423,12.334c3.83,1.207,7.913-0.92,9.12-4.75c0.892-2.832-0.68-5.852-3.512-6.744
					c-2.094-0.66-4.327,0.503-4.987,2.597"/>
			</g>
		</g>
		<g>
			<g>
				<g>
					<g>
						
							<path style="fill:none;stroke:#004569;stroke-width:1.5;stroke-linecap:round;stroke-linejoin:round;stroke-miterlimit:10;" d="
							M160.909,357.544c59.962,16.543,118.221,16.543,178.183,0c3.825,10.639,5.738,15.958,9.563,26.597
							c-66.217,18.4-131.09,18.4-197.308,0C155.171,373.503,157.084,368.183,160.909,357.544z"/>
						<g>
							<g>
								
									<path style="fill:none;stroke:#004569;stroke-width:1.5;stroke-linecap:round;stroke-linejoin:round;stroke-miterlimit:10;" d="
									M345.651,374.247c5.823-1.785,8.716-2.748,14.459-4.812c-4.894-4.256-7.278-6.424-11.919-10.833
									c0.485-6.124,0.655-9.178,0.853-15.265c-9.267,3.331-13.967,4.795-23.452,7.319c1.141,3.635,1.756,5.595,2.814,8.968"/>
								
									<path style="fill:none;stroke:#004569;stroke-width:1.5;stroke-linecap:round;stroke-linejoin:round;stroke-miterlimit:10;" d="
									M339.094,357.543c-5.545-2.633-8.247-4.014-13.502-6.888"/>
							</g>
							<g>
								
									<path style="fill:none;stroke:#004569;stroke-width:1.5;stroke-linecap:round;stroke-linejoin:round;stroke-miterlimit:10;" d="
									M154.349,374.247c-5.823-1.785-8.716-2.748-14.459-4.812c4.894-4.256,7.278-6.424,11.919-10.833
									c-0.485-6.124-0.655-9.178-0.853-15.265c9.267,3.331,13.967,4.795,23.452,7.319c-1.139,3.629-1.753,5.588-2.809,8.952"/>
								
									<path style="fill:none;stroke:#004569;stroke-width:1.5;stroke-linecap:round;stroke-linejoin:round;stroke-miterlimit:10;" d="
									M160.906,357.543c5.545-2.633,8.247-4.013,13.502-6.888"/>
							</g>
						</g>
					</g>
				</g>
				<g>
					<g>
						<path id="SVGID_x5F_1_x5F_" style="fill:none;" d="M158.741,379.49c61.254,17.021,121.264,17.021,182.518,0"/>
						<text>						<textPath  xlink:href="#SVGID_x5F_1_x5F_" startOffset="0%">
<tspan  style="fill:#004569;stroke:#004569;stroke-width:0.25;stroke-miterlimit:10; font-family:'AbrilFatface-Regular'; font-size:20.573px;">LAW AND JUSTICE</tspan>						</textPath>
</text>
					</g>
				</g>
			</g>
			<g>
				<polygon style="fill:#004569;" points="163.692,371.294 160.402,373.047 162.595,376.062 165.885,374.309 				"/>
				<polygon style="fill:#004569;" points="336.308,371.294 339.598,373.047 337.405,376.062 334.114,374.309 				"/>
			</g>
		</g>
		<g>
			<g>
				<polygon style="fill:#004569;" points="185.479,333.536 186.98,338.816 192.26,340.317 186.98,341.818 185.479,347.099 
					183.978,341.818 178.697,340.317 183.978,338.816 				"/>
				<polygon style="fill:#004569;" points="169.871,330.581 171.098,334.897 175.415,336.125 171.098,337.352 169.871,341.668 
					168.644,337.352 164.327,336.125 168.644,334.897 				"/>
			</g>
			<g>
				<polygon style="fill:#004569;" points="314.521,333.536 313.02,338.816 307.74,340.317 313.02,341.818 314.521,347.099 
					316.022,341.818 321.303,340.317 316.022,338.816 				"/>
				<polygon style="fill:#004569;" points="330.129,330.581 328.902,334.897 324.585,336.125 328.902,337.352 330.129,341.668 
					331.356,337.352 335.673,336.125 331.356,334.897 				"/>
			</g>
		</g>
		<g>
			<g>
				<g>
					<polygon style="fill:#004569;" points="209.119,94.466 210.62,89.187 215.899,87.686 210.62,86.185 209.119,80.905 
						207.618,86.185 202.339,87.686 207.618,89.187 					"/>
					<polygon style="fill:#004569;" points="188.264,95.483 189.491,91.168 193.807,89.94 189.491,88.714 188.264,84.397 
						187.037,88.714 182.721,89.94 187.037,91.168 					"/>
					<polygon style="fill:#004569;" points="172.829,96.032 173.732,92.855 176.909,91.952 173.732,91.049 172.829,87.872 
						171.926,91.049 168.749,91.952 171.926,92.855 					"/>
				</g>
			</g>
			<g>
				<g>
					<polygon style="fill:#004569;" points="290.881,94.466 289.38,89.187 284.101,87.686 289.38,86.185 290.881,80.905 
						292.382,86.185 297.661,87.686 292.382,89.187 					"/>
					<polygon style="fill:#004569;" points="311.736,95.483 310.509,91.168 306.193,89.94 310.509,88.714 311.736,84.397 
						312.963,88.714 317.279,89.94 312.963,91.168 					"/>
					<polygon style="fill:#004569;" points="327.171,96.032 326.268,92.855 323.091,91.952 326.268,91.049 327.171,87.872 
						328.074,91.049 331.251,91.952 328.074,92.855 					"/>
				</g>
			</g>
		</g>
	</g>
</g>
<g id="DESIGNED_BY_FREEPIK">
	<g id="XMLID_76_">
		<g id="XMLID_929_">
			<path id="XMLID_958_" style="fill:#004569;" d="M181.087,472.134c-0.246,0-0.435,0.085-0.567,0.255
				c-0.133,0.17-0.199,0.421-0.199,0.753v2.392c-0.305-0.331-0.617-0.579-0.937-0.739c-0.321-0.159-0.715-0.24-1.182-0.24
				c-0.807,0-1.458,0.283-1.953,0.848c-0.494,0.566-0.742,1.356-0.742,2.369c0,0.478,0.063,0.923,0.187,1.335
				c0.124,0.412,0.307,0.77,0.549,1.074c0.241,0.305,0.527,0.539,0.857,0.703c0.33,0.164,0.689,0.246,1.078,0.246
				c0.293,0,0.563-0.04,0.809-0.122c0.248-0.08,0.477-0.199,0.689-0.356c0.212-0.156,0.427-0.359,0.644-0.608v0.16
				c0,0.297,0.072,0.525,0.217,0.685c0.145,0.161,0.328,0.24,0.549,0.24c0.226,0,0.409-0.077,0.552-0.231
				c0.143-0.154,0.214-0.386,0.214-0.694v-7.146c0-0.305-0.066-0.534-0.199-0.691C181.521,472.212,181.332,472.134,181.087,472.134z
				 M180.021,478.974c-0.14,0.306-0.328,0.533-0.563,0.682c-0.236,0.149-0.496,0.223-0.781,0.223c-0.281,0-0.539-0.079-0.777-0.236
				c-0.237-0.155-0.424-0.387-0.561-0.696c-0.136-0.309-0.204-0.682-0.204-1.122c0-0.415,0.063-0.78,0.193-1.095
				c0.128-0.315,0.309-0.556,0.543-0.724c0.233-0.168,0.499-0.253,0.795-0.253c0.285,0,0.547,0.082,0.786,0.246
				c0.239,0.165,0.429,0.402,0.569,0.712c0.141,0.311,0.21,0.682,0.21,1.114C180.232,478.284,180.162,478.667,180.021,478.974z"/>
			<path id="XMLID_954_" style="fill:#004569;" d="M188.452,478.054c0.233-0.122,0.35-0.385,0.35-0.793
				c0-0.438-0.114-0.87-0.339-1.294c-0.225-0.423-0.564-0.769-1.018-1.035c-0.453-0.268-0.996-0.4-1.628-0.4
				c-0.487,0-0.93,0.078-1.33,0.234c-0.4,0.157-0.737,0.381-1.009,0.674c-0.273,0.293-0.48,0.644-0.623,1.054
				c-0.143,0.409-0.214,0.853-0.214,1.332c0,1.017,0.289,1.822,0.867,2.415c0.577,0.592,1.387,0.89,2.427,0.89
				c0.455,0,0.858-0.059,1.207-0.178c0.352-0.12,0.641-0.268,0.873-0.448c0.231-0.18,0.404-0.368,0.519-0.564
				c0.115-0.197,0.172-0.367,0.172-0.514c0-0.166-0.052-0.294-0.155-0.386c-0.102-0.09-0.237-0.137-0.403-0.137
				c-0.154,0-0.273,0.035-0.356,0.107c-0.203,0.19-0.366,0.34-0.493,0.452c-0.126,0.111-0.265,0.215-0.415,0.312
				c-0.15,0.098-0.305,0.167-0.466,0.214c-0.16,0.045-0.337,0.067-0.531,0.067c-0.289,0-0.553-0.07-0.792-0.213
				c-0.239-0.142-0.432-0.354-0.576-0.635c-0.145-0.281-0.219-0.605-0.222-0.973h3.168
				C187.89,478.235,188.219,478.174,188.452,478.054z M184.297,477.315c0.056-0.546,0.212-0.959,0.472-1.238
				c0.259-0.28,0.59-0.418,0.994-0.418c0.423,0,0.764,0.137,1.024,0.412c0.259,0.275,0.409,0.69,0.448,1.244H184.297z"/>
			<path id="XMLID_952_" style="fill:#004569;" d="M193.879,477.617c-0.319-0.17-0.729-0.316-1.231-0.439
				c-0.425-0.103-0.756-0.19-0.997-0.261c-0.242-0.07-0.434-0.16-0.577-0.27c-0.142-0.109-0.213-0.248-0.213-0.419
				c0-0.186,0.096-0.341,0.29-0.465c0.194-0.126,0.437-0.187,0.73-0.187c0.286,0,0.511,0.047,0.677,0.142
				c0.166,0.095,0.31,0.222,0.433,0.38c0.151,0.19,0.284,0.332,0.401,0.427c0.116,0.095,0.258,0.143,0.423,0.143
				c0.231,0,0.408-0.06,0.532-0.178c0.124-0.119,0.186-0.271,0.186-0.457c0-0.171-0.058-0.345-0.175-0.523
				c-0.116-0.178-0.286-0.34-0.51-0.486c-0.223-0.146-0.502-0.264-0.837-0.35c-0.333-0.088-0.71-0.131-1.13-0.131
				c-0.535,0-0.99,0.085-1.367,0.259c-0.378,0.172-0.665,0.403-0.859,0.691c-0.194,0.289-0.291,0.596-0.291,0.92
				c0,0.364,0.105,0.671,0.315,0.92c0.21,0.249,0.489,0.45,0.84,0.602c0.35,0.152,0.804,0.298,1.362,0.436
				c0.494,0.12,0.849,0.244,1.066,0.375c0.216,0.131,0.323,0.338,0.323,0.622c0,0.187-0.104,0.352-0.311,0.497
				c-0.208,0.144-0.474,0.216-0.798,0.216c-0.4,0-0.715-0.071-0.947-0.213c-0.231-0.143-0.431-0.358-0.597-0.647
				c-0.082-0.15-0.17-0.267-0.261-0.35c-0.091-0.082-0.221-0.124-0.391-0.124c-0.194,0-0.355,0.064-0.481,0.19
				c-0.128,0.126-0.19,0.278-0.19,0.456c0,0.27,0.099,0.537,0.297,0.805c0.198,0.266,0.505,0.489,0.92,0.667
				c0.415,0.178,0.914,0.267,1.495,0.267c0.61,0,1.127-0.082,1.552-0.246c0.425-0.164,0.747-0.406,0.964-0.724
				c0.218-0.319,0.327-0.702,0.327-1.149c0-0.297-0.082-0.56-0.246-0.791C194.438,477.988,194.196,477.787,193.879,477.617z"/>
			<path id="XMLID_950_" style="fill:#004569;" d="M196.486,474.543c-0.237,0-0.43,0.081-0.578,0.243
				c-0.149,0.162-0.222,0.404-0.222,0.724v4.635c0,0.317,0.073,0.56,0.222,0.73c0.148,0.17,0.341,0.255,0.578,0.255
				c0.238,0,0.433-0.083,0.588-0.249c0.154-0.166,0.231-0.412,0.231-0.737v-4.682c0-0.289-0.077-0.514-0.231-0.677
				C196.919,474.624,196.724,474.543,196.486,474.543z"/>
			<path id="XMLID_949_" style="fill:#004569;" d="M196.504,472.204c-0.217,0-0.409,0.073-0.573,0.223
				c-0.164,0.149-0.246,0.337-0.246,0.567c0,0.254,0.08,0.45,0.24,0.588c0.16,0.139,0.353,0.208,0.579,0.208
				c0.217,0,0.405-0.071,0.563-0.211c0.158-0.14,0.238-0.335,0.238-0.585c0-0.257-0.081-0.453-0.243-0.588
				C196.9,472.272,196.714,472.204,196.504,472.204z"/>
			<path id="XMLID_945_" style="fill:#004569;" d="M203.626,474.543c-0.217,0-0.395,0.078-0.535,0.231
				c-0.139,0.155-0.208,0.372-0.208,0.653v0.22c-0.289-0.376-0.602-0.652-0.937-0.829c-0.337-0.175-0.735-0.264-1.194-0.264
				c-0.384,0-0.736,0.068-1.056,0.204c-0.32,0.137-0.604,0.34-0.849,0.609c-0.245,0.268-0.433,0.599-0.566,0.992
				c-0.133,0.391-0.199,0.831-0.199,1.318c0,0.653,0.109,1.228,0.327,1.727c0.217,0.499,0.529,0.886,0.934,1.163
				c0.407,0.277,0.88,0.416,1.422,0.416c0.45,0,0.84-0.091,1.165-0.273c0.327-0.182,0.615-0.447,0.864-0.796
				c-0.008,0.531-0.02,0.915-0.035,1.155c-0.016,0.24-0.07,0.464-0.163,0.673c-0.093,0.21-0.255,0.374-0.486,0.49
				c-0.231,0.117-0.557,0.175-0.977,0.175c-0.205,0-0.388-0.02-0.546-0.056c-0.159-0.038-0.294-0.095-0.406-0.172
				c-0.112-0.078-0.216-0.17-0.309-0.279c-0.093-0.109-0.183-0.217-0.27-0.324c-0.178-0.209-0.386-0.314-0.624-0.314
				c-0.189,0-0.352,0.062-0.486,0.187c-0.135,0.124-0.202,0.285-0.202,0.483c0,0.262,0.119,0.516,0.356,0.763
				c0.238,0.247,0.576,0.449,1.014,0.605c0.439,0.156,0.938,0.234,1.496,0.234c0.609,0,1.119-0.061,1.528-0.184
				c0.409-0.122,0.741-0.311,0.994-0.563c0.253-0.254,0.437-0.574,0.552-0.961c0.115-0.389,0.173-0.851,0.173-1.389v-4.706
				c0-0.384-0.051-0.678-0.155-0.882C204.146,474.645,203.938,474.543,203.626,474.543z M202.599,478.908
				c-0.151,0.291-0.345,0.508-0.586,0.653c-0.239,0.144-0.493,0.217-0.762,0.217c-0.455,0-0.826-0.168-1.113-0.505
				c-0.287-0.336-0.43-0.834-0.43-1.49c0-0.649,0.139-1.15,0.418-1.502s0.649-0.528,1.113-0.528c0.475,0,0.857,0.184,1.148,0.553
				c0.291,0.367,0.436,0.882,0.436,1.543C202.825,478.265,202.749,478.617,202.599,478.908z"/>
			<path id="XMLID_944_" style="fill:#004569;" d="M210.978,475.611c-0.165-0.339-0.417-0.602-0.753-0.788
				c-0.337-0.186-0.718-0.28-1.146-0.28c-0.439,0-0.827,0.088-1.166,0.264c-0.339,0.176-0.65,0.452-0.935,0.828v-0.196
				c0-0.193-0.034-0.358-0.104-0.493c-0.07-0.134-0.162-0.234-0.276-0.302c-0.115-0.068-0.244-0.101-0.387-0.101
				c-0.233,0-0.417,0.076-0.552,0.228c-0.134,0.153-0.201,0.383-0.201,0.692v4.682c0,0.317,0.076,0.56,0.226,0.73
				c0.15,0.17,0.342,0.255,0.576,0.255c0.241,0,0.438-0.082,0.59-0.246c0.152-0.164,0.228-0.411,0.228-0.74v-2.03
				c0-0.661,0.04-1.111,0.119-1.353c0.11-0.3,0.284-0.537,0.522-0.71c0.237-0.173,0.5-0.258,0.788-0.258
				c0.444,0,0.74,0.142,0.888,0.425c0.148,0.283,0.223,0.691,0.223,1.225v2.7c0,0.317,0.074,0.56,0.226,0.73
				c0.15,0.17,0.345,0.255,0.587,0.255c0.238,0,0.431-0.083,0.579-0.249c0.149-0.166,0.223-0.412,0.223-0.737v-3.015
				c0-0.356-0.016-0.648-0.048-0.878C211.155,476.023,211.085,475.809,210.978,475.611z"/>
			<path id="XMLID_939_" style="fill:#004569;" d="M217.821,478.054c0.234-0.122,0.35-0.385,0.35-0.793
				c0-0.438-0.113-0.87-0.338-1.294c-0.226-0.423-0.565-0.769-1.019-1.035c-0.453-0.268-0.995-0.4-1.628-0.4
				c-0.487,0-0.93,0.078-1.33,0.234c-0.4,0.157-0.736,0.381-1.009,0.674c-0.273,0.293-0.481,0.644-0.624,1.054
				c-0.142,0.409-0.214,0.853-0.214,1.332c0,1.017,0.289,1.822,0.867,2.415c0.578,0.592,1.387,0.89,2.427,0.89
				c0.455,0,0.858-0.059,1.208-0.178c0.35-0.12,0.64-0.268,0.871-0.448c0.232-0.18,0.405-0.368,0.52-0.564
				c0.115-0.197,0.172-0.367,0.172-0.514c0-0.166-0.051-0.294-0.154-0.386c-0.103-0.09-0.238-0.137-0.404-0.137
				c-0.154,0-0.273,0.035-0.356,0.107c-0.201,0.19-0.366,0.34-0.492,0.452c-0.128,0.111-0.266,0.215-0.416,0.312
				c-0.151,0.098-0.306,0.167-0.466,0.214c-0.161,0.045-0.338,0.067-0.532,0.067c-0.289,0-0.553-0.07-0.792-0.213
				c-0.239-0.142-0.431-0.354-0.575-0.635c-0.145-0.281-0.218-0.605-0.223-0.973h3.169
				C217.26,478.235,217.588,478.174,217.821,478.054z M213.667,477.315c0.055-0.546,0.212-0.959,0.471-1.238
				c0.259-0.28,0.591-0.418,0.995-0.418c0.423,0,0.765,0.137,1.024,0.412c0.259,0.275,0.409,0.69,0.448,1.244H213.667z"/>
			<path id="XMLID_936_" style="fill:#004569;" d="M224.207,472.134c-0.245,0-0.434,0.085-0.567,0.255
				c-0.132,0.17-0.2,0.421-0.2,0.753v2.392c-0.304-0.331-0.616-0.579-0.937-0.739c-0.32-0.159-0.714-0.24-1.181-0.24
				c-0.807,0-1.458,0.283-1.953,0.848c-0.495,0.566-0.741,1.356-0.741,2.369c0,0.478,0.062,0.923,0.187,1.335
				c0.124,0.412,0.307,0.77,0.549,1.074c0.241,0.305,0.527,0.539,0.857,0.703c0.33,0.164,0.689,0.246,1.077,0.246
				c0.293,0,0.563-0.04,0.81-0.122c0.247-0.08,0.476-0.199,0.688-0.356c0.211-0.156,0.426-0.359,0.643-0.608v0.16
				c0,0.297,0.073,0.525,0.217,0.685c0.145,0.161,0.328,0.24,0.549,0.24c0.226,0,0.41-0.077,0.552-0.231
				c0.143-0.154,0.214-0.386,0.214-0.694v-7.146c0-0.305-0.066-0.534-0.199-0.691C224.64,472.212,224.452,472.134,224.207,472.134z
				 M223.141,478.974c-0.14,0.306-0.328,0.533-0.564,0.682c-0.235,0.149-0.495,0.223-0.781,0.223c-0.281,0-0.54-0.079-0.776-0.236
				c-0.238-0.155-0.425-0.387-0.561-0.696c-0.137-0.309-0.205-0.682-0.205-1.122c0-0.415,0.064-0.78,0.193-1.095
				c0.129-0.315,0.31-0.556,0.543-0.724c0.233-0.168,0.499-0.253,0.795-0.253c0.285,0,0.547,0.082,0.787,0.246
				c0.239,0.165,0.43,0.402,0.57,0.712c0.14,0.311,0.21,0.682,0.21,1.114C223.352,478.284,223.281,478.667,223.141,478.974z"/>
			<path id="XMLID_933_" style="fill:#004569;" d="M233.586,474.937c-0.406-0.254-0.878-0.382-1.416-0.382
				c-0.467,0-0.859,0.084-1.175,0.252c-0.317,0.168-0.627,0.411-0.932,0.727v-2.475c0-0.297-0.068-0.524-0.202-0.685
				c-0.134-0.16-0.326-0.24-0.576-0.24c-0.237,0-0.423,0.084-0.555,0.252c-0.132,0.168-0.198,0.416-0.198,0.745v7.075
				c0,0.305,0.068,0.535,0.205,0.692c0.136,0.156,0.319,0.234,0.549,0.234c0.226,0,0.412-0.077,0.558-0.234
				c0.146-0.157,0.22-0.388,0.22-0.692v-0.16c0.178,0.205,0.322,0.361,0.43,0.463c0.109,0.103,0.241,0.203,0.395,0.3
				c0.154,0.098,0.341,0.175,0.561,0.234c0.22,0.06,0.454,0.089,0.704,0.089c0.407,0,0.781-0.082,1.118-0.246
				c0.338-0.164,0.626-0.397,0.864-0.698c0.237-0.3,0.418-0.656,0.543-1.065c0.125-0.41,0.187-0.859,0.187-1.35
				c0-0.665-0.112-1.241-0.336-1.725C234.305,475.563,233.991,475.193,233.586,474.937z M232.796,479.348
				c-0.295,0.354-0.646,0.531-1.053,0.531c-0.479,0-0.866-0.174-1.161-0.521c-0.295-0.346-0.442-0.841-0.442-1.487
				c0-0.439,0.069-0.818,0.208-1.136c0.138-0.319,0.328-0.562,0.57-0.73c0.24-0.168,0.516-0.253,0.825-0.253
				c0.3,0,0.564,0.085,0.79,0.253c0.225,0.168,0.399,0.406,0.522,0.715c0.123,0.308,0.184,0.677,0.184,1.104
				C233.238,478.486,233.09,478.993,232.796,479.348z"/>
			<path id="XMLID_931_" style="fill:#004569;" d="M240.529,474.641c-0.112-0.066-0.23-0.098-0.353-0.098
				c-0.171,0-0.303,0.03-0.395,0.09c-0.093,0.058-0.181,0.173-0.264,0.344c-0.083,0.17-0.176,0.406-0.279,0.706l-1.3,3.71
				l-1.371-3.988c-0.091-0.277-0.195-0.489-0.314-0.638c-0.119-0.148-0.295-0.223-0.529-0.223c-0.135,0-0.264,0.035-0.389,0.107
				c-0.124,0.071-0.222,0.166-0.294,0.285c-0.071,0.118-0.107,0.247-0.107,0.385c0,0.13,0.062,0.341,0.184,0.628l1.994,5.022
				l-0.148,0.362c-0.111,0.265-0.209,0.466-0.294,0.601c-0.085,0.138-0.181,0.234-0.288,0.289c-0.107,0.056-0.254,0.084-0.44,0.084
				c-0.074,0-0.163-0.012-0.266-0.035c-0.083-0.024-0.168-0.037-0.256-0.037c-0.221,0-0.388,0.051-0.5,0.152
				c-0.114,0.101-0.17,0.245-0.17,0.43c0,0.273,0.118,0.461,0.356,0.564c0.237,0.103,0.593,0.154,1.068,0.154
				c0.487,0,0.873-0.074,1.161-0.223c0.287-0.148,0.517-0.361,0.691-0.638c0.174-0.277,0.353-0.658,0.535-1.145l2.113-5.532
				c0.051-0.142,0.095-0.283,0.13-0.421c0.037-0.139,0.061-0.246,0.078-0.321c0-0.123-0.032-0.239-0.093-0.35
				C240.729,474.794,240.642,474.706,240.529,474.641z"/>
		</g>
		<g id="XMLID_365_">
			<g id="XMLID_380_">
				<path id="XMLID_928_" style="fill:#004569;" d="M262.93,472.129c-0.533,0-0.954,0.069-1.26,0.204
					c-0.307,0.137-0.527,0.354-0.654,0.652c-0.129,0.301-0.191,0.702-0.191,1.211v0.487h-0.387c-0.543,0-0.815,0.192-0.815,0.582
					c0,0.174,0.066,0.316,0.196,0.424c0.132,0.111,0.316,0.163,0.558,0.163h0.447v4.294c0,0.319,0.074,0.563,0.227,0.73
					c0.154,0.17,0.344,0.254,0.574,0.254c0.243,0,0.438-0.084,0.589-0.254c0.156-0.167,0.231-0.411,0.231-0.73v-4.294h0.395
					c0.29,0,0.517-0.035,0.68-0.107c0.166-0.071,0.245-0.24,0.245-0.502c0-0.374-0.306-0.56-0.926-0.56h-0.395v-0.386
					c0-0.322,0.043-0.568,0.122-0.74c0.087-0.172,0.273-0.259,0.566-0.259c0.107,0,0.241,0.014,0.389,0.034
					c0.156,0.026,0.267,0.038,0.33,0.038c0.134,0,0.252-0.054,0.348-0.16c0.101-0.107,0.15-0.236,0.15-0.384
					C264.35,472.359,263.879,472.129,262.93,472.129z"/>
				<path id="XMLID_926_" style="fill:#004569;" d="M268.089,474.795c-0.32-0.171-0.648-0.255-0.99-0.255
					c-0.342,0-0.611,0.084-0.818,0.255c-0.203,0.171-0.4,0.421-0.592,0.755c-0.014-0.334-0.08-0.584-0.198-0.755
					c-0.119-0.171-0.312-0.255-0.583-0.255c-0.525,0-0.788,0.364-0.788,1.093v4.513c0,0.323,0.078,0.569,0.225,0.733
					c0.15,0.169,0.34,0.25,0.579,0.25c0.237,0,0.432-0.081,0.586-0.247c0.151-0.163,0.234-0.41,0.234-0.737v-1.355
					c0-0.486,0.014-0.899,0.045-1.239c0.034-0.336,0.09-0.63,0.17-0.878c0.084-0.243,0.201-0.425,0.353-0.553
					c0.149-0.122,0.345-0.186,0.582-0.186c0.172,0,0.374,0.037,0.602,0.108c0.226,0.073,0.37,0.112,0.433,0.112
					c0.157,0,0.304-0.064,0.441-0.195c0.135-0.126,0.204-0.292,0.204-0.488C268.571,475.193,268.411,474.966,268.089,474.795z"/>
				<path id="XMLID_922_" style="fill:#004569;" d="M274.176,478.052c0.233-0.122,0.351-0.386,0.351-0.791
					c0-0.441-0.113-0.87-0.339-1.296c-0.222-0.423-0.566-0.77-1.018-1.034c-0.453-0.27-0.997-0.403-1.629-0.403
					c-0.488,0-0.931,0.078-1.33,0.233c-0.402,0.156-0.735,0.38-1.007,0.674c-0.276,0.295-0.484,0.643-0.624,1.055
					c-0.144,0.41-0.217,0.855-0.217,1.333c0,1.017,0.292,1.823,0.87,2.418c0.577,0.593,1.385,0.888,2.429,0.888
					c0.453,0,0.857-0.06,1.207-0.179c0.349-0.117,0.639-0.268,0.874-0.446c0.233-0.182,0.405-0.368,0.522-0.566
					c0.112-0.195,0.167-0.365,0.167-0.512c0-0.167-0.048-0.294-0.152-0.386c-0.105-0.092-0.238-0.139-0.406-0.139
					c-0.152,0-0.271,0.038-0.355,0.109c-0.202,0.189-0.367,0.34-0.494,0.449c-0.128,0.113-0.264,0.217-0.415,0.312
					c-0.15,0.097-0.307,0.17-0.466,0.213c-0.16,0.048-0.336,0.069-0.531,0.069c-0.29,0-0.552-0.07-0.793-0.212
					c-0.24-0.145-0.431-0.356-0.578-0.635c-0.144-0.281-0.216-0.607-0.221-0.974h3.171
					C273.615,478.233,273.943,478.173,274.176,478.052z M270.021,477.312c0.054-0.546,0.213-0.957,0.472-1.236
					c0.259-0.28,0.591-0.417,0.995-0.417c0.426,0,0.764,0.136,1.025,0.413c0.26,0.273,0.407,0.688,0.446,1.241H270.021z"/>
				<path id="XMLID_919_" style="fill:#004569;" d="M280.916,478.052c0.231-0.122,0.351-0.386,0.351-0.791
					c0-0.441-0.116-0.87-0.34-1.296c-0.222-0.423-0.563-0.77-1.013-1.034c-0.46-0.27-1.003-0.403-1.633-0.403
					c-0.486,0-0.932,0.078-1.33,0.233c-0.401,0.156-0.736,0.38-1.009,0.674c-0.273,0.295-0.481,0.643-0.622,1.055
					c-0.145,0.41-0.217,0.855-0.217,1.333c0,1.017,0.29,1.823,0.868,2.418c0.58,0.593,1.387,0.888,2.429,0.888
					c0.453,0,0.86-0.06,1.208-0.179c0.347-0.117,0.641-0.268,0.872-0.446c0.234-0.182,0.408-0.368,0.519-0.566
					c0.117-0.195,0.171-0.365,0.171-0.512c0-0.167-0.047-0.294-0.15-0.386c-0.104-0.092-0.238-0.139-0.406-0.139
					c-0.151,0-0.27,0.038-0.355,0.109c-0.203,0.189-0.368,0.34-0.492,0.449c-0.128,0.113-0.264,0.217-0.415,0.312
					c-0.152,0.097-0.307,0.17-0.469,0.213c-0.157,0.048-0.336,0.069-0.528,0.069c-0.291,0-0.555-0.07-0.795-0.212
					c-0.239-0.145-0.431-0.356-0.575-0.635c-0.144-0.281-0.218-0.607-0.222-0.974h3.17
					C280.354,478.233,280.682,478.173,280.916,478.052z M276.762,477.312c0.053-0.546,0.211-0.957,0.469-1.236
					c0.261-0.28,0.592-0.417,0.995-0.417c0.425,0,0.763,0.136,1.027,0.413c0.257,0.273,0.407,0.688,0.447,1.241H276.762z"/>
				<path id="XMLID_390_" style="fill:#004569;" d="M286.926,474.937c-0.42-0.256-0.882-0.386-1.379-0.386
					c-0.415,0-0.79,0.089-1.114,0.267c-0.331,0.176-0.649,0.452-0.952,0.828v-0.195c0-0.296-0.071-0.519-0.218-0.677
					c-0.143-0.156-0.329-0.234-0.56-0.234c-0.233,0-0.419,0.078-0.553,0.228c-0.134,0.155-0.2,0.382-0.2,0.692v6.995
					c0,0.355,0.051,0.62,0.146,0.807c0.102,0.183,0.301,0.275,0.607,0.275c0.518,0,0.778-0.359,0.778-1.068v-2.433
					c0.287,0.358,0.586,0.634,0.901,0.816c0.314,0.187,0.704,0.279,1.165,0.279c0.385,0,0.741-0.076,1.079-0.227
					c0.334-0.153,0.622-0.372,0.868-0.654c0.245-0.283,0.441-0.632,0.58-1.05c0.14-0.419,0.21-0.878,0.21-1.376
					c0-0.677-0.122-1.261-0.366-1.758C287.675,475.572,287.346,475.196,286.926,474.937z M286.451,478.94
					c-0.137,0.313-0.32,0.546-0.552,0.704c-0.229,0.154-0.48,0.232-0.748,0.232c-0.454,0-0.828-0.179-1.133-0.536
					c-0.306-0.358-0.46-0.862-0.46-1.504c0-0.686,0.154-1.204,0.462-1.558c0.306-0.35,0.684-0.527,1.13-0.527
					c0.281,0,0.541,0.084,0.77,0.248c0.229,0.163,0.411,0.397,0.541,0.705c0.13,0.306,0.197,0.674,0.197,1.101
					C286.658,478.248,286.589,478.626,286.451,478.94z"/>
				<path id="XMLID_389_" style="fill:#004569;" d="M289.9,474.54c-0.238,0-0.428,0.079-0.58,0.245
					c-0.146,0.162-0.222,0.403-0.222,0.721v4.641c0,0.313,0.076,0.555,0.222,0.729c0.152,0.17,0.342,0.254,0.58,0.254
					c0.238,0,0.432-0.082,0.588-0.25c0.154-0.165,0.231-0.41,0.231-0.732v-4.688c0-0.287-0.078-0.512-0.231-0.675
					C290.332,474.619,290.138,474.54,289.9,474.54z"/>
				<path id="XMLID_388_" style="fill:#004569;" d="M289.917,472.199c-0.217,0-0.408,0.076-0.571,0.223
					c-0.166,0.149-0.248,0.339-0.248,0.568c0,0.253,0.081,0.447,0.242,0.586c0.159,0.138,0.35,0.209,0.577,0.209
					c0.22,0,0.408-0.071,0.566-0.209c0.157-0.14,0.236-0.335,0.236-0.585c0-0.257-0.082-0.454-0.244-0.591
					C290.314,472.267,290.13,472.199,289.917,472.199z"/>
				<path id="XMLID_387_" style="fill:#004569;" d="M297.258,479.569l-1.662-2.614l0.86-0.789c0.438-0.395,0.659-0.714,0.659-0.951
					c0-0.192-0.068-0.355-0.2-0.483c-0.139-0.128-0.306-0.193-0.51-0.193c-0.168,0-0.312,0.043-0.431,0.13
					c-0.121,0.086-0.29,0.251-0.517,0.486l-1.822,1.914v-3.933c0-0.329-0.074-0.582-0.221-0.751
					c-0.148-0.172-0.344-0.258-0.593-0.258c-0.255,0-0.457,0.093-0.596,0.283c-0.135,0.189-0.207,0.462-0.207,0.821v6.913
					c0,0.323,0.073,0.569,0.215,0.733c0.141,0.169,0.339,0.25,0.588,0.25c0.213,0,0.406-0.084,0.566-0.254
					c0.165-0.167,0.248-0.406,0.248-0.718v-1.291l0.88-0.83l1.427,2.353c0.181,0.278,0.33,0.471,0.436,0.58
					c0.106,0.109,0.26,0.16,0.458,0.16c0.226,0,0.413-0.073,0.553-0.221c0.142-0.151,0.214-0.352,0.214-0.61
					c0-0.089-0.029-0.19-0.082-0.289C297.47,479.909,297.379,479.765,297.258,479.569z"/>
				<path id="XMLID_386_" style="fill:#004569;" d="M299.45,479.343c-0.25,0-0.458,0.087-0.63,0.261
					c-0.17,0.173-0.256,0.381-0.256,0.622c0,0.287,0.09,0.51,0.268,0.665c0.179,0.159,0.389,0.238,0.633,0.238
					c0.237,0,0.444-0.079,0.624-0.241c0.174-0.157,0.264-0.38,0.264-0.662c0-0.243-0.089-0.454-0.264-0.626
					C299.909,479.43,299.698,479.343,299.45,479.343z"/>
				<path id="XMLID_385_" style="fill:#004569;" d="M306.835,478.417c-0.167,0-0.308,0.054-0.422,0.156
					c-0.113,0.104-0.219,0.245-0.318,0.427c-0.178,0.309-0.381,0.538-0.616,0.689c-0.231,0.15-0.509,0.225-0.835,0.225
					c-0.24,0-0.463-0.045-0.665-0.141c-0.201-0.093-0.372-0.229-0.516-0.409c-0.143-0.18-0.252-0.398-0.325-0.652
					c-0.075-0.256-0.114-0.537-0.114-0.842c0-0.646,0.147-1.161,0.439-1.534c0.294-0.375,0.682-0.561,1.158-0.561
					c0.333,0,0.607,0.075,0.821,0.227c0.219,0.148,0.424,0.375,0.622,0.674c0.109,0.158,0.209,0.269,0.299,0.339
					c0.09,0.068,0.201,0.104,0.338,0.104c0.202,0,0.377-0.068,0.524-0.203c0.143-0.135,0.214-0.3,0.214-0.492
					c0-0.192-0.063-0.397-0.192-0.617c-0.128-0.218-0.314-0.424-0.556-0.62c-0.245-0.192-0.54-0.352-0.89-0.474
					c-0.353-0.123-0.737-0.184-1.157-0.184c-0.674,0-1.26,0.138-1.746,0.419c-0.486,0.279-0.859,0.674-1.113,1.183
					c-0.259,0.511-0.387,1.098-0.387,1.765c0,0.981,0.281,1.764,0.841,2.349c0.562,0.582,1.344,0.876,2.348,0.876
					c0.469,0,0.893-0.065,1.269-0.192c0.377-0.126,0.688-0.295,0.934-0.502c0.248-0.207,0.434-0.425,0.554-0.656
					c0.121-0.229,0.182-0.446,0.182-0.646c0-0.169-0.066-0.331-0.198-0.481C307.198,478.493,307.033,478.417,306.835,478.417z"/>
				<path id="XMLID_382_" style="fill:#004569;" d="M313.647,475.453c-0.288-0.29-0.629-0.518-1.027-0.674
					c-0.4-0.161-0.846-0.239-1.336-0.239c-0.483,0-0.924,0.078-1.326,0.234c-0.399,0.158-0.737,0.38-1.019,0.669
					c-0.281,0.288-0.498,0.636-0.649,1.045c-0.146,0.408-0.224,0.858-0.224,1.349c0,0.485,0.076,0.929,0.219,1.332
					c0.152,0.402,0.369,0.75,0.657,1.048c0.285,0.292,0.627,0.521,1.016,0.676c0.392,0.159,0.835,0.239,1.326,0.239
					c0.492,0,0.937-0.08,1.336-0.234c0.394-0.158,0.735-0.382,1.02-0.675c0.286-0.291,0.502-0.641,0.656-1.05
					c0.146-0.408,0.222-0.855,0.222-1.336c0-0.489-0.075-0.932-0.221-1.339C314.148,476.096,313.933,475.749,313.647,475.453z
					 M312.455,479.368c-0.29,0.372-0.682,0.557-1.171,0.557c-0.324,0-0.605-0.086-0.846-0.253c-0.24-0.168-0.423-0.409-0.553-0.729
					c-0.129-0.317-0.194-0.684-0.194-1.108c0-0.428,0.066-0.803,0.197-1.125c0.131-0.321,0.314-0.563,0.556-0.727
					c0.242-0.164,0.522-0.246,0.84-0.246c0.489,0,0.881,0.182,1.171,0.555c0.289,0.367,0.436,0.881,0.436,1.543
					C312.891,478.487,312.744,478.999,312.455,479.368z"/>
				<path id="XMLID_381_" style="fill:#004569;" d="M323.569,474.813c-0.32-0.173-0.705-0.262-1.146-0.262
					c-0.381,0-0.726,0.081-1.039,0.241c-0.313,0.161-0.607,0.408-0.881,0.738c-0.191-0.326-0.431-0.572-0.725-0.735
					c-0.292-0.162-0.641-0.243-1.048-0.243c-0.394,0-0.748,0.079-1.07,0.241c-0.319,0.156-0.619,0.403-0.903,0.738v-0.153
					c0-0.261-0.074-0.466-0.222-0.616c-0.15-0.145-0.334-0.221-0.557-0.221c-0.227,0-0.412,0.078-0.555,0.239
					c-0.14,0.157-0.21,0.389-0.21,0.694v4.636c0,0.336,0.078,0.591,0.235,0.765c0.156,0.171,0.357,0.257,0.604,0.257
					c0.248,0,0.447-0.087,0.603-0.257c0.15-0.173,0.226-0.428,0.226-0.765v-2.188c0-0.684,0.086-1.206,0.253-1.566
					c0.168-0.369,0.516-0.551,1.048-0.551c0.263,0,0.459,0.072,0.581,0.22c0.122,0.142,0.198,0.331,0.226,0.552
					c0.027,0.226,0.04,0.544,0.04,0.953v2.581c0,0.341,0.078,0.594,0.232,0.767c0.148,0.17,0.349,0.255,0.594,0.255
					c0.254,0,0.455-0.085,0.611-0.255c0.156-0.173,0.231-0.426,0.231-0.767v-2.154c0-0.694,0.062-1.178,0.178-1.452
					c0.109-0.209,0.259-0.383,0.45-0.508c0.192-0.125,0.395-0.192,0.609-0.192c0.264,0,0.463,0.072,0.596,0.215
					c0.128,0.142,0.209,0.319,0.239,0.529c0.029,0.209,0.043,0.486,0.043,0.836v2.725c0,0.336,0.079,0.591,0.235,0.765
					c0.157,0.171,0.356,0.257,0.603,0.257c0.253,0,0.458-0.085,0.612-0.255c0.154-0.173,0.229-0.426,0.229-0.767v-3.163
					c0-0.629-0.068-1.091-0.206-1.385C324.128,475.237,323.888,474.987,323.569,474.813z"/>
			</g>
			<g id="XMLID_366_">
				<path id="XMLID_379_" style="fill:#004569;" d="M245.273,477.444c-0.001-0.004-0.001-0.006-0.001-0.011
					C245.272,477.438,245.272,477.44,245.273,477.444z"/>
				<path id="XMLID_378_" style="fill:#004569;" d="M245.355,477.961c0.001,0,0.001,0,0.001,0c-0.031-0.147-0.055-0.294-0.073-0.438
					C245.301,477.669,245.326,477.816,245.355,477.961z"/>
				<path id="XMLID_377_" style="fill:#004569;" d="M245.891,479.466c-0.004-0.006-0.007-0.013-0.01-0.021
					C245.885,479.452,245.888,479.46,245.891,479.466z"/>
				<path id="XMLID_376_" style="fill:#004569;" d="M245.84,479.366c-0.014-0.027-0.027-0.056-0.041-0.084
					C245.813,479.311,245.826,479.338,245.84,479.366z"/>
				<path id="XMLID_375_" style="fill:#004569;" d="M245.506,478.541c0.079,0.25,0.175,0.492,0.286,0.724
					c-0.113-0.236-0.206-0.479-0.284-0.724H245.506z"/>
				<path id="XMLID_374_" style="fill:#004569;" d="M250.736,470.681l-0.076-0.259c0.299-0.063,0.524-0.329,0.524-0.646
					c0-0.364-0.297-0.659-0.66-0.659c-0.365,0-0.66,0.295-0.66,0.659c0,0.317,0.225,0.583,0.522,0.646l0.084,0.289
					c-1.021,0.14-1.834,0.539-1.834,0.539l0.144,0.441c0.618-0.206,1.153-0.331,1.64-0.383c0.476-0.051,0.834-0.073,1.126-0.073
					c0.314,0,0.544,0.025,0.809,0.069l0.075-0.476C252.429,470.828,251.698,470.603,250.736,470.681z"/>
				<path id="XMLID_373_" style="fill:#004569;" d="M245.453,473.188c-0.017,0.024-0.497,0.465-0.876,1.28
					c-0.016-0.026-0.035-0.051-0.056-0.074c-0.113-0.124-0.272-0.187-0.473-0.184c-0.002,0-0.006,0-0.01,0
					c-0.124,0-0.21-0.042-0.266-0.092c0.055-0.071,0.089-0.16,0.089-0.258c0-0.231-0.187-0.419-0.419-0.419
					c-0.23,0-0.417,0.188-0.417,0.419c0,0.231,0.187,0.417,0.417,0.417c0.037,0,0.071-0.005,0.105-0.012
					c0.102,0.113,0.265,0.214,0.504,0.209c0.123-0.001,0.214,0.03,0.273,0.097c0.07,0.076,0.093,0.185,0.1,0.267
					c-0.001,0.002-0.001,0.004-0.002,0.004c-0.272,0.743-0.195,1.668-0.195,1.668l0.661,0.026c0.013-0.336,0.062-0.926,0.232-1.393
					c0.328-0.906,0.741-1.472,0.757-1.496l0.004-0.005c0.024-0.031,0.047-0.06,0.071-0.089l-0.196-0.142L245.453,473.188z"/>
				<path id="XMLID_372_" style="fill:#004569;" d="M257.294,471.787c-0.23,0-0.418,0.187-0.418,0.417
					c0,0.037,0.006,0.071,0.015,0.104c-0.115,0.104-0.214,0.267-0.211,0.507c0.002,0.123-0.03,0.212-0.096,0.273
					c-0.053,0.047-0.12,0.072-0.185,0.088c-0.492-0.689-1.097-1.109-1.097-1.109l-0.474,0.508c0.358,0.326,0.724,0.734,1.08,1.244
					c0.246,0.352,0.499,0.806,0.71,1.259l0.64-0.304c0,0-0.292-0.722-0.704-1.369c0.071-0.025,0.143-0.064,0.207-0.12
					c0.125-0.113,0.187-0.273,0.183-0.474c-0.001-0.13,0.042-0.218,0.093-0.276c0.071,0.054,0.16,0.089,0.257,0.089
					c0.232,0,0.419-0.187,0.419-0.419C257.712,471.974,257.525,471.787,257.294,471.787z"/>
				<path id="XMLID_371_" style="fill:#004569;" d="M255.633,477.537c-0.88,0.429-2.33,0.996-4.237,1.262
					c-0.749,0.104-1.474,0.142-2.143,0.142c-0.869,0-1.637-0.065-2.226-0.139c-0.672-0.085-1.198-0.188-1.52-0.261
					c0.078,0.245,0.171,0.487,0.284,0.724c0.002,0.006,0.005,0.013,0.008,0.017c0.014,0.027,0.027,0.056,0.041,0.084
					c0.013,0.027,0.027,0.054,0.041,0.079c0.004,0.007,0.007,0.015,0.01,0.021c0.189,0.356,0.417,0.684,0.675,0.968
					c0.9,0.984,1.816,1.139,1.825,1.141l0.015,0.002l0.013,0.005c0.009,0.003,0.821,0.265,2.057,0.265
					c1.216,0,2.409-0.245,3.545-0.729c0.842-0.431,1.639-1.085,2.033-1.668c0.305-0.452,0.526-0.934,0.656-1.434
					c0.07-0.266,0.125-0.693,0.092-1.141C256.555,477.042,256.163,477.279,255.633,477.537z"/>
				<path id="XMLID_367_" style="fill:#004569;" d="M252.322,471.655c-0.264-0.043-0.477-0.068-0.777-0.068
					c-0.279,0-0.626,0.023-1.089,0.071c-0.465,0.049-0.982,0.171-1.583,0.373c-0.842,0.282-1.604,0.724-2.204,1.28l-0.02,0.019
					c-0.089,0.081-0.275,0.254-0.488,0.525c-0.026,0.037-0.408,0.578-0.709,1.408c-0.226,0.622-0.216,1.527-0.216,1.537v0.002
					c0,0.212,0.012,0.423,0.035,0.632c0,0.005,0,0.007,0.001,0.011c0.003,0.027,0.007,0.053,0.01,0.079
					c0.018,0.144,0.043,0.291,0.074,0.438c0.438,0.112,3.048,0.721,5.966,0.314c1.829-0.255,3.218-0.795,4.061-1.204
					c0.701-0.34,1.151-0.647,1.325-0.774c-0.173-0.643-0.651-1.65-1.089-2.279C254.367,472.229,253.016,471.769,252.322,471.655z
					 M248.679,476.914c-0.971,0-1.759-0.787-1.759-1.759c0-0.972,0.788-1.76,1.759-1.76c0.973,0,1.761,0.788,1.761,1.76
					C250.439,476.127,249.652,476.914,248.679,476.914z M253.829,475.617c-0.601,0-1.089-0.489-1.089-1.09
					c0-0.602,0.487-1.089,1.089-1.089c0.601,0,1.089,0.487,1.089,1.089C254.918,475.128,254.429,475.617,253.829,475.617z"/>
			</g>
		</g>
	</g>
</g>
</svg>
