<?xml version="1.0" encoding="utf-8"?>
<!-- Generator: Adobe Illustrator 27.5.0, SVG Export Plug-In . SVG Version: 6.00 Build 0)  -->
<svg version="1.1" xmlns="http://www.w3.org/2000/svg" xmlns:xlink="http://www.w3.org/1999/xlink" x="0px" y="0px"
	 viewBox="0 0 3710 3710" style="enable-background:new 0 0 3710 3710;" xml:space="preserve">
<g id="Background">
	<g>
		<g>
			<rect style="fill:#FFFFFF;" width="3710" height="3710"/>
		</g>
	</g>
</g>
<g id="Illustration">
	<g>
		<linearGradient id="SVGID_1_" gradientUnits="userSpaceOnUse" x1="3484.5835" y1="3652.3958" x2="1541.6847" y2="1584.1492">
			<stop  offset="0" style="stop-color:#B37CFF"/>
			<stop  offset="1" style="stop-color:#F895E7"/>
		</linearGradient>
		<path style="opacity:0.3;fill:url(#SVGID_1_);" d="M2901.23,2822.624c-71.724,73.931-135.9,117.389-185.035,150.198
			c-479.208,319.971-1026.995,227.748-1196.357,196.226c-273.245-50.857-503.901-86.734-702.077-265.777
			C367.447,2496.43,389.35,1647.73,733.444,1121.997c40.799-62.337,384.373-571.62,933.346-643.382
			c13.427-1.755,23.445-2.755,32.22-3.684c84.925-8.992,611.187-56.448,1040.301,303.064
			c61.426,51.462,160.277,144.287,251.945,285.86C3326.434,1581.511,3327.496,2383.245,2901.23,2822.624z"/>
		<g>
			
				<linearGradient id="SVGID_00000162311344942384265620000011590353596757291442_" gradientUnits="userSpaceOnUse" x1="3331.4089" y1="977.6851" x2="1342.2432" y2="2597.9348">
				<stop  offset="0" style="stop-color:#CB236D"/>
				<stop  offset="1" style="stop-color:#4C246D"/>
			</linearGradient>
			<path style="fill:url(#SVGID_00000162311344942384265620000011590353596757291442_);" d="M2880.032,561.472
				c55.546,275.129,313.409,1889.423-1157.955,2403.498c0,0-443.338-1019.048,1118.88-2416.562
				C2854.623,536.183,2876.403,543.498,2880.032,561.472z"/>
			<path style="opacity:0.45;fill:#FFFFFF;" d="M2805.567,863.025c-28.668,85.026-59.057,169.357-90.184,253.456
				c-31.163,84.074-63.297,167.791-96.406,251.123c-66.213,166.666-136.162,331.887-211.165,494.861
				c-75.118,162.894-155.029,323.742-243.617,479.959c-44.041,78.238-90.94,154.926-140.738,229.758
				c-49.9,74.743-102.844,147.674-161.484,216.203c-3.465,4.049-9.556,4.522-13.605,1.058c-4.049-3.466-4.523-9.557-1.058-13.605
				l0.032-0.038l0.028-0.032c58.299-67.419,111.236-139.527,161.214-213.561c49.885-74.129,96.977-150.235,141.266-227.974
				c89.083-155.208,169.666-315.309,245.498-477.545c75.723-162.32,146.446-326.991,213.457-493.153
				c33.508-83.082,66.046-166.56,97.618-250.403c31.528-83.846,62.35-168.016,91.393-252.703l0.012-0.036
				c0.732-2.135,3.057-3.273,5.193-2.54C2805.149,858.582,2806.285,860.895,2805.567,863.025z"/>
		</g>
		<g>
			
				<linearGradient id="SVGID_00000141435332430820267960000007931394097793951634_" gradientUnits="userSpaceOnUse" x1="2476.0957" y1="14.0851" x2="1784.5007" y2="2813.4043" gradientTransform="matrix(0.9382 0.346 -0.346 0.9382 968.1708 455.2384)">
				<stop  offset="0" style="stop-color:#A737D5"/>
				<stop  offset="1" style="stop-color:#EF497A"/>
			</linearGradient>
			<path style="fill:url(#SVGID_00000141435332430820267960000007931394097793951634_);" d="M1972.439,3074.821
				c0,0-18.772-273.877,231.684-575.246c232.379-279.619,806.906-929.806,922.114-1271.633c5.103-15.142,27.114-12.774,28.702,3.127
				c17.04,170.561,26.145,601.089-230.731,1052.915C2592.954,2866.637,1972.439,3074.821,1972.439,3074.821z"/>
			<path style="opacity:0.45;fill:#FFFFFF;" d="M3054.025,1542.479c-1.52,37.893-7.753,75.476-16.026,112.47
				c-1.009,4.635-1.928,9.292-3.011,13.91l-3.526,13.782l-7.072,27.579l-8.217,27.257c-2.823,9.06-5.268,18.259-8.643,27.132
				c-24.578,71.835-55.025,141.773-91.427,208.489c-8.42,17.063-18.589,33.131-28.136,49.559l-14.491,24.548
				c-2.47,4.057-4.708,8.262-7.37,12.197l-7.83,11.904l-31.332,47.627c-5.048,8.063-10.922,15.541-16.495,23.234l-16.884,22.961
				l-16.887,22.961l-8.479,11.454l-8.994,11.048l-35.984,44.199c-6.051,7.313-11.879,14.852-18.114,21.98l-18.671,21.417
				l-37.343,42.834l-37.822,42.409c-12.652,14.096-25.167,28.317-38.021,42.228c-25.517,27.998-51.198,55.844-77.186,83.396
				c-25.812,27.722-52.06,55.016-78.165,82.446l-79.135,81.452c-52.797,54.227-105.678,108.336-156.651,164.083
				c-12.941,13.775-25.162,28.14-37.638,42.308c-6.327,7.016-12.154,14.422-18.155,21.696c-5.922,7.334-12.055,14.517-17.81,21.977
				c-11.183,15.151-22.957,29.929-33.052,45.831l-7.877,11.733c-1.285,1.972-2.69,3.875-3.878,5.906l-3.524,6.114l-14.117,24.479
				l-0.054,0.092c-0.565,0.98-1.818,1.317-2.799,0.752c-0.945-0.545-1.289-1.734-0.807-2.696
				c17.099-33.986,37.791-66.021,60.36-96.584c5.629-7.65,11.624-15.005,17.421-22.526c5.872-7.457,11.583-15.06,17.772-22.244
				c12.207-14.516,24.186-29.259,36.847-43.362l18.769-21.371c6.312-7.073,12.782-13.988,19.166-20.989l19.214-20.945l19.411-20.739
				c25.836-27.702,51.979-55.075,77.996-82.559c52.075-54.929,104.148-109.791,155.595-165.221
				c51.516-55.367,102.133-111.536,152.297-168.104l37.238-42.764l18.619-21.382c6.216-7.12,12.034-14.51,18.072-21.752l35.92-43.66
				l8.981-10.916l8.463-11.315l16.86-22.683c45.749-59.925,86.331-123.634,123.515-189.151
				c37.452-65.426,69.069-134.187,94.935-205.034c3.534-8.755,6.116-17.832,9.253-26.727l9.035-26.823l7.904-27.175l3.948-13.598
				c1.225-4.556,2.285-9.154,3.436-13.729c2.192-9.177,4.671-18.301,6.632-27.532l5.66-27.757c3.178-18.6,6.527-37.252,7.797-56.118
				c0.002-0.141,0.118-0.252,0.258-0.25C3053.914,1542.218,3054.024,1542.343,3054.025,1542.479z"/>
		</g>
		<g>
			
				<linearGradient id="SVGID_00000018921077732991246080000001882733528215389594_" gradientUnits="userSpaceOnUse" x1="1468.5707" y1="3078.031" x2="1333.2454" y2="-927.6642">
				<stop  offset="0" style="stop-color:#2B3582"/>
				<stop  offset="1" style="stop-color:#150E42"/>
			</linearGradient>
			<path style="fill:url(#SVGID_00000018921077732991246080000001882733528215389594_);" d="M516.499,967.685
				c0-95.556,77.464-173.02,173.021-173.02h1471.375c81.175,0,148.11,63.614,152.237,144.684l108.609,2133.218
				c3.23,63.44-46.709,116.952-110.221,118.106l-1686.381,30.65c-59.677,1.084-108.639-46.995-108.639-106.682V967.685z"/>
			
				<linearGradient id="SVGID_00000085970512177587142460000005762430272096153753_" gradientUnits="userSpaceOnUse" x1="192.5189" y1="2713.5408" x2="1726.2361" y2="3687.9041">
				<stop  offset="0" style="stop-color:#A737D5"/>
				<stop  offset="1" style="stop-color:#EF497A"/>
			</linearGradient>
			<path style="fill:url(#SVGID_00000085970512177587142460000005762430272096153753_);" d="M871.607,3185.057
				c-0.018,0-0.035,0-0.053,0l-188.696-2.439c-63.096-0.818-114.427-52.819-114.427-115.917v-284.896
				c0-2.227,1.804-4.028,4.028-4.028c2.225,0,4.029,1.802,4.029,4.028v284.896c0,58.712,47.763,107.097,106.475,107.86L871.656,3177
				c2.225,0.027,4.005,1.857,3.977,4.079C875.604,3183.287,873.806,3185.057,871.607,3185.057z"/>
			
				<linearGradient id="SVGID_00000005947631250172191980000008918690463030512288_" gradientUnits="userSpaceOnUse" x1="321.2554" y1="2510.9001" x2="1854.9702" y2="3485.262">
				<stop  offset="0" style="stop-color:#A737D5"/>
				<stop  offset="1" style="stop-color:#EF497A"/>
			</linearGradient>
			<path style="fill:url(#SVGID_00000005947631250172191980000008918690463030512288_);" d="M572.458,2697.586
				c-2.224,0-4.028-1.802-4.028-4.029v-46.139c0-2.227,1.804-4.029,4.028-4.029c2.225,0,4.029,1.802,4.029,4.029v46.139
				C576.487,2695.784,574.683,2697.586,572.458,2697.586z"/>
			<g>
				
					<linearGradient id="SVGID_00000085246787084222360590000001487402481117256120_" gradientUnits="userSpaceOnUse" x1="738.5305" y1="3501.2014" x2="2422.3228" y2="-68.4324">
					<stop  offset="0" style="stop-color:#53D8FF"/>
					<stop  offset="0.2057" style="stop-color:#4DB9FD"/>
					<stop  offset="1" style="stop-color:#3840F7"/>
				</linearGradient>
				<path style="fill:url(#SVGID_00000085246787084222360590000001487402481117256120_);" d="M637.042,827.5
					c-0.18-30.572,26.707-54.234,57.003-50.126c200.93,27.248,891.874,111.521,1463.138,67.668
					c26.052-2,48.661,17.739,50.047,43.831l113.881,2142.727c1.562,29.38-20.873,54.504-50.244,56.242
					c-240.263,14.218-1229.742,69.183-1582.674,32.217c-21.48-2.25-37.785-20.335-37.912-41.932L637.042,827.5z"/>
				<path style="opacity:0.46;fill:#FFFFFF;" d="M660.71,881.195c-0.173-29.421,25.701-52.192,54.856-48.238
					c193.363,26.222,858.289,107.322,1408.043,65.12c25.071-1.924,46.828,17.071,48.162,42.18l109.594,2062.042
					c1.503,28.274-20.088,52.452-48.352,54.125c-231.215,13.683-1183.435,66.578-1523.077,31.003
					c-20.671-2.165-36.362-19.569-36.484-40.353L660.71,881.195z"/>
				<path style="opacity:0.58;fill:#FFFFFF;" d="M2092.174,1188.707H799.732c-5.756,0-10.423-4.666-10.423-10.422v-155.943
					c0-5.756,4.666-10.423,10.423-10.423h1292.442c5.756,0,10.423,4.666,10.423,10.423v155.943
					C2102.596,1184.041,2097.93,1188.707,2092.174,1188.707z"/>
				<path style="opacity:0.58;fill:#FFFFFF;" d="M2118.303,2016.24H792.265c-3.237,0-5.862-2.624-5.862-5.862v-76.671
					c0-3.237,2.624-5.862,5.862-5.862h1326.038c3.237,0,5.862,2.624,5.862,5.862v76.671
					C2124.165,2013.616,2121.54,2016.24,2118.303,2016.24z"/>
				<path style="opacity:0.58;fill:#FFFFFF;" d="M2119.885,2152.62H790.683c-2.364,0-4.279-1.916-4.279-4.28v-79.835
					c0-2.364,1.916-4.28,4.279-4.28h1329.203c2.364,0,4.28,1.916,4.28,4.28v79.835
					C2124.165,2150.704,2122.249,2152.62,2119.885,2152.62z"/>
				<path style="opacity:0.58;fill:#FFFFFF;" d="M2148.067,2931.338H792.675c-2.85,0-5.161-2.311-5.161-5.161v-78.073
					c0-2.85,2.311-5.161,5.161-5.161h1355.392c2.85,0,5.161,2.311,5.161,5.161v78.073
					C2153.228,2929.028,2150.917,2931.338,2148.067,2931.338z"/>
				<path style="opacity:0.25;fill:#FFFFFF;" d="M2090.609,1835.244H818.474c-17.712,0-32.071-14.359-32.071-32.071v-476.326
					c0-17.712,14.359-32.071,32.071-32.071h1250.565c17.148,0,31.262,13.49,32.038,30.62l21.57,476.326
					C2123.474,1819.985,2108.89,1835.244,2090.609,1835.244z"/>
				<path style="fill:#FFFFFF;" d="M2091.351,1840.229H819.217c-20.432,0-37.056-16.622-37.056-37.054v-476.327
					c0-20.433,16.624-37.058,37.056-37.058h1250.564c19.86,0,36.12,15.541,37.019,35.383l21.57,476.327
					c0.463,10.202-3.169,19.891-10.228,27.275C2111.082,1836.162,2101.567,1840.229,2091.351,1840.229z M819.217,1299.761
					c-14.934,0-27.085,12.153-27.085,27.087v476.327c0,14.934,12.151,27.083,27.085,27.083h1272.134
					c7.469,0,14.423-2.973,19.582-8.371c5.159-5.398,7.813-12.48,7.475-19.936l-21.57-476.33
					c-0.656-14.499-12.542-25.86-27.057-25.86H819.217z"/>
				<path style="opacity:0.25;fill:#FFFFFF;" d="M2110.943,2789.024H828.192c-22.466,0-40.678-18.212-40.678-40.678v-459.112
					c0-22.466,18.212-40.678,40.678-40.678h1264.953c21.853,0,39.801,17.266,40.647,39.102l17.798,459.112
					C2152.484,2769.837,2134.027,2789.024,2110.943,2789.024z"/>
				<path style="fill:#FFFFFF;" d="M2110.943,2794.01H828.193c-25.18,0-45.664-20.485-45.664-45.663v-459.115
					c0-25.178,20.484-45.662,45.664-45.662h1264.953c24.631,0,44.674,19.28,45.63,43.893l17.797,459.115
					c0.485,12.522-4.033,24.393-12.72,33.426C2135.163,2789.037,2123.477,2794.01,2110.943,2794.01z M828.193,2253.541
					c-19.681,0-35.693,16.012-35.693,35.691v459.115c0,19.679,16.012,35.691,35.693,35.691h1282.75
					c9.796,0,18.931-3.888,25.723-10.948c6.79-7.06,10.322-16.339,9.942-26.129l-17.797-459.108
					c-0.747-19.241-16.413-34.312-35.665-34.312H828.193z"/>
				
					<rect x="1182.126" y="1294.738" transform="matrix(0.9999 -0.0166 0.0166 0.9999 -25.8347 19.9367)" style="fill:#FFFFFF;" width="9.973" height="540.543"/>
				
					<rect x="1674.353" y="1294.677" transform="matrix(0.9996 -0.027 0.027 0.9996 -41.6299 45.8979)" style="fill:#FFFFFF;" width="9.972" height="540.665"/>
				
					<rect x="1187.062" y="1453.87" transform="matrix(0.9999 -0.0147 0.0147 0.9999 -21.1963 24.2911)" style="fill:#FFFFFF;" width="920.544" height="9.972"/>
				<rect x="1189.015" y="1664.6" style="fill:#FFFFFF;" width="927.324" height="9.971"/>
				
					<rect x="915.735" y="2513.804" transform="matrix(0.0124 -0.9999 0.9999 0.0124 -1347.2711 3673.5457)" style="fill:#FFFFFF;" width="540.51" height="9.972"/>
				<rect x="1192.339" y="2372.556" style="fill:#FFFFFF;" width="947.266" height="9.971"/>
				<rect x="1185.692" y="2502.182" style="fill:#FFFFFF;" width="957.237" height="9.971"/>
				
					<rect x="1662.594" y="2168.877" transform="matrix(0.0125 -0.9999 0.9999 0.0125 -1002.3972 4283.7866)" style="fill:#FFFFFF;" width="9.972" height="961.011"/>
			</g>
			
				<linearGradient id="SVGID_00000053520909192999726120000014058991528681364128_" gradientUnits="userSpaceOnUse" x1="1680.6228" y1="284.1833" x2="1003.8427" y2="1174.4717">
				<stop  offset="0" style="stop-color:#2B3582"/>
				<stop  offset="1" style="stop-color:#150E42"/>
			</linearGradient>
			<path style="fill:url(#SVGID_00000053520909192999726120000014058991528681364128_);" d="M1516.463,503.812
				c-53.148-36.975-99.361-36.242-131.893-26.643c-29.676,8.756-48.91,37.408-46.088,68.22l14.03,153.132l166.945,14.816
				C1519.457,713.337,1620.695,576.324,1516.463,503.812z M1443.047,627.352c-22.99,0-41.627-18.637-41.627-41.627
				s18.637-41.628,41.627-41.628c22.991,0,41.628,18.637,41.628,41.628S1466.037,627.352,1443.047,627.352z"/>
			<path style="fill:#FFFFFF;" d="M1369.188,634.105c-2.059,0-3.816-1.57-4.007-3.663l-2.235-24.387
				c-0.204-2.215,1.428-4.174,3.643-4.379c2.26-0.212,4.178,1.428,4.378,3.647l2.234,24.387c0.205,2.215-1.428,4.174-3.643,4.379
				C1369.435,634.101,1369.31,634.105,1369.188,634.105z M1364.81,586.314c-2.059,0-3.816-1.57-4.007-3.663l-1.698-18.513
				c-2.691-29.352,15.779-56.682,43.914-64.987c19.926-5.882,40.456-6.723,61.015-2.506c2.179,0.444,3.584,2.577,3.137,4.756
				c-0.447,2.176-2.559,3.568-4.754,3.135c-19.259-3.942-38.473-3.159-57.118,2.341c-24.456,7.219-40.511,30.992-38.172,56.528
				l1.697,18.513c0.205,2.215-1.428,4.174-3.643,4.379C1365.056,586.31,1364.932,586.314,1364.81,586.314z"/>
			
				<linearGradient id="SVGID_00000111880499334762398230000001040460133248958371_" gradientUnits="userSpaceOnUse" x1="1754.8605" y1="340.6154" x2="1078.0796" y2="1230.9048">
				<stop  offset="0" style="stop-color:#2B3582"/>
				<stop  offset="1" style="stop-color:#150E42"/>
			</linearGradient>
			<path style="fill:url(#SVGID_00000111880499334762398230000001040460133248958371_);" d="M1124.662,797.482v-76.99
				c0-26.577,22.027-47.863,48.589-46.953l530.812,18.187c23.557,0.807,42.634,19.401,44.046,42.93l4.436,73.976L1124.662,797.482z"
				/>
			<path style="fill:#FFFFFF;" d="M1322.588,702.549h-22.827c-2.225,0-4.029-1.802-4.029-4.028c0-2.227,1.804-4.029,4.029-4.029
				h22.827c2.225,0,4.029,1.802,4.029,4.029C1326.616,700.747,1324.813,702.549,1322.588,702.549z"/>
			<path style="fill:#FFFFFF;" d="M1153.392,773.307c-2.224,0-4.028-1.802-4.028-4.029v-31.146c0-24.065,19.577-43.64,43.642-43.64
				h83.925c2.225,0,4.029,1.802,4.029,4.029c0,2.227-1.804,4.028-4.029,4.028h-83.925c-19.621,0-35.585,15.964-35.585,35.584v31.146
				C1157.421,771.505,1155.617,773.307,1153.392,773.307z"/>
			
				<linearGradient id="SVGID_00000148636140876439060760000008636978578026211485_" gradientUnits="userSpaceOnUse" x1="1669.5743" y1="395.0733" x2="1202.2716" y2="1253.1362">
				<stop  offset="0" style="stop-color:#53D8FF"/>
				<stop  offset="0.2057" style="stop-color:#4DB9FD"/>
				<stop  offset="1" style="stop-color:#3840F7"/>
			</linearGradient>
			<path style="fill:url(#SVGID_00000148636140876439060760000008636978578026211485_);" d="M908.378,816.924
				c1.281-26.66,23.269-47.618,49.961-47.619l928.224-0.025c33.377-0.001,61.911,24.018,67.604,56.905l0.786,4.539
				c6.236,36.022-21.498,68.97-58.056,68.97H944.593c-21.879,0-39.314-18.293-38.263-40.146L908.378,816.924z"/>
		</g>
		<g>
			
				<linearGradient id="SVGID_00000157997671568852787260000014437186191787495326_" gradientUnits="userSpaceOnUse" x1="2249.2292" y1="2126.9429" x2="-1597.6267" y2="2745.6921">
				<stop  offset="0" style="stop-color:#CB236D"/>
				<stop  offset="1" style="stop-color:#4C246D"/>
			</linearGradient>
			<path style="fill:url(#SVGID_00000157997671568852787260000014437186191787495326_);" d="M1961.954,2226.056
				c-191.627,108.992-351.6,102.194-532.496,7.127c-11.706-6.152-18.821-18.5-18.191-31.709l0.365-7.653
				c1.114-23.39,25.026-38.66,46.712-29.823c157.078,64.01,275.211,99.113,471.903,2.055c21.65-10.683,47.211,4.111,48.827,28.199v0
				C1979.946,2207.258,1973.285,2219.611,1961.954,2226.056z"/>
			
				<linearGradient id="SVGID_00000150086460875536433030000002349311117152603267_" gradientUnits="userSpaceOnUse" x1="2255.3223" y1="2164.8276" x2="-1591.5317" y2="2783.5764">
				<stop  offset="0" style="stop-color:#CB236D"/>
				<stop  offset="1" style="stop-color:#4C246D"/>
			</linearGradient>
			<path style="fill:url(#SVGID_00000150086460875536433030000002349311117152603267_);" d="M1925.643,2314.382l105.786-149.923
				c3.222-4.566,0.406-10.918-5.141-11.597l-175.223-21.439c-6.52-0.798-11.475,5.736-8.949,11.799
				c40.028,55.529,62.569,112.177,70.706,169.746C1915.05,2318.319,1922.301,2319.119,1925.643,2314.382z"/>
		</g>
		<g>
			
				<linearGradient id="SVGID_00000079457963261923684810000007379740049499827106_" gradientUnits="userSpaceOnUse" x1="1272.5819" y1="1032.2997" x2="2976.8313" y2="932.9055">
				<stop  offset="0" style="stop-color:#CB236D"/>
				<stop  offset="1" style="stop-color:#4C246D"/>
			</linearGradient>
			<path style="fill:url(#SVGID_00000079457963261923684810000007379740049499827106_);" d="M1364.491,1026.031
				c192.915-119.168,357.604-118.137,547.087-27.153c12.262,5.888,20.035,18.315,19.88,31.916l-0.09,7.88
				c-0.274,24.084-24.285,40.671-46.904,32.395c-163.844-59.948-286.58-91.631-485.146,15.459
				c-21.856,11.787-48.681-2.468-51.239-27.168v0C1346.697,1046.023,1353.083,1033.077,1364.491,1026.031z"/>
			
				<linearGradient id="SVGID_00000038400377311927178530000010085631510377982394_" gradientUnits="userSpaceOnUse" x1="1272.7283" y1="1034.8102" x2="2976.9751" y2="935.4161">
				<stop  offset="0" style="stop-color:#CB236D"/>
				<stop  offset="1" style="stop-color:#4C246D"/>
			</linearGradient>
			<path style="fill:url(#SVGID_00000038400377311927178530000010085631510377982394_);" d="M1398.526,933.889l-103.155,158.044
				c-3.142,4.814-0.011,11.238,5.717,11.729l180.91,15.513c6.731,0.577,11.582-6.323,8.76-12.461
				c-43.212-55.588-68.491-112.976-78.999-171.849C1409.267,929.448,1401.785,928.895,1398.526,933.889z"/>
		</g>
		<g>
			<g>
				<g>
					
						<linearGradient id="SVGID_00000078037900691019809260000014444709859096532660_" gradientUnits="userSpaceOnUse" x1="-3814.0562" y1="3162.1338" x2="-3702.5435" y2="3162.1338" gradientTransform="matrix(-1 0 0 1 -752.8245 0)">
						<stop  offset="0" style="stop-color:#2B3582"/>
						<stop  offset="1" style="stop-color:#150E42"/>
					</linearGradient>
					<path style="fill:url(#SVGID_00000078037900691019809260000014444709859096532660_);" d="M3045.708,3122.84
						c0,0,12.391,19.532,15.509,74.218c0.29,5.095-3.746,9.436-8.849,9.436h-96.913c-3.9,0-6.682-3.823-5.434-7.517
						c5.679-16.808,22.85-57.788,61.163-81.204L3045.708,3122.84z"/>
					
						<linearGradient id="SVGID_00000134218025477362435610000004896570405408679335_" gradientUnits="userSpaceOnUse" x1="-3802.7439" y1="3110.3152" x2="-3757.5186" y2="3110.3152" gradientTransform="matrix(-1 0 0 1 -752.8245 0)">
						<stop  offset="0" style="stop-color:#F9B776"/>
						<stop  offset="1" style="stop-color:#F47960"/>
					</linearGradient>
					<path style="fill:url(#SVGID_00000134218025477362435610000004896570405408679335_);" d="M3049.919,3085.785l-5.481,45.961
						c-0.473,3.965-3.581,7.139-7.548,7.597c-5.3,0.61-13.005,1.041-20.492-0.194c-6.806-1.123-11.704-7.184-11.704-14.083v-44.376
						L3049.919,3085.785z"/>
					
						<linearGradient id="SVGID_00000046299493041827857620000007283409743275484301_" gradientUnits="userSpaceOnUse" x1="-3576.9119" y1="3160.3508" x2="-3401.9438" y2="3160.3508" gradientTransform="matrix(-1 0 0 1 -752.8245 0)">
						<stop  offset="0" style="stop-color:#2B3582"/>
						<stop  offset="1" style="stop-color:#150E42"/>
					</linearGradient>
					<path style="fill:url(#SVGID_00000046299493041827857620000007283409743275484301_);" d="M2805.928,3117.773
						c0,0,18.55,28.832,18.153,68.408c-0.094,9.322-7.898,16.747-17.221,16.747h-150.516c-7.048,0-9.909-9.056-4.142-13.107
						c28.482-20.001,84.463-57.364,124.952-72.049H2805.928z"/>
					
						<linearGradient id="SVGID_00000023255805261265017800000004919912815586519722_" gradientUnits="userSpaceOnUse" x1="-3574.2537" y1="3090.2332" x2="-3529.2769" y2="3090.2332" gradientTransform="matrix(-1 0 0 1 -752.8245 0)">
						<stop  offset="0" style="stop-color:#F9B776"/>
						<stop  offset="1" style="stop-color:#F47960"/>
					</linearGradient>
					<path style="fill:url(#SVGID_00000023255805261265017800000004919912815586519722_);" d="M2821.429,3068.137l-11.692,56.764
						c-1.307,6.349-7.519,10.618-13.845,9.206c-3.847-0.858-8.384-2.502-13.232-5.534c-4.608-2.881-6.943-8.362-6.002-13.714
						l12.094-68.769L2821.429,3068.137z"/>
					
						<linearGradient id="SVGID_00000178176332096393645340000017880916604624001191_" gradientUnits="userSpaceOnUse" x1="-3830.8447" y1="2691.2791" x2="-3524.2249" y2="2691.2791" gradientTransform="matrix(-1 0 0 1 -752.8245 0)">
						<stop  offset="0" style="stop-color:#2B3582"/>
						<stop  offset="1" style="stop-color:#150E42"/>
					</linearGradient>
					<path style="fill:url(#SVGID_00000178176332096393645340000017880916604624001191_);" d="M3028.444,2278.917
						c0,0,40.652,35.84,48.303,78.961c7.651,43.12-21.676,743.964-21.676,743.964s-40.651,6.763-61.606-5.935
						c0,0-24.854-454.843-43.746-559.946c0,0-99.075,471.158-126.526,556.29c0,0-39.163,4.764-51.792-2.688
						c0,0,25.952-610.751,58.563-719.334L3028.444,2278.917z"/>
					<path style="fill:#666694;" d="M2950.904,2520.842c-0.345,0-0.69-0.042-1.036-0.133c-2.178-0.568-3.484-2.797-2.916-4.974
						l17.268-66.239c0.26-0.993,0.882-1.851,1.742-2.406l37.308-23.931c1.907-1.219,4.425-0.664,5.635,1.233
						c1.216,1.896,0.669,4.419-1.227,5.635l-35.969,23.07l-16.863,64.694C2954.368,2519.626,2952.716,2520.842,2950.904,2520.842z"
						/>
					
						<linearGradient id="SVGID_00000073715582755588765250000002204291397793779121_" gradientUnits="userSpaceOnUse" x1="-1783.0848" y1="1429.3236" x2="-2348.157" y2="2654.8684" gradientTransform="matrix(-1 0 0 1 652.0643 0)">
						<stop  offset="0" style="stop-color:#FDF53F"/>
						<stop  offset="1" style="stop-color:#D93C65"/>
					</linearGradient>
					<path style="fill:url(#SVGID_00000073715582755588765250000002204291397793779121_);" d="M2627.275,1873.956
						c171.133-14.207,215.861,21.207,215.861,21.207l-82.24,129.833c0,0-168.155-3.322-288.643-96.189
						c22.549-24.285,38.21-51.123,48.254-72.021C2551.577,1869.698,2587.356,1877.269,2627.275,1873.956z"/>
					
						<linearGradient id="SVGID_00000098194025473009322030000002181192903215590536_" gradientUnits="userSpaceOnUse" x1="-3273.3313" y1="1773.2666" x2="-3106.1765" y2="1773.2666" gradientTransform="matrix(-1 0 0 1 -752.8245 0)">
						<stop  offset="0" style="stop-color:#F9B776"/>
						<stop  offset="1" style="stop-color:#F47960"/>
					</linearGradient>
					<path style="fill:url(#SVGID_00000098194025473009322030000002181192903215590536_);" d="M2359.284,1622.757
						c0.23-5.484,7.662-6.976,9.992-2.006l21.837,46.597c4.218,9.004,5.571,19.085,3.874,28.882l-7.66,27.121
						c-2.291,13.227,1.164,26.778,9.548,37.261c20.064,25.084,62.797,70.896,123.631,96.174
						c-10.044,20.898-25.705,47.736-48.254,72.021c-44.21-34.074-82.012-80.189-102.724-142.64
						c-9.923-3.048-16.553-12.391-16.16-22.764L2359.284,1622.757z"/>
					
						<linearGradient id="SVGID_00000054231494273449064700000005671471512727951791_" gradientUnits="userSpaceOnUse" x1="-1957.4594" y1="1997.0504" x2="-3212.3599" y2="2987.7627" gradientTransform="matrix(-1 0 0 1 652.0643 0)">
						<stop  offset="0" style="stop-color:#FDF53F"/>
						<stop  offset="1" style="stop-color:#D93C65"/>
					</linearGradient>
					<path style="fill:url(#SVGID_00000054231494273449064700000005671471512727951791_);" d="M2570.945,1949.229
						c60.245-64.917,174.998-94.246,241.437-106.293c29.107-5.278,57.798,10.919,68.112,38.644
						c29.898,80.373,111.214,289.472,126.975,325.411c12.931,29.483,26.433,58.278,35.012,76.281
						c5.125,10.755,0.647,23.625-10.085,28.798c-55.898,26.943-156.48,57.426-197.257,69.318
						c-8.969,2.616-17.901-4.118-17.901-13.461c0-7.923-2.154-15.7-6.231-22.493l-154.433-257.351
						c-96.257,106.728-180.552,116.487-245.307,93.127c10.888-33.651,18.013-67.364,21.43-101.141
						C2528.362,2063.68,2570.945,1949.229,2570.945,1949.229z"/>
					
						<linearGradient id="SVGID_00000006699983950841184450000003044550202562557589_" gradientUnits="userSpaceOnUse" x1="-2854.2356" y1="1764.8386" x2="-3263.0251" y2="2273.4121" gradientTransform="matrix(-1 0 0 1 -752.8245 0)">
						<stop  offset="0" style="stop-color:#F9B776"/>
						<stop  offset="1" style="stop-color:#F47960"/>
					</linearGradient>
					<path style="fill:url(#SVGID_00000006699983950841184450000003044550202562557589_);" d="M2247.644,2043.278l31.274-18.282
						c55.892,38.385,115.534,61.624,153.78,55.071c-3.418,33.777-10.543,67.49-21.43,101.141
						C2325.957,2150.434,2247.644,2043.278,2247.644,2043.278z"/>
					
						<linearGradient id="SVGID_00000099653397852619873250000013668030562517758382_" gradientUnits="userSpaceOnUse" x1="-2865.2966" y1="1927.4075" x2="-3098.6604" y2="2217.7344" gradientTransform="matrix(-1 0 0 1 -752.8245 0)">
						<stop  offset="0" style="stop-color:#F9B776"/>
						<stop  offset="1" style="stop-color:#F47960"/>
					</linearGradient>
					<path style="fill:url(#SVGID_00000099653397852619873250000013668030562517758382_);" d="M2099.115,2049.859
						c19.449-10.584,77.159-19.688,77.159-19.688s66.335-38.809,85.431-46.448c15.86-6.345,22.686,17.376,24.544,25.597
						c0.38,1.677,0.552,2.709,0.552,2.709l-2.454,15.776l-67.014,29.783c-14.344,6.375-30.171,8.671-45.738,6.634l-71.552-9.361
						c-1.149-0.151-2.07-1.024-2.283-2.164C2097.551,2051.558,2098.097,2050.413,2099.115,2049.859z"/>
					
						<linearGradient id="SVGID_00000036226912853608587340000013228974935071393975_" gradientUnits="userSpaceOnUse" x1="-3301.1614" y1="1538.1532" x2="-3650.9617" y2="2180.8765" gradientTransform="matrix(-1 0 0 1 -752.8245 0)">
						<stop  offset="0" style="stop-color:#F9B776"/>
						<stop  offset="1" style="stop-color:#F47960"/>
					</linearGradient>
					<path style="fill:url(#SVGID_00000036226912853608587340000013228974935071393975_);" d="M2720.997,1723.713l51.318,125.229
						c0,0-58.966,40.814-106.404,36.929l-25.612-112.603L2720.997,1723.713z"/>
					<g>
						
							<linearGradient id="SVGID_00000178922102893176550910000012501784102107429505_" gradientUnits="userSpaceOnUse" x1="-2912.9226" y1="1719.9264" x2="-3067.5142" y2="1924.4385" gradientTransform="matrix(-0.817 -0.5767 -0.5767 0.817 1270.6034 -1428.4956)">
							<stop  offset="0" style="stop-color:#F9B776"/>
							<stop  offset="1" style="stop-color:#F47960"/>
						</linearGradient>
						<path style="fill:url(#SVGID_00000178922102893176550910000012501784102107429505_);" d="M2634.309,1638.341
							c-1.175,1.665-37.125,131.54-37.125,131.54l74.593,18.951l52.362-118.032
							C2724.137,1670.8,2653.986,1610.464,2634.309,1638.341z"/>
						
							<linearGradient id="SVGID_00000029747399546270845480000008480510010187107503_" gradientUnits="userSpaceOnUse" x1="-3030.9863" y1="1769.2596" x2="-2846.3237" y2="1769.2596" gradientTransform="matrix(-0.817 -0.5767 -0.5767 0.817 1270.6034 -1428.4956)">
							<stop  offset="0" style="stop-color:#2B3582"/>
							<stop  offset="1" style="stop-color:#150E42"/>
						</linearGradient>
						<path style="fill:url(#SVGID_00000029747399546270845480000008480510010187107503_);" d="M2696.048,1688.733l-22.698,64.293
							c-0.292,0.824-0.681,1.586-1.184,2.302c-3.081,4.377-14.782,18.656-28.662,5.794c-12.595-11.672-24.262-22.136-35.038-24.037
							c-4.838-0.852-9.525,2.1-10.834,6.836c-3.263,11.8-10.125,38.529-12.544,62.66c-0.49,4.897,2.89,9.323,7.726,10.241
							c14.569,2.767,45.458,7.742,71.247,5.924c3.494-0.246,6.57-2.343,8.027-5.528c7.106-15.529,28.881-62.647,36.979-74.839
							c7.602-11.442,26.236-11.121,34.051-10.429c2.562,0.227,5.082-0.598,7.016-2.294c6.837-5.993,19.849-21.293,1.545-39.609
							c-3.831-3.833-3.728-10.017,0.22-13.73c7.86-7.39,16.267-20.498,3.171-36.755c-13.311-16.524-30.882-13.894-41.648-9.966
							c-4.353,1.589-9.102-0.251-11.467-4.236c-1.347-2.267-3.697-3.984-7.772-3.634c-5.49,0.472-10.107-4.11-10.009-9.619
							c0.191-10.586-3.599-23.96-21.962-29.675c-32.585-10.142-52.905,21.338-54.918,44.829
							c-2.012,23.49,33.941,32.477,55.083,30.893c16.075-1.204,28.009,14.728,32.806,22.434
							C2696.702,1683.028,2697.006,1686.021,2696.048,1688.733z"/>
						
							<linearGradient id="SVGID_00000033369186963661281040000004139374324711236789_" gradientUnits="userSpaceOnUse" x1="-3139.3396" y1="1881.8842" x2="-3015.3435" y2="1754.6676" gradientTransform="matrix(-0.817 -0.5767 -0.5767 0.817 1270.6034 -1428.4956)">
							<stop  offset="0" style="stop-color:#F9B776"/>
							<stop  offset="1" style="stop-color:#F47960"/>
						</linearGradient>
						<path style="fill:url(#SVGID_00000033369186963661281040000004139374324711236789_);" d="M2700.569,1765.705
							c0,0,5.264-40.78,22.228-42.778c16.964-1.998,33.476,11.944,16.61,34.834
							C2718.428,1786.232,2700.569,1765.705,2700.569,1765.705z"/>
					</g>
				</g>
			</g>
			<g>
				<g>
					<g>
						
							<linearGradient id="SVGID_00000107558629775482707850000003157440678429532558_" gradientUnits="userSpaceOnUse" x1="2132.6797" y1="1202.2941" x2="1625.2004" y2="2278.1484">
							<stop  offset="0" style="stop-color:#50E7B7"/>
							<stop  offset="0.9964" style="stop-color:#323992"/>
						</linearGradient>
						<polygon style="fill:url(#SVGID_00000107558629775482707850000003157440678429532558_);" points="2465.312,2010.738 
							1296.178,2014.503 1294.411,1465.799 2463.544,1462.034 						"/>
						<path style="opacity:0.5;fill:#FFFFFF;" d="M2399.365,1578.228l1.005,311.91c-25.104,0.081-45.976,24.357-45.886,52.156
							c0.003,0.883,0.185,0.659,0.241,4.246l-943.683,3.039c0.033-3.587,0.078-3.364,0.075-4.246
							c-0.09-27.8-20.672-51.099-46.197-51.016c-0.375,0.001-0.99-0.796-0.99-0.796l-0.982-304.89
							c43.035-0.138,47.109-29.257,47.019-57.056c-0.002-0.883-0.231-1.592-0.276-1.592l943.682-3.039
							c-0.044,0-0.225,0.711-0.222,1.594C2353.24,1556.336,2374.26,1578.309,2399.365,1578.228z"/>
						<g>
							
								<linearGradient id="SVGID_00000058582187024553691260000007578051125872018308_" gradientUnits="userSpaceOnUse" x1="8376.4355" y1="5759.7012" x2="8258.9033" y2="7271.9531" gradientTransform="matrix(1 -0.0032 0.0032 1 -6505.1274 -4117.8735)">
								<stop  offset="0" style="stop-color:#50E7B7"/>
								<stop  offset="0.9964" style="stop-color:#323992"/>
							</linearGradient>
							
								<circle style="fill:url(#SVGID_00000058582187024553691260000007578051125872018308_);" cx="1880.72" cy="1736.076" r="171.494"/>
							<g>
								<path style="fill:#FFFFFF;" d="M1863.755,1851.814l-0.058-18.134c-18.906-0.697-37.618-5.098-50.917-10.868
									c-4.748-2.06-7.184-7.375-5.837-12.373l4.552-16.906c1.67-6.201,8.399-9.428,14.33-6.965
									c13.192,5.48,29.471,9.797,47.011,9.741c18.208-0.059,31.766-6.275,31.725-18.929c-0.036-11.418-10.55-18.173-35.878-24.88
									c-36.139-9.759-62.113-25.415-62.215-57.201c-0.092-28.702,20.823-50.68,57.219-56.66l-0.058-18.136
									c-0.019-5.835,4.696-10.58,10.532-10.599l10.654-0.034c5.836-0.019,10.581,4.697,10.6,10.532l0.053,16.282
									c17.495,0.644,30.237,3.594,40.354,7.113c5.183,1.802,8.03,7.37,6.61,12.671l-4.186,15.635
									c-1.614,6.029-8.042,9.349-13.887,7.161c-9.314-3.488-22.48-7.109-39.578-7.054c-21.603,0.069-27.745,9.039-27.72,17.063
									c0.032,9.875,13.015,16.622,41.125,25.174c40.158,11.907,56.876,28.517,56.972,58.452
									c0.088,27.465-20.199,52.22-59.681,58.52l0.066,20.294c0.018,5.835-4.697,10.581-10.532,10.6l-10.655,0.034
									C1868.52,1862.365,1863.774,1857.649,1863.755,1851.814z"/>
							</g>
						</g>
					</g>
					<path style="fill:#FFFFFF;" d="M1326.759,1606.401c-0.101-0.26-0.158-0.543-0.16-0.839l-0.34-105.796
						c-0.002-1.29,1.036-2.336,2.326-2.34l285.108-0.918c1.289-0.006,2.346,1.033,2.341,2.323c0.003,1.29-1.036,2.336-2.325,2.34
						l-282.778,0.91l0.336,103.463c0.002,1.29-1.036,2.336-2.326,2.34C1327.949,1607.89,1327.098,1607.272,1326.759,1606.401z"/>
					<path style="fill:#FFFFFF;" d="M2143.846,1978.544c-0.101-0.26-0.158-0.543-0.16-0.838c-0.003-1.29,1.037-2.336,2.325-2.34
						l282.781-0.911l-0.336-103.464c-0.002-1.29,1.036-2.336,2.325-2.34c1.289-0.006,2.344,1.028,2.341,2.323l0.341,105.797
						c0,0.62-0.244,1.214-0.679,1.653c-0.436,0.437-1.027,0.686-1.647,0.687l-285.112,0.919
						C2145.036,1980.032,2144.186,1979.415,2143.846,1978.544z"/>
				</g>
				<g>
					<g>
						
							<linearGradient id="SVGID_00000155118343970961020560000013382612119330069641_" gradientUnits="userSpaceOnUse" x1="2261.5278" y1="717.8392" x2="1586.6156" y2="2478.7">
							<stop  offset="0" style="stop-color:#50E7B7"/>
							<stop  offset="0.9964" style="stop-color:#323992"/>
						</linearGradient>
						<polygon style="fill:url(#SVGID_00000155118343970961020560000013382612119330069641_);" points="2450.529,2024.654 
							1281.395,2028.42 1279.628,1479.715 2448.761,1475.951 						"/>
						<path style="opacity:0.5;fill:#FFFFFF;" d="M2384.582,1592.145l1.005,311.91c-25.104,0.081-45.976,24.357-45.886,52.156
							c0.003,0.883,0.185,0.659,0.241,4.246l-943.683,3.039c0.033-3.587,0.078-3.364,0.075-4.246
							c-0.09-27.8-20.672-51.099-46.197-51.016c-0.375,0.001-0.99-0.796-0.99-0.796l-0.982-304.89
							c43.035-0.138,47.109-29.257,47.019-57.056c-0.002-0.883-0.231-1.592-0.276-1.592l943.682-3.039
							c-0.044,0-0.225,0.711-0.222,1.594C2338.457,1570.252,2359.478,1592.225,2384.582,1592.145z"/>
						<g>
							
								<linearGradient id="SVGID_00000147198571019275996610000009568969950306141081_" gradientUnits="userSpaceOnUse" x1="8361.6074" y1="5773.5703" x2="8244.0752" y2="7285.8228" gradientTransform="matrix(1 -0.0032 0.0032 1 -6505.1274 -4117.8735)">
								<stop  offset="0" style="stop-color:#50E7B7"/>
								<stop  offset="0.9964" style="stop-color:#323992"/>
							</linearGradient>
							
								<circle style="fill:url(#SVGID_00000147198571019275996610000009568969950306141081_);" cx="1865.937" cy="1749.992" r="171.494"/>
							<g>
								<path style="fill:#FFFFFF;" d="M1848.972,1865.73l-0.058-18.134c-18.906-0.697-37.618-5.098-50.917-10.868
									c-4.749-2.06-7.184-7.375-5.837-12.373l4.552-16.906c1.67-6.201,8.399-9.428,14.33-6.965
									c13.192,5.48,29.471,9.797,47.01,9.741c18.208-0.059,31.767-6.275,31.726-18.929c-0.036-11.418-10.55-18.173-35.878-24.88
									c-36.139-9.759-62.113-25.415-62.215-57.201c-0.092-28.702,20.823-50.68,57.219-56.66l-0.058-18.136
									c-0.019-5.835,4.696-10.58,10.532-10.599l10.654-0.034c5.836-0.019,10.581,4.697,10.6,10.532l0.053,16.282
									c17.495,0.644,30.237,3.594,40.354,7.113c5.183,1.802,8.03,7.37,6.611,12.671l-4.186,15.635
									c-1.614,6.029-8.042,9.349-13.887,7.161c-9.314-3.488-22.48-7.109-39.577-7.054c-21.603,0.069-27.745,9.039-27.72,17.063
									c0.032,9.875,13.015,16.622,41.125,25.174c40.158,11.907,56.876,28.517,56.972,58.452
									c0.088,27.465-20.199,52.22-59.681,58.52l0.066,20.294c0.018,5.835-4.697,10.581-10.532,10.6l-10.655,0.034
									C1853.737,1876.281,1848.991,1871.566,1848.972,1865.73z"/>
							</g>
						</g>
					</g>
					<path style="fill:#FFFFFF;" d="M1311.976,1620.318c-0.101-0.26-0.158-0.543-0.16-0.839l-0.34-105.796
						c-0.003-1.29,1.036-2.336,2.326-2.34l285.108-0.917c1.288-0.006,2.346,1.033,2.341,2.323c0.002,1.29-1.036,2.336-2.326,2.34
						l-282.778,0.91l0.336,103.463c0.002,1.29-1.036,2.336-2.326,2.34C1313.166,1621.806,1312.315,1621.189,1311.976,1620.318z"/>
					<path style="fill:#FFFFFF;" d="M2129.063,1992.46c-0.101-0.26-0.158-0.543-0.16-0.838c-0.002-1.29,1.037-2.336,2.326-2.34
						l282.781-0.911l-0.336-103.464c-0.002-1.289,1.037-2.336,2.326-2.34c1.289-0.006,2.344,1.028,2.341,2.323l0.341,105.797
						c0.001,0.62-0.244,1.214-0.679,1.653c-0.436,0.437-1.027,0.686-1.647,0.687l-285.112,0.919
						C2130.253,1993.949,2129.403,1993.332,2129.063,1992.46z"/>
				</g>
				<g>
					<g>
						<g>
							
								<linearGradient id="SVGID_00000177481066976087241240000001797613224087833771_" gradientUnits="userSpaceOnUse" x1="8238.2236" y1="4364.6006" x2="8268.0859" y2="5140.9961" gradientTransform="matrix(1 -0.0051 0.0051 1 -6405.3662 -2483.0244)">
								<stop  offset="0" style="stop-color:#50E7B7"/>
								<stop  offset="0.9964" style="stop-color:#323992"/>
							</linearGradient>
							<polygon style="fill:url(#SVGID_00000177481066976087241240000001797613224087833771_);" points="2437.999,2040.373 
								1268.875,2046.315 1266.086,1497.616 2435.21,1491.673 							"/>
							<path style="opacity:0.5;fill:#FFFFFF;" d="M2371.25,1608.52l1.586,311.908c-25.104,0.128-46.199,24.177-46.058,51.976
								c0.004,0.883-0.082,0.393-0.02,3.979l-943.675,4.797c0.027-3.587,0.073-3.097,0.069-3.98
								c-0.141-27.799-20.5-50.927-46.024-50.797c-0.375,0.002-0.724-0.663-0.724-0.663l-1.55-304.887
								c43.035-0.219,46.786-29.61,46.644-57.41c-0.005-0.883-0.503-1.857-0.547-1.857l943.675-4.797
								c-0.044,0,0.044,0.977,0.049,1.859C2324.816,1586.448,2346.146,1608.647,2371.25,1608.52z"/>
							<g>
								
									<linearGradient id="SVGID_00000048459386930629049350000002674408243491669912_" gradientUnits="userSpaceOnUse" x1="8245.2471" y1="4171.3413" x2="8127.7158" y2="5683.5815" gradientTransform="matrix(1 -0.0051 0.0051 1 -6405.3662 -2483.0244)">
									<stop  offset="0" style="stop-color:#50E7B7"/>
									<stop  offset="0.9964" style="stop-color:#323992"/>
								</linearGradient>
								
									<circle style="fill:url(#SVGID_00000048459386930629049350000002674408243491669912_);" cx="1852.366" cy="1767.336" r="171.494"/>
								<g>
									<path style="fill:#FFFFFF;" d="M1835.627,1883.115l-0.092-18.133c-18.908-0.661-37.628-5.027-50.937-10.773
										c-4.753-2.052-7.197-7.362-5.86-12.363l4.52-16.914c1.658-6.205,8.381-9.444,14.317-6.991
										c13.202,5.456,29.489,9.742,47.029,9.653c18.207-0.093,31.754-6.334,31.69-18.988
										c-0.058-11.417-10.584-18.153-35.925-24.813c-36.157-9.691-62.16-25.299-62.321-57.085
										c-0.146-28.702,20.729-50.719,57.113-56.766l-0.092-18.136c-0.029-5.835,4.677-10.589,10.512-10.619l10.654-0.054
										c5.836-0.03,10.59,4.677,10.619,10.512l0.083,16.282c17.496,0.611,30.244,3.538,40.367,7.038
										c5.186,1.792,8.044,7.355,6.634,12.658l-4.157,15.643c-1.603,6.032-8.024,9.365-13.874,7.187
										c-9.321-3.471-22.493-7.068-39.591-6.981c-21.602,0.11-27.728,9.09-27.688,17.115c0.05,9.875,13.046,16.597,41.173,25.097
										c40.18,11.831,56.928,28.411,57.08,58.346c0.14,27.466-20.102,52.258-59.571,58.632l0.103,20.294
										c0.03,5.835-4.677,10.59-10.512,10.62l-10.656,0.055C1840.411,1893.657,1835.656,1888.951,1835.627,1883.115z"/>
								</g>
							</g>
						</g>
						<path style="fill:#FFFFFF;" d="M1295.465,1638.788c-0.321-0.397-0.513-0.903-0.516-1.454l-0.538-105.793
							c-0.003-0.618,0.239-1.213,0.675-1.651c0.434-0.44,1.027-0.69,1.645-0.692l288.695-1.468c1.285-0.002,2.332,1.036,2.344,2.322
							c0.008,1.287-1.03,2.336-2.32,2.344l-286.364,1.456l0.527,103.461c0.008,1.287-1.03,2.336-2.32,2.344
							C1296.556,1639.659,1295.895,1639.321,1295.465,1638.788z"/>
						<path style="fill:#FFFFFF;" d="M2116.833,2009.39c-0.321-0.397-0.513-0.902-0.517-1.454c-0.008-1.287,1.031-2.336,2.32-2.344
							l282.778-1.436l-0.528-103.463c-0.008-1.287,1.031-2.336,2.32-2.344c1.284-0.004,2.332,1.036,2.344,2.322l0.539,105.794
							c0.002,0.618-0.239,1.213-0.675,1.652c-0.434,0.44-1.027,0.69-1.645,0.692l-285.109,1.449
							C2117.923,2010.261,2117.262,2009.922,2116.833,2009.39z"/>
					</g>
					<g>
						
							<linearGradient id="SVGID_00000164498596920545604740000000053922523467359935_" gradientUnits="userSpaceOnUse" x1="7880.4819" y1="4451.9961" x2="7891.5225" y2="4140.6606" gradientTransform="matrix(1 -0.0051 0.0051 1 -6405.3662 -2483.0244)">
							<stop  offset="0" style="stop-color:#50E7B7"/>
							<stop  offset="0.9964" style="stop-color:#323992"/>
						</linearGradient>
						<path style="fill:url(#SVGID_00000164498596920545604740000000053922523467359935_);" d="M1550.763,1784.743
							c0.136,26.829-21.502,48.688-48.33,48.824c-26.828,0.136-48.687-21.502-48.824-48.33s21.502-48.688,48.33-48.824
							C1528.767,1736.276,1550.626,1757.915,1550.763,1784.743z"/>
						
							<linearGradient id="SVGID_00000103246335762608000390000013855111406216272041_" gradientUnits="userSpaceOnUse" x1="8610.4277" y1="4477.8936" x2="8621.4678" y2="4166.5576" gradientTransform="matrix(1 -0.0051 0.0051 1 -6405.3662 -2483.0244)">
							<stop  offset="0" style="stop-color:#50E7B7"/>
							<stop  offset="0.9964" style="stop-color:#323992"/>
						</linearGradient>
						
							<circle style="fill:url(#SVGID_00000103246335762608000390000013855111406216272041_);" cx="2233.049" cy="1781.275" r="48.578"/>
					</g>
				</g>
			</g>
			<g>
				<g>
					
						<linearGradient id="SVGID_00000087400133140581473170000005380316799250650785_" gradientUnits="userSpaceOnUse" x1="1582.2657" y1="1403.2346" x2="1719.2302" y2="1244.2582">
						<stop  offset="0" style="stop-color:#FDF53F"/>
						<stop  offset="1" style="stop-color:#D93C65"/>
					</linearGradient>
					
						<circle style="fill:url(#SVGID_00000087400133140581473170000005380316799250650785_);" cx="1721.997" cy="1241.047" r="102.112"/>
					
						<linearGradient id="SVGID_00000105407915265450278350000012766025491735399303_" gradientUnits="userSpaceOnUse" x1="1796.624" y1="1128.3065" x2="1391.6163" y2="1740.1577">
						<stop  offset="0" style="stop-color:#FDF53F"/>
						<stop  offset="1" style="stop-color:#D93C65"/>
					</linearGradient>
					
						<circle style="fill:url(#SVGID_00000105407915265450278350000012766025491735399303_);" cx="1721.997" cy="1241.047" r="98.717"/>
					<path style="fill:#FFFFFF;" d="M1640.593,1203.874c-0.58,0-1.17-0.131-1.724-0.412c-1.891-0.953-2.649-3.26-1.694-5.151
						c16.258-32.213,48.759-52.225,84.822-52.225c5.76,0,11.522,0.519,17.127,1.539c2.083,0.38,3.465,2.376,3.085,4.46
						c-0.378,2.083-2.368,3.46-4.46,3.085c-5.153-0.94-10.453-1.416-15.753-1.416c-33.151,0-63.029,18.398-77.977,48.012
						C1643.345,1203.105,1641.995,1203.874,1640.593,1203.874z"/>
					
						<ellipse transform="matrix(0.7071 -0.7071 0.7071 0.7071 -374.0827 1583.2806)" style="opacity:0.78;fill:#FFFFFF;" cx="1724.147" cy="1243.198" rx="83.552" ry="83.552"/>
					<g>
						
							<linearGradient id="SVGID_00000044876126598465143360000004581596489040378769_" gradientUnits="userSpaceOnUse" x1="1784.5422" y1="1145.8381" x2="1568.8843" y2="1507.8921">
							<stop  offset="0" style="stop-color:#FDF53F"/>
							<stop  offset="1" style="stop-color:#D93C65"/>
						</linearGradient>
						<path style="fill:url(#SVGID_00000044876126598465143360000004581596489040378769_);" d="M1715.948,1305.311v-9.09
							c-9.476-0.379-18.849-2.616-25.505-5.53c-2.377-1.04-3.589-3.708-2.906-6.212l2.309-8.468
							c0.847-3.106,4.225-4.712,7.195-3.468c6.604,2.769,14.757,4.958,23.549,4.958c9.127,0,15.934-3.094,15.934-9.437
							c0-5.723-5.26-9.126-17.945-12.529c-18.099-4.95-31.094-12.84-31.094-28.774c0-14.387,10.52-25.371,28.774-28.309v-9.091
							c0-2.925,2.371-5.296,5.296-5.296h5.341c2.925,0,5.296,2.371,5.296,5.296v8.162c8.769,0.351,15.151,1.85,20.216,3.63
							c2.595,0.912,4.013,3.708,3.293,6.363l-2.123,7.831c-0.819,3.02-4.046,4.673-6.973,3.567c-4.664-1.763-11.257-3.6-19.828-3.6
							c-10.829,0-13.922,4.486-13.922,8.508c0,4.95,6.497,8.353,20.574,12.686c20.111,6.033,28.464,14.386,28.464,29.392
							c0,13.768-10.21,26.144-30.011,29.238v10.173c0,2.925-2.371,5.296-5.296,5.296h-5.341
							C1718.32,1310.608,1715.948,1308.236,1715.948,1305.311z"/>
					</g>
				</g>
				<g>
					
						<linearGradient id="SVGID_00000122681457687259876800000016502287218474371506_" gradientUnits="userSpaceOnUse" x1="1769.4133" y1="1402.2946" x2="2007.8447" y2="1125.5442">
						<stop  offset="0" style="stop-color:#FDF53F"/>
						<stop  offset="1" style="stop-color:#D93C65"/>
					</linearGradient>
					
						<circle style="fill:url(#SVGID_00000122681457687259876800000016502287218474371506_);" cx="2012.661" cy="1119.954" r="177.76"/>
					
						<linearGradient id="SVGID_00000052103603425428550710000012720200472132792983_" gradientUnits="userSpaceOnUse" x1="2142.5742" y1="923.6924" x2="1437.5259" y2="1988.8195">
						<stop  offset="0" style="stop-color:#FDF53F"/>
						<stop  offset="1" style="stop-color:#D93C65"/>
					</linearGradient>
					
						<circle style="fill:url(#SVGID_00000052103603425428550710000012720200472132792983_);" cx="2012.661" cy="1119.954" r="171.849"/>
					<path style="fill:#FFFFFF;" d="M1870.953,1052.403c-0.58,0-1.17-0.131-1.724-0.412c-1.891-0.953-2.649-3.26-1.694-5.151
						c27.821-55.117,83.431-89.356,145.127-89.356c9.84,0,19.701,0.887,29.305,2.636c2.084,0.38,3.466,2.376,3.086,4.459
						c-0.379,2.082-2.368,3.452-4.46,3.085c-9.153-1.668-18.55-2.512-27.931-2.512c-58.787,0-111.772,32.625-138.282,85.143
						C1873.705,1051.633,1872.355,1052.403,1870.953,1052.403z"/>
					
						<ellipse transform="matrix(0.7071 -0.7071 0.7071 0.7071 -203.9832 1754.9375)" style="opacity:0.78;fill:#FFFFFF;" cx="2016.405" cy="1123.698" rx="145.449" ry="145.449"/>
					<g>
						
							<linearGradient id="SVGID_00000170276970398278435980000017289226500357829283_" gradientUnits="userSpaceOnUse" x1="2121.5417" y1="954.2116" x2="1746.1182" y2="1584.4858">
							<stop  offset="0" style="stop-color:#FDF53F"/>
							<stop  offset="1" style="stop-color:#D93C65"/>
						</linearGradient>
						<path style="fill:url(#SVGID_00000170276970398278435980000017289226500357829283_);" d="M2002.132,1231.827v-15.824
							c-16.496-0.661-32.812-4.554-44.401-9.627c-4.138-1.811-6.248-6.455-5.059-10.814l4.02-14.74
							c1.475-5.407,7.355-8.204,12.524-6.037c11.495,4.819,25.69,8.632,40.995,8.632c15.889,0,27.738-5.387,27.738-16.428
							c0-9.964-9.156-15.888-31.239-21.812c-31.507-8.617-54.129-22.352-54.129-50.09c0-25.046,18.313-44.166,50.09-49.282v-15.826
							c0-5.092,4.128-9.22,9.22-9.22h9.297c5.092,0,9.22,4.128,9.22,9.22v14.209c15.264,0.611,26.376,3.221,35.193,6.32
							c4.518,1.587,6.986,6.454,5.733,11.076l-3.697,13.632c-1.426,5.257-7.043,8.136-12.139,6.209
							c-8.118-3.07-19.597-6.267-34.517-6.267c-18.851,0-24.236,7.809-24.236,14.812c0,8.617,11.31,14.542,35.816,22.083
							c35.01,10.502,49.551,25.044,49.551,51.167c0,23.968-17.773,45.512-52.244,50.899v17.709c0,5.093-4.128,9.221-9.22,9.221
							h-9.298C2006.26,1241.047,2002.132,1236.919,2002.132,1231.827z"/>
					</g>
				</g>
				<g>
					
						<linearGradient id="SVGID_00000030450387571746960360000009213033130915434934_" gradientUnits="userSpaceOnUse" x1="1884.9561" y1="1807.5148" x2="2130.2993" y2="1522.7417">
						<stop  offset="0" style="stop-color:#FDF53F"/>
						<stop  offset="1" style="stop-color:#D93C65"/>
					</linearGradient>
					
						<circle style="fill:url(#SVGID_00000030450387571746960360000009213033130915434934_);" cx="2135.255" cy="1516.989" r="182.913"/>
					
						<linearGradient id="SVGID_00000042701681433695755510000008634496989858526624_" gradientUnits="userSpaceOnUse" x1="2268.9341" y1="1315.0383" x2="1543.4479" y2="2411.041">
						<stop  offset="0" style="stop-color:#FDF53F"/>
						<stop  offset="1" style="stop-color:#D93C65"/>
					</linearGradient>
					
						<circle style="fill:url(#SVGID_00000042701681433695755510000008634496989858526624_);" cx="2135.255" cy="1516.989" r="176.83"/>
					<path style="fill:#FFFFFF;" d="M1989.439,1447.368c-0.581,0-1.17-0.131-1.724-0.412c-1.891-0.953-2.649-3.26-1.694-5.151
						c28.609-56.675,85.791-91.884,149.234-91.884c10.125,0,20.262,0.912,30.136,2.709c2.084,0.38,3.464,2.376,3.085,4.46
						c-0.378,2.082-2.365,3.456-4.46,3.085c-9.421-1.715-19.098-2.586-28.762-2.586c-60.532,0-115.092,33.593-142.39,87.671
						C1992.191,1446.599,1990.841,1447.368,1989.439,1447.368z"/>
					
						<ellipse transform="matrix(0.7071 -0.7071 0.7071 0.7071 -448.8679 1958.0221)" style="opacity:0.78;fill:#FFFFFF;" cx="2139.108" cy="1520.843" rx="149.665" ry="149.665"/>
					<g>
						
							<linearGradient id="SVGID_00000053511926835856225490000011787698536438399934_" gradientUnits="userSpaceOnUse" x1="2247.2922" y1="1346.4423" x2="1860.9852" y2="1994.9875">
							<stop  offset="0" style="stop-color:#FDF53F"/>
							<stop  offset="1" style="stop-color:#D93C65"/>
						</linearGradient>
						<path style="fill:url(#SVGID_00000053511926835856225490000011787698536438399934_);" d="M2124.421,1632.106v-16.283
							c-16.974-0.68-33.764-4.686-45.688-9.906c-4.258-1.864-6.429-6.643-5.206-11.127l4.136-15.167
							c1.517-5.564,7.568-8.442,12.887-6.212c11.829,4.959,26.435,8.882,42.184,8.882c16.349,0,28.542-5.543,28.542-16.905
							c0-10.252-9.421-16.348-32.144-22.444c-32.421-8.867-55.699-23-55.699-51.542c0-25.772,18.844-45.446,51.542-50.71v-16.285
							c0-5.24,4.248-9.487,9.488-9.487h9.567c5.24,0,9.487,4.248,9.487,9.487v14.621c15.707,0.628,27.14,3.315,36.214,6.503
							c4.648,1.633,7.189,6.641,5.899,11.397l-3.804,14.026c-1.467,5.409-7.248,8.372-12.49,6.39
							c-8.354-3.159-20.165-6.449-35.517-6.449c-19.398,0-24.939,8.036-24.939,15.241c0,8.867,11.638,14.963,36.854,22.723
							c36.024,10.807,50.987,25.77,50.987,52.65c0,24.662-18.288,46.831-53.758,52.374v18.223c0,5.24-4.248,9.487-9.487,9.487
							h-9.568C2128.669,1641.593,2124.421,1637.345,2124.421,1632.106z"/>
					</g>
				</g>
				<g>
					
						<linearGradient id="SVGID_00000127763840569757675020000002585584987355605942_" gradientUnits="userSpaceOnUse" x1="2186.5149" y1="1480.6924" x2="2366.2761" y2="1272.0414">
						<stop  offset="0" style="stop-color:#FDF53F"/>
						<stop  offset="1" style="stop-color:#D93C65"/>
					</linearGradient>
					
						<circle style="fill:url(#SVGID_00000127763840569757675020000002585584987355605942_);" cx="2369.907" cy="1267.827" r="134.018"/>
					
						<linearGradient id="SVGID_00000093871981478690759770000008804777353457332876_" gradientUnits="userSpaceOnUse" x1="2467.8525" y1="1119.8593" x2="1936.2944" y2="1922.8921">
						<stop  offset="0" style="stop-color:#FDF53F"/>
						<stop  offset="1" style="stop-color:#D93C65"/>
					</linearGradient>
					
						<circle style="fill:url(#SVGID_00000093871981478690759770000008804777353457332876_);" cx="2369.907" cy="1267.827" r="129.562"/>
					<path style="fill:#FFFFFF;" d="M2263.069,1217.841c-0.581,0-1.17-0.131-1.724-0.412c-1.891-0.953-2.649-3.26-1.694-5.151
						c21.135-41.873,63.383-67.886,110.257-67.886c7.485,0,14.976,0.674,22.266,2.003c2.082,0.38,3.464,2.378,3.083,4.46
						c-0.382,2.085-2.361,3.465-4.461,3.085c-6.835-1.247-13.864-1.88-20.888-1.88c-43.963,0-83.588,24.399-103.412,63.673
						C2265.821,1217.071,2264.471,1217.841,2263.069,1217.841z"/>
					
						<ellipse transform="matrix(0.9732 -0.2298 0.2298 0.9732 -228.4629 579.1339)" style="opacity:0.78;fill:#FFFFFF;" cx="2372.73" cy="1270.65" rx="109.658" ry="109.659"/>
					<g>
						
							<linearGradient id="SVGID_00000183935157375201541730000001298685125364533413_" gradientUnits="userSpaceOnUse" x1="2451.9958" y1="1142.8684" x2="2168.9524" y2="1618.0518">
							<stop  offset="0" style="stop-color:#FDF53F"/>
							<stop  offset="1" style="stop-color:#D93C65"/>
						</linearGradient>
						<path style="fill:url(#SVGID_00000183935157375201541730000001298685125364533413_);" d="M2361.969,1352.171v-11.93
							c-12.437-0.498-24.739-3.433-33.476-7.258c-3.12-1.366-4.71-4.867-3.814-8.153l3.031-11.113
							c1.112-4.077,5.546-6.185,9.442-4.552c8.667,3.634,19.369,6.508,30.908,6.508c11.979,0,20.912-4.062,20.912-12.386
							c0-7.512-6.903-11.978-23.552-16.444c-23.754-6.498-40.81-16.852-40.81-37.765c0-18.883,13.806-33.298,37.765-37.155v-11.932
							c0-3.839,3.112-6.952,6.951-6.952h7.009c3.84,0,6.952,3.112,6.952,6.952v10.712c11.509,0.461,19.885,2.429,26.533,4.765
							c3.406,1.197,5.267,4.866,4.323,8.35l-2.787,10.277c-1.075,3.963-5.31,6.134-9.151,4.682
							c-6.121-2.315-14.775-4.725-26.024-4.725c-14.212,0-18.272,5.887-18.272,11.167c0,6.497,8.527,10.964,27.003,16.649
							c26.395,7.918,37.358,18.882,37.358,38.576c0,18.07-13.4,34.313-39.388,38.374v13.351c0,3.839-3.112,6.952-6.951,6.952h-7.01
							C2365.081,1359.123,2361.969,1356.01,2361.969,1352.171z"/>
					</g>
				</g>
			</g>
		</g>
	</g>
</g>
</svg>
