<?xml version="1.0" encoding="utf-8"?>
<!-- Generator: Adobe Illustrator 27.5.0, SVG Export Plug-In . SVG Version: 6.00 Build 0)  -->
<svg version="1.1" xmlns="http://www.w3.org/2000/svg" xmlns:xlink="http://www.w3.org/1999/xlink" x="0px" y="0px"
	 viewBox="0 0 500 500" style="enable-background:new 0 0 500 500;" xml:space="preserve">
<g id="BACKGROUND">
	<rect style="fill:#FFFFFF;" width="500" height="500"/>
</g>
<g id="OBJECTS">
	<g>
		<g>
			<path style="fill:#E5E5E5;" d="M98.924,207.997l-17.681,11.797c-2.546,1.688-2.429,5.463,0.216,6.991l101.1,58.37
				c3.769,2.176,8.415,2.168,12.176-0.022l198.41-115.49c1.864-1.078,1.911-3.753,0.086-4.895l-12.517-7.839L194.211,261.684
				L98.924,207.997z"/>
			<g>
				<g>
					<path style="fill:#252B3D;" d="M89.999,191.484L90,214.829c0,1.798,0.956,3.459,2.509,4.363l86.239,50.127l0.77,0.445
						c0.002,0.002,0.006,0.004,0.008,0.006l1.866,1.085c0.002,0,0.004,0.002,0.006,0.002c1.475,0.658,2.932,0.866,4.256,0.83
						l-0.579-25.29L89.999,191.484z"/>
					<path style="fill:#3A4059;" d="M185.076,246.396l0.579,25.29c2.448-0.067,4.45-0.969,5.317-1.426
						c0.014-0.008,0.027-0.014,0.039-0.02l0.419-0.241L377.42,162.617c2.039-1.177,3.294-3.353,3.294-5.707v-22.663L185.076,246.396
						z"/>
					<polygon style="fill:#FFFFFF;" points="125.266,186.301 207.439,234.05 367.226,141.794 284.503,94.374 					"/>
					<polygon style="fill:#FFFFFF;" points="125.266,186.301 207.439,234.05 367.226,141.794 284.503,94.374 					"/>
					<g>
						<g>
							<path style="fill:#6B749B;" d="M115.772,222.741v3.427c0,0.272,0.145,0.525,0.382,0.662l32.937,19.015
								c0.509,0.294,1.144-0.074,1.144-0.662v-3.427c0-0.272-0.145-0.525-0.382-0.662l-32.937-19.015
								C116.408,221.785,115.772,222.152,115.772,222.741z"/>
						</g>
						<g>
							<path style="fill:#51557C;" d="M115.772,222.741v1.945c0,0.272,0.145,0.525,0.382,0.662l32.937,19.015
								c0.509,0.294,1.144-0.074,1.144-0.662v-1.945c0-0.272-0.145-0.525-0.382-0.662l-32.937-19.015
								C116.408,221.785,115.772,222.152,115.772,222.741z"/>
						</g>
					</g>
					<g>
						<path style="fill:#6B749B;" d="M164.155,253.18c0.101,2.042,1.033,3.653,2.081,3.602c0.126-0.007,0.246-0.036,0.362-0.088
							c0.855-0.374,1.442-1.904,1.352-3.701c-0.086-1.732-0.77-3.158-1.615-3.514c-0.15-0.066-0.306-0.096-0.464-0.088
							C164.823,249.443,164.054,251.139,164.155,253.18z"/>
						<path style="fill:#51557C;" d="M164.982,253.18c0.086,1.732,0.77,3.156,1.617,3.515c0.855-0.374,1.442-1.904,1.352-3.701
							c-0.086-1.732-0.77-3.158-1.615-3.514C165.479,249.853,164.893,251.382,164.982,253.18z"/>
					</g>
					<g>
						<path style="fill:#51557C;" d="M379.27,136.67L192.29,244.624c-4.104,2.369-9.161,2.363-13.259-0.017l-87.55-50.84
							c-1.979-1.149-1.975-4.007,0.006-5.151L282.999,78.047c0.918-0.53,2.049-0.532,2.968-0.005l93.294,53.469
							C381.254,132.652,381.258,135.523,379.27,136.67z"/>
						<path style="fill:#6B749B;" d="M136.346,208.51c0,3.54,5.591,6.41,12.488,6.41c6.897,0,12.488-2.87,12.488-6.41
							c0-3.541-5.591-6.411-12.488-6.411C141.937,202.1,136.346,204.97,136.346,208.51z"/>
						<polygon style="fill:#FFFFFF;" points="125.257,178.631 156.962,197.066 171.331,205.39 200.892,222.589 207.431,226.38 
							233.861,211.132 260.016,196.022 274.384,187.725 310.183,167.064 343.151,148.025 367.218,134.123 343.151,120.332 
							310.183,101.43 284.495,86.704 274.384,92.528 260.016,100.825 233.861,115.936 200.892,134.975 171.331,152.036 
							156.962,160.333 						"/>
						<g>
							<g>
								<path style="fill:#E5E5E5;" d="M207.557,208.51c-0.363,0-0.73-0.093-1.066-0.288l-55.174-32.057
									c-1.015-0.59-1.359-1.89-0.77-2.905c0.589-1.015,1.89-1.36,2.905-0.77l55.174,32.057c1.015,0.59,1.359,1.89,0.77,2.905
									C209.001,208.131,208.289,208.51,207.557,208.51z"/>
								<path style="fill:#E5E5E5;" d="M222.47,200.291c-0.362,0-0.73-0.093-1.066-0.288l-55.174-32.057
									c-1.015-0.59-1.359-1.89-0.77-2.905c0.59-1.015,1.89-1.359,2.905-0.77l55.174,32.057c1.015,0.59,1.359,1.89,0.77,2.905
									C223.915,199.912,223.203,200.291,222.47,200.291z"/>
								<path style="fill:#E5E5E5;" d="M237.384,192.072c-0.362,0-0.73-0.093-1.066-0.288l-55.174-32.057
									c-1.015-0.59-1.359-1.89-0.77-2.905c0.589-1.015,1.89-1.359,2.905-0.77l55.174,32.057c1.015,0.59,1.359,1.89,0.77,2.905
									C238.829,191.693,238.117,192.072,237.384,192.072z"/>
								<path style="fill:#E5E5E5;" d="M252.298,183.853c-0.363,0-0.73-0.093-1.066-0.288l-55.174-32.057
									c-1.015-0.59-1.359-1.89-0.77-2.905s1.89-1.359,2.905-0.77l55.174,32.057c1.015,0.59,1.359,1.89,0.77,2.905
									C253.743,183.474,253.03,183.853,252.298,183.853z"/>
								<path style="fill:#E5E5E5;" d="M267.212,175.634c-0.363,0-0.73-0.093-1.066-0.288l-55.174-32.057
									c-1.015-0.59-1.359-1.89-0.77-2.905c0.59-1.015,1.89-1.359,2.905-0.77l55.174,32.057c1.015,0.59,1.359,1.89,0.77,2.905
									C268.657,175.255,267.944,175.634,267.212,175.634z"/>
								<path style="fill:#E5E5E5;" d="M282.126,167.414c-0.362,0-0.73-0.093-1.066-0.288l-55.174-32.057
									c-1.015-0.59-1.359-1.89-0.77-2.905c0.59-1.015,1.891-1.359,2.905-0.77l55.174,32.057c1.015,0.59,1.359,1.89,0.77,2.905
									C283.571,167.035,282.858,167.414,282.126,167.414z"/>
								<path style="fill:#E5E5E5;" d="M297.04,159.195c-0.363,0-0.73-0.093-1.066-0.288L240.8,126.85
									c-1.015-0.59-1.359-1.89-0.77-2.905c0.59-1.015,1.891-1.359,2.905-0.77l55.174,32.057c1.015,0.59,1.359,1.89,0.77,2.905
									C298.485,158.816,297.772,159.195,297.04,159.195z"/>
								<path style="fill:#E5E5E5;" d="M311.954,150.976c-0.362,0-0.73-0.093-1.066-0.288l-55.174-32.057
									c-1.015-0.59-1.359-1.89-0.77-2.905c0.59-1.015,1.891-1.359,2.905-0.77l55.174,32.057c1.015,0.59,1.359,1.89,0.77,2.905
									C313.398,150.597,312.686,150.976,311.954,150.976z"/>
								<path style="fill:#E5E5E5;" d="M326.868,142.757c-0.363,0-0.73-0.093-1.066-0.288l-55.174-32.057
									c-1.015-0.59-1.359-1.89-0.77-2.905c0.59-1.015,1.891-1.359,2.905-0.77l55.174,32.057c1.015,0.59,1.359,1.89,0.77,2.905
									C328.312,142.378,327.6,142.757,326.868,142.757z"/>
								<path style="fill:#E5E5E5;" d="M341.781,134.538c-0.363,0-0.73-0.093-1.066-0.288l-55.174-32.057
									c-1.015-0.59-1.359-1.89-0.77-2.905c0.59-1.015,1.891-1.359,2.905-0.77l55.174,32.057c1.015,0.59,1.359,1.89,0.77,2.905
									C343.226,134.159,342.514,134.538,341.781,134.538z"/>
							</g>
						</g>
					</g>
				</g>
			</g>
		</g>
		<g>
			<polygon style="opacity:0.1;fill:#252B3D;" points="148.292,155.82 211.377,192.242 289.033,147.407 225.948,110.985 			"/>
			<g>
				<path style="fill:#8800B5;" d="M292.646,76.455v68.118l-69.523,44.462l-6.283,4.018c-0.038,0.023-0.075,0.048-0.113,0.07
					c-0.538,0.307-1.285,0.507-2.005,0.537c-0.602,0.028-1.188-0.065-1.622-0.31l-9.977-5.965c-1-0.598-1.61-1.675-1.61-2.84V139.89
					c0-0.963,0.415-1.865,1.125-2.485c0.165-0.145,0.342-0.275,0.535-0.385l45.04-25.87l7.688-20.815
					c0.595-1.61,1.735-2.96,3.22-3.82l25.475-14.707C288.176,69.74,292.646,72.325,292.646,76.455z"/>
				<path style="fill:#BD10E9;" d="M201.585,139.213c-0.046,0.22-0.071,0.446-0.071,0.676v44.657c0,1.163,0.611,2.241,1.609,2.838
					l9.978,5.967c0.999,0.559,2.776,0.319,3.74-0.298l6.282-4.018l-8.207-39.497C210.747,147.588,203.247,141.95,201.585,139.213z"
					/>
				<g>
					<path style="fill:#E5E5E5;" d="M260.217,106.966l-37.837,22.081c-1.603,0.936-2.589,2.652-2.589,4.508v24.325
						c0,4.029,4.37,6.538,7.85,4.508l42.473-24.787v-24.95C270.115,107.571,264.604,104.406,260.217,106.966z"/>
					<path style="fill:#FFFFFF;" d="M264.346,108.016l-38.586,22.518c-1.603,0.936-2.589,2.652-2.589,4.508v24.325
						c0,4.029,4.37,6.538,7.85,4.508l34.407-20.079c2.903-1.694,4.688-4.802,4.688-8.163v-24.303
						C270.115,108.368,266.903,106.523,264.346,108.016z"/>
					<g>
						<g>
							<path style="fill:#E5E5E5;" d="M230.831,159.656c-0.686,0-1.242-0.627-1.242-1.4V136.92c0-0.773,0.556-1.4,1.242-1.4
								c0.686,0,1.242,0.627,1.242,1.4v21.337C232.072,159.03,231.516,159.656,230.831,159.656z"/>
						</g>
						<g>
							<path style="fill:#E5E5E5;" d="M237.387,155.23c-0.686,0-1.242-0.627-1.242-1.4v-21.337c0-0.773,0.556-1.4,1.242-1.4
								c0.686,0,1.242,0.627,1.242,1.4v21.337C238.629,154.603,238.073,155.23,237.387,155.23z"/>
						</g>
						<g>
							<path style="fill:#E5E5E5;" d="M243.943,150.803c-0.686,0-1.242-0.627-1.242-1.4v-21.337c0-0.773,0.556-1.4,1.242-1.4
								c0.686,0,1.242,0.627,1.242,1.4v21.337C245.185,150.177,244.629,150.803,243.943,150.803z"/>
						</g>
						<g>
							<path style="fill:#E5E5E5;" d="M250.5,146.377c-0.686,0-1.242-0.627-1.242-1.4V123.64c0-0.773,0.556-1.4,1.242-1.4
								c0.686,0,1.242,0.627,1.242,1.4v21.337C251.741,145.75,251.185,146.377,250.5,146.377z"/>
						</g>
						<g>
							<path style="fill:#E5E5E5;" d="M257.056,141.95c-0.686,0-1.242-0.627-1.242-1.4v-21.337c0-0.773,0.556-1.4,1.242-1.4
								c0.686,0,1.242,0.627,1.242,1.4v21.337C258.297,141.324,257.741,141.95,257.056,141.95z"/>
						</g>
						<g>
							<path style="fill:#E5E5E5;" d="M263.612,137.524c-0.686,0-1.242-0.627-1.242-1.4v-21.337c0-0.773,0.556-1.4,1.242-1.4
								c0.686,0,1.242,0.627,1.242,1.4v21.337C264.854,136.897,264.298,137.524,263.612,137.524z"/>
						</g>
					</g>
				</g>
				<path style="fill:#DC56FF;" d="M296.649,84.143v63.567c0,0.085-0.045,0.163-0.118,0.205l-79.802,45.208
					c-0.538,0.307-1.285,0.507-2.005,0.537v-43.79c0-0.137,0.073-0.265,0.193-0.333l4.875-2.8l3.38-1.942l6.417-3.688l2.482-1.425
					l4.075-2.342l2.482-1.425l4.073-2.34l2.482-1.425l4.075-2.342l2.482-1.425l4.073-2.34l2.485-1.427l1.005-0.577l3.067-8.303
					l0.84-2.272l2.165-5.865l0.418-1.13l2.12-5.735l24.733-14.28L296.649,84.143z"/>
				<g>
					<g>
						<path style="fill:#BD10E9;" d="M249.066,146.626l4.513-2.996l0.108,16.774c0.014,2.189,1.582,2.93,3.502,1.655l0,0
							c1.92-1.275,3.465-4.082,3.451-6.271l-0.108-16.774l4.513-2.996l-4.025-1.805l-4.023-1.807l-3.965,7.11L249.066,146.626z"/>
					</g>
				</g>
			</g>
		</g>
	</g>
	<g>
		<path style="fill:#E5E5E5;" d="M102.104,315.357c2.067,6.757-8.332,15.929-23.226,20.484c-14.894,4.556-28.644,2.771-30.711-3.987
			c-2.067-6.758,8.332-15.929,23.226-20.484S100.037,308.599,102.104,315.357z"/>
		<g>
			<g>
				<path style="fill:#BD10E9;" d="M94.719,152.064c0.011,0.086,0.023,0.173,0.04,0.261c0.021,0.145,0.049,0.295,0.08,0.445
					c1.613,7.942,13.22,21.195,13.22,21.195l5.957-3.479c-5.656-7.592-11.915-23.327-11.915-23.327l-3.924,2.606L94.719,152.064z"/>
				<g>
					<g>
						<path style="fill:#BD10E9;" d="M90.124,142.583c0.728,3.638,2.552,6.877,4.344,9.35c0.099,0.133,0.194,0.264,0.291,0.392
							c0.078,0.103,0.154,0.205,0.23,0.304c0.523,0.681,1.033,1.295,1.504,1.828c0.818-1.023,1.719-1.972,2.556-2.98
							c0.671-0.808,1.204-1.719,1.792-2.583c0.39-0.576,0.803-1.177,1.261-1.735c-3.813-8.363-9.251-26.284-9.251-26.284
							S88.494,134.439,90.124,142.583z"/>
					</g>
				</g>
				<g>
					<path style="fill:#A200CB;" d="M94.468,151.933c0.099,0.133,0.194,0.264,0.291,0.392c0.021,0.145,0.049,0.295,0.08,0.445
						c0.049-0.046,0.097-0.093,0.15-0.141c0.753-0.694,1.866-1.537,3.237-2.037c0.164-0.061,0.27-0.209,0.283-0.371
						c0.006-0.061-0.002-0.122-0.023-0.181c-0.051-0.141-0.169-0.24-0.308-0.274c-0.078-0.017-0.164-0.013-0.247,0.017
						C96.467,150.318,95.282,151.193,94.468,151.933z"/>
				</g>
			</g>
			<g>
				<g>
					<g>
						<g>
							<path style="fill:#BD10E9;" d="M55.14,313.767c-0.949,0.313-1.632,1.17-1.781,2.176c-0.13,0.88-0.234,2.139-0.183,3.809
								c0.114,3.725,0.161,5.244,0.161,5.244s1.124,1.965,4.356,2.498l0.951,0.133c0,0,7.314,4.397,10.729,4.735
								c4.457,0.441,9.012-1.608,5.325-5.944c-3.481-4.095-8.601-5.736-10.113-9.016c-0.176-0.383-1.318-1.198-1.609-1.499
								C60.507,313.349,58.607,312.625,55.14,313.767z"/>
						</g>
						<g>
							<g>
								<g>
									<path style="fill:#FFFFFF;" d="M62.608,321.638c0.161,0,0.315-0.095,0.382-0.252c0.005-0.012,0.57-1.29,1.619-1.639
										c1.006-0.336,2.086,0.54,2.097,0.549c0.177,0.146,0.439,0.121,0.585-0.055c0.146-0.176,0.122-0.438-0.053-0.584
										c-0.058-0.048-1.442-1.181-2.891-0.698c-1.407,0.469-2.092,2.034-2.12,2.1c-0.091,0.211,0.007,0.455,0.218,0.546
										C62.497,321.627,62.553,321.638,62.608,321.638z"/>
								</g>
							</g>
							<g>
								<g>
									<path style="fill:#FFFFFF;" d="M64.062,322.676c0.161,0,0.315-0.095,0.382-0.252c0.005-0.012,0.57-1.29,1.619-1.639
										c1.006-0.336,2.086,0.54,2.096,0.549c0.177,0.146,0.438,0.121,0.585-0.055c0.146-0.176,0.122-0.438-0.054-0.584
										c-0.058-0.048-1.441-1.181-2.891-0.698c-1.407,0.469-2.092,2.034-2.12,2.1c-0.09,0.211,0.007,0.455,0.218,0.546
										C63.952,322.665,64.007,322.676,64.062,322.676z"/>
								</g>
							</g>
							<g>
								<g>
									<path style="fill:#FFFFFF;" d="M65.72,323.606c0.161,0,0.315-0.094,0.382-0.252c0.005-0.012,0.57-1.29,1.619-1.639
										c1.006-0.336,2.086,0.54,2.096,0.549c0.177,0.146,0.439,0.121,0.585-0.055c0.146-0.176,0.122-0.437-0.054-0.584
										c-0.058-0.048-1.441-1.182-2.891-0.698c-1.407,0.469-2.092,2.034-2.12,2.1c-0.09,0.211,0.007,0.455,0.218,0.545
										C65.61,323.595,65.666,323.606,65.72,323.606z"/>
								</g>
							</g>
						</g>
					</g>
					<g>
						<path style="fill:#FCB38F;" d="M55.611,306.521l-0.378,9.204c0,0,2.319,2.364,5.926,0.799l0.894-9.94
							C62.054,306.585,58.16,305.197,55.611,306.521z"/>
					</g>
				</g>
				<g>
					<path style="fill:#51557C;" d="M53.477,255.674c2.909-15.167,0.604-39.15,0.383-50.195l24.41,3.754l0.723,15.071
						c-0.011-0.054-1.816,0.124-1.827,0.07c0,0-1.054-0.465-2.292-0.417c-1.737,0.068-2.265,2.946-2.496,3.772
						c-0.855,10.888-0.901,24.221-1.88,32.533c-1.938,16.447-8.088,52.96-8.088,52.96c-2.969,0.649-4.703,0.487-7.687-0.623
						C54.724,312.6,51.644,265.232,53.477,255.674z"/>
				</g>
				<g>
					<path style="fill:#252B3D;" d="M56.21,312.1c0.002,0,0.004,0,0.006,0c0.261-0.004,0.47-0.218,0.466-0.479
						c-0.022-1.684-0.547-41.281-0.859-44.264c-0.319-3.044,0.669-13.975,1.64-19.914c0.688-4.207,0.199-23.991,0.178-24.831
						c-0.007-0.257-0.217-0.461-0.472-0.461c-0.004,0-0.008,0-0.012,0c-0.261,0.006-0.467,0.223-0.461,0.484
						c0.005,0.205,0.508,20.535-0.166,24.655c-0.979,5.992-1.972,17.057-1.647,20.164c0.308,2.94,0.849,43.766,0.854,44.178
						C55.741,311.893,55.952,312.1,56.21,312.1z"/>
				</g>
				<g>
					<path style="fill:#6B749B;" d="M63.164,310.24c0,0-5.205,0.554-9.146-0.485c-0.304,1.548-0.137,3.175,0.225,4.057
						c0,0,4.702,1.221,8.484,0.298C63.166,312.954,63.498,311.593,63.164,310.24z"/>
				</g>
			</g>
			<g>
				<g>
					<g>
						<g>
							<path style="fill:#BD10E9;" d="M76.415,307.15c-0.949,0.313-1.632,1.169-1.781,2.176c-0.13,0.88-0.234,2.139-0.183,3.809
								c0.114,3.725,0.161,5.244,0.161,5.244s1.124,1.965,4.356,2.498l0.951,0.133c0,0,7.314,4.397,10.729,4.735
								c4.457,0.441,9.011-1.608,5.325-5.944c-3.481-4.095-8.601-5.736-10.113-9.016c-0.176-0.383-1.318-1.198-1.609-1.499
								C81.782,306.732,79.882,306.008,76.415,307.15z"/>
						</g>
						<g>
							<g>
								<g>
									<path style="fill:#FFFFFF;" d="M83.883,315.02c0.161,0,0.315-0.095,0.382-0.252c0.005-0.012,0.57-1.29,1.619-1.639
										c1.006-0.336,2.086,0.54,2.096,0.549c0.177,0.146,0.439,0.121,0.585-0.055c0.146-0.176,0.122-0.438-0.053-0.584
										c-0.058-0.048-1.442-1.181-2.891-0.698c-1.407,0.469-2.092,2.034-2.12,2.1c-0.091,0.211,0.007,0.455,0.218,0.546
										C83.772,315.009,83.828,315.02,83.883,315.02z"/>
								</g>
							</g>
							<g>
								<g>
									<path style="fill:#FFFFFF;" d="M85.337,316.059c0.161,0,0.315-0.095,0.382-0.252c0.005-0.012,0.57-1.29,1.619-1.639
										c1.006-0.336,2.086,0.54,2.096,0.549c0.177,0.146,0.438,0.121,0.585-0.055c0.146-0.176,0.122-0.438-0.054-0.584
										c-0.058-0.048-1.441-1.181-2.891-0.698c-1.407,0.469-2.092,2.034-2.12,2.1c-0.09,0.211,0.007,0.455,0.218,0.546
										C85.227,316.048,85.282,316.059,85.337,316.059z"/>
								</g>
							</g>
							<g>
								<g>
									<path style="fill:#FFFFFF;" d="M86.995,316.988c0.161,0,0.315-0.095,0.382-0.252c0.005-0.012,0.57-1.289,1.619-1.639
										c1.006-0.336,2.085,0.54,2.096,0.549c0.177,0.146,0.439,0.121,0.585-0.055c0.146-0.176,0.122-0.437-0.054-0.584
										c-0.058-0.048-1.441-1.182-2.891-0.698c-1.407,0.469-2.092,2.034-2.12,2.1c-0.09,0.211,0.007,0.455,0.218,0.546
										C86.885,316.978,86.941,316.988,86.995,316.988z"/>
								</g>
							</g>
						</g>
					</g>
					<g>
						<path style="fill:#FCB38F;" d="M76.886,299.904l-0.378,9.204c0,0,2.32,2.364,5.926,0.799l0.894-9.94
							C83.329,299.967,79.435,298.58,76.886,299.904z"/>
					</g>
				</g>
				<g>
					<path style="fill:#51557C;" d="M93.698,222.093c-0.852,10.835-2.608,23.082-3.583,31.357
						c-1.938,16.447-6.43,53.157-6.43,53.157c-2.969,0.649-4.703,0.487-7.687-0.623c0,0-3.24-47.528-2.169-57.201
						c1.757-15.876,1.761-31.864,1.54-42.91l19.484-2.776L93.698,222.093z"/>
				</g>
				<g>
					<path style="fill:#252B3D;" d="M78.565,221.771c-0.264,0-0.478,0.215-0.474,0.479c0.095,6.394,0.149,15.771-0.285,18.425
						c-0.979,5.992-1.972,17.057-1.647,20.164c0.308,2.94,0.849,43.766,0.854,44.178c0.004,0.259,0.215,0.466,0.472,0.466h0.007
						c0.261-0.004,0.47-0.218,0.466-0.479c-0.022-1.684-0.547-41.281-0.859-44.263c-0.319-3.044,0.67-13.975,1.64-19.914
						c0.45-2.752,0.396-12.171,0.299-18.592C79.034,221.977,78.823,221.771,78.565,221.771L78.565,221.771z"/>
				</g>
				<g>
					<path style="fill:#6B749B;" d="M84.439,303.623c0,0-5.205,0.554-9.146-0.485c-0.304,1.548-0.137,3.175,0.225,4.057
						c0,0,4.702,1.221,8.484,0.298C84.441,306.337,84.773,304.976,84.439,303.623z"/>
				</g>
			</g>
			<g>
				<path style="fill:#DC56FF;" d="M92.85,120.875c-6.021-1.253-16.186-2.024-21.602-0.137c-7.632,2.658-11.292,5.198-16.487,8.898
					c-0.181,3.002-1.056,17.389-1.098,20.566c-0.009,0.766-0.012,1.524-0.008,2.265c0,0.312,0.003,0.619,0.009,0.924
					c0.144,9.713-1.063,31.35-1.281,36.576c-0.391,9.399-0.732,14.29-0.506,14.878c1.301,3.391,9.821,6.521,22.469,5.787
					c12.646-0.735,18.836-1.015,20.212-5.664c1.376-4.648,0.659-8.202-0.782-22.02C92.561,171.297,92.606,130.991,92.85,120.875z"/>
				<g>
					<path style="fill:#BD10E9;" d="M87.145,181.922c0.235,0.066,0.488-0.051,0.585-0.282c0.105-0.25-0.013-0.537-0.262-0.642
						c-0.214-0.09-21.374-9.096-22.57-20.214c-0.029-0.269-0.271-0.464-0.54-0.435c-0.269,0.029-0.464,0.271-0.435,0.54
						c0.531,4.936,4.607,9.979,12.115,14.989c5.537,3.694,10.997,6.001,11.051,6.024C87.107,181.91,87.126,181.916,87.145,181.922z"
						/>
				</g>
				<g>
					<path style="fill:#BD10E9;" d="M84.018,183.808c0.257,0.073,0.525-0.074,0.603-0.331c0.078-0.259-0.069-0.533-0.328-0.611
						c-0.068-0.02-6.883-2.099-12.984-6.42c-0.221-0.157-0.527-0.104-0.683,0.117c-0.157,0.221-0.104,0.527,0.117,0.684
						c6.237,4.417,13.2,6.538,13.269,6.559C84.013,183.807,84.016,183.808,84.018,183.808z"/>
				</g>
			</g>
			<g>
				<g>
					<path style="fill:#252B3D;" d="M65.032,95.547c0,0,1.784-6.876,4.543-8.623l1.005,1.564c1.037-0.328,3.711-3.926,8.048-4.265
						c0,0-0.484,1.059-0.134,1.701c0.35,0.642,4.11-2.743,8.501-2.66c0,0-1.173,3.156-0.646,4.594c0,0,1.868-2.416,3.64-2.76
						c0,0-1.518,4.791-0.716,6.683c0.801,1.892,0.113,3.278-0.847,4.748L65.032,95.547z"/>
					<g>
						<path style="fill:#FCB38F;" d="M78.839,117.809l-0.457,4.361l-0.156,1.473c-4.855,1.22-8.6-2.085-8.6-2.085l-0.438-6.735
							c0.087-0.061,0.181-0.112,0.282-0.152C72.088,113.524,78.839,117.809,78.839,117.809z"/>
						<path style="fill:#FD8471;" d="M78.839,117.809l-0.457,4.361c-4.971-1.746-7.697-5.4-8.912-7.5
							C72.088,113.524,78.839,117.809,78.839,117.809z"/>
					</g>
					<g>
						<path style="fill:#FD8471;" d="M86.591,103.537c0,0,2.16-2.576,3.537-0.274c1.377,2.302-1.096,8.747-4.677,6.946
							L86.591,103.537z"/>
						<g>
							<path style="fill:#D6615D;" d="M86.363,108.226c0.135,0.007,0.265-0.076,0.311-0.21c0.678-1.994,2.821-2.701,2.842-2.708
								c0.163-0.052,0.253-0.227,0.201-0.39c-0.052-0.163-0.226-0.253-0.389-0.202c-0.1,0.032-2.461,0.804-3.242,3.1
								c-0.055,0.162,0.032,0.339,0.194,0.394C86.307,108.219,86.335,108.224,86.363,108.226z"/>
						</g>
						<g>
							<path style="fill:#D6615D;" d="M88.536,107.321c0.057,0.003,0.116-0.01,0.17-0.04c0.149-0.085,0.201-0.275,0.116-0.423
								c-0.014-0.025-0.355-0.611-1.112-1.001c-0.152-0.078-0.339-0.018-0.418,0.134c-0.078,0.152-0.018,0.339,0.134,0.418
								c0.586,0.301,0.854,0.752,0.857,0.756C88.337,107.259,88.434,107.315,88.536,107.321z"/>
						</g>
					</g>
					<path style="fill:#FCB38F;" d="M88.061,106.881c-0.045,0.647-0.111,1.252-0.199,1.8c-0.806,4.941-5.123,14.979-13.823,9.89
						c-2.087-1.222-3.64-2.43-4.852-3.749c-0.915-0.993-1.639-2.05-2.258-3.22c-0.239-0.452-0.349-0.96-0.505-1.445
						c-0.028-0.085-0.054-0.173-0.08-0.258c-0.015-0.049-0.03-0.095-0.046-0.145c-0.436-1.416-0.766-2.847-1.024-4.21
						c-0.321-1.702-0.527-3.288-0.654-4.594c-0.235-2.4,0.818-4.742,2.765-6.166c5.27-3.859,11.364-3.366,15.462-2.316
						c2.844,0.728,4.9,3.196,5.098,6.121c0.097,1.388,0.176,2.97,0.202,4.541C88.167,104.426,88.147,105.718,88.061,106.881z"/>
					<path style="fill:#FD8471;" d="M69.881,109.749c0,0-0.899,1.75-2.952,1.854c-0.182-0.477-0.349-0.96-0.505-1.445
						C67.417,110.333,68.935,110.443,69.881,109.749z"/>
					<path style="fill:#252B3D;" d="M69.187,114.823c-0.915-0.993-1.639-2.05-2.258-3.22c-0.239-0.452-0.349-0.96-0.505-1.445
						c-0.028-0.085-0.054-0.173-0.08-0.258c0.21,0.009,0.554,0.076,1.117,0.256C67.462,110.156,69.796,112.814,69.187,114.823z"/>
					<path style="fill:#FFFFFF;" d="M82.834,112.856c-0.425,1.254-1.586,3.511-4.452,3.134c-2.872-0.377-3.393-2.647-3.474-4.175
						L82.834,112.856z"/>
					<path style="fill:#252B3D;" d="M76.066,105.301c-0.038,0.696-0.427,1.241-0.87,1.217c-0.443-0.024-0.771-0.608-0.733-1.304
						c0.038-0.696,0.427-1.241,0.87-1.217C75.776,104.021,76.104,104.604,76.066,105.301z"/>
					<path style="fill:#252B3D;" d="M84.803,105.579c-0.038,0.696-0.427,1.241-0.87,1.217c-0.443-0.024-0.771-0.608-0.733-1.304
						c0.038-0.696,0.427-1.241,0.87-1.217C84.512,104.299,84.84,104.883,84.803,105.579z"/>
					<path style="fill:#252B3D;" d="M71.488,101.793c0,0,2.88-1.626,5.366-0.937l-0.054,1.337c0,0-3.483,0.185-5.12,1.128
						C71.454,102.84,71.361,102.336,71.488,101.793z"/>
					<path style="fill:#252B3D;" d="M87.674,102.419c0,0-2.711-1.893-5.252-1.445l-0.074,1.336c0,0,3.449,0.517,4.989,1.612
						C87.607,103.465,87.748,102.972,87.674,102.419z"/>
					<g>
						<path style="fill:#FD8471;" d="M80.124,110.844c-0.523-0.021-1.034-0.245-1.113-0.282c-0.156-0.071-0.225-0.255-0.154-0.411
							c0.071-0.156,0.255-0.225,0.411-0.154c0.276,0.125,0.941,0.33,1.239,0.167c0.057-0.031,0.137-0.095,0.164-0.283
							c0.156-1.078,0.005-4.72,0.004-4.757c-0.007-0.171,0.126-0.316,0.297-0.323c0.172-0.007,0.316,0.126,0.323,0.297
							c0.006,0.152,0.155,3.736-0.009,4.871c-0.062,0.427-0.296,0.638-0.481,0.739C80.601,110.821,80.361,110.853,80.124,110.844z"
							/>
					</g>
					<g>
						<path style="fill:#FCB38F;" d="M66.995,103.496c0,0-2.353-2.401-3.548,0.001c-1.195,2.402,1.222,8.433,5.391,6.694
							L66.995,103.496z"/>
						<g>
							<path style="fill:#FD8471;" d="M67.586,108.153c-0.135,0.018-0.27-0.055-0.326-0.185c-0.831-1.936-3.022-2.475-3.044-2.48
								c-0.166-0.039-0.27-0.207-0.231-0.373c0.039-0.167,0.206-0.27,0.372-0.231c0.102,0.024,2.516,0.611,3.472,2.84
								c0.067,0.158-0.005,0.34-0.163,0.408C67.641,108.142,67.613,108.15,67.586,108.153z"/>
						</g>
						<g>
							<path style="fill:#FD8471;" d="M65.349,107.419c-0.057,0.008-0.117-0.001-0.173-0.027c-0.155-0.073-0.221-0.258-0.148-0.413
								c0.012-0.026,0.306-0.637,1.031-1.084c0.145-0.09,0.337-0.045,0.427,0.101c0.09,0.146,0.045,0.337-0.101,0.427
								c-0.561,0.346-0.794,0.816-0.796,0.82C65.543,107.343,65.45,107.406,65.349,107.419z"/>
						</g>
					</g>
					<path style="fill:#252B3D;" d="M64.78,102.375c0,0,1.884-0.811,2.687,0.998c0.803,1.809,1.191,2.838,1.191,2.838l1.414,0.03
						c0,0-1.116-2.608-0.793-4.176c0.323-1.568,1.526-1.946,1.215-3.612c-0.31-1.666,0.502-3.778,2.229-4.064
						c1.728-0.287,9.222-0.804,11.861,0.39c2.639,1.195,2.139,3.962,2.813,4.972c0.674,1.011,0.75,3.379,0.75,3.379l0,0
						c0.414-0.578,0.639-1.267,0.653-1.978c0.016-0.858-0.013-2.173-0.213-3.873c-0.375-3.191-4.988-6.993-12.027-6.994
						c-7.039-0.002-11.239,3.321-12.142,6.76C63.515,100.485,64.78,102.375,64.78,102.375z"/>
				</g>
			</g>
			<g>
				<polygon style="fill:#6B749B;" points="116.387,153.079 85.408,170.964 64.756,159.04 95.546,141.046 				"/>
				<g>
					<defs>
						<polygon id="SVGID_1_" points="70.125,159.026 85.408,167.85 110.993,153.079 110.435,131.408 96.801,126.584 69.414,140.979 
													"/>
					</defs>
					<clipPath id="SVGID_00000080165715760868496840000009194790204407360176_">
						<use xlink:href="#SVGID_1_"  style="overflow:visible;"/>
					</clipPath>
					<polygon style="clip-path:url(#SVGID_00000080165715760868496840000009194790204407360176_);fill:#252B3D;" points="
						110.993,153.079 95.554,144.164 70.125,159.026 85.408,167.85 					"/>
					<g style="clip-path:url(#SVGID_00000080165715760868496840000009194790204407360176_);">
						<g>
							<path style="fill:#E5E5E5;" d="M90.431,139.784l-16.935,9.883c-0.717,0.419-1.159,1.187-1.159,2.018v10.887
								c0,1.803,1.956,2.926,3.513,2.017l19.01-11.094v-11.167C94.862,140.055,92.395,138.638,90.431,139.784z"/>
							<path style="fill:#FFFFFF;" d="M92.279,140.254l-17.271,10.079c-0.717,0.419-1.159,1.187-1.159,2.018v10.887
								c0,1.803,1.956,2.926,3.513,2.018l15.4-8.987c1.299-0.758,2.098-2.149,2.098-3.654v-10.878
								C94.862,140.411,93.424,139.586,92.279,140.254z"/>
							<g>
								<g>
									<path style="fill:#E5E5E5;" d="M77.279,163.367c-0.307,0-0.556-0.28-0.556-0.627v-9.55c0-0.346,0.249-0.627,0.556-0.627
										s0.556,0.281,0.556,0.627v9.55C77.834,163.087,77.585,163.367,77.279,163.367z"/>
								</g>
								<g>
									<path style="fill:#E5E5E5;" d="M80.213,161.386c-0.307,0-0.556-0.281-0.556-0.627v-9.55c0-0.346,0.249-0.627,0.556-0.627
										c0.307,0,0.556,0.281,0.556,0.627v9.55C80.769,161.105,80.52,161.386,80.213,161.386z"/>
								</g>
								<g>
									<path style="fill:#E5E5E5;" d="M83.148,159.405c-0.307,0-0.556-0.281-0.556-0.627v-9.55c0-0.346,0.249-0.627,0.556-0.627
										c0.307,0,0.556,0.281,0.556,0.627v9.55C83.703,159.124,83.454,159.405,83.148,159.405z"/>
								</g>
								<g>
									<path style="fill:#E5E5E5;" d="M86.082,157.423c-0.307,0-0.556-0.28-0.556-0.627v-9.55c0-0.346,0.249-0.627,0.556-0.627
										c0.307,0,0.556,0.28,0.556,0.627v9.55C86.638,157.143,86.389,157.423,86.082,157.423z"/>
								</g>
								<g>
									<path style="fill:#E5E5E5;" d="M89.016,155.442c-0.307,0-0.556-0.281-0.556-0.627v-9.55c0-0.346,0.249-0.627,0.556-0.627
										c0.307,0,0.556,0.281,0.556,0.627v9.55C89.572,155.162,89.323,155.442,89.016,155.442z"/>
								</g>
								<g>
									<path style="fill:#E5E5E5;" d="M91.951,153.461c-0.307,0-0.556-0.281-0.556-0.627v-9.55c0-0.346,0.249-0.627,0.556-0.627
										c0.307,0,0.556,0.28,0.556,0.627v9.55C92.507,153.18,92.258,153.461,91.951,153.461z"/>
								</g>
							</g>
						</g>
					</g>
					<g style="clip-path:url(#SVGID_00000080165715760868496840000009194790204407360176_);">
						<g>
							<path style="fill:#E5E5E5;" d="M97.035,142.869L80.1,152.752c-0.717,0.419-1.159,1.187-1.159,2.018v10.887
								c0,1.803,1.956,2.926,3.513,2.018l19.01-11.094v-11.167C101.465,143.14,98.999,141.723,97.035,142.869z"/>
							<path style="fill:#FFFFFF;" d="M98.883,143.339l-17.271,10.079c-0.717,0.419-1.159,1.187-1.159,2.018v10.887
								c0,1.803,1.956,2.926,3.513,2.018l15.4-8.987c1.299-0.758,2.098-2.149,2.098-3.654v-10.878
								C101.465,143.497,100.028,142.671,98.883,143.339z"/>
							<g>
								<g>
									<path style="fill:#E5E5E5;" d="M83.882,166.453c-0.307,0-0.556-0.281-0.556-0.627v-9.55c0-0.346,0.249-0.627,0.556-0.627
										s0.556,0.281,0.556,0.627v9.55C84.438,166.172,84.189,166.453,83.882,166.453z"/>
								</g>
								<g>
									<path style="fill:#E5E5E5;" d="M86.817,164.471c-0.307,0-0.556-0.281-0.556-0.627v-9.55c0-0.346,0.249-0.627,0.556-0.627
										c0.307,0,0.556,0.281,0.556,0.627v9.55C87.373,164.191,87.124,164.471,86.817,164.471z"/>
								</g>
								<g>
									<path style="fill:#E5E5E5;" d="M89.751,162.49c-0.307,0-0.556-0.281-0.556-0.627v-9.55c0-0.346,0.249-0.627,0.556-0.627
										c0.307,0,0.556,0.281,0.556,0.627v9.55C90.307,162.21,90.058,162.49,89.751,162.49z"/>
								</g>
								<g>
									<path style="fill:#E5E5E5;" d="M92.686,160.509c-0.307,0-0.556-0.281-0.556-0.627v-9.55c0-0.346,0.249-0.627,0.556-0.627
										c0.307,0,0.556,0.281,0.556,0.627v9.55C93.242,160.228,92.993,160.509,92.686,160.509z"/>
								</g>
								<g>
									<path style="fill:#E5E5E5;" d="M95.62,158.528c-0.307,0-0.556-0.281-0.556-0.627v-9.55c0-0.346,0.249-0.627,0.556-0.627
										c0.307,0,0.556,0.281,0.556,0.627v9.55C96.176,158.247,95.927,158.528,95.62,158.528z"/>
								</g>
								<g>
									<path style="fill:#E5E5E5;" d="M98.555,156.546c-0.307,0-0.556-0.281-0.556-0.627v-9.55c0-0.346,0.249-0.627,0.556-0.627
										c0.307,0,0.556,0.281,0.556,0.627v9.55C99.111,156.266,98.862,156.546,98.555,156.546z"/>
								</g>
							</g>
						</g>
					</g>
					<g style="clip-path:url(#SVGID_00000080165715760868496840000009194790204407360176_);">
						<g>
							<path style="fill:#E5E5E5;" d="M103.198,145.35l-16.935,9.883c-0.717,0.419-1.159,1.187-1.159,2.018v10.887
								c0,1.803,1.956,2.926,3.513,2.018l19.01-11.094v-11.168C107.628,145.621,105.161,144.204,103.198,145.35z"/>
							<path style="fill:#FFFFFF;" d="M105.046,145.82l-17.271,10.079c-0.717,0.419-1.159,1.187-1.159,2.018v10.887
								c0,1.803,1.956,2.926,3.513,2.018l15.4-8.987c1.299-0.758,2.098-2.149,2.098-3.654v-10.878
								C107.628,145.978,106.19,145.152,105.046,145.82z"/>
							<g>
								<g>
									<path style="fill:#E5E5E5;" d="M90.045,168.934c-0.307,0-0.556-0.281-0.556-0.627v-9.55c0-0.346,0.249-0.627,0.556-0.627
										c0.307,0,0.556,0.281,0.556,0.627v9.55C90.601,168.653,90.352,168.934,90.045,168.934z"/>
								</g>
								<g>
									<path style="fill:#E5E5E5;" d="M92.979,166.952c-0.307,0-0.556-0.281-0.556-0.627v-9.55c0-0.346,0.249-0.627,0.556-0.627
										s0.556,0.281,0.556,0.627v9.55C93.535,166.672,93.286,166.952,92.979,166.952z"/>
								</g>
								<g>
									<path style="fill:#E5E5E5;" d="M95.914,164.971c-0.307,0-0.556-0.281-0.556-0.627v-9.55c0-0.346,0.249-0.627,0.556-0.627
										s0.556,0.281,0.556,0.627v9.55C96.469,164.69,96.221,164.971,95.914,164.971z"/>
								</g>
								<g>
									<path style="fill:#E5E5E5;" d="M98.848,162.99c-0.307,0-0.556-0.281-0.556-0.627v-9.55c0-0.346,0.249-0.627,0.556-0.627
										c0.307,0,0.556,0.281,0.556,0.627v9.55C99.404,162.709,99.155,162.99,98.848,162.99z"/>
								</g>
								<g>
									<path style="fill:#E5E5E5;" d="M101.783,161.008c-0.307,0-0.556-0.281-0.556-0.627v-9.55c0-0.346,0.249-0.627,0.556-0.627
										c0.307,0,0.556,0.281,0.556,0.627v9.55C102.338,160.728,102.09,161.008,101.783,161.008z"/>
								</g>
								<g>
									<path style="fill:#E5E5E5;" d="M104.717,159.027c-0.307,0-0.556-0.281-0.556-0.627v-9.55c0-0.346,0.249-0.627,0.556-0.627
										s0.556,0.281,0.556,0.627v9.55C105.273,158.747,105.024,159.027,104.717,159.027z"/>
								</g>
							</g>
						</g>
					</g>
				</g>
				<polygon style="fill:#3A4059;" points="116.387,153.079 116.387,188.85 85.408,206.735 85.408,170.964 				"/>
				<polygon style="fill:#252B3D;" points="85.408,206.735 64.756,194.566 64.756,159.04 85.408,170.964 				"/>
			</g>
			<g>
				<g>
					<g>
						<path style="fill:#BD10E9;" d="M52.811,168.363c2.889-0.411,6.141-1.598,8.996-2.22c-0.068-0.35-0.136-0.727-0.202-1.126
							c-0.024-0.139-0.046-0.282-0.071-0.428c-0.027-0.182-0.056-0.367-0.083-0.557c-1.671-11.235-2.721-37.157-2.721-37.157
							s-7.874,3.555-9.065,13.059C48.872,146.275,51.41,161.279,52.811,168.363z"/>
					</g>
				</g>
				<path style="fill:#BD10E9;" d="M52.811,168.363c0.753,7.23,19.157,26.527,25.675,30.933l1.869-7.891
					c-13.149-17.493-17.612-24.75-18.594-26.423c-0.158-0.27-0.226-0.394-0.226-0.394l-4.146,1.795L52.811,168.363z"/>
				<g>
					<path style="fill:#A200CB;" d="M57.332,166.311c0.017,0.027,0.036,0.051,0.056,0.073c0.029,0.029,0.061,0.056,0.095,0.078
						c0.158,0.1,0.367,0.107,0.537-0.002c1.201-0.773,2.507-1.204,3.585-1.442c0.054-0.012,0.104-0.024,0.156-0.034
						c-0.158-0.27-0.226-0.394-0.226-0.394c-0.027-0.182-0.056-0.367-0.083-0.557c-1.179,0.253-2.622,0.725-3.969,1.59
						C57.252,165.774,57.181,166.08,57.332,166.311z"/>
				</g>
				<path style="fill:#FCB38F;" d="M80.356,191.406c0,0,4.363,0.496,4.671,2.138v2.797v6.529c0,0-2.952,1.234-6.541-3.573
					C77.866,196.355,78.611,193.755,80.356,191.406z"/>
				<g>
					<path style="fill:#FCB38F;" d="M85.002,191.669c0,0,5.86,0.769,5.231,2.301c-0.217,0.529-4.73,0.503-4.73,0.503l0.078,0.73
						c0,0,4.879,0.405,5.489,1.743s-5.244,0.557-5.244,0.557l0.098,0.924c0,0,3.877,0.263,4.516,1.39
						c0.639,1.127-4.955,0.786-4.955,0.786l0.076,0.719c0,0,2.261,0.448,3.049,1.507c0.788,1.059-3.092,0.575-4.664-0.038
						c-1.571-0.612-1.245-1.788-1.043-2.329c0,0-0.757-1.946,0.193-3.034c0,0-0.945-1.562,0.11-2.635
						C83.205,194.795,82.123,191.525,85.002,191.669z"/>
				</g>
				<path style="fill:#FCB38F;" d="M80.356,191.406c0,0,0.664-1.104,1.07-2.26c0.406-1.156,1.405-2.674,1.781-1.844
					c0.468,1.031,0.127,2.129,0.031,3.125c-0.219,2.279,0.583,1.89,0.412,2.625C83.48,193.787,80.223,192.791,80.356,191.406z"/>
			</g>
			<g>
				<g>
					<path style="fill:#FCB38F;" d="M116.862,169.211c0,0-5.85,0.836-5.204,2.361c0.223,0.526,4.736,0.448,4.736,0.448l-0.069,0.731
						c0,0-4.874,0.461-5.468,1.805c-0.594,1.345,5.25,0.497,5.25,0.497l-0.088,0.926c0,0-3.874,0.308-4.5,1.442
						c-0.626,1.134,4.963,0.729,4.963,0.729l-0.068,0.72c0,0-2.256,0.474-3.031,1.542c-0.776,1.068,3.099,0.539,4.663-0.091
						c1.564-0.63,1.225-1.802,1.016-2.341c0,0,0.734-1.955-0.228-3.031c0,0,0.927-1.572-0.14-2.633
						C118.695,172.316,119.74,169.033,116.862,169.211z"/>
				</g>
				<path style="fill:#FCB38F;" d="M118.146,169.876c-0.045,0.69-0.905,1.147-1.76,1.342v-6.023c0.438,0.175,0.905,1.355,1.07,2.275
					C117.669,168.678,118.146,169.876,118.146,169.876z"/>
			</g>
		</g>
	</g>
	<g>
		<g>
			<g>
				<path style="fill:#E5E5E5;" d="M170.266,76.537c-0.028,2.159-0.796,4.554-2.011,6.674c-1.215,2.12-2.877,3.964-4.692,5.021
					l-47.58,27.714c-3.631,2.115-6.555,0.312-6.498-4.006c0.012-0.916,0.158-1.878,0.414-2.838c0.347-1.306,0.899-2.618,1.598-3.836
					c0.902-1.574,2.051-2.996,3.326-4.057c0.522-12.66,9.253-27.634,19.808-33.782c6.906-4.023,12.92-3.292,16.307,1.124
					c0.976-0.932,2.012-1.731,3.088-2.357c0.333-0.194,0.66-0.365,0.981-0.516c5.152-2.416,9.119,0.402,9.037,6.693
					c0,0.003,0,0.003,0,0.007C167.544,70.509,170.321,72.33,170.266,76.537z"/>
			</g>
			<g>
				<path style="fill:#E5E5E5;" d="M215.208,40.713c-0.019,1.444-0.533,3.045-1.345,4.463c-0.812,1.417-1.924,2.651-3.137,3.358
					l-31.816,18.532c-2.428,1.414-4.383,0.209-4.346-2.679c0.008-0.612,0.106-1.256,0.277-1.898c0.232-0.873,0.601-1.75,1.068-2.565
					c0.603-1.053,1.371-2.004,2.224-2.713c0.35-8.466,6.187-18.478,13.246-22.59c4.618-2.69,8.64-2.202,10.904,0.751
					c0.652-0.623,1.346-1.157,2.065-1.576c0.222-0.13,0.441-0.244,0.656-0.345c3.445-1.616,6.098,0.269,6.043,4.475
					c0,0.002,0,0.002,0,0.004C213.388,36.683,215.244,37.9,215.208,40.713z"/>
			</g>
		</g>
		<g>
			<g>
				<path style="fill:#E5E5E5;" d="M383.421,101.653c0.028,2.159,0.796,4.554,2.011,6.674c1.215,2.12,2.877,3.964,4.692,5.021
					l47.58,27.714c3.63,2.115,6.555,0.312,6.498-4.006c-0.012-0.916-0.158-1.878-0.414-2.838c-0.347-1.306-0.899-2.618-1.598-3.836
					c-0.902-1.574-2.05-2.996-3.325-4.057c-0.523-12.66-9.253-27.634-19.808-33.782c-6.906-4.023-12.92-3.292-16.307,1.124
					c-0.976-0.932-2.012-1.73-3.088-2.357c-0.333-0.194-0.66-0.365-0.981-0.516c-5.152-2.417-9.119,0.402-9.037,6.693
					c0,0.003,0,0.003,0,0.007C386.142,95.625,383.366,97.446,383.421,101.653z"/>
			</g>
			<g>
				<path style="fill:#E5E5E5;" d="M342.958,61.536c0.019,1.444,0.532,3.045,1.345,4.463c0.812,1.417,1.924,2.651,3.137,3.358
					l31.816,18.532c2.428,1.414,4.383,0.209,4.345-2.679c-0.008-0.612-0.106-1.256-0.277-1.898c-0.232-0.873-0.601-1.75-1.068-2.565
					c-0.603-1.053-1.371-2.004-2.224-2.713c-0.35-8.466-6.187-18.478-13.246-22.59c-4.618-2.69-8.64-2.202-10.904,0.751
					c-0.652-0.623-1.346-1.157-2.065-1.576c-0.223-0.13-0.441-0.244-0.656-0.345c-3.445-1.616-6.098,0.269-6.043,4.475
					c0,0.002,0,0.002,0,0.004C344.778,57.506,342.921,58.723,342.958,61.536z"/>
			</g>
		</g>
	</g>
	<g>
		<g>
			<path style="fill:#E5E5E5;" d="M150.256,378.639l-17.681,11.797c-2.546,1.688-2.429,5.464,0.216,6.991l101.1,58.37
				c3.769,2.176,8.415,2.168,12.176-0.022l198.41-115.49c1.864-1.078,1.911-3.753,0.085-4.896l-12.517-7.839L245.544,432.326
				L150.256,378.639z"/>
			<g>
				<g>
					<path style="fill:#252B3D;" d="M141.332,362.126l0.001,23.344c0,1.798,0.956,3.459,2.509,4.363l86.239,50.127l0.77,0.445
						c0.002,0.002,0.006,0.004,0.008,0.006l1.866,1.085c0.002,0,0.004,0.002,0.006,0.002c1.475,0.658,2.932,0.866,4.256,0.83
						l-0.578-25.29L141.332,362.126z"/>
					<path style="fill:#3A4059;" d="M236.409,417.037l0.578,25.29c2.448-0.067,4.45-0.969,5.317-1.426
						c0.014-0.008,0.027-0.014,0.039-0.02l0.419-0.241l185.991-107.382c2.039-1.177,3.294-3.353,3.294-5.707v-22.663
						L236.409,417.037z"/>
					<polygon style="fill:#FFFFFF;" points="176.598,356.942 258.772,404.691 418.559,312.435 335.835,265.015 					"/>
					<polygon style="fill:#FFFFFF;" points="176.598,356.942 258.772,404.691 418.559,312.435 335.835,265.015 					"/>
					<g>
						<g>
							<path style="fill:#6B749B;" d="M167.105,393.382v3.427c0,0.272,0.145,0.525,0.382,0.662l32.937,19.015
								c0.509,0.294,1.144-0.073,1.144-0.662v-3.427c0-0.272-0.145-0.525-0.382-0.662l-32.936-19.015
								C167.74,392.426,167.105,392.793,167.105,393.382z"/>
						</g>
						<g>
							<path style="fill:#51557C;" d="M167.105,393.382v1.945c0,0.272,0.145,0.525,0.382,0.662l32.937,19.015
								c0.509,0.294,1.144-0.074,1.144-0.662v-1.945c0-0.272-0.145-0.525-0.382-0.662l-32.936-19.015
								C167.74,392.426,167.105,392.793,167.105,393.382z"/>
						</g>
					</g>
					<g>
						<path style="fill:#6B749B;" d="M215.488,423.822c0.101,2.042,1.033,3.653,2.081,3.602c0.126-0.007,0.246-0.036,0.362-0.088
							c0.855-0.374,1.441-1.904,1.352-3.701c-0.086-1.732-0.77-3.158-1.615-3.515c-0.151-0.066-0.306-0.096-0.465-0.088
							C216.156,420.084,215.387,421.78,215.488,423.822z"/>
						<path style="fill:#51557C;" d="M216.314,423.822c0.086,1.733,0.77,3.156,1.617,3.514c0.855-0.374,1.441-1.904,1.352-3.701
							c-0.086-1.732-0.77-3.158-1.615-3.515C216.812,420.494,216.225,422.023,216.314,423.822z"/>
					</g>
					<g>
						<path style="fill:#51557C;" d="M430.603,307.312L243.622,415.265c-4.104,2.369-9.161,2.363-13.259-0.017l-87.55-50.84
							c-1.979-1.149-1.975-4.007,0.007-5.151l191.512-110.57c0.918-0.53,2.048-0.532,2.968-0.005l93.294,53.469
							C432.586,303.293,432.591,306.164,430.603,307.312z"/>
						<path style="fill:#6B749B;" d="M187.678,379.152c0,3.54,5.591,6.411,12.488,6.411c6.897,0,12.488-2.87,12.488-6.411
							c0-3.54-5.591-6.411-12.488-6.411C193.269,372.741,187.678,375.611,187.678,379.152z"/>
						<polygon style="fill:#FFFFFF;" points="176.59,349.272 208.295,367.707 222.663,376.031 252.225,393.23 258.764,397.021 
							285.193,381.773 311.348,366.663 325.717,358.366 361.515,337.706 394.483,318.666 418.55,304.765 394.483,290.973 
							361.515,272.071 335.827,257.345 325.717,263.17 311.348,271.467 285.193,286.577 252.225,305.616 222.663,322.677 
							208.295,330.975 						"/>
						<g>
							<g>
								<path style="fill:#E5E5E5;" d="M254.601,384.461c-0.363,0-0.73-0.093-1.066-0.288l-55.174-32.057
									c-1.015-0.59-1.359-1.89-0.77-2.905c0.589-1.015,1.89-1.359,2.905-0.77l55.174,32.057c1.015,0.59,1.359,1.89,0.77,2.905
									C256.046,384.082,255.333,384.461,254.601,384.461z"/>
								<path style="fill:#E5E5E5;" d="M269.515,376.242c-0.362,0-0.73-0.093-1.066-0.288l-55.174-32.057
									c-1.015-0.59-1.359-1.89-0.77-2.905c0.59-1.015,1.89-1.359,2.905-0.77l55.174,32.057c1.015,0.59,1.359,1.89,0.77,2.905
									C270.96,375.863,270.247,376.242,269.515,376.242z"/>
								<path style="fill:#E5E5E5;" d="M284.429,368.023c-0.362,0-0.73-0.093-1.066-0.288l-55.174-32.057
									c-1.015-0.59-1.359-1.89-0.77-2.905c0.59-1.015,1.89-1.359,2.905-0.77l55.174,32.057c1.015,0.59,1.359,1.89,0.77,2.905
									C285.874,367.644,285.161,368.023,284.429,368.023z"/>
								<path style="fill:#E5E5E5;" d="M299.343,359.803c-0.362,0-0.73-0.093-1.066-0.288l-55.174-32.057
									c-1.015-0.59-1.359-1.89-0.77-2.905c0.59-1.015,1.89-1.359,2.905-0.77l55.174,32.057c1.015,0.59,1.359,1.89,0.77,2.905
									C300.788,359.424,300.075,359.803,299.343,359.803z"/>
								<path style="fill:#E5E5E5;" d="M314.257,351.584c-0.362,0-0.73-0.093-1.066-0.288l-55.174-32.057
									c-1.015-0.59-1.359-1.89-0.77-2.905c0.59-1.015,1.891-1.359,2.905-0.77l55.174,32.057c1.015,0.59,1.359,1.89,0.77,2.905
									C315.701,351.205,314.989,351.584,314.257,351.584z"/>
								<path style="fill:#E5E5E5;" d="M329.171,343.365c-0.362,0-0.73-0.093-1.066-0.288l-55.174-32.057
									c-1.015-0.59-1.359-1.89-0.77-2.905c0.59-1.015,1.891-1.359,2.905-0.77l55.174,32.057c1.015,0.59,1.359,1.89,0.77,2.905
									C330.615,342.986,329.903,343.365,329.171,343.365z"/>
								<path style="fill:#E5E5E5;" d="M344.084,335.146c-0.362,0-0.73-0.093-1.066-0.288l-55.174-32.057
									c-1.015-0.59-1.359-1.89-0.77-2.905c0.59-1.015,1.891-1.359,2.905-0.77l55.174,32.057c1.015,0.59,1.359,1.89,0.77,2.905
									C345.529,334.767,344.817,335.146,344.084,335.146z"/>
								<path style="fill:#E5E5E5;" d="M358.998,326.927c-0.363,0-0.73-0.093-1.066-0.288l-55.174-32.057
									c-1.015-0.59-1.359-1.89-0.77-2.905c0.59-1.015,1.891-1.359,2.905-0.77l55.174,32.057c1.015,0.59,1.359,1.89,0.77,2.905
									C360.443,326.548,359.73,326.927,358.998,326.927z"/>
								<path style="fill:#E5E5E5;" d="M373.912,318.707c-0.362,0-0.73-0.093-1.066-0.288l-55.174-32.057
									c-1.015-0.59-1.359-1.89-0.77-2.905c0.59-1.015,1.891-1.359,2.905-0.77l55.174,32.057c1.015,0.59,1.359,1.89,0.77,2.905
									C375.357,318.328,374.644,318.707,373.912,318.707z"/>
								<path style="fill:#E5E5E5;" d="M388.826,310.488c-0.362,0-0.73-0.093-1.066-0.288l-55.173-32.057
									c-1.015-0.59-1.359-1.89-0.77-2.905c0.59-1.015,1.891-1.359,2.905-0.77l55.174,32.057c1.015,0.59,1.359,1.89,0.77,2.905
									C390.271,310.109,389.558,310.488,388.826,310.488z"/>
							</g>
						</g>
					</g>
				</g>
			</g>
		</g>
		<g>
			<polygon style="opacity:0.1;fill:#252B3D;" points="199.625,326.461 262.71,362.883 340.365,318.048 277.281,281.626 			"/>
			<g>
				<path style="fill:#8800B5;" d="M343.979,247.097v68.118l-69.522,44.462l-6.283,4.017c-0.038,0.023-0.075,0.048-0.113,0.07
					c-0.537,0.307-1.285,0.508-2.005,0.538c-0.602,0.027-1.188-0.065-1.622-0.31l-9.977-5.965c-1-0.598-1.61-1.675-1.61-2.84
					v-44.655c0-0.962,0.415-1.865,1.125-2.485c0.165-0.145,0.343-0.275,0.535-0.385l45.04-25.87l7.688-20.815
					c0.595-1.61,1.735-2.96,3.22-3.82l25.475-14.707C339.509,240.382,343.979,242.967,343.979,247.097z"/>
				<path style="fill:#BD10E9;" d="M252.917,309.854c-0.046,0.22-0.071,0.447-0.071,0.676v44.657c0,1.163,0.611,2.241,1.609,2.838
					l9.978,5.967c0.999,0.559,2.776,0.319,3.74-0.299l6.283-4.018l-8.207-39.497C262.079,318.229,254.579,312.592,252.917,309.854z"
					/>
				<g>
					<path style="fill:#E5E5E5;" d="M311.55,277.608l-37.837,22.081c-1.603,0.935-2.589,2.652-2.589,4.508v24.325
						c0,4.028,4.37,6.538,7.85,4.508l42.473-24.786v-24.951C321.448,278.212,315.937,275.047,311.55,277.608z"/>
					<path style="fill:#FFFFFF;" d="M315.678,278.657l-38.586,22.518c-1.603,0.935-2.589,2.652-2.589,4.508v24.325
						c0,4.029,4.37,6.538,7.85,4.508l34.407-20.079c2.903-1.694,4.688-4.802,4.688-8.163V281.97
						C321.448,279.009,318.236,277.165,315.678,278.657z"/>
					<g>
						<g>
							<path style="fill:#E5E5E5;" d="M282.163,330.298c-0.686,0-1.242-0.627-1.242-1.4v-21.337c0-0.773,0.556-1.4,1.242-1.4
								c0.686,0,1.242,0.627,1.242,1.4v21.337C283.405,329.671,282.849,330.298,282.163,330.298z"/>
						</g>
						<g>
							<path style="fill:#E5E5E5;" d="M288.72,325.871c-0.686,0-1.242-0.627-1.242-1.4v-21.337c0-0.773,0.556-1.4,1.242-1.4
								c0.686,0,1.242,0.627,1.242,1.4v21.337C289.961,325.244,289.405,325.871,288.72,325.871z"/>
						</g>
						<g>
							<path style="fill:#E5E5E5;" d="M295.276,321.445c-0.686,0-1.242-0.627-1.242-1.4v-21.337c0-0.773,0.556-1.4,1.242-1.4
								c0.686,0,1.242,0.627,1.242,1.4v21.337C296.517,320.818,295.961,321.445,295.276,321.445z"/>
						</g>
						<g>
							<path style="fill:#E5E5E5;" d="M301.832,317.018c-0.686,0-1.242-0.627-1.242-1.4v-21.337c0-0.773,0.556-1.4,1.242-1.4
								c0.686,0,1.242,0.627,1.242,1.4v21.337C303.074,316.391,302.518,317.018,301.832,317.018z"/>
						</g>
						<g>
							<path style="fill:#E5E5E5;" d="M308.388,312.592c-0.686,0-1.242-0.627-1.242-1.4v-21.337c0-0.773,0.556-1.4,1.242-1.4
								s1.242,0.627,1.242,1.4v21.337C309.63,311.965,309.074,312.592,308.388,312.592z"/>
						</g>
						<g>
							<path style="fill:#E5E5E5;" d="M314.945,308.165c-0.686,0-1.242-0.627-1.242-1.4v-21.337c0-0.773,0.556-1.4,1.242-1.4
								s1.242,0.627,1.242,1.4v21.337C316.186,307.538,315.63,308.165,314.945,308.165z"/>
						</g>
					</g>
				</g>
				<path style="fill:#DC56FF;" d="M347.981,254.784v63.567c0,0.085-0.045,0.163-0.117,0.205l-79.803,45.207
					c-0.537,0.307-1.285,0.508-2.005,0.538v-43.79c0-0.137,0.073-0.265,0.193-0.332l4.875-2.8l3.38-1.942l6.418-3.688l2.482-1.425
					l4.075-2.342l2.483-1.425l4.072-2.34l2.483-1.425l4.075-2.342l2.483-1.425l4.073-2.34l2.485-1.428l1.005-0.577l3.068-8.303
					l0.84-2.272l2.165-5.865l0.417-1.13l2.12-5.735l24.733-14.28L347.981,254.784z"/>
				<g>
					<g>
						<path style="fill:#BD10E9;" d="M301.641,329.559l4.513-2.996l-0.108-16.774c-0.014-2.189,1.531-4.996,3.451-6.271l0,0
							c1.92-1.275,3.488-0.534,3.502,1.655l0.108,16.774l4.513-2.996l-3.967,7.111l-3.966,7.11l-4.023-1.807L301.641,329.559z"/>
					</g>
				</g>
			</g>
		</g>
	</g>
	<g>
		
			<ellipse transform="matrix(0.9563 -0.2925 0.2925 0.9563 -94.5693 142.7375)" style="fill:#E5E5E5;" cx="430.044" cy="387.618" rx="33.143" ry="12.795"/>
		<g>
			<path style="fill:#252B3D;" d="M372.065,200.906c0,0-6.928,1.327-9.838,19.651c-2.91,18.324-9.5,13.818-8.875,22.943
				s8.98,12.072,16.064,6.146c7.084-5.926,16.677-5.876,23.494-4.511c6.817,1.365,3.99-6.399,1.661-14.704
				c-2.329-8.305,0.123-13.158-1.302-19.138C391.845,205.311,383.153,198.437,372.065,200.906z"/>
			<g>
				<path style="fill:#BD10E9;" d="M393.972,268.51c0.011,0.094,0.025,0.187,0.043,0.283c0.023,0.157,0.052,0.319,0.087,0.481
					c1.745,8.59,14.299,22.926,14.299,22.926l6.444-3.764c-6.117-8.212-12.887-25.232-12.887-25.232l-4.245,2.819L393.972,268.51z"
					/>
				<g>
					<g>
						<path style="fill:#BD10E9;" d="M389.002,258.255c0.787,3.935,2.76,7.438,4.699,10.114c0.107,0.144,0.21,0.285,0.315,0.424
							c0.084,0.112,0.167,0.221,0.249,0.328c0.566,0.737,1.118,1.401,1.626,1.978c0.885-1.106,1.859-2.133,2.765-3.223
							c0.725-0.874,1.302-1.859,1.939-2.794c0.422-0.623,0.869-1.273,1.364-1.877c-4.124-9.046-7.678-27.999-7.678-27.999
							S387.239,249.446,389.002,258.255z"/>
					</g>
				</g>
				<g>
					<path style="fill:#A200CB;" d="M393.701,268.369c0.107,0.144,0.21,0.285,0.315,0.424c0.023,0.157,0.052,0.319,0.087,0.481
						c0.053-0.05,0.105-0.1,0.162-0.153c0.814-0.75,2.019-1.663,3.501-2.203c0.178-0.066,0.292-0.226,0.306-0.401
						c0.007-0.066-0.002-0.132-0.025-0.196c-0.055-0.153-0.182-0.26-0.333-0.297c-0.084-0.018-0.178-0.014-0.267,0.018
						C395.863,266.622,394.581,267.568,393.701,268.369z"/>
				</g>
			</g>
			<g>
				<g>
					<g>
						<path style="fill:#BD10E9;" d="M440.431,369.45c-0.78,0.604-1.132,1.626-0.939,2.611c0.169,0.862,0.488,2.067,1.087,3.603
							c1.335,3.427,1.897,4.87,1.897,4.87s1.676,1.411,4.858,0.842l1.218-0.222c0,0,7.963,1.709,11.252,0.897
							c4.291-1.06,7.851-4.469,2.992-7.285c-4.589-2.66-9.892-2.497-12.381-5.05c-0.29-0.298-1.621-0.679-1.992-0.863
							C445.284,367.29,443.279,367.244,440.431,369.45z"/>
					</g>
					<g>
						<g>
							<g>
								<path style="fill:#FFFFFF;" d="M450.156,374.33c0.15-0.053,0.262-0.192,0.272-0.36c0.001-0.013,0.104-1.387,0.965-2.059
									c0.825-0.644,2.118-0.186,2.131-0.181c0.213,0.077,0.448-0.032,0.526-0.244c0.078-0.212-0.03-0.447-0.242-0.526
									c-0.07-0.026-1.731-0.623-2.919,0.304c-1.154,0.901-1.275,2.582-1.279,2.653c-0.015,0.226,0.157,0.421,0.383,0.435
									C450.05,374.356,450.106,374.348,450.156,374.33z"/>
							</g>
						</g>
						<g>
							<g>
								<path style="fill:#FFFFFF;" d="M451.852,374.817c0.15-0.053,0.262-0.192,0.272-0.36c0.001-0.013,0.104-1.387,0.965-2.059
									c0.825-0.644,2.118-0.186,2.131-0.181c0.213,0.077,0.448-0.032,0.526-0.244c0.078-0.212-0.03-0.447-0.242-0.525
									c-0.07-0.026-1.73-0.623-2.919,0.304c-1.154,0.901-1.275,2.582-1.279,2.653c-0.014,0.226,0.157,0.421,0.383,0.435
									C451.746,374.843,451.801,374.835,451.852,374.817z"/>
							</g>
						</g>
						<g>
							<g>
								<path style="fill:#FFFFFF;" d="M453.701,375.134c0.15-0.053,0.262-0.192,0.272-0.36c0.001-0.013,0.105-1.387,0.966-2.059
									c0.825-0.644,2.118-0.186,2.131-0.181c0.213,0.077,0.448-0.032,0.526-0.244c0.078-0.212-0.03-0.447-0.242-0.525
									c-0.07-0.026-1.73-0.624-2.919,0.304c-1.154,0.9-1.275,2.582-1.279,2.653c-0.014,0.226,0.157,0.421,0.383,0.435
									C453.595,375.16,453.65,375.152,453.701,375.134z"/>
							</g>
						</g>
					</g>
					<g>
						<path style="fill:#FCB38F;" d="M436.851,363.242l4.77,7.752c0,0,3.517,1.174,6.065-1.341l-4.691-8.536
							C442.995,361.117,438.53,361.284,436.851,363.242z"/>
					</g>
				</g>
				<path style="fill:#51557C;" d="M445.527,359.771l1.974,4.058c0,0-3.647,3.857-9.04,5.032l-1.928-3.538
					C436.534,365.323,442.316,362.756,445.527,359.771z"/>
				<path style="fill:#252B3D;" d="M392.172,302.757c0,0,15.972,12.782,19.636,15.572c3.664,2.79,6.573,9.698,9,16.04
					c2.298,6.004,17.858,31.824,17.858,31.824l6.433-4.018c0,0-13.375-43.431-16.375-48.556s-21.339-21.727-21.339-21.727
					S394.62,296.145,392.172,302.757z"/>
			</g>
			<path style="fill:#252B3D;" d="M363.636,294.37c0,0-2.751,12.349-0.395,22.43c1.907,8.16,34.457-0.629,35.142-8.185
				c0.684-7.556-3.193-18.106-3.193-18.106L363.636,294.37z"/>
			<g>
				<g>
					<path style="fill:#DC56FF;" d="M397.432,295.622c-12.038,4.096-24.607,6.738-34.539,0.155
						c1.767-9.853,3.411-22.685,2.413-28.486c-1.667-9.675-11.029-26.032-3.156-29.513c1.87-0.827,4.798-1.632,8.143-2.367
						c4.449-0.977,9.664-1.839,14.248-2.505c2.163-0.322,4.628-0.237,6.064-0.032c3.248,0.464,4.398,1.897,3.486,5.126
						c-1.115,3.953-1.272,8.196,0.615,12.507c3.175,7.252-1.74,11.187-2.46,17.633C391.675,273.33,395.52,287.639,397.432,295.622z"
						/>
				</g>
				<g>
					<path style="fill:#FFFFFF;" d="M380.191,245.135c0.854,0,1.673-0.245,2.434-0.734c4.858-3.123,2.151-11.521,2.033-11.877
						l-0.866,0.286c0.027,0.08,2.604,8.082-1.66,10.824c-1.245,0.8-2.644,0.786-4.159-0.04c-3.241-1.769-5.871-6.601-5.871-8.816
						h-0.912c0,2.712,2.988,7.784,6.346,9.617C378.439,244.888,379.333,245.135,380.191,245.135z"/>
				</g>
				<g>
					<path style="fill:#BD10E9;" d="M378.99,268.511c8.366,0,12.85-2.396,13.071-2.517c0.226-0.124,0.309-0.407,0.185-0.633
						c-0.124-0.225-0.407-0.309-0.633-0.185l0,0c-0.063,0.034-6.388,3.396-17.869,2.099c-0.256-0.029-0.487,0.155-0.516,0.411
						c-0.029,0.256,0.155,0.487,0.411,0.516C375.569,268.419,377.354,268.511,378.99,268.511z"/>
				</g>
				<g>
					<path style="fill:#BD10E9;" d="M380.97,251.596c0.045,0,0.091-0.007,0.136-0.02c5.231-1.591,6.413-5.178,6.46-5.33
						c0.077-0.246-0.059-0.508-0.305-0.585c-0.244-0.077-0.507,0.059-0.584,0.304c-0.044,0.136-1.11,3.279-5.842,4.718
						c-0.247,0.075-0.386,0.336-0.311,0.582C380.585,251.466,380.77,251.596,380.97,251.596z"/>
				</g>
				<g>
					<path style="fill:#BD10E9;" d="M374.358,293.51c11.495,0,17.996-6.325,18.267-6.594c0.183-0.181,0.184-0.476,0.003-0.659
						c-0.181-0.183-0.477-0.184-0.66-0.003c-0.064,0.063-6.518,6.323-17.609,6.323c-0.255-0.005-0.469,0.207-0.469,0.466
						c0,0.258,0.209,0.467,0.467,0.467C374.356,293.51,374.357,293.51,374.358,293.51z"/>
				</g>
				<g>
					<path style="fill:#BD10E9;" d="M375.688,291.357c0.004,0,0.008,0,0.012,0c4.286-0.104,9.683-3.565,9.911-3.712
						c0.216-0.14,0.278-0.429,0.139-0.645c-0.14-0.216-0.429-0.278-0.645-0.138c-0.053,0.035-5.406,3.465-9.427,3.563
						c-0.258,0.006-0.461,0.22-0.455,0.478C375.228,291.155,375.435,291.357,375.688,291.357z"/>
				</g>
			</g>
			<g>
				<g>
					<path style="fill:#252B3D;" d="M373.862,226.908c0,0-6.159-2.266-7.388-8.583c-1.229-6.317-0.868-15.596,7.755-18.325
						c8.623-2.728,16.591-0.111,18.514,7.846C392.742,207.846,386.127,223.692,373.862,226.908z"/>
				</g>
				<g>
					<g>
						<g>
							<path style="fill:#FCB38F;" d="M383.535,229.926l-0.469,4.372l-0.262,2.557c-4.986,2.148-10.093-1.07-10.038-1.522
								c0.545-1.94,0.959-5.265,1.096-8.426c0.087-0.061,0.182-0.112,0.283-0.152C376.775,225.612,383.535,229.926,383.535,229.926z
								"/>
						</g>
						<g>
							<path style="fill:#FD8471;" d="M383.535,229.926l-0.469,4.372c-4.981-1.763-7.707-5.433-8.921-7.543
								C376.775,225.612,383.535,229.926,383.535,229.926z"/>
						</g>
					</g>
					<g>
						<g>
							<path style="fill:#FD8471;" d="M391.24,216.097c0,0,1.942-2.306,3.173-0.238c1.23,2.067-1.001,7.842-4.208,6.22
								L391.24,216.097z"/>
						</g>
						<g>
							<path style="fill:#FFFFFF;" d="M392.178,221.131c0.038,0.229,0.255,0.383,0.483,0.345c0.229-0.038,0.383-0.255,0.345-0.483
								s-0.255-0.383-0.483-0.345S392.14,220.902,392.178,221.131z"/>
						</g>
						<g>
							<g>
								<path style="fill:#D6615D;" d="M391.025,220.302c0.122,0.007,0.237-0.067,0.279-0.188c0.613-1.787,2.535-2.417,2.555-2.423
									c0.146-0.047,0.227-0.203,0.181-0.349c-0.046-0.146-0.202-0.228-0.349-0.182c-0.09,0.028-2.208,0.715-2.914,2.773
									c-0.05,0.146,0.028,0.304,0.173,0.354C390.976,220.296,391.001,220.3,391.025,220.302z"/>
							</g>
						</g>
						<g>
							<g>
								<path style="fill:#D6615D;" d="M392.976,219.495c0.051,0.003,0.104-0.009,0.153-0.036c0.134-0.076,0.181-0.246,0.105-0.379
									c-0.012-0.022-0.317-0.549-0.995-0.9c-0.136-0.071-0.304-0.017-0.375,0.119c-0.071,0.137-0.017,0.304,0.119,0.375
									c0.525,0.271,0.764,0.676,0.767,0.68C392.798,219.439,392.885,219.489,392.976,219.495z"/>
							</g>
						</g>
					</g>
					<g>
						<path style="fill:#FCB38F;" d="M392.81,218.986c-0.047,0.649-0.114,1.256-0.204,1.805c-0.82,4.953-5.173,15.011-13.887,9.887
							c-2.09-1.23-3.645-2.445-4.857-3.771c-0.915-0.998-1.639-2.059-2.257-3.234c-0.239-0.454-0.348-0.964-0.503-1.451
							c-0.028-0.085-0.054-0.173-0.079-0.259c-0.015-0.049-0.03-0.096-0.045-0.145c-0.433-1.421-0.762-2.857-1.018-4.225
							c-0.318-1.707-0.521-3.299-0.645-4.609c-0.23-2.407,0.831-4.754,2.787-6.178c5.294-3.858,11.405-3.349,15.512-2.287
							c2.851,0.736,4.906,3.216,5.099,6.151c0.094,1.392,0.17,2.979,0.192,4.555C392.922,216.525,392.899,217.821,392.81,218.986z"
							/>
					</g>
					<g>
						<path style="fill:#252B3D;" d="M389.147,214.236c0.009-0.256,0.225-0.455,0.481-0.446c0.682,0.023,1.538,0.114,2.315,0.379
							c1.622,0.555,1.842,1.016,1.842,1.016s-0.202,0.191-2.326-0.24c-0.545-0.111-1.269-0.155-1.895-0.215
							c-0.246-0.024-0.427-0.237-0.419-0.484C389.147,214.242,389.147,214.24,389.147,214.236z"/>
					</g>
					<g>
						<path style="fill:#252B3D;" d="M383.528,213.909c0.048-0.303-0.16-0.586-0.463-0.634c-0.806-0.13-1.831-0.22-2.804-0.086
							c-2.031,0.278-2.396,0.769-2.396,0.769s0.193,0.271,2.785,0.252c0.666-0.005,1.525,0.109,2.273,0.182
							c0.294,0.029,0.556-0.18,0.602-0.472C383.527,213.916,383.528,213.912,383.528,213.909z"/>
					</g>
					<g>
						<g>
							<path style="fill:#FD8471;" d="M385.101,222.807c0.025-0.004,0.049-0.011,0.074-0.02l1.82-0.707l-0.741-4.423
								c-0.034-0.203-0.226-0.34-0.429-0.306c-0.203,0.034-0.34,0.226-0.306,0.429l0.64,3.825l-1.255,0.488
								c-0.192,0.075-0.287,0.29-0.212,0.482C384.757,222.742,384.93,222.836,385.101,222.807z"/>
						</g>
					</g>
					<g>
						<path style="fill:#FD8471;" d="M374.57,221.821c0,0-0.906,1.753-2.965,1.852c-0.181-0.478-0.348-0.964-0.503-1.451
							C372.097,222.401,373.62,222.515,374.57,221.821z"/>
					</g>
					<g>
						<path style="fill:#252B3D;" d="M373.862,226.908c-0.915-0.998-1.639-2.059-2.257-3.234c-0.239-0.454-0.348-0.964-0.503-1.451
							c-0.028-0.085-0.054-0.173-0.079-0.259c0.211,0.009,0.555,0.077,1.12,0.259C372.143,222.223,374.477,224.894,373.862,226.908z
							"/>
					</g>
					<g>
						<path style="fill:#FFFFFF;" d="M388.198,224.736c-0.429,1.257-1.599,3.517-4.472,3.133c-2.88-0.385-3.397-2.663-3.475-4.196
							L388.198,224.736z"/>
					</g>
					<g>
						<path style="fill:#252B3D;" d="M381.747,218.008c-0.04,0.698-0.431,1.244-0.875,1.219c-0.444-0.025-0.772-0.612-0.732-1.31
							c0.04-0.698,0.431-1.244,0.875-1.219C381.458,216.723,381.786,217.31,381.747,218.008z"/>
					</g>
					<g>
						<path style="fill:#252B3D;" d="M390.892,218.527c-0.039,0.698-0.431,1.244-0.875,1.219c-0.444-0.025-0.772-0.611-0.732-1.31
							c0.04-0.698,0.431-1.244,0.875-1.219C390.603,217.242,390.931,217.829,390.892,218.527z"/>
					</g>
					<g>
						<g>
							<path style="fill:#FCB38F;" d="M371.977,216.608c0,0-1.989-2.04-3.007-0.007c-1.017,2.033,1.007,7.075,4.543,5.61
								L371.977,216.608z"/>
						</g>
						<g>
							<path style="fill:#FFFFFF;" d="M371.231,221.844c0.038,0.229,0.255,0.383,0.483,0.345c0.229-0.038,0.383-0.255,0.345-0.483
								c-0.038-0.229-0.255-0.383-0.483-0.345C371.347,221.399,371.193,221.616,371.231,221.844z"/>
						</g>
						<g>
							<g>
								<path style="fill:#FD8471;" d="M372.468,220.555c-0.114,0.015-0.228-0.047-0.276-0.158c-0.7-1.642-2.556-2.103-2.574-2.108
									c-0.141-0.034-0.228-0.176-0.195-0.317c0.033-0.141,0.175-0.229,0.316-0.195c0.087,0.021,2.131,0.523,2.937,2.413
									c0.057,0.134-0.005,0.288-0.139,0.345C372.515,220.546,372.492,220.552,372.468,220.555z"/>
							</g>
						</g>
						<g>
							<g>
								<path style="fill:#FD8471;" d="M370.575,219.929c-0.048,0.006-0.099-0.001-0.146-0.023c-0.131-0.062-0.187-0.219-0.125-0.35
									c0.01-0.022,0.261-0.539,0.876-0.916c0.123-0.076,0.286-0.037,0.362,0.087c0.076,0.124,0.037,0.286-0.087,0.362
									c-0.476,0.292-0.674,0.689-0.676,0.693C370.739,219.864,370.66,219.917,370.575,219.929z"/>
							</g>
						</g>
					</g>
				</g>
				<g>
					<path style="fill:#252B3D;" d="M369.663,215.827c0.804-0.233,1.472-0.144,1.951,0.076c0.333,0.153,0.601,0.383,0.842,0.68
						c0.05,0.06,0.098,0.124,0.147,0.191c0.108-0.044,0.211-0.104,0.308-0.178c0.22-0.165,0.414-0.4,0.586-0.674
						c0.455-0.725,0.996-1.263,1.163-1.939c0.254-1.031,1.378-1.972,1.378-1.972c8.783,2.733,15.733-4.837,15.733-4.837
						c-2.717-8.362-17.487-4.379-21.298-2.355C366.664,206.842,365.459,217.046,369.663,215.827z"/>
				</g>
				<g>
					<path style="fill:#252B3D;" d="M389.787,207.764c0,0-0.751,5.812,3.246,7.859C393.033,215.623,394.755,203.832,389.787,207.764
						z"/>
				</g>
				<g>
					<g>
						<g>
							<path style="fill:#FFFFFF;" d="M380.348,221.77c-2.114-0.116-3.741-1.931-3.625-4.045c0.116-2.115,1.93-3.741,4.045-3.625
								c2.114,0.116,3.74,1.93,3.625,4.045C384.277,220.26,382.462,221.886,380.348,221.77z M374.12,215.974
								c0.676,0.061,2.697,0.481,3.075,0.561c-0.052,0.216-0.3,1.015-0.262,0.803c0.027-0.147-1.281-0.431-1.281-0.411
								c-0.44-0.094-1.221-0.236-2.119-0.277c-0.148-0.007-0.754,0.01-0.931,0.125c-0.242-0.297-0.549-0.61-0.807-0.775
								C372.455,215.945,373.544,215.922,374.12,215.974z M380.736,214.698c-1.785-0.098-3.317,1.275-3.414,3.06
								c-0.098,1.785,1.275,3.316,3.06,3.414c1.785,0.098,3.316-1.275,3.414-3.06C383.893,216.327,382.52,214.796,380.736,214.698z"
								/>
						</g>
					</g>
					<g>
						<g>
							<path style="fill:#FFFFFF;" d="M390.83,222.344c-2.115-0.116-3.741-1.93-3.625-4.045c0.116-2.115,1.93-3.741,4.045-3.625
								c2.114,0.116,3.74,1.93,3.625,4.045C394.759,220.834,392.944,222.46,390.83,222.344z M391.217,215.272
								c-1.785-0.098-3.316,1.275-3.414,3.06c-0.098,1.785,1.275,3.317,3.06,3.414c1.785,0.098,3.316-1.275,3.414-3.06
								C394.374,216.902,393.002,215.37,391.217,215.272z"/>
						</g>
					</g>
					<g>
						<g>
							<path style="fill:#FFFFFF;" d="M387.463,217.449c-0.006-0.01-0.664-1.009-1.598-1.06c-0.924-0.051-1.619,0.873-1.626,0.882
								l-0.483-0.354c0.036-0.049,0.889-1.194,2.141-1.126c1.243,0.068,2.036,1.283,2.069,1.335L387.463,217.449z"/>
						</g>
					</g>
				</g>
			</g>
			<g>
				<g>
					<g>
						<g>
							<path style="fill:#BD10E9;" d="M404.326,380.118c-0.937,0.309-1.611,1.154-1.758,2.147c-0.128,0.869-0.231,2.111-0.18,3.759
								c0.113,3.676,0.159,5.176,0.159,5.176s1.109,1.939,4.299,2.466l0.938,0.132c0,0,7.218,4.339,10.589,4.673
								c4.398,0.435,8.893-1.587,5.255-5.866c-3.436-4.041-8.488-5.66-9.98-8.898c-0.174-0.378-1.301-1.182-1.588-1.48
								C409.622,379.705,407.748,378.991,404.326,380.118z"/>
						</g>
						<g>
							<g>
								<g>
									<path style="fill:#FFFFFF;" d="M411.696,387.885c0.159,0,0.31-0.093,0.377-0.249c0.005-0.012,0.562-1.273,1.598-1.618
										c0.993-0.331,2.058,0.533,2.069,0.542c0.175,0.144,0.433,0.119,0.577-0.055c0.144-0.174,0.121-0.432-0.053-0.576
										c-0.057-0.048-1.423-1.166-2.853-0.689c-1.389,0.463-2.064,2.007-2.092,2.073c-0.089,0.208,0.007,0.449,0.215,0.538
										C411.587,387.874,411.642,387.885,411.696,387.885z"/>
								</g>
							</g>
							<g>
								<g>
									<path style="fill:#FFFFFF;" d="M413.131,388.91c0.159,0,0.311-0.093,0.377-0.249c0.005-0.012,0.562-1.273,1.598-1.618
										c0.993-0.332,2.058,0.533,2.069,0.542c0.175,0.144,0.433,0.119,0.577-0.054c0.144-0.174,0.121-0.432-0.053-0.576
										c-0.057-0.048-1.422-1.166-2.853-0.689c-1.389,0.463-2.064,2.007-2.092,2.073c-0.089,0.208,0.007,0.449,0.215,0.538
										C413.022,388.899,413.077,388.91,413.131,388.91z"/>
								</g>
							</g>
							<g>
								<g>
									<path style="fill:#FFFFFF;" d="M414.767,389.827c0.159,0,0.311-0.093,0.377-0.249c0.005-0.012,0.562-1.273,1.598-1.618
										c0.992-0.332,2.058,0.533,2.069,0.542c0.175,0.144,0.433,0.119,0.577-0.055c0.144-0.174,0.121-0.432-0.053-0.576
										c-0.057-0.048-1.422-1.166-2.853-0.689c-1.389,0.463-2.064,2.007-2.092,2.073c-0.089,0.208,0.007,0.449,0.215,0.538
										C414.659,389.816,414.714,389.827,414.767,389.827z"/>
								</g>
							</g>
						</g>
					</g>
					<g>
						<path style="fill:#FCB38F;" d="M402.776,373.061l1.557,8.919c0,0,2.828,2.287,6.123,0.765l-1.193-9.633
							C409.262,373.112,405.058,371.774,402.776,373.061z"/>
					</g>
				</g>
				<g>
					<path style="fill:#252B3D;" d="M376.827,305.095c0,0,28.336,12.019,29.927,18.575c1.59,6.556,4.353,52.15,4.353,52.15
						s-4.245,2.394-8.938,1.463c0,0-2.838-15.269-4.163-19.366c-1.325-4.097-4.33-18.902-4.816-24.356
						c0,0-24.706-6.543-28.28-12.637C357.059,307.533,376.827,305.095,376.827,305.095z"/>
					<path style="fill:#51557C;" d="M411.53,372.273l0.504,4.485c0,0-4.727,2.416-10.202,1.721l-0.634-3.979
						C401.198,374.5,407.505,374.013,411.53,372.273z"/>
				</g>
			</g>
			<g>
				<g>
					<g>
						<path style="fill:#86A0C8;" d="M389.417,322.624l-20.095-11.472c-1.051-0.6-1.045-2.117,0.01-2.709l23.612-13.248
							c0.461-0.259,1.022-0.266,1.489-0.018l20.164,10.664c1.074,0.568,1.112,2.094,0.067,2.714l-23.68,14.056
							C390.502,322.897,389.904,322.901,389.417,322.624z"/>
						<path style="fill:#3A4059;" d="M389.417,320.255l-20.095-11.472c-1.051-0.6-1.045-2.117,0.01-2.709l23.612-13.247
							c0.461-0.259,1.022-0.266,1.489-0.019l20.164,10.664c1.074,0.568,1.112,2.094,0.067,2.714l-23.68,14.056
							C390.502,320.528,389.904,320.533,389.417,320.255z"/>
						<path style="fill:#51557C;" d="M368.554,309.728v-2.223l20.777,11.447v3.671l-19.913-11.405
							C368.884,310.913,368.554,310.344,368.554,309.728z"/>
					</g>
					<path style="fill:#51557C;" d="M389.331,295.661v25.635c0,1.337,1.103,2.285,2.296,2.274h4.425v-2.218l32.266-18.624
						c0.702-0.412,1.137-1.159,1.137-1.973v-24.253h2.084v-3.656h-4.369c-0.011,0-0.011,0-0.022,0c-0.368,0-0.747,0.089-1.103,0.301
						l-35.576,20.541C389.766,294.09,389.331,294.848,389.331,295.661z"/>
					<path style="fill:#6B749B;" d="M430.395,273.15l-35.574,20.539c-0.704,0.406-1.138,1.157-1.138,1.97v25.634
						c0,1.751,1.896,2.846,3.413,1.97l35.574-20.538c0.704-0.406,1.137-1.158,1.137-1.97V275.12
						C433.807,273.368,431.911,272.274,430.395,273.15z"/>
					<path style="fill:#9CA6C8;" d="M412.783,299.24c-0.009,2.008,1.167,3.64,2.626,3.647c1.459,0.007,2.65-1.615,2.659-3.623
						c0.009-2.007-1.167-3.64-2.626-3.647C413.982,295.61,412.792,297.232,412.783,299.24z"/>
				</g>
			</g>
			<g>
				<g>
					<g>
						<path style="fill:#BD10E9;" d="M359.115,275.141c2.71-0.385,5.759-1.499,8.437-2.083c-0.064-0.328-0.128-0.682-0.189-1.056
							c-0.023-0.13-0.043-0.265-0.066-0.401c-0.025-0.171-0.052-0.344-0.078-0.522c-1.567-10.538-2.329-34.287-2.329-34.287
							s-8.068,0.13-9.185,9.044C354.961,251.782,357.801,268.497,359.115,275.141z"/>
					</g>
				</g>
				<path style="fill:#BD10E9;" d="M359.115,275.141c2.676,8.113,21.099,27.383,21.099,27.383l4.735-5.771
					c-12.333-16.407-16.519-23.213-17.44-24.783c-0.148-0.253-0.212-0.37-0.212-0.37l-3.889,1.683L359.115,275.141z"/>
				<g>
					<path style="fill:#A200CB;" d="M363.355,273.216c0.016,0.025,0.034,0.048,0.052,0.068c0.027,0.027,0.057,0.053,0.089,0.073
						c0.148,0.094,0.345,0.1,0.504-0.002c1.127-0.725,2.352-1.129,3.362-1.353c0.05-0.011,0.098-0.023,0.146-0.032
						c-0.148-0.253-0.212-0.37-0.212-0.37c-0.025-0.171-0.052-0.344-0.078-0.522c-1.106,0.237-2.459,0.68-3.723,1.492
						C363.279,272.712,363.213,272.999,363.355,273.216z"/>
				</g>
				<path style="fill:#FCB38F;" d="M384.95,296.753c0,0,4.092,0.465,4.381,2.005v2.623v6.124c0,0-5.752-0.472-9.118-4.98
					L384.95,296.753z"/>
			</g>
		</g>
	</g>
	<g>
		<g>
			<g>
				<path style="fill:#DC56FF;" d="M295.416,252.738c-0.425-0.246-0.95-0.246-1.375,0l-123.962,71.57l-33.721-18.749l0.531-183.963
					l99.124-57.666l0.133,59.01l2.599-1.458l0.018-59.942c0-0.492-0.263-0.947-0.689-1.192c-0.426-0.245-0.952-0.244-1.377,0.003
					l-101.871,59.264c-0.422,0.245-0.682,0.696-0.684,1.185l-0.536,185.563c-0.001,0.5,0.269,0.962,0.707,1.206l35.111,19.522
					c0.208,0.116,0.438,0.173,0.668,0.173c0.238,0,0.475-0.061,0.688-0.184l122.575-70.768v33.307l2.75-1.665v-34.023
					C296.104,253.438,295.842,252.984,295.416,252.738z"/>
			</g>
			<path style="fill:#A200CB;" d="M139.875,120.147c0,2.704-2.192,4.896-4.896,4.896c-2.704,0-4.895-2.192-4.895-4.896
				c0-2.704,2.192-4.895,4.895-4.895C137.684,115.251,139.875,117.443,139.875,120.147z"/>
			<path style="fill:#A200CB;" d="M242.283,61.54c0,2.704-2.192,4.896-4.895,4.896s-4.896-2.192-4.896-4.896
				c0-2.704,2.192-4.895,4.896-4.895S242.283,58.836,242.283,61.54z"/>
			<circle style="fill:#A200CB;" cx="134.98" cy="305.347" r="4.895"/>
			<path style="fill:#A200CB;" d="M175.844,325.922c0,2.704-2.192,4.895-4.895,4.895s-4.895-2.192-4.895-4.895
				s2.192-4.896,4.895-4.896S175.844,323.219,175.844,325.922z"/>
			<path style="fill:#A200CB;" d="M299.624,253.929c0,2.704-2.192,4.896-4.895,4.896c-2.704,0-4.895-2.192-4.895-4.896
				s2.192-4.895,4.895-4.895C297.432,249.034,299.624,251.225,299.624,253.929z"/>
		</g>
		<g>
			<g>
				<g>
					<path style="fill:#BD10E9;" d="M157.529,204.797v31.532l-32.183,20.582l-2.908,1.86c-0.017,0.01-0.035,0.022-0.052,0.032
						c-0.249,0.142-0.595,0.235-0.928,0.249c-0.279,0.013-0.55-0.03-0.751-0.143l-4.619-2.761c-0.463-0.277-0.745-0.775-0.745-1.315
						v-20.671c0-0.445,0.192-0.863,0.521-1.15c0.076-0.067,0.159-0.127,0.248-0.178l20.85-11.975l3.559-9.635
						c0.275-0.745,0.803-1.37,1.491-1.768l11.793-6.808C155.46,201.688,157.529,202.885,157.529,204.797z"/>
					<path style="fill:#A200CB;" d="M115.376,233.848c-0.021,0.102-0.033,0.207-0.033,0.313v20.672c0,0.538,0.283,1.037,0.745,1.314
						l4.619,2.762c0.462,0.259,1.285,0.148,1.731-0.138l2.908-1.86l-3.799-18.284C119.617,237.725,116.145,235.115,115.376,233.848z
						"/>
					<g>
						<path style="fill:#E5E5E5;" d="M142.517,218.921l-17.515,10.221c-0.742,0.433-1.198,1.228-1.198,2.087v11.26
							c0,1.865,2.023,3.027,3.634,2.087l19.661-11.474v-11.55C147.099,219.2,144.548,217.735,142.517,218.921z"/>
						<path style="fill:#FFFFFF;" d="M144.428,219.406l-17.862,10.424c-0.742,0.433-1.198,1.227-1.198,2.087v11.26
							c0,1.865,2.023,3.027,3.634,2.087l15.927-9.295c1.344-0.784,2.17-2.223,2.17-3.779v-11.25
							C147.099,219.569,145.612,218.715,144.428,219.406z"/>
						<g>
							<g>
								<path style="fill:#E5E5E5;" d="M128.914,243.311c-0.317,0-0.575-0.29-0.575-0.648v-9.877c0-0.358,0.257-0.648,0.575-0.648
									c0.317,0,0.575,0.29,0.575,0.648v9.877C129.489,243.021,129.231,243.311,128.914,243.311z"/>
							</g>
							<g>
								<path style="fill:#E5E5E5;" d="M131.949,241.262c-0.317,0-0.575-0.29-0.575-0.648v-9.877c0-0.358,0.257-0.648,0.575-0.648
									c0.317,0,0.575,0.29,0.575,0.648v9.877C132.524,240.972,132.266,241.262,131.949,241.262z"/>
							</g>
							<g>
								<path style="fill:#E5E5E5;" d="M134.984,239.213c-0.317,0-0.575-0.29-0.575-0.648v-9.877c0-0.358,0.257-0.648,0.575-0.648
									c0.317,0,0.575,0.29,0.575,0.648v9.877C135.559,238.923,135.301,239.213,134.984,239.213z"/>
							</g>
							<g>
								<path style="fill:#E5E5E5;" d="M138.019,237.164c-0.317,0-0.575-0.29-0.575-0.648v-9.877c0-0.358,0.257-0.648,0.575-0.648
									s0.575,0.29,0.575,0.648v9.877C138.594,236.874,138.336,237.164,138.019,237.164z"/>
							</g>
							<g>
								<path style="fill:#E5E5E5;" d="M141.054,235.115c-0.317,0-0.575-0.29-0.575-0.648v-9.877c0-0.358,0.257-0.648,0.575-0.648
									c0.317,0,0.575,0.29,0.575,0.648v9.877C141.629,234.825,141.371,235.115,141.054,235.115z"/>
							</g>
							<g>
								<path style="fill:#E5E5E5;" d="M144.089,233.066c-0.317,0-0.575-0.29-0.575-0.648v-9.877c0-0.358,0.257-0.648,0.575-0.648
									s0.575,0.29,0.575,0.648v9.877C144.664,232.776,144.406,233.066,144.089,233.066z"/>
							</g>
						</g>
					</g>
					<path style="fill:#DC56FF;" d="M159.382,208.355v29.426c0,0.039-0.021,0.075-0.054,0.095l-36.941,20.927
						c-0.249,0.142-0.595,0.235-0.928,0.249v-20.271c0-0.064,0.034-0.123,0.089-0.154l2.257-1.296l1.565-0.899l2.971-1.707
						l1.149-0.66l1.886-1.084l1.149-0.66l1.885-1.083l1.149-0.66l1.886-1.084l1.149-0.66l1.885-1.083l1.15-0.661l0.465-0.267
						l1.42-3.843l0.389-1.052l1.002-2.715l0.193-0.523l0.981-2.655l11.449-6.61L159.382,208.355z"/>
				</g>
			</g>
		</g>
	</g>
	<g>
		<g>
			<g>
				<polygon style="fill:#A200CB;" points="334.652,226.802 331.106,234.561 331.106,228.849 				"/>
				<polygon style="fill:#8800B5;" points="331.109,234.561 329.352,233.546 329.352,229.863 331.106,228.849 				"/>
			</g>
			<polygon style="fill:#8800B5;" points="314.634,207.458 314.634,233.252 319.094,235.827 318.706,209.828 			"/>
			<polygon style="fill:#A200CB;" points="341.803,196.493 341.803,222.715 319.094,235.827 318.706,209.828 			"/>
			<polygon style="fill:#BD10E9;" points="314.634,207.458 337.73,194.124 341.803,196.493 318.706,209.828 			"/>
		</g>
		<g>
			<g>
				<path style="fill:#DC56FF;" d="M323.157,216.697l2.381-1.581l0.057,8.851c0.007,1.155,0.835,1.546,1.848,0.873l0,0
					c1.013-0.673,1.828-2.154,1.821-3.309l-0.057-8.851l2.381-1.581l-2.124-0.953l-2.123-0.953l-2.092,3.752L323.157,216.697z"/>
			</g>
		</g>
		<g>
			<g>
				<path style="fill:#DC56FF;" d="M330.63,220.146l2.381-1.581l-0.057-8.851c-0.007-1.155,0.808-2.636,1.821-3.309l0,0
					c1.013-0.673,1.841-0.282,1.848,0.873l0.057,8.851l2.381-1.581l-2.093,3.752l-2.092,3.752l-2.123-0.953L330.63,220.146z"/>
			</g>
		</g>
	</g>
	<g>
		<g>
			<ellipse style="fill:#E5E5E5;" cx="106.988" cy="455.357" rx="27.521" ry="8.894"/>
			<g>
				<g>
					<path style="fill:#51557C;" d="M126.792,414.891v34.946c0,5.83-8.872,10.553-19.804,10.553s-19.796-4.723-19.796-10.553
						v-34.946H126.792z"/>
					<ellipse style="fill:#3A4059;" cx="106.989" cy="414.887" rx="19.8" ry="10.56"/>
					<path style="fill:#252B3D;" d="M124.309,414.891c0,0.362-0.124,0.756-0.381,1.183c-1.531,2.597-7.696,6.082-16.94,6.082
						c-9.244,0-15.409-3.485-16.94-6.082c-0.257-0.427-0.381-0.822-0.381-1.183c0-2.564,6.579-7.276,17.321-7.276
						C117.73,407.614,124.309,412.326,124.309,414.891z"/>
				</g>
				<g>
					<g>
						<path style="fill:#A200CB;" d="M106.605,415.841c-0.023,0-0.046-0.001-0.069-0.002c-0.526-0.038-0.923-0.495-0.885-1.022
							c0.025-0.35,2.404-35.254-6.259-56.031c-0.203-0.487,0.027-1.047,0.514-1.25c0.487-0.203,1.047,0.027,1.25,0.514
							c8.839,21.198,6.426,56.548,6.401,56.903C107.522,415.456,107.102,415.841,106.605,415.841z"/>
					</g>
					<g>
						<path style="fill:#A200CB;" d="M106.603,395.283c-0.447,0-0.846-0.316-0.936-0.771c-2.5-12.64-14.676-16.261-14.799-16.296
							c-0.507-0.145-0.801-0.674-0.656-1.182c0.145-0.507,0.674-0.801,1.182-0.656c0.547,0.157,13.424,3.989,16.149,17.763
							c0.102,0.518-0.234,1.021-0.752,1.123C106.727,395.276,106.665,395.283,106.603,395.283z"/>
					</g>
					<g>
						<path style="fill:#A200CB;" d="M105.442,380.166c-0.509,0-0.931-0.401-0.954-0.914c-0.571-12.929,5.779-22.484,6.049-22.884
							c0.295-0.438,0.89-0.552,1.327-0.257c0.437,0.296,0.552,0.89,0.257,1.327c-0.081,0.12-6.265,9.473-5.724,21.73
							c0.023,0.527-0.385,0.974-0.912,0.997C105.471,380.166,105.456,380.166,105.442,380.166z"/>
					</g>
					<g>
						<path style="fill:#A200CB;" d="M106.261,387.608c-0.058,0-0.117-0.005-0.176-0.016c-0.519-0.096-0.861-0.595-0.765-1.114
							c0.871-4.684,4.061-8.182,9.225-10.116c3.805-1.425,7.313-1.499,7.461-1.501c0.005,0,0.011,0,0.016,0
							c0.521,0,0.947,0.417,0.955,0.94c0.009,0.527-0.411,0.962-0.939,0.971l0,0c-0.13,0.002-13.035,0.352-14.839,10.056
							C107.114,387.286,106.712,387.608,106.261,387.608z"/>
					</g>
					<g>
						<g>
							<path style="fill:#DC56FF;" d="M84.767,392.935c-11.452,1.849-14.407-3.2-14.407-3.2s5.54-16.747,13.421-18.347
								c6.212-1.264,7.223,3.135,7.373,5.054c0.038,0.519,0.016,0.855,0.016,0.855s0.735-0.126,1.701-0.041
								c1.374,0.123,3.217,0.674,4.085,2.627C98.349,383.012,96.492,391.046,84.767,392.935z"/>
						</g>
						<g>
							<g>
								<path style="fill:#BD10E9;" d="M92.871,377.256c-6.382,1.944-14.407,11.188-14.494,11.289
									c-0.136,0.156-0.328,0.238-0.519,0.238c-0.158,0-0.317-0.055-0.445-0.167c-0.284-0.246-0.317-0.677-0.071-0.961
									c0.347-0.401,7.351-8.47,13.812-11.212c0.038,0.519,0.016,0.855,0.016,0.855S91.905,377.171,92.871,377.256z"/>
							</g>
						</g>
					</g>
					<g>
						<g>
							<path style="fill:#DC56FF;" d="M100.801,358.48c-0.172-0.011-0.35-0.033-0.527-0.063c-0.216,0.248-0.442,0.481-0.68,0.696
								c-3.017,2.763-7.687,3.023-10.893,0.347c-1.409-1.177-3.089-3.68-4.016-6.051c-3.895-9.96-0.544-18.899,6.176-23.451
								c0,0,8.121-2.075,14.246,8.394C111.079,348.554,107.45,359.021,100.801,358.48z"/>
						</g>
						<g>
							<g>
								<path style="fill:#BD10E9;" d="M100.801,358.48c-0.172-0.011-0.35-0.033-0.527-0.063c-0.216,0.248-0.442,0.481-0.68,0.696
									c-3.405-6.357-7.386-24.196-7.564-25.005c-0.082-0.369,0.15-0.732,0.516-0.814c0.369-0.082,0.734,0.15,0.816,0.519
									C93.406,334.011,97.505,352.385,100.801,358.48z"/>
							</g>
						</g>
					</g>
					<g>
						<g>
							<path style="fill:#DC56FF;" d="M135.341,349.701c0,0-10.994,17.574-18.973,16.581c-6.66-0.83-5.715-6.802-5.221-8.757
								c0.098-0.391,0.18-0.62,0.18-0.62s-0.502-0.079-1.18-0.325c-0.983-0.361-2.34-1.081-3.039-2.439
								c-0.229-0.44-0.388-0.948-0.442-1.532c-0.093-1.002,0.412-2.428,1.466-3.864c2.534-3.454,8.23-6.977,16.348-4.869
								C130.865,345.534,135.341,349.701,135.341,349.701z"/>
						</g>
						<g>
							<g>
								<path style="fill:#BD10E9;" d="M128.875,349.409c0.033,0.374-0.243,0.707-0.617,0.743c-8.946,0.83-14.939,5.429-17.11,7.373
									c0.098-0.391,0.18-0.62,0.18-0.62s-0.502-0.079-1.18-0.325c2.236-2.045,8.462-6.903,17.984-7.788
									C128.503,348.759,128.839,349.032,128.875,349.409z"/>
							</g>
						</g>
					</g>
					<g>
						<g>
							<path style="fill:#DC56FF;" d="M136.649,395.816c0,0-20.335-4.03-22.241-11.843c-1.453-5.956,3.362-7.504,5.734-7.902
								c0.74-0.126,1.242-0.139,1.242-0.139s-0.063-0.303-0.095-0.775c-0.093-1.308,0.057-3.929,2.455-5.109
								c3.072-1.51,13.195,1.742,14.492,13.549C138.956,390.153,136.649,395.816,136.649,395.816z"/>
						</g>
						<g>
							<g>
								<path style="fill:#BD10E9;" d="M133.184,390.008c-0.085,0.033-0.172,0.049-0.257,0.049c-0.27,0-0.527-0.161-0.633-0.426
									c-3.383-8.383-11.188-13.017-12.151-13.56c0.74-0.126,1.242-0.139,1.242-0.139s-0.063-0.303-0.095-0.775
									c2.092,1.256,9.014,5.893,12.271,13.962C133.7,389.467,133.533,389.866,133.184,390.008z"/>
							</g>
						</g>
					</g>
				</g>
			</g>
		</g>
		<g>
			<ellipse style="fill:#E5E5E5;" cx="431.213" cy="241.919" rx="21.218" ry="6.857"/>
			<g>
				<g>
					<path style="fill:#51557C;" d="M446.481,210.72v26.942c0,4.495-6.84,8.136-15.268,8.136c-8.428,0-15.262-3.641-15.262-8.136
						V210.72H446.481z"/>
					<ellipse style="fill:#3A4059;" cx="431.213" cy="210.718" rx="15.266" ry="8.141"/>
					<path style="fill:#252B3D;" d="M444.567,210.72c0,0.279-0.096,0.583-0.293,0.912c-1.18,2.002-5.934,4.689-13.061,4.689
						c-7.127,0-11.88-2.687-13.061-4.689c-0.198-0.329-0.293-0.634-0.293-0.912c0-1.977,5.072-5.61,13.354-5.61
						C439.494,205.111,444.567,208.743,444.567,210.72z"/>
				</g>
				<g>
					<path style="fill:#BD10E9;" d="M431.116,209.188l-1.104-0.883l-0.585-0.469l-1.659-1.327c0,0,3.959-38.449,20.296-39.903
						c5.029-0.448,8.71,5.707-1.582,17.212C436.942,194.483,431.116,209.188,431.116,209.188z"/>
					<g>
						<path style="fill:#A200CB;" d="M430.012,208.305l-0.585-0.469c2.029-8.528,5.778-16.532,8.696-21.94
							c3.465-6.421,6.538-10.673,6.569-10.714c0.11-0.152,0.322-0.186,0.473-0.075c0.152,0.11,0.186,0.322,0.076,0.473
							c-0.031,0.043-3.083,4.264-6.527,10.648C435.783,191.663,432.006,199.736,430.012,208.305z"/>
					</g>
				</g>
				<g>
					<path style="fill:#BD10E9;" d="M423.013,196.995l0.839-1.138l0.445-0.604l1.26-1.71c0,0-13.742-36.127-29.901-33.318
						c-4.975,0.864-6.943,7.761,5.968,16.222C413.592,184.29,423.013,196.995,423.013,196.995z"/>
					<g>
						<path style="fill:#A200CB;" d="M423.852,195.857l0.445-0.604c-4.16-7.716-9.847-14.482-14.061-18.954
							c-5.004-5.31-9.07-8.625-9.11-8.657c-0.145-0.118-0.359-0.096-0.476,0.05c-0.118,0.145-0.096,0.359,0.049,0.476
							c0.041,0.033,4.079,3.325,9.052,8.605C413.984,181.267,419.715,188.092,423.852,195.857z"/>
					</g>
				</g>
				<g>
					<path style="fill:#DC56FF;" d="M435.114,211.577c-1.019-4.559-4.946-23.818-2.931-41.816
						c2.487-22.209-7.021-26.382-12.578-21.633c-16.818,14.371,5.984,57.605,9.18,63.449H435.114z"/>
					<g>
						<path style="fill:#BD10E9;" d="M432.944,211.577c-4.594-11.528-6.826-23.806-7.901-32.454
							c-1.296-10.421-1.238-17.963-1.237-18.039c0.003-0.27-0.215-0.492-0.486-0.494c-0.271-0.004-0.493,0.214-0.495,0.485
							c-0.002,0.075-0.059,7.67,1.242,18.152c1.07,8.62,3.284,20.827,7.822,32.349H432.944z"/>
					</g>
				</g>
			</g>
		</g>
	</g>
</g>
<g id="DESIGNED_BY_FREEPIK">
	<g>
		<g id="XMLID_1_">
			<g id="XMLID_20_">
				<path id="XMLID_28_" style="fill:#112129;" d="M260.104,465.465c-0.432,0.443-0.803,0.931-1.108,1.453l-0.465-0.241
					c-0.067-0.298-0.349-0.503-0.659-0.466c-0.331,0.039-0.568,0.339-0.529,0.67c0.039,0.331,0.339,0.568,0.67,0.529
					c0.065-0.008,0.127-0.026,0.183-0.052l0.452,0.234c-0.251,0.554-0.433,1.139-0.539,1.744l0.747,0.132
					c0.23-1.306,0.85-2.507,1.792-3.473L260.104,465.465z"/>
				<path id="XMLID_27_" style="fill:#112129;" d="M265.592,463.163c-0.171,0-0.341,0.006-0.51,0.017l-0.074-0.626
					c0.188-0.149,0.296-0.389,0.266-0.645c-0.046-0.393-0.402-0.674-0.795-0.628c-0.393,0.046-0.674,0.402-0.628,0.795
					c0.03,0.254,0.189,0.461,0.405,0.564l0.073,0.624c-0.714,0.116-1.403,0.332-2.06,0.646l0.327,0.684
					c0.934-0.447,1.942-0.673,2.995-0.673c0.496,0,0.993,0.053,1.475,0.158l0.161-0.741
					C266.692,463.222,266.142,463.163,265.592,463.163z"/>
				<path id="XMLID_26_" style="fill:#112129;" d="M272.194,465.711c0.331-0.04,0.566-0.341,0.526-0.672
					c-0.04-0.331-0.341-0.566-0.672-0.526c-0.309,0.038-0.535,0.304-0.53,0.609l-0.416,0.363c-0.418-0.43-0.89-0.813-1.408-1.139
					l-0.404,0.641c1.134,0.715,2.021,1.726,2.563,2.925l0.691-0.313c-0.251-0.554-0.568-1.072-0.942-1.545l0.402-0.351
					C272.065,465.716,272.129,465.719,272.194,465.711z"/>
				<path id="XMLID_25_" style="fill:#112129;" d="M265.044,473.372c-0.386,0.023-0.775,0.035-1.157,0.035
					c-0.88,0-1.733-0.061-2.478-0.179c-0.39-0.062-0.846-0.155-1.27-0.292c1.046,1.861,3.069,3.125,5.388,3.125
					c2.855,0,5.262-1.916,5.95-4.504c-0.682,0.449-1.505,0.825-2.459,1.123C267.839,473.047,266.464,473.286,265.044,473.372z"/>
				<path id="XMLID_21_" style="fill:#112129;" d="M265.592,464.68c-3.352,0-6.08,2.666-6.08,5.943c0,0.426,0.046,0.849,0.137,1.261
					c0.673,0.483,2.706,0.89,5.348,0.731c2.879-0.173,5.297-0.957,6.672-2.159c-0.005-0.195-0.021-0.39-0.045-0.582
					C271.244,466.913,268.65,464.68,265.592,464.68z M263.432,471.194c-1.02,0-1.85-0.83-1.85-1.85c0-1.02,0.83-1.85,1.85-1.85
					c1.02,0,1.85,0.83,1.85,1.85C265.282,470.365,264.452,471.194,263.432,471.194z M268.17,470.286c-0.75,0-1.36-0.61-1.36-1.36
					s0.61-1.361,1.36-1.361c0.75,0,1.361,0.61,1.361,1.361S268.92,470.286,268.17,470.286z"/>
			</g>
			<path id="XMLID_18_" style="fill:#112129;" d="M281.595,466.547c-0.295-0.116-0.805-0.309-1.382-0.237
				c-0.551,0.069-0.844,0.341-0.844,1.007v0.866h2.228v1.717h-2.228v5.455h-1.932v-5.455h-1.34v-1.717h1.34v-0.888
				c0-1.68,0.896-2.783,2.568-2.783c0.643,0,1.157,0.122,1.59,0.308L281.595,466.547z"/>
			<path id="XMLID_16_" style="fill:#112129;" d="M286.298,469.879c-0.177-0.03-0.358-0.046-0.526-0.046
				c-0.896,0-1.51,0.548-1.51,1.614v3.908h-1.932v-7.172h1.873v0.785c0.451-0.673,1.14-0.977,2.021-0.977
				c0.414,0,0.848,0.128,1.094,0.337L286.298,469.879z"/>
			<path id="XMLID_13_" style="fill:#112129;" d="M293.965,471.757c0,0.222-0.015,0.489-0.037,0.651h-5.085
				c0.207,1.036,0.933,1.488,1.843,1.488c0.622,0,1.295-0.252,1.813-0.688l1.132,1.243c-0.814,0.748-1.85,1.088-3.057,1.088
				c-2.198,0-3.723-1.495-3.723-3.753c0-2.258,1.48-3.797,3.627-3.797C292.544,467.99,293.958,469.522,293.965,471.757z
				 M288.851,471.091h3.175c-0.177-0.918-0.733-1.436-1.562-1.436C289.554,469.655,289.021,470.203,288.851,471.091z"/>
			<path id="XMLID_10_" style="fill:#112129;" d="M301.618,471.757c0,0.222-0.015,0.489-0.037,0.651h-5.085
				c0.207,1.036,0.933,1.488,1.843,1.488c0.622,0,1.295-0.252,1.813-0.688l1.132,1.243c-0.814,0.748-1.85,1.088-3.057,1.088
				c-2.198,0-3.723-1.495-3.723-3.753c0-2.258,1.48-3.797,3.627-3.797C300.197,467.99,301.611,469.522,301.618,471.757z
				 M296.504,471.091h3.175c-0.178-0.918-0.733-1.436-1.562-1.436C297.207,469.655,296.674,470.203,296.504,471.091z"/>
			<path id="XMLID_7_" style="fill:#112129;" d="M309.964,471.764c0,2.154-1.495,3.775-3.471,3.775
				c-0.962,0-1.643-0.378-2.109-0.933v3.708h-1.924v-10.133h1.887v0.792c0.466-0.585,1.155-0.984,2.139-0.984
				C308.469,467.99,309.964,469.61,309.964,471.764z M304.287,471.764c0,1.132,0.747,1.976,1.843,1.976
				c1.14,0,1.85-0.881,1.85-1.976c0-1.095-0.71-1.976-1.85-1.976C305.035,469.788,304.287,470.632,304.287,471.764z"/>
			<path id="XMLID_4_" style="fill:#112129;" d="M313.068,465.836c0,0.696-0.54,1.229-1.236,1.229c-0.696,0-1.229-0.533-1.229-1.229
				c0-0.696,0.533-1.243,1.229-1.243C312.527,464.592,313.068,465.14,313.068,465.836z M312.809,475.354h-1.932v-7.172h1.932
				V475.354z"/>
			<path id="XMLID_2_" style="fill:#112129;" d="M316.032,470.736l2.701-2.554h2.368l-3.479,3.375l3.501,3.797h-2.376l-2.716-2.901
				v2.901H314.1v-10.658h1.932V470.736z"/>
		</g>
		<g>
			<path style="fill:#112129;" d="M184.412,475.289v-1.055c-0.527,0.718-1.391,1.23-2.387,1.23c-1.846,0-3.149-1.406-3.149-3.706
				c0-2.256,1.289-3.721,3.149-3.721c0.952,0,1.816,0.469,2.387,1.245v-3.765h1.099v9.77H184.412z M184.412,473.37v-3.208
				c-0.395-0.615-1.245-1.143-2.124-1.143c-1.421,0-2.27,1.172-2.27,2.739c0,1.567,0.85,2.724,2.27,2.724
				C183.168,474.483,184.017,473.986,184.412,473.37z"/>
			<path style="fill:#112129;" d="M186.932,471.744c0-2.051,1.465-3.706,3.486-3.706c2.139,0,3.398,1.67,3.398,3.794v0.279h-5.727
				c0.088,1.333,1.025,2.446,2.549,2.446c0.805,0,1.626-0.322,2.182-0.894l0.527,0.718c-0.703,0.703-1.655,1.084-2.812,1.084
				C188.44,475.465,186.932,473.956,186.932,471.744z M190.403,468.947c-1.509,0-2.256,1.274-2.314,2.358h4.643
				C192.718,470.25,192.015,468.947,190.403,468.947z"/>
			<path style="fill:#112129;" d="M194.607,474.351l0.571-0.791c0.469,0.542,1.362,1.011,2.329,1.011c1.084,0,1.67-0.513,1.67-1.216
				c0-1.714-4.38-0.659-4.38-3.281c0-1.098,0.952-2.036,2.636-2.036c1.201,0,2.051,0.454,2.622,1.026l-0.513,0.762
				c-0.424-0.513-1.201-0.894-2.109-0.894c-0.967,0-1.567,0.483-1.567,1.113c0,1.552,4.38,0.527,4.38,3.281
				c0,1.187-0.952,2.138-2.783,2.138C196.306,475.465,195.325,475.113,194.607,474.351z"/>
			<path style="fill:#112129;" d="M201.477,466.471c0-0.41,0.337-0.747,0.732-0.747c0.41,0,0.747,0.337,0.747,0.747
				c0,0.41-0.337,0.732-0.747,0.732C201.814,467.203,201.477,466.881,201.477,466.471z M201.667,475.289v-7.075h1.099v7.075H201.667
				z"/>
			<path style="fill:#112129;" d="M204.582,477.105l0.556-0.82c0.586,0.703,1.289,0.967,2.3,0.967c1.172,0,2.27-0.571,2.27-2.124
				v-1.011c-0.513,0.718-1.377,1.26-2.373,1.26c-1.845,0-3.149-1.377-3.149-3.662c0-2.27,1.289-3.677,3.149-3.677
				c0.952,0,1.802,0.469,2.373,1.245v-1.069h1.098v6.87c0,2.344-1.641,3.076-3.369,3.076
				C206.237,478.16,205.417,477.926,204.582,477.105z M209.709,473.253v-3.091c-0.381-0.615-1.23-1.143-2.109-1.143
				c-1.421,0-2.27,1.128-2.27,2.695c0,1.553,0.849,2.695,2.27,2.695C208.478,474.41,209.328,473.868,209.709,473.253z"/>
			<path style="fill:#112129;" d="M217.413,475.289v-4.629c0-1.245-0.63-1.641-1.582-1.641c-0.865,0-1.685,0.527-2.095,1.099v5.17
				h-1.099v-7.075h1.099v1.025c0.498-0.586,1.465-1.201,2.519-1.201c1.48,0,2.256,0.747,2.256,2.285v4.966H217.413z"/>
			<path style="fill:#112129;" d="M219.932,471.744c0-2.051,1.465-3.706,3.486-3.706c2.139,0,3.398,1.67,3.398,3.794v0.279h-5.727
				c0.088,1.333,1.025,2.446,2.549,2.446c0.806,0,1.626-0.322,2.183-0.894l0.527,0.718c-0.703,0.703-1.655,1.084-2.812,1.084
				C221.441,475.465,219.932,473.956,219.932,471.744z M223.404,468.947c-1.509,0-2.256,1.274-2.314,2.358h4.643
				C225.718,470.25,225.015,468.947,223.404,468.947z"/>
			<path style="fill:#112129;" d="M233.35,475.289v-1.055c-0.527,0.718-1.392,1.23-2.388,1.23c-1.846,0-3.149-1.406-3.149-3.706
				c0-2.256,1.289-3.721,3.149-3.721c0.952,0,1.817,0.469,2.388,1.245v-3.765h1.098v9.77H233.35z M233.35,473.37v-3.208
				c-0.396-0.615-1.245-1.143-2.124-1.143c-1.421,0-2.27,1.172-2.27,2.739c0,1.567,0.849,2.724,2.27,2.724
				C232.105,474.483,232.954,473.986,233.35,473.37z"/>
			<path style="fill:#112129;" d="M239.692,475.289v-9.77h1.098v3.765c0.572-0.776,1.421-1.245,2.388-1.245
				c1.845,0,3.149,1.465,3.149,3.721c0,2.299-1.304,3.706-3.149,3.706c-0.996,0-1.86-0.513-2.388-1.23v1.055H239.692z
				 M242.9,474.483c1.436,0,2.285-1.157,2.285-2.724c0-1.568-0.85-2.739-2.285-2.739c-0.864,0-1.728,0.527-2.109,1.143v3.208
				C241.171,473.986,242.036,474.483,242.9,474.483z"/>
			<path style="fill:#112129;" d="M247.528,477.061c0.161,0.073,0.425,0.117,0.601,0.117c0.483,0,0.805-0.161,1.055-0.747
				l0.469-1.069l-2.959-7.148h1.187l2.358,5.8l2.344-5.8h1.201l-3.545,8.51c-0.425,1.025-1.143,1.421-2.08,1.435
				c-0.234,0-0.601-0.044-0.806-0.103L247.528,477.061z"/>
		</g>
	</g>
</g>
</svg>
